<?xml version="1.0" encoding="utf-8"?>
<!DOCTYPE svg PUBLIC "-//W3C//DTD SVG 1.1//EN" "http://www.w3.org/Graphics/SVG/1.1/DTD/svg11.dtd">
<svg version="1.1" id="Layer_1" xmlns="http://www.w3.org/2000/svg" xmlns:xlink="http://www.w3.org/1999/xlink" x="0px" y="0px"
	 width="22px" height="19px" viewBox="0 0 22 19" enable-background="new 0 0 22 19" xml:space="preserve">
<style type="text/css">
	.st0{fill:#4C4C4C;}
</style>
<g>
	<path class="st0" d="M22,15H0V0h22V15z M1,14h20V1H1V14z"/>
</g>
<path class="st0" d="M13.7,17.7c-0.3-0.1-0.6-0.8-0.7-1.2v-2.5h-1v2.5c0,0,0.2,0.9,0.6,1.4H9.5c0.3-0.5,0.5-1.1,0.5-1.3v-2.7H9v2.5
	c-0.1,0.4-0.4,1-0.6,1.2c-0.2,0.1-0.6,0.3-0.5,0.8C7.9,18.7,8,19,8.6,19h4.9c0.6,0,0.7-0.3,0.8-0.5C14.3,18,13.8,17.8,13.7,17.7z"/>
</svg>
