<?xml version="1.0" encoding="utf-8"?>
<!-- Generator: Adobe Illustrator 16.0.0, SVG Export Plug-In . SVG Version: 6.00 Build 0)  -->
<!DOCTYPE svg PUBLIC "-//W3C//DTD SVG 1.1//EN" "http://www.w3.org/Graphics/SVG/1.1/DTD/svg11.dtd">
<svg version="1.1" xmlns="http://www.w3.org/2000/svg" xmlns:xlink="http://www.w3.org/1999/xlink" x="0px" y="0px" width="224px"
	 height="430px" viewBox="0 0 224 430" enable-background="new 0 0 224 430" xml:space="preserve">
<g id="Layer_1">
	<path fill="#FFFFFF" d="M1,1v30v391h9h2h204v-47V31V1H1z M12,375V31h193v344H12z"/>
	<path fill="none" stroke="#898989" stroke-miterlimit="10" d="M206.5,376"/>
	<g>
		<circle fill="#898989" cx="100.188" cy="15" r="1.562"/>
		<circle fill="#898989" cx="108" cy="15" r="1.562"/>
		<circle fill="#898989" cx="115.812" cy="15" r="1.562"/>
		<path fill="#898989" d="M119.026,387.508c-0.011-0.012-0.022-0.021-0.032-0.032c-0.001-0.001-0.001-0.001-0.002-0.002
			s-0.001-0.001-0.002-0.002c-2.891-3.159-6.983-4.972-11.24-4.972c-8.409,0-15.25,6.841-15.25,15.25
			c0,4.273,1.825,8.384,5.007,11.276c2.819,2.562,6.457,3.974,10.243,3.974c8.409,0,15.25-6.841,15.25-15.25
			c0-3.771-1.401-7.392-3.977-10.239L119.026,387.508z M94.06,394.713c-0.073,0.263-0.146,0.525-0.205,0.794
			c-0.047,0.218-0.082,0.44-0.12,0.662c-0.046,0.27-0.092,0.539-0.125,0.813c-0.026,0.229-0.04,0.459-0.056,0.689
			c-0.013,0.189-0.04,0.374-0.046,0.565c-0.005-0.162-0.008-0.324-0.008-0.487c0-7.857,6.393-14.25,14.25-14.25
			c0.163,0,0.326,0.003,0.488,0.009c-0.186,0.006-0.366,0.032-0.549,0.045c-0.239,0.017-0.477,0.031-0.713,0.059
			c-0.266,0.03-0.526,0.076-0.788,0.12c-0.23,0.039-0.461,0.075-0.688,0.124c-0.259,0.057-0.513,0.129-0.768,0.198
			c-0.22,0.061-0.441,0.115-0.657,0.186c-0.252,0.081-0.497,0.178-0.744,0.272c-0.208,0.079-0.419,0.153-0.623,0.241
			c-0.247,0.106-0.483,0.229-0.723,0.349c-0.193,0.097-0.39,0.185-0.578,0.289c-0.242,0.134-0.472,0.283-0.706,0.429
			c-0.174,0.109-0.354,0.21-0.523,0.325c-0.247,0.169-0.481,0.354-0.717,0.537c-0.143,0.11-0.292,0.211-0.431,0.326
			c-0.331,0.274-0.647,0.566-0.955,0.868c-0.063,0.062-0.127,0.125-0.19,0.188c-0.305,0.311-0.6,0.631-0.878,0.966
			c-0.11,0.133-0.206,0.275-0.311,0.41c-0.188,0.244-0.379,0.484-0.553,0.739c-0.11,0.162-0.206,0.333-0.31,0.499
			c-0.152,0.241-0.307,0.48-0.445,0.73c-0.1,0.181-0.184,0.369-0.276,0.554c-0.124,0.248-0.251,0.493-0.361,0.749
			c-0.085,0.195-0.155,0.397-0.231,0.598c-0.098,0.255-0.198,0.509-0.283,0.77C94.171,394.288,94.118,394.501,94.06,394.713z
			 M122,397.75c0,7.857-6.393,14.25-14.25,14.25c-3.537,0-6.936-1.319-9.536-3.68c-2.395-2.635-3.714-6.033-3.714-9.57
			c0-7.857,6.393-14.25,14.25-14.25c3.529,0,6.92,1.314,9.552,3.698C120.686,390.83,122,394.221,122,397.75z"/>
		<polygon fill="#898989" points="223,7 223,428 222,428 222,429 7,429 7,430 224,430 224,7 		"/>
		<polygon fill="#898989" points="6,428 6,427 5,427 5,428 6,428 6,429 7,429 7,428 		"/>
		<rect x="4" y="426" fill="#898989" width="1" height="1"/>
		<rect x="3" y="425" fill="#898989" width="1" height="1"/>
		<rect x="2" y="424" fill="#898989" width="1" height="1"/>
		<rect x="221" y="427" fill="#898989" width="1" height="1"/>
		<rect x="220" y="426" fill="#898989" width="1" height="1"/>
		<rect x="219" y="425" fill="#898989" width="1" height="1"/>
		<rect x="218" y="424" fill="#898989" width="1" height="1"/>
		<rect x="217" y="423" fill="#898989" width="1" height="1"/>
		<rect x="222" y="6" fill="#898989" width="1" height="1"/>
		<rect x="221" y="5" fill="#898989" width="1" height="1"/>
		<rect x="220" y="4" fill="#898989" width="1" height="1"/>
		<rect x="219" y="3" fill="#898989" width="1" height="1"/>
		<rect x="218" y="2" fill="#898989" width="1" height="1"/>
		<path fill="#898989" d="M218,2V1h-1V0H0v423h1v1h1v-1h215V2H218z M216,422H1V1h215V422z"/>
		<path fill="#898989" d="M204,375h1v-1V35v-4H12v344h4H204z M204,374H16V35h188V374z M15,374h-2V33h1v1h1v-1h-1v-1h190v2H15V374z"
			/>
	</g>
	<polygon fill="#FFFFFF" points="222,7 222,6 221,6 221,5 220,5 220,4 219,4 219,3 218,3 218,2 217,2 217,3 217,4 217,5 217,6 
		217,7 217,423 218,423 218,424 219,424 219,425 220,425 220,426 221,426 221,427 222,427 222,428 223,428 223,423 223,7 	"/>
	<polygon fill="#FFFFFF" points="221,428 221,427 220,427 220,426 219,426 219,425 218,425 218,424 217,424 217,423 7,423 2,423 
		2,424 3,424 3,425 4,425 4,426 5,426 5,427 6,427 6,428 7,428 7,429 217,429 218,429 219,429 220,429 221,429 222,429 222,428 	"/>
	<polygon fill="#FFFFFF" points="15,32 14,32 14,33 15,33 15,34 204,34 204,32 	"/>
	<polygon fill="#FFFFFF" points="14,34 14,33 13,33 13,34 13,374 15,374 15,34 	"/>
</g>
<g id="Layer_2">
</g>
</svg>
