<svg version="1.1" xmlns="http://www.w3.org/2000/svg" xmlns:xlink="http://www.w3.org/1999/xlink" preserveAspectRatio="xMinYMin meet" viewBox="0 0 365 225">
  <style type="text/css">
    .mainDocLine {
      transform: translateX(-2px);
    }

    @keyframes CARET_BLINK {
      0%     { fill: transparent; }
      50%    { fill: transparent; }
      50.01% { fill: #000; }
      100%   { fill: #000; }
    }

    .caret {
      fill: transparent;
    }

    .caret.visible {
      fill: #000;
    }

    .caret.blinking {
      animation: CARET_BLINK 1s linear infinite;
    }

    @keyframes CARET_SHOW {
      0%     { fill: #000; }
      100%   { fill: #000; }
    }

    .caret.animate {
      animation-name: CARET_SHOW;
      animation-duration: 850ms;
      animation-iteration-count: 1;
    }

    .lineCover.last .caret.animate {
      animation-fill-mode: forwards;
    }

    .lineCover {
      transition-property: transform;
      transition-duration: 850ms;
      transition-timing-function: linear;
    }

    .lineCover.last {
      transition-duration: 425ms;
    }

    .lineCover.animate {
      transform: translateX(186px);
    }

    .lineCover.last.animate {
      transform: translateX(93px);
    }

    #dropDown {
      transition: transform 750ms ease-out;
    }

    #dropDown.closed {
      transform: translateY(224px);
    }

    @keyframes HIGHLIGHT {
      0%     { fill: #ffffff; }
      50%    { fill: #000000; }
      100%   { fill: #ffffff; }
    }

    @keyframes TEXT {
      0%     { stroke: #000000; }
      50%    { stroke: #ffffff; }
      100%   { stroke: #000000; }
    }

    .optionHighlight.selected,
    .optionText.selected {
      animation-duration: 500ms;
      animation-iteration-count: 1;
    }

    .optionHighlight.last.selected,
    .optionText.last.selected {
      animation-iteration-count: 0.5;
      animation-fill-mode: forwards;
    }

    .optionHighlight.selected {
      animation-name: HIGHLIGHT;
    }

    .optionText.selected {
      animation-name: TEXT;
    }
  </style>
  <path class="mainDocLine" id="line_1" fill="none" stroke="#000000" stroke-miterlimit="10" d="M92,72.334c1.238,0,2.418-0.473,3.313-1.313
    c0.056-0.059,0.435-0.431,0.435-0.431C96.716,69.564,98.02,69,99.424,69c1.404,0,2.707,0.564,3.675,1.59
    c0,0,0.379,0.372,0.434,0.431c0.895,0.841,2.075,1.313,3.314,1.313c1.238,0,2.418-0.473,3.314-1.313
    c0.055-0.059,0.434-0.431,0.434-0.431c0.967-1.025,2.272-1.59,3.675-1.59c1.404,0,2.708,0.564,3.676,1.59
    c0,0,0.38,0.372,0.434,0.431c0.896,0.841,2.076,1.313,3.313,1.313c1.238,0,2.419-0.473,3.314-1.313
    c0.055-0.059,0.434-0.431,0.434-0.431c0.968-1.025,2.272-1.59,3.676-1.59s2.708,0.564,3.676,1.59c0,0,0.378,0.372,0.433,0.431
    c0.896,0.841,2.076,1.313,3.313,1.313c1.239,0,2.418-0.473,3.314-1.313c0.056-0.059,0.434-0.431,0.434-0.431
    c0.968-1.025,2.271-1.59,3.676-1.59c1.404,0,2.707,0.564,3.676,1.59c0,0,0.379,0.372,0.435,0.431
    c0.895,0.841,2.075,1.313,3.313,1.313c1.238,0,2.418-0.473,3.313-1.313c0.056-0.059,0.436-0.431,0.436-0.431
    c0.968-1.025,2.271-1.59,3.675-1.59c1.404,0,2.708,0.564,3.676,1.59c0,0,0.378,0.372,0.434,0.431
    c0.895,0.841,2.076,1.313,3.314,1.313c1.238,0,2.418-0.473,3.313-1.313c0.055-0.059,0.434-0.431,0.434-0.431
    c0.968-1.025,2.271-1.59,3.675-1.59c1.404,0,2.708,0.564,3.676,1.59c0,0,0.379,0.372,0.434,0.431
    c0.896,0.841,2.076,1.313,3.314,1.313c1.237,0,2.418-0.473,3.312-1.313c0.056-0.059,0.436-0.431,0.436-0.431
    c0.969-1.025,2.271-1.59,3.676-1.59c1.402,0,2.706,0.564,3.675,1.59c0,0,0.38,0.372,0.435,0.431
    c0.895,0.841,2.075,1.313,3.313,1.313s2.419-0.473,3.314-1.313c0.055-0.059,0.434-0.431,0.434-0.431
    c0.968-1.025,2.272-1.59,3.676-1.59c1.404,0,2.708,0.564,3.676,1.59c0,0,0.379,0.372,0.434,0.431
    c0.896,0.841,2.076,1.313,3.313,1.313h0.067c1.237,0,2.419-0.473,3.313-1.313c0.055-0.059,0.434-0.431,0.434-0.431
    c0.969-1.025,2.272-1.59,3.677-1.59c1.403,0,2.707,0.564,3.675,1.59c0,0,0.38,0.372,0.435,0.431
    c0.896,0.841,2.075,1.313,3.313,1.313s2.419-0.473,3.314-1.313c0.055-0.059,0.434-0.431,0.434-0.431
    c0.968-1.025,2.272-1.59,3.676-1.59c1.404,0,2.708,0.564,3.676,1.59c0,0,0.38,0.372,0.434,0.431
    c0.896,0.841,2.076,1.313,3.314,1.313c1.237,0,2.418-0.473,3.314-1.313c0.055-0.059,0.434-0.431,0.434-0.431
    c0.967-1.025,2.271-1.59,3.676-1.59c1.403,0,2.707,0.564,3.676,1.59c0,0,0.379,0.372,0.434,0.431
    c0.896,0.841,2.076,1.313,3.312,1.313c1.239,0,2.419-0.473,3.314-1.313c0.057-0.059,0.435-0.431,0.435-0.431
    c0.968-1.025,2.271-1.59,3.676-1.59c1.403,0,2.707,0.564,3.676,1.59c0,0,0.379,0.372,0.435,0.431
    c0.895,0.841,2.075,1.313,3.312,1.313c1.238,0,2.419-0.473,3.313-1.313c0.056-0.059,0.436-0.431,0.436-0.431
    c0.968-1.025,2.271-1.59,3.675-1.59"/>
  <path class="mainDocLine" id="line_2" fill="none" stroke="#000000" stroke-miterlimit="10" d="M92,93.334c1.238,0,2.418-0.473,3.313-1.313
    c0.056-0.059,0.435-0.431,0.435-0.431C96.716,90.564,98.02,90,99.424,90c1.404,0,2.707,0.564,3.675,1.59
    c0,0,0.379,0.372,0.434,0.431c0.895,0.841,2.075,1.313,3.314,1.313c1.238,0,2.418-0.473,3.314-1.313
    c0.055-0.059,0.434-0.431,0.434-0.431c0.967-1.025,2.272-1.59,3.675-1.59c1.404,0,2.708,0.564,3.676,1.59
    c0,0,0.38,0.372,0.434,0.431c0.896,0.841,2.076,1.313,3.313,1.313c1.238,0,2.419-0.473,3.314-1.313
    c0.055-0.059,0.434-0.431,0.434-0.431c0.968-1.025,2.272-1.59,3.676-1.59s2.708,0.564,3.676,1.59c0,0,0.378,0.372,0.433,0.431
    c0.896,0.841,2.076,1.313,3.313,1.313c1.239,0,2.418-0.473,3.314-1.313c0.056-0.059,0.434-0.431,0.434-0.431
    c0.968-1.025,2.271-1.59,3.676-1.59c1.404,0,2.707,0.564,3.676,1.59c0,0,0.379,0.372,0.435,0.431
    c0.895,0.841,2.075,1.313,3.313,1.313c1.238,0,2.418-0.473,3.313-1.313c0.056-0.059,0.436-0.431,0.436-0.431
    c0.968-1.025,2.271-1.59,3.675-1.59c1.404,0,2.708,0.564,3.676,1.59c0,0,0.378,0.372,0.434,0.431
    c0.895,0.841,2.076,1.313,3.314,1.313c1.238,0,2.418-0.473,3.313-1.313c0.055-0.059,0.434-0.431,0.434-0.431
    c0.968-1.025,2.271-1.59,3.675-1.59c1.404,0,2.708,0.564,3.676,1.59c0,0,0.379,0.372,0.434,0.431
    c0.896,0.841,2.076,1.313,3.314,1.313c1.237,0,2.418-0.473,3.312-1.313c0.056-0.059,0.436-0.431,0.436-0.431
    c0.969-1.025,2.271-1.59,3.676-1.59c1.402,0,2.706,0.564,3.675,1.59c0,0,0.38,0.372,0.435,0.431
    c0.895,0.841,2.075,1.313,3.313,1.313s2.419-0.473,3.314-1.313c0.055-0.059,0.434-0.431,0.434-0.431
    c0.968-1.025,2.272-1.59,3.676-1.59c1.404,0,2.708,0.564,3.676,1.59c0,0,0.379,0.372,0.434,0.431
    c0.896,0.841,2.076,1.313,3.313,1.313h0.067c1.237,0,2.419-0.473,3.313-1.313c0.055-0.059,0.434-0.431,0.434-0.431
    c0.969-1.025,2.272-1.59,3.677-1.59c1.403,0,2.707,0.564,3.675,1.59c0,0,0.38,0.372,0.435,0.431
    c0.896,0.841,2.075,1.313,3.313,1.313s2.419-0.473,3.314-1.313c0.055-0.059,0.434-0.431,0.434-0.431
    c0.968-1.025,2.272-1.59,3.676-1.59c1.404,0,2.708,0.564,3.676,1.59c0,0,0.38,0.372,0.434,0.431
    c0.896,0.841,2.076,1.313,3.314,1.313c1.237,0,2.418-0.473,3.314-1.313c0.055-0.059,0.434-0.431,0.434-0.431
    c0.967-1.025,2.271-1.59,3.676-1.59c1.403,0,2.707,0.564,3.676,1.59c0,0,0.379,0.372,0.434,0.431
    c0.896,0.841,2.076,1.313,3.312,1.313c1.239,0,2.419-0.473,3.314-1.313c0.057-0.059,0.435-0.431,0.435-0.431
    c0.968-1.025,2.271-1.59,3.676-1.59c1.403,0,2.707,0.564,3.676,1.59c0,0,0.379,0.372,0.435,0.431
    c0.895,0.841,2.075,1.313,3.312,1.313c1.238,0,2.419-0.473,3.313-1.313c0.056-0.059,0.436-0.431,0.436-0.431
    c0.968-1.025,2.271-1.59,3.675-1.59"/>
  <path class="mainDocLine" id="line_3" fill="none" stroke="#000000" stroke-miterlimit="10" d="M92,114.334c1.238,0,2.418-0.473,3.313-1.313
    c0.056-0.059,0.435-0.431,0.435-0.431c0.969-1.025,2.272-1.59,3.676-1.59c1.404,0,2.707,0.564,3.675,1.59
    c0,0,0.379,0.372,0.434,0.431c0.895,0.841,2.075,1.313,3.314,1.313c1.238,0,2.418-0.473,3.314-1.313
    c0.055-0.059,0.434-0.431,0.434-0.431c0.967-1.025,2.272-1.59,3.675-1.59c1.404,0,2.708,0.564,3.676,1.59
    c0,0,0.38,0.372,0.434,0.431c0.896,0.841,2.076,1.313,3.313,1.313c1.238,0,2.419-0.473,3.314-1.313
    c0.055-0.059,0.434-0.431,0.434-0.431c0.968-1.025,2.272-1.59,3.676-1.59s2.708,0.564,3.676,1.59c0,0,0.378,0.372,0.433,0.431
    c0.896,0.841,2.076,1.313,3.313,1.313c1.239,0,2.418-0.473,3.314-1.313c0.056-0.059,0.434-0.431,0.434-0.431
    c0.968-1.025,2.271-1.59,3.676-1.59c1.404,0,2.707,0.564,3.676,1.59c0,0,0.379,0.372,0.435,0.431
    c0.895,0.841,2.075,1.313,3.313,1.313c1.238,0,2.418-0.473,3.313-1.313c0.056-0.059,0.436-0.431,0.436-0.431
    c0.968-1.025,2.271-1.59,3.675-1.59c1.404,0,2.708,0.564,3.676,1.59c0,0,0.378,0.372,0.434,0.431
    c0.895,0.841,2.076,1.313,3.314,1.313c1.238,0,2.418-0.473,3.313-1.313c0.055-0.059,0.434-0.431,0.434-0.431
    c0.968-1.025,2.271-1.59,3.675-1.59c1.404,0,2.708,0.564,3.676,1.59c0,0,0.379,0.372,0.434,0.431
    c0.896,0.841,2.076,1.313,3.314,1.313c1.237,0,2.418-0.473,3.312-1.313c0.056-0.059,0.436-0.431,0.436-0.431
    c0.969-1.025,2.271-1.59,3.676-1.59c1.402,0,2.706,0.564,3.675,1.59c0,0,0.38,0.372,0.435,0.431
    c0.895,0.841,2.075,1.313,3.313,1.313s2.419-0.473,3.314-1.313c0.055-0.059,0.434-0.431,0.434-0.431
    c0.968-1.025,2.272-1.59,3.676-1.59c1.404,0,2.708,0.564,3.676,1.59c0,0,0.379,0.372,0.434,0.431
    c0.896,0.841,2.076,1.313,3.313,1.313h0.067c1.237,0,2.419-0.473,3.313-1.313c0.055-0.059,0.434-0.431,0.434-0.431
    c0.969-1.025,2.272-1.59,3.677-1.59c1.403,0,2.707,0.564,3.675,1.59c0,0,0.38,0.372,0.435,0.431
    c0.896,0.841,2.075,1.313,3.313,1.313s2.419-0.473,3.314-1.313c0.055-0.059,0.434-0.431,0.434-0.431
    c0.968-1.025,2.272-1.59,3.676-1.59c1.404,0,2.708,0.564,3.676,1.59c0,0,0.38,0.372,0.434,0.431
    c0.896,0.841,2.076,1.313,3.314,1.313c1.237,0,2.418-0.473,3.314-1.313c0.055-0.059,0.434-0.431,0.434-0.431
    c0.967-1.025,2.271-1.59,3.676-1.59c1.403,0,2.707,0.564,3.676,1.59c0,0,0.379,0.372,0.434,0.431
    c0.896,0.841,2.076,1.313,3.312,1.313c1.239,0,2.419-0.473,3.314-1.313c0.057-0.059,0.435-0.431,0.435-0.431
    c0.968-1.025,2.271-1.59,3.676-1.59c1.403,0,2.707,0.564,3.676,1.59c0,0,0.379,0.372,0.435,0.431
    c0.895,0.841,2.075,1.313,3.312,1.313c1.238,0,2.419-0.473,3.313-1.313c0.056-0.059,0.436-0.431,0.436-0.431
    c0.968-1.025,2.271-1.59,3.675-1.59"/>
  <path class="mainDocLine" id="line_4" fill="none" stroke="#000000" stroke-miterlimit="10" d="M92,135.334c1.238,0,2.418-0.473,3.313-1.313
    c0.056-0.059,0.435-0.431,0.435-0.431c0.969-1.025,2.272-1.59,3.676-1.59c1.404,0,2.707,0.564,3.675,1.59
    c0,0,0.379,0.372,0.434,0.431c0.895,0.841,2.075,1.313,3.314,1.313c1.238,0,2.418-0.473,3.314-1.313
    c0.055-0.059,0.434-0.431,0.434-0.431c0.967-1.025,2.272-1.59,3.675-1.59c1.404,0,2.708,0.564,3.676,1.59
    c0,0,0.38,0.372,0.434,0.431c0.896,0.841,2.076,1.313,3.313,1.313c1.238,0,2.419-0.473,3.314-1.313
    c0.055-0.059,0.434-0.431,0.434-0.431c0.968-1.025,2.272-1.59,3.676-1.59s2.708,0.564,3.676,1.59c0,0,0.378,0.372,0.433,0.431
    c0.896,0.841,2.076,1.313,3.313,1.313c1.239,0,2.418-0.473,3.314-1.313c0.056-0.059,0.434-0.431,0.434-0.431
    c0.968-1.025,2.271-1.59,3.676-1.59c1.404,0,2.707,0.564,3.676,1.59c0,0,0.379,0.372,0.435,0.431
    c0.895,0.841,2.075,1.313,3.313,1.313c1.238,0,2.418-0.473,3.313-1.313c0.056-0.059,0.436-0.431,0.436-0.431
    c0.968-1.025,2.271-1.59,3.675-1.59c1.404,0,2.708,0.564,3.676,1.59c0,0,0.378,0.372,0.434,0.431
    c0.895,0.841,2.076,1.313,3.314,1.313c1.238,0,2.418-0.473,3.313-1.313c0.055-0.059,0.434-0.431,0.434-0.431
    c0.968-1.025,2.271-1.59,3.675-1.59c1.404,0,2.708,0.564,3.676,1.59c0,0,0.379,0.372,0.434,0.431
    c0.896,0.841,2.076,1.313,3.314,1.313c1.237,0,2.418-0.473,3.312-1.313c0.056-0.059,0.436-0.431,0.436-0.431
    c0.969-1.025,2.271-1.59,3.676-1.59c1.402,0,2.706,0.564,3.675,1.59c0,0,0.38,0.372,0.435,0.431
    c0.895,0.841,2.075,1.313,3.313,1.313s2.419-0.473,3.314-1.313c0.055-0.059,0.434-0.431,0.434-0.431
    c0.968-1.025,2.272-1.59,3.676-1.59c1.404,0,2.708,0.564,3.676,1.59c0,0,0.379,0.372,0.434,0.431
    c0.896,0.841,2.076,1.313,3.313,1.313h0.067c1.237,0,2.419-0.473,3.313-1.313c0.055-0.059,0.434-0.431,0.434-0.431
    c0.969-1.025,2.272-1.59,3.677-1.59c1.403,0,2.707,0.564,3.675,1.59c0,0,0.38,0.372,0.435,0.431
    c0.896,0.841,2.075,1.313,3.313,1.313s2.419-0.473,3.314-1.313c0.055-0.059,0.434-0.431,0.434-0.431
    c0.968-1.025,2.272-1.59,3.676-1.59c1.404,0,2.708,0.564,3.676,1.59c0,0,0.38,0.372,0.434,0.431
    c0.896,0.841,2.076,1.313,3.314,1.313c1.237,0,2.418-0.473,3.314-1.313c0.055-0.059,0.434-0.431,0.434-0.431
    c0.967-1.025,2.271-1.59,3.676-1.59c1.403,0,2.707,0.564,3.676,1.59c0,0,0.379,0.372,0.434,0.431
    c0.896,0.841,2.076,1.313,3.312,1.313c1.239,0,2.419-0.473,3.314-1.313c0.057-0.059,0.435-0.431,0.435-0.431
    c0.968-1.025,2.271-1.59,3.676-1.59c1.403,0,2.707,0.564,3.676,1.59c0,0,0.379,0.372,0.435,0.431
    c0.895,0.841,2.075,1.313,3.312,1.313c1.238,0,2.419-0.473,3.313-1.313c0.056-0.059,0.436-0.431,0.436-0.431
    c0.968-1.025,2.271-1.59,3.675-1.59"/>
  <path class="mainDocLine" id="line_5" fill="none" stroke="#000000" stroke-miterlimit="10" d="M92,156.334c1.238,0,2.418-0.473,3.313-1.313
    c0.056-0.059,0.435-0.431,0.435-0.431c0.969-1.025,2.272-1.59,3.676-1.59c1.404,0,2.707,0.564,3.675,1.59
    c0,0,0.379,0.372,0.434,0.431c0.895,0.841,2.075,1.313,3.314,1.313c1.238,0,2.418-0.473,3.314-1.313
    c0.055-0.059,0.434-0.431,0.434-0.431c0.967-1.025,2.272-1.59,3.675-1.59c1.404,0,2.708,0.564,3.676,1.59
    c0,0,0.38,0.372,0.434,0.431c0.896,0.841,2.076,1.313,3.313,1.313c1.238,0,2.419-0.473,3.314-1.313
    c0.055-0.059,0.434-0.431,0.434-0.431c0.968-1.025,2.272-1.59,3.676-1.59s2.708,0.564,3.676,1.59c0,0,0.378,0.372,0.433,0.431
    c0.896,0.841,2.076,1.313,3.313,1.313c1.239,0,2.418-0.473,3.314-1.313c0.056-0.059,0.434-0.431,0.434-0.431
    c0.968-1.025,2.271-1.59,3.676-1.59c1.404,0,2.707,0.564,3.676,1.59c0,0,0.379,0.372,0.435,0.431
    c0.895,0.841,2.075,1.313,3.313,1.313c1.238,0,2.418-0.473,3.313-1.313c0.056-0.059,0.436-0.431,0.436-0.431
    c0.968-1.025,2.271-1.59,3.675-1.59c1.404,0,2.708,0.564,3.676,1.59c0,0,0.378,0.372,0.434,0.431
    c0.895,0.841,2.076,1.313,3.314,1.313c1.238,0,2.418-0.473,3.313-1.313c0.055-0.059,0.434-0.431,0.434-0.431
    c0.968-1.025,2.271-1.59,3.675-1.59c1.404,0,2.708,0.564,3.676,1.59c0,0,0.379,0.372,0.434,0.431
    c0.896,0.841,2.076,1.313,3.314,1.313c1.237,0,2.418-0.473,3.312-1.313c0.056-0.059,0.436-0.431,0.436-0.431
    c0.969-1.025,2.271-1.59,3.676-1.59c1.402,0,2.706,0.564,3.675,1.59c0,0,0.38,0.372,0.435,0.431
    c0.895,0.841,2.075,1.313,3.313,1.313s2.419-0.473,3.314-1.313c0.055-0.059,0.434-0.431,0.434-0.431
    c0.968-1.025,2.272-1.59,3.676-1.59c1.404,0,2.708,0.564,3.676,1.59c0,0,0.379,0.372,0.434,0.431
    c0.896,0.841,2.076,1.313,3.313,1.313h0.067c1.237,0,2.419-0.473,3.313-1.313c0.055-0.059,0.434-0.431,0.434-0.431
    c0.969-1.025,2.272-1.59,3.677-1.59c1.403,0,2.707,0.564,3.675,1.59c0,0,0.38,0.372,0.435,0.431
    c0.896,0.841,2.075,1.313,3.313,1.313s2.419-0.473,3.314-1.313c0.055-0.059,0.434-0.431,0.434-0.431
    c0.968-1.025,2.272-1.59,3.676-1.59c1.404,0,2.708,0.564,3.676,1.59c0,0,0.38,0.372,0.434,0.431
    c0.896,0.841,2.076,1.313,3.314,1.313c1.237,0,2.418-0.473,3.314-1.313c0.055-0.059,0.434-0.431,0.434-0.431
    c0.967-1.025,2.271-1.59,3.676-1.59c1.403,0,2.707,0.564,3.676,1.59c0,0,0.379,0.372,0.434,0.431
    c0.896,0.841,2.076,1.313,3.312,1.313c1.239,0,2.419-0.473,3.314-1.313c0.057-0.059,0.435-0.431,0.435-0.431
    c0.968-1.025,2.271-1.59,3.676-1.59c1.403,0,2.707,0.564,3.676,1.59c0,0,0.379,0.372,0.435,0.431
    c0.895,0.841,2.075,1.313,3.312,1.313c1.238,0,2.419-0.473,3.313-1.313c0.056-0.059,0.436-0.431,0.436-0.431
    c0.968-1.025,2.271-1.59,3.675-1.59"/>
  <path class="mainDocLine" id="line_6" fill="none" stroke="#000000" stroke-miterlimit="10" d="M92,177.334c1.238,0,2.418-0.473,3.313-1.313
    c0.056-0.059,0.435-0.431,0.435-0.431c0.969-1.025,2.272-1.59,3.676-1.59c1.404,0,2.707,0.564,3.675,1.59
    c0,0,0.379,0.372,0.434,0.431c0.895,0.841,2.075,1.313,3.314,1.313c1.238,0,2.418-0.473,3.314-1.313
    c0.055-0.059,0.434-0.431,0.434-0.431c0.967-1.025,2.272-1.59,3.675-1.59c1.404,0,2.708,0.564,3.676,1.59
    c0,0,0.38,0.372,0.434,0.431c0.896,0.841,2.076,1.313,3.313,1.313c1.238,0,2.419-0.473,3.314-1.313
    c0.055-0.059,0.434-0.431,0.434-0.431c0.968-1.025,2.272-1.59,3.676-1.59s2.708,0.564,3.676,1.59c0,0,0.378,0.372,0.433,0.431
    c0.896,0.841,2.076,1.313,3.313,1.313c1.239,0,2.418-0.473,3.314-1.313c0.056-0.059,0.434-0.431,0.434-0.431
    c0.968-1.025,2.271-1.59,3.676-1.59c1.404,0,2.707,0.564,3.676,1.59c0,0,0.379,0.372,0.435,0.431
    c0.895,0.841,2.075,1.313,3.313,1.313c1.238,0,2.418-0.473,3.313-1.313c0.056-0.059,0.436-0.431,0.436-0.431
    c0.968-1.025,2.271-1.59,3.675-1.59c1.404,0,2.708,0.564,3.676,1.59c0,0,0.378,0.372,0.434,0.431
    c0.895,0.841,2.076,1.313,3.314,1.313c1.238,0,2.418-0.473,3.313-1.313c0.055-0.059,0.434-0.431,0.434-0.431
    c0.968-1.025,2.271-1.59,3.675-1.59c1.404,0,2.708,0.564,3.676,1.59c0,0,0.379,0.372,0.434,0.431
    c0.896,0.841,2.076,1.313,3.314,1.313c1.237,0,2.418-0.473,3.312-1.313c0.056-0.059,0.436-0.431,0.436-0.431
    c0.969-1.025,2.271-1.59,3.676-1.59c1.402,0,2.706,0.564,3.675,1.59c0,0,0.38,0.372,0.435,0.431
    c0.895,0.841,2.075,1.313,3.313,1.313s2.419-0.473,3.314-1.313c0.055-0.059,0.434-0.431,0.434-0.431
    c0.968-1.025,2.272-1.59,3.676-1.59c1.404,0,2.708,0.564,3.676,1.59c0,0,0.379,0.372,0.434,0.431
    c0.896,0.841,2.076,1.313,3.313,1.313h0.067c1.237,0,2.419-0.473,3.313-1.313c0.055-0.059,0.434-0.431,0.434-0.431
    c0.969-1.025,2.272-1.59,3.677-1.59c1.403,0,2.707,0.564,3.675,1.59c0,0,0.38,0.372,0.435,0.431
    c0.896,0.841,2.075,1.313,3.313,1.313s2.419-0.473,3.314-1.313c0.055-0.059,0.434-0.431,0.434-0.431
    c0.968-1.025,2.272-1.59,3.676-1.59c1.404,0,2.708,0.564,3.676,1.59c0,0,0.38,0.372,0.434,0.431
    c0.896,0.841,2.076,1.313,3.314,1.313c1.237,0,2.418-0.473,3.314-1.313c0.055-0.059,0.434-0.431,0.434-0.431
    c0.967-1.025,2.271-1.59,3.676-1.59c1.403,0,2.707,0.564,3.676,1.59c0,0,0.379,0.372,0.434,0.431
    c0.896,0.841,2.076,1.313,3.312,1.313c1.239,0,2.419-0.473,3.314-1.313c0.057-0.059,0.435-0.431,0.435-0.431
    c0.968-1.025,2.271-1.59,3.676-1.59c1.403,0,2.707,0.564,3.676,1.59c0,0,0.379,0.372,0.435,0.431
    c0.895,0.841,2.075,1.313,3.312,1.313c1.238,0,2.419-0.473,3.313-1.313c0.056-0.059,0.436-0.431,0.436-0.431
    c0.968-1.025,2.271-1.59,3.675-1.59"/>
  <path class="mainDocLine" id="line_7" fill="none" stroke="#000000" stroke-miterlimit="10" d="M92,198.334c1.238,0,2.418-0.473,3.313-1.313
    c0.056-0.059,0.435-0.431,0.435-0.431c0.969-1.025,2.272-1.59,3.676-1.59c1.404,0,2.707,0.564,3.675,1.59
    c0,0,0.379,0.372,0.434,0.431c0.895,0.841,2.075,1.313,3.314,1.313c1.238,0,2.418-0.473,3.314-1.313
    c0.055-0.059,0.434-0.431,0.434-0.431c0.967-1.025,2.272-1.59,3.675-1.59c1.404,0,2.708,0.564,3.676,1.59
    c0,0,0.38,0.372,0.434,0.431c0.896,0.841,2.076,1.313,3.313,1.313c1.238,0,2.419-0.473,3.314-1.313
    c0.055-0.059,0.434-0.431,0.434-0.431c0.968-1.025,2.272-1.59,3.676-1.59s2.708,0.564,3.676,1.59c0,0,0.378,0.372,0.433,0.431
    c0.896,0.841,2.076,1.313,3.313,1.313c1.239,0,2.418-0.473,3.314-1.313c0.056-0.059,0.434-0.431,0.434-0.431
    c0.968-1.025,2.271-1.59,3.676-1.59c1.404,0,2.707,0.564,3.676,1.59c0,0,0.379,0.372,0.435,0.431
    c0.895,0.841,2.075,1.313,3.313,1.313c1.238,0,2.418-0.473,3.313-1.313c0.056-0.059,0.436-0.431,0.436-0.431
    c0.968-1.025,2.271-1.59,3.675-1.59c1.404,0,2.708,0.564,3.676,1.59c0,0,0.378,0.372,0.434,0.431
    c0.895,0.841,2.076,1.313,3.314,1.313c1.238,0,2.418-0.473,3.313-1.313c0.055-0.059,0.434-0.431,0.434-0.431
    c0.968-1.025,2.271-1.59,3.675-1.59c1.404,0,2.708,0.564,3.676,1.59c0,0,0.379,0.372,0.434,0.431
    c0.896,0.841,2.076,1.313,3.314,1.313c1.237,0,2.418-0.473,3.312-1.313c0.056-0.059,0.436-0.431,0.436-0.431
    c0.969-1.025,2.271-1.59,3.676-1.59c1.402,0,2.706,0.564,3.675,1.59c0,0,0.38,0.372,0.435,0.431
    c0.895,0.841,2.075,1.313,3.313,1.313s2.419-0.473,3.314-1.313c0.055-0.059,0.434-0.431,0.434-0.431
    c0.968-1.025,2.272-1.59,3.676-1.59c1.404,0,2.708,0.564,3.676,1.59c0,0,0.379,0.372,0.434,0.431
    c0.896,0.841,2.076,1.313,3.313,1.313h0.067c1.237,0,2.419-0.473,3.313-1.313c0.055-0.059,0.434-0.431,0.434-0.431
    c0.969-1.025,2.272-1.59,3.677-1.59c1.403,0,2.707,0.564,3.675,1.59c0,0,0.38,0.372,0.435,0.431
    c0.896,0.841,2.075,1.313,3.313,1.313s2.419-0.473,3.314-1.313c0.055-0.059,0.434-0.431,0.434-0.431
    c0.968-1.025,2.272-1.59,3.676-1.59c1.404,0,2.708,0.564,3.676,1.59c0,0,0.38,0.372,0.434,0.431
    c0.896,0.841,2.076,1.313,3.314,1.313c1.237,0,2.418-0.473,3.314-1.313c0.055-0.059,0.434-0.431,0.434-0.431
    c0.967-1.025,2.271-1.59,3.676-1.59c1.403,0,2.707,0.564,3.676,1.59c0,0,0.379,0.372,0.434,0.431
    c0.896,0.841,2.076,1.313,3.312,1.313c1.239,0,2.419-0.473,3.314-1.313c0.057-0.059,0.435-0.431,0.435-0.431
    c0.968-1.025,2.271-1.59,3.676-1.59c1.403,0,2.707,0.564,3.676,1.59c0,0,0.379,0.372,0.435,0.431
    c0.895,0.841,2.075,1.313,3.312,1.313c1.238,0,2.419-0.473,3.313-1.313c0.056-0.059,0.436-0.431,0.436-0.431
    c0.968-1.025,2.271-1.59,3.675-1.59"/>
    
  <g id="line_cover_g_1" class="lineCover first">
    <rect id="line_cover_1" x="90" y="66" fill="#FFFFFF" width="186" height="10"/>
    <rect id="firstCaret" class="caret blinking" x="90" y="66" width="2" height="10"/>
  </g>
  <g id="line_cover_g_2" class="lineCover">
    <rect id="line_cover_2" x="90" y="87" fill="#FFFFFF" width="186" height="10"/>
    <rect id="caret_2" class="caret" x="90" y="87" width="2" height="10"/>
  </g>
  <g id="line_cover_g_3" class="lineCover">
    <rect id="line_cover_3" x="90" y="108" fill="#FFFFFF" width="186" height="10"/>
    <rect id="caret_3" class="caret" x="90" y="108" width="2" height="10"/>
  </g>
  <g id="line_cover_g_4" class="lineCover">
    <rect id="line_cover_4" x="90" y="129" fill="#FFFFFF" width="186" height="10"/>
    <rect id="caret_4" class="caret" x="90" y="129" width="2" height="10"/>
  </g>
  <g id="line_cover_g_5" class="lineCover">
    <rect id="line_cover_5" x="90" y="150" fill="#FFFFFF" width="186" height="10"/>
    <rect id="caret_5" class="caret" x="90" y="150" width="2" height="10"/>
  </g>
  <g id="line_cover_g_6" class="lineCover">
    <rect id="line_cover_6" x="90" y="171" fill="#FFFFFF" width="186" height="10"/>
    <rect id="caret_6" class="caret" x="90" y="171" width="2" height="10"/>
  </g>
  <g id="line_cover_g_7" class="lineCover last">
    <rect id="line_cover_7" x="90" y="192" fill="#FFFFFF" width="186" height="10"/>
    <rect id="lastCaret" class="caret" x="90" y="192" width="2" height="10"/>
  </g>

  <rect id="page_corner_shadow" x="271" y="60" fill="#262626" width="30" height="1"/>

  <rect id="page_corner_shadow_cover" x="272" y="55" fill="#FFFFFF" width="30" height="5"/>

  <polygon id="page_outline" fill="#262626" points="272,30 62,30 62,225 63,225 63,31 271,31 271,61 301,61 301,225 302,225 302,60 
    272,60 "/>
    
  <polygon id="page_corner" fill="#262626" points="273,30 273,31 302,59 302,58 "/>

  <g id="dropDown">
    <polygon id="drop_down_background" fill="#FFFFFF" stroke="#000000" stroke-miterlimit="10" points="-4.042,-12.375 5.312,-2.438 
      14.656,-12.469 23.995,-2.484 33.331,-12.492 42.665,-2.496 52,-12.498 61.333,-2.499 70.667,-12.499 80,-2.5 89.333,-12.5 
      98.667,-2.5 108,-12.5 117.333,-2.5 126.667,-12.5 136,-2.5 145.333,-12.5 154.667,-2.5 164,-12.5 173.333,-2.5 182.666,-12.5 
      192,-2.5 201.334,-12.5 210.666,-2.5 220,-12.5 229.334,-2.5 238.666,-12.5 248,-2.5 257.334,-12.5 266.666,-2.5 276,-12.5 
      285.334,-2.5 294.666,-12.5 304,-2.5 313.334,-12.5 322.666,-2.5 332,-12.5 341.334,-2.5 350.666,-12.5 360.083,-2.5 369.5,-12.5 
      369.5,-230.5 -4,-230.5 	"/>
      
    <rect id="selection_box" x="136.5" y="-159.5" fill="#FFFFFF" stroke="#3D3D3D" stroke-miterlimit="10" width="91" height="91"/>
  
    <g class="optionSelect">
      <rect id="selection_hover_1" class="optionHighlight" x="146" y="-149" fill="#FFFFFF" width="71" height="12"/>
      <path id="selection_text_1" class="optionText" fill="none" stroke="#000000" stroke-miterlimit="10" d="M148.188-141.022
        c1.238,0,2.418-0.473,3.313-1.313c0.056-0.059,0.435-0.431,0.435-0.431c0.969-1.025,2.272-1.59,3.676-1.59
        c1.404,0,2.707,0.564,3.675,1.59c0,0,0.379,0.372,0.434,0.431c0.895,0.841,2.075,1.313,3.314,1.313c1.238,0,2.418-0.473,3.314-1.313
        c0.055-0.059,0.434-0.431,0.434-0.431c0.967-1.025,2.272-1.59,3.675-1.59c1.404,0,2.708,0.564,3.676,1.59
        c0,0,0.38,0.372,0.434,0.431c0.896,0.841,2.076,1.313,3.313,1.313c1.238,0,2.419-0.473,3.314-1.313
        c0.055-0.059,0.434-0.431,0.434-0.431c0.967-1.025,2.272-1.59,3.676-1.59c1.403,0,2.707,0.564,3.676,1.59
        c0,0,0.379,0.372,0.434,0.431c0.896,0.841,2.076,1.313,3.312,1.313c1.239,0,2.419-0.473,3.314-1.313
        c0.057-0.059,0.435-0.431,0.435-0.431c0.968-1.025,2.271-1.59,3.676-1.59c1.403,0,2.707,0.564,3.676,1.59
        c0,0,0.379,0.372,0.435,0.431c0.895,0.841,2.075,1.313,3.312,1.313c1.238,0,2.419-0.473,3.313-1.313
        c0.056-0.059,0.436-0.431,0.436-0.431c0.968-1.025,2.271-1.59,3.675-1.59"/>
    </g>

    <g class="optionSelect">
      <rect id="selection_hover_2" class="optionHighlight" x="146" y="-137" fill="#FFFFFF" width="71" height="12"/>
      <path id="selection_text_2" class="optionText" fill="none" stroke="#000000" stroke-miterlimit="10" d="M148.188-129.222
        c1.238,0,2.418-0.473,3.313-1.313c0.056-0.059,0.435-0.431,0.435-0.431c0.969-1.025,2.272-1.59,3.676-1.59
        c1.404,0,2.707,0.564,3.675,1.59c0,0,0.379,0.372,0.434,0.431c0.895,0.841,2.075,1.313,3.314,1.313c1.238,0,2.418-0.473,3.314-1.313
        c0.055-0.059,0.434-0.431,0.434-0.431c0.967-1.025,2.272-1.59,3.675-1.59c1.404,0,2.708,0.564,3.676,1.59
        c0,0,0.38,0.372,0.434,0.431c0.896,0.841,2.076,1.313,3.313,1.313c1.238,0,2.419-0.473,3.314-1.313
        c0.055-0.059,0.434-0.431,0.434-0.431c0.967-1.025,2.272-1.59,3.676-1.59c1.403,0,2.707,0.564,3.676,1.59
        c0,0,0.379,0.372,0.434,0.431c0.896,0.841,2.076,1.313,3.312,1.313c1.239,0,2.419-0.473,3.314-1.313
        c0.057-0.059,0.435-0.431,0.435-0.431c0.968-1.025,2.271-1.59,3.676-1.59c1.403,0,2.707,0.564,3.676,1.59
        c0,0,0.379,0.372,0.435,0.431c0.895,0.841,2.075,1.313,3.312,1.313c1.238,0,2.419-0.473,3.313-1.313
        c0.056-0.059,0.436-0.431,0.436-0.431c0.968-1.025,2.271-1.59,3.675-1.59"/>
    </g>

    <g class="optionSelect">
      <rect id="selection_hover_3" class="optionHighlight" x="146" y="-125" fill="#FFFFFF" width="71" height="12"/>
      <path id="selection_text_3" class="optionText" fill="none" stroke="#000000" stroke-miterlimit="10" d="M148.188-117.422
        c1.238,0,2.418-0.473,3.313-1.313c0.056-0.059,0.435-0.431,0.435-0.431c0.969-1.025,2.272-1.59,3.676-1.59
        c1.404,0,2.707,0.564,3.675,1.59c0,0,0.379,0.372,0.434,0.431c0.895,0.841,2.075,1.313,3.314,1.313c1.238,0,2.418-0.473,3.314-1.313
        c0.055-0.059,0.434-0.431,0.434-0.431c0.967-1.025,2.272-1.59,3.675-1.59c1.404,0,2.708,0.564,3.676,1.59
        c0,0,0.38,0.372,0.434,0.431c0.896,0.841,2.076,1.313,3.313,1.313c1.238,0,2.419-0.473,3.314-1.313
        c0.055-0.059,0.434-0.431,0.434-0.431c0.967-1.025,2.272-1.59,3.676-1.59c1.403,0,2.707,0.564,3.676,1.59
        c0,0,0.379,0.372,0.434,0.431c0.896,0.841,2.076,1.313,3.312,1.313c1.239,0,2.419-0.473,3.314-1.313
        c0.057-0.059,0.435-0.431,0.435-0.431c0.968-1.025,2.271-1.59,3.676-1.59c1.403,0,2.707,0.564,3.676,1.59
        c0,0,0.379,0.372,0.435,0.431c0.895,0.841,2.075,1.313,3.312,1.313c1.238,0,2.419-0.473,3.313-1.313
        c0.056-0.059,0.436-0.431,0.436-0.431c0.968-1.025,2.271-1.59,3.675-1.59"/>
    </g>

    <g class="optionSelect last">
      <rect id="selection_hover_4" class="optionHighlight last" x="146" y="-113" fill="#FFFFFF" width="71" height="12"/>
      <path id="selection_text_4" class="optionText last" fill="none" stroke="#000000" stroke-miterlimit="10" d="M148.188-105.622
        c1.238,0,2.418-0.473,3.313-1.314c0.056-0.059,0.435-0.43,0.435-0.43c0.969-1.025,2.272-1.59,3.676-1.59
        c1.404,0,2.707,0.564,3.675,1.59c0,0,0.379,0.371,0.434,0.43c0.895,0.842,2.075,1.314,3.314,1.314c1.238,0,2.418-0.473,3.314-1.314
        c0.055-0.059,0.434-0.43,0.434-0.43c0.967-1.025,2.272-1.59,3.675-1.59c1.404,0,2.708,0.564,3.676,1.59c0,0,0.38,0.371,0.434,0.43
        c0.896,0.842,2.076,1.314,3.313,1.314c1.238,0,2.419-0.473,3.314-1.314c0.055-0.059,0.434-0.43,0.434-0.43
        c0.967-1.025,2.272-1.59,3.676-1.59c1.403,0,2.707,0.564,3.676,1.59c0,0,0.379,0.371,0.434,0.43
        c0.896,0.842,2.076,1.314,3.312,1.314c1.239,0,2.419-0.473,3.314-1.314c0.057-0.059,0.435-0.43,0.435-0.43
        c0.968-1.025,2.271-1.59,3.676-1.59c1.403,0,2.707,0.564,3.676,1.59c0,0,0.379,0.371,0.435,0.43
        c0.895,0.842,2.075,1.314,3.312,1.314c1.238,0,2.419-0.473,3.313-1.314c0.056-0.059,0.436-0.43,0.436-0.43
        c0.968-1.025,2.271-1.59,3.675-1.59"/>
    </g>

    <path id="selection_text_5" fill="none" stroke="#000000" stroke-miterlimit="10" d="M148.188-93.821
      c1.238,0,2.418-0.473,3.313-1.314c0.056-0.059,0.435-0.43,0.435-0.43c0.969-1.026,2.272-1.591,3.676-1.591
      c1.404,0,2.707,0.564,3.675,1.591c0,0,0.379,0.371,0.434,0.43c0.895,0.842,2.075,1.314,3.314,1.314c1.238,0,2.418-0.473,3.314-1.314
      c0.055-0.059,0.434-0.43,0.434-0.43c0.967-1.026,2.272-1.591,3.675-1.591c1.404,0,2.708,0.564,3.676,1.591
      c0,0,0.38,0.371,0.434,0.43c0.896,0.842,2.076,1.314,3.313,1.314c1.238,0,2.419-0.473,3.314-1.314
      c0.055-0.059,0.434-0.43,0.434-0.43c0.967-1.026,2.272-1.591,3.676-1.591c1.403,0,2.707,0.564,3.676,1.591
      c0,0,0.379,0.371,0.434,0.43c0.896,0.842,2.076,1.314,3.312,1.314c1.239,0,2.419-0.473,3.314-1.314
      c0.057-0.059,0.435-0.43,0.435-0.43c0.968-1.026,2.271-1.591,3.676-1.591c1.403,0,2.707,0.564,3.676,1.591
      c0,0,0.379,0.371,0.435,0.43c0.895,0.842,2.075,1.314,3.312,1.314c1.238,0,2.419-0.473,3.313-1.314
      c0.056-0.059,0.436-0.43,0.436-0.43c0.968-1.026,2.271-1.591,3.675-1.591"/>
    <path id="selection_text_6" fill="none" stroke="#000000" stroke-miterlimit="10" d="M148.188-82.021
      c1.238,0,2.418-0.473,3.313-1.314c0.056-0.059,0.435-0.43,0.435-0.43c0.969-1.025,2.272-1.59,3.676-1.59
      c1.404,0,2.707,0.564,3.675,1.59c0,0,0.379,0.371,0.434,0.43c0.895,0.842,2.075,1.314,3.314,1.314c1.238,0,2.418-0.473,3.314-1.314
      c0.055-0.059,0.434-0.43,0.434-0.43c0.967-1.025,2.272-1.59,3.675-1.59c1.404,0,2.708,0.564,3.676,1.59c0,0,0.38,0.371,0.434,0.43
      c0.896,0.842,2.076,1.314,3.313,1.314c1.238,0,2.419-0.473,3.314-1.314c0.055-0.059,0.434-0.43,0.434-0.43
      c0.967-1.025,2.272-1.59,3.676-1.59c1.403,0,2.707,0.564,3.676,1.59c0,0,0.379,0.371,0.434,0.43
      c0.896,0.842,2.076,1.314,3.312,1.314c1.239,0,2.419-0.473,3.314-1.314c0.057-0.059,0.435-0.43,0.435-0.43
      c0.968-1.025,2.271-1.59,3.676-1.59c1.403,0,2.707,0.564,3.676,1.59c0,0,0.379,0.371,0.435,0.43
      c0.895,0.842,2.075,1.314,3.312,1.314c1.238,0,2.419-0.473,3.313-1.314c0.056-0.059,0.436-0.43,0.436-0.43
      c0.968-1.025,2.271-1.59,3.675-1.59"/>
  </g>

  <script type="text/ecmascript">
		<![CDATA[
      document.addEventListener('DOMContentLoaded', function() {
        const carets = document.querySelectorAll(".caret");
        const firstCaret = document.getElementById("firstCaret");
        const lastCaret = document.getElementById("lastCaret");
        const lineCovers = document.querySelectorAll(".lineCover");
        const optionHighlights = document.querySelectorAll(".optionHighlight");
        const optionTexts = document.querySelectorAll(".optionText");
        const lastOptionSelect = document.querySelector(".optionSelect.last");
        const dropDown = document.getElementById("dropDown");

        function resetLastScenes() {
          optionHighlights.forEach((optionHighlight, i) => {
            const optionText = optionTexts[i];
            optionHighlight.style.animationDelay = "";
            optionText.style.animationDelay = "";
            optionHighlight.classList.remove("selected");
            optionText.classList.remove("selected");
          });
          firstScene();
        }

        function forthScene() {
          dropDown.classList.remove("closed");
          window.setTimeout(resetLastScenes, 800);
        }

        function thirdScene() {
          resetFirstScene();
          const animationDelay = 400;
          const animationDuration = 500;
          const phase1 = optionHighlights.length * animationDuration + animationDelay;

          optionHighlights.forEach((optionHighlight, i) => {
            const optionText = optionTexts[i];
            optionHighlight.style.animationDelay = `${i * animationDelay}ms`;
            optionText.style.animationDelay = `${i * animationDelay}ms`;
            optionHighlight.classList.add("selected");
            optionText.classList.add("selected");
          });
          
          window.setTimeout(() => {
            forthScene();
          }, phase1);
        }

        function secondScene() {
          dropDown.classList.add("closed");
          window.setTimeout(thirdScene, 2000);
        }

        function resetFirstScene() {
          lineCovers.forEach((lineCover, i) => {
            lineCover.style.transitionDelay = "";
            lineCover.classList.remove("animate");
            const caret = carets[i];
            caret.style.animationDelay = "";
            caret.classList.remove("animate");
          });
          firstCaret.classList.add("blinking");
          lastCaret.classList.remove("blinking");
        }

        function firstScene() {
          const phase1 = 3000;
          const animationDuration = 850;
          const phase2 = (phase1 + lineCovers.length * animationDuration) - animationDuration / 2;
          const phase3 = phase2 + 1500;

					window.setTimeout(() => {
            firstCaret.classList.remove("blinking");
            lineCovers.forEach((lineCover, i) => {
              const caret = carets[i];
              lineCover.style.transitionDelay = `${i * animationDuration}ms`;
              caret.style.animationDelay = `${i * animationDuration}ms`;
              lineCover.classList.add("animate");
              caret.classList.add("animate");
            });
					}, 3000);

          window.setTimeout(() => {
            lastCaret.style.animationDelay = "";
            lastCaret.classList.remove("animate");
            lastCaret.classList.add("blinking");
          }, phase2);

          window.setTimeout(() => {
            secondScene();
          }, phase3)
				}

        firstScene();
			});
		]]>
	</script>
</svg>
