<svg version="1.1" xmlns="http://www.w3.org/2000/svg" preserveAspectRatio="xMinYMin meet" viewBox="0 0 365 225" style="background-color:#00DDFF">
  <style>
    @keyframes CLOUDS1 {
      0% { transform: translateX(0); }
      100% { transform: translateX(-100%); }
    }
    @keyframes CLOUDS2 {
      0% { transform: translateX(100%); }
      100% { transform: translateX(0); }
    }
    #clouds1 {
      animation: 15s linear infinite CLOUDS1;
    }
    #clouds2 {
      animation: 15s linear infinite CLOUDS2;
    }
  </style>
  
  <g id="clouds1">
    <rect opacity="0" fill="#00DDFF" width="365" height="225"></rect>
    <path fill="#FFFFFF" d="M134,97.742c0-3.82-2.942-6.943-6.674-7.229c-0.812-6.3-6.165-11.168-12.66-11.168
      c-0.424,0-0.841,0.023-1.255,0.063C110.471,74.946,105.434,72,99.704,72c-7.073,0-13.085,4.495-15.401,10.789
      C79.521,84.096,76,88.476,76,93.69c0,6.02,4.686,10.924,10.592,11.276V105h40.348v-0.008C130.853,104.901,134,101.693,134,97.742z"></path>
    <path fill="#FFFFFF" d="M286,131.418c0-5.291-4.204-9.582-9.39-9.582c-1.582,0-3.072,0.404-4.381,1.111
      c-1.703-5.756-6.935-9.947-13.13-9.947c-7.576,0-13.72,6.268-13.72,14c0,0.047,0.008,0.092,0.009,0.139
      c-0.487-0.111-0.992-0.176-1.512-0.176c-3.798,0-6.877,3.143-6.877,7.018c0,3.84,3.02,6.953,6.767,7.014V141h33.325v-0.025
      C282.053,140.717,286,136.543,286,131.418z"></path>
    <path fill="#FFFFFF" d="M58,191.408c0-3.56-2.786-6.452-6.266-6.578c-1.222-3.896-4.71-6.758-8.895-7.012
      C40.662,172.635,35.592,169,29.685,169c-6.646,0-12.218,4.606-13.819,10.838C11.922,180.849,9,184.46,9,188.773
      c0,4.937,3.826,8.956,8.635,9.203V198h34.326v-0.023C55.334,197.735,58,194.891,58,191.408z"></path>
    <path fill="#FFFFFF" d="M352,33.408c0-3.56-2.786-6.452-6.266-6.578c-1.222-3.896-4.71-6.758-8.895-7.012
      C334.662,14.635,329.592,11,323.685,11c-6.646,0-12.218,4.606-13.819,10.838C305.922,22.849,303,26.46,303,30.773
      c0,4.937,3.826,8.956,8.635,9.203V40h34.326v-0.023C349.334,39.735,352,36.891,352,33.408z"></path>
  </g>
  <g id="clouds2">
    <rect opacity="0" fill="#00DDFF" width="365" height="225"></rect>
    <path fill="#FFFFFF" d="M134,97.742c0-3.82-2.942-6.943-6.674-7.229c-0.812-6.3-6.165-11.168-12.66-11.168
      c-0.424,0-0.841,0.023-1.255,0.063C110.471,74.946,105.434,72,99.704,72c-7.073,0-13.085,4.495-15.401,10.789
      C79.521,84.096,76,88.476,76,93.69c0,6.02,4.686,10.924,10.592,11.276V105h40.348v-0.008C130.853,104.901,134,101.693,134,97.742z"></path>
    <path fill="#FFFFFF" d="M286,131.418c0-5.291-4.204-9.582-9.39-9.582c-1.582,0-3.072,0.404-4.381,1.111
      c-1.703-5.756-6.935-9.947-13.13-9.947c-7.576,0-13.72,6.268-13.72,14c0,0.047,0.008,0.092,0.009,0.139
      c-0.487-0.111-0.992-0.176-1.512-0.176c-3.798,0-6.877,3.143-6.877,7.018c0,3.84,3.02,6.953,6.767,7.014V141h33.325v-0.025
      C282.053,140.717,286,136.543,286,131.418z"></path>
    <path fill="#FFFFFF" d="M58,191.408c0-3.56-2.786-6.452-6.266-6.578c-1.222-3.896-4.71-6.758-8.895-7.012
      C40.662,172.635,35.592,169,29.685,169c-6.646,0-12.218,4.606-13.819,10.838C11.922,180.849,9,184.46,9,188.773
      c0,4.937,3.826,8.956,8.635,9.203V198h34.326v-0.023C55.334,197.735,58,194.891,58,191.408z"></path>
    <path fill="#FFFFFF" d="M352,33.408c0-3.56-2.786-6.452-6.266-6.578c-1.222-3.896-4.71-6.758-8.895-7.012
      C334.662,14.635,329.592,11,323.685,11c-6.646,0-12.218,4.606-13.819,10.838C305.922,22.849,303,26.46,303,30.773
      c0,4.937,3.826,8.956,8.635,9.203V40h34.326v-0.023C349.334,39.735,352,36.891,352,33.408z"></path>
  </g>
	
	<g class="ground">
		<g>
			<path fill="#FFFFFF" d="M332.289,225h1.502v-9.183c5.656-0.675,10.057-5.515,10.057-11.365c0-3.209-1.364-6.291-3.744-8.461
				l-14.272-14.314c-2.164-2.376-5.232-3.677-8.423-3.677H41.288l-0.034,0.01l-0.033,0.002c-6.097,0.274-10.873,5.28-10.873,11.394
				c0,3.2,1.357,6.268,3.728,8.433c0.774,0.854,1.664,1.576,2.649,2.157V225h1.501v-25.909c-1.178-0.565-2.225-1.355-3.087-2.319
				c-2.015-1.814-3.289-4.438-3.289-7.366c0-5.323,4.187-9.653,9.439-9.89c0,0,276.007,0,276.009,0c0.001,0,0.047,0.003,0.11,0.006
				v-0.078 M317.408,179.443c2.912,0,5.522,1.268,7.336,3.272l14.323,14.365c2.009,1.819,3.278,4.443,3.278,7.371
				c0,5.488-4.438,9.938-9.911,9.938v-0.104l-0.146-0.146"></path>
			<rect x="53.253" y="198.795" fill="#FFA800" width="279.038" height="26.205"></rect>
			<rect x="38.227" y="193.549" fill="#FFE100" width="279.036" height="31.451"></rect>
			<g>
				<path fill="#FF8400" d="M318.552,180.279c0,0-0.499-0.027-0.502-0.027s-276.009,0-276.009,0c-5.251,0.236-9.439,4.565-9.439,9.89
					c0,5.467,4.415,9.901,9.868,9.91v0.001c0.003,0,0.007,0,0.011,0c0.001,0,0.003,0,0.005,0c4.271-0.001,8.221-0.684,11.452-1.841
					c2.474-0.562,5.211-0.882,8.104-0.882c3.074,0,5.979,0.356,8.573,0.984c3.181,1.097,7.033,1.738,11.186,1.738
					c4.034,0,7.783-0.606,10.91-1.645c2.683-0.686,5.709-1.078,8.924-1.078c3.073,0,5.979,0.356,8.572,0.984
					c3.182,1.097,7.033,1.738,11.188,1.738c3.562,0,6.902-0.475,9.789-1.301v0.002c2.883-0.825,6.213-1.303,9.771-1.303
					c3.508,0,6.795,0.465,9.65,1.265v-0.002c2.935,0.864,6.351,1.362,10.001,1.362c3.656,0,7.079-0.499,10.016-1.366
					c-0.028,0.008-0.055,0.018-0.084,0.026v0.018c2.884-0.825,6.214-1.303,9.772-1.303c3.507,0,6.795,0.465,9.649,1.265v-0.002
					c2.935,0.864,6.351,1.362,10.001,1.362c3.668,0,7.099-0.502,10.043-1.375c2.837-0.791,6.095-1.25,9.571-1.25
					c3.508,0,6.795,0.465,9.649,1.265v-0.002c2.935,0.864,6.351,1.362,10.001,1.362c3.656,0,7.078-0.499,10.016-1.366
					c-0.028,0.008-0.055,0.018-0.084,0.026v0.018c2.885-0.825,6.215-1.303,9.772-1.303c3.508,0,6.794,0.465,9.65,1.265v-0.002
					c2.934,0.864,6.35,1.362,10,1.362c3.841,0,7.422-0.551,10.455-1.5c2.769-0.742,5.922-1.173,9.282-1.173
					c3.348,0,6.492,0.426,9.255,1.161c3.037,0.955,6.624,1.511,10.473,1.512c0.003,0,0.003,0,0.006,0s0.007,0,0.011,0
					c5.451-0.01,9.868-4.441,9.868-9.912C327.929,184.862,323.774,180.546,318.552,180.279z"></path>
			</g>
			<g>
				<path fill="#00FF0C" d="M317.801,179.526c0,0-0.5-0.028-0.503-0.028s-276.009,0-276.009,0c-5.251,0.237-9.439,4.566-9.439,9.89
					c0,5.468,4.416,9.901,9.867,9.909v0.003c0.004,0,0.008,0,0.012,0c0.001,0,0.003,0,0.005,0c4.271-0.003,8.222-0.686,11.452-1.841
					c2.474-0.562,5.21-0.882,8.104-0.882c3.074,0,5.979,0.355,8.573,0.983c3.182,1.097,7.033,1.739,11.188,1.739
					c4.032,0,7.782-0.607,10.908-1.646c2.683-0.685,5.709-1.077,8.924-1.077c3.075,0,5.979,0.355,8.574,0.983
					c3.18,1.097,7.032,1.739,11.186,1.739c3.562,0,6.902-0.475,9.789-1.302v0.003c2.884-0.826,6.214-1.303,9.772-1.303
					c3.507,0,6.794,0.463,9.648,1.265v-0.003c2.935,0.865,6.351,1.362,10.001,1.362c3.657,0,7.079-0.498,10.017-1.367
					c-0.029,0.009-0.056,0.019-0.084,0.026v0.02c2.883-0.826,6.214-1.303,9.773-1.303c3.507,0,6.794,0.463,9.648,1.265v-0.003
					c2.935,0.865,6.351,1.362,10.001,1.362c3.668,0,7.1-0.502,10.043-1.374c2.838-0.792,6.094-1.25,9.572-1.25
					c3.507,0,6.794,0.463,9.649,1.265v-0.003c2.934,0.865,6.352,1.362,10.001,1.362c3.656,0,7.079-0.498,10.016-1.367
					c-0.029,0.009-0.055,0.019-0.084,0.026v0.02c2.885-0.826,6.215-1.303,9.772-1.303c3.508,0,6.794,0.463,9.649,1.265v-0.003
					c2.934,0.865,6.35,1.362,10,1.362c3.841,0,7.423-0.551,10.455-1.5c2.77-0.741,5.922-1.172,9.282-1.172
					c3.349,0,6.492,0.426,9.256,1.16c3.036,0.956,6.623,1.511,10.472,1.513c0.003,0,0.004,0,0.006,0c0.004,0,0.008,0,0.012,0
					c5.452-0.011,9.867-4.442,9.867-9.912C327.177,184.109,323.022,179.793,317.801,179.526z"></path>
			</g>
			<rect x="317.26" y="199.228" fill="#FFA800" width="1.16" height="0.894"></rect>
			<g>
				<polygon fill="#00F20C" points="332.154,203.997 317.5,189.303 324.414,182.368 339.068,197.063 			"></polygon>
				<path fill="#00FF0C" d="M317.408,179.425c5.474,0,9.912,4.451,9.912,9.939c0,5.49-4.438,9.94-9.912,9.94"></path>
				<path fill="#00F20C" d="M332.436,194.495c5.475,0,9.911,4.449,9.911,9.939c0,5.488-4.437,9.939-9.911,9.939"></path>
				<path fill="#00E60B" d="M332.436,214.374c5.475,0,9.911-4.451,9.911-9.939h-9.933"></path>
				<polygon fill="#00E60B" points="342.335,204.466 327.38,189.469 317.494,199.383 332.189,214.119 332.289,214.219 
					332.449,214.378 			"></polygon>
				<path fill="#00FF0C" d="M317.408,199.305c5.474,0,9.912-4.45,9.912-9.94h-9.933"></path>
			</g>
			<g>
				<path fill="#03DD08" d="M317.367,199.329c-3.768-0.001-7.427-0.53-10.6-1.529c-2.848-0.757-5.93-1.144-9.144-1.144
					c-3.225,0-6.315,0.391-9.186,1.16c-3.156,0.989-6.81,1.513-10.552,1.513c-3.539,0-7.019-0.472-10.068-1.365
					c-0.012-0.002-0.021-0.006-0.033-0.009c-5.878-1.646-13.376-1.634-19.218,0.039c-0.039,0.013-0.08,0.02-0.121,0.014
					c-3.012,0.866-6.434,1.323-9.914,1.323c-3.538,0-7.019-0.474-10.068-1.366c-0.012-0.002-0.023-0.005-0.035-0.008
					c-5.802-1.628-13.19-1.64-19.019-0.016c-3.062,0.908-6.572,1.39-10.144,1.39c-3.537,0-7.018-0.474-10.067-1.366
					c-0.012-0.002-0.022-0.005-0.034-0.008c-5.878-1.647-13.374-1.635-19.217,0.038c-0.04,0.012-0.082,0.019-0.122,0.015
					c-3.012,0.864-6.435,1.321-9.915,1.321c-3.539,0-7.019-0.472-10.068-1.365c-0.011-0.003-0.022-0.006-0.034-0.009
					c-5.877-1.646-13.375-1.634-19.217,0.038c-0.013,0.004-0.026,0.007-0.039,0.009c-2.998,0.855-6.403,1.306-9.853,1.306
					c-4.059,0-7.97-0.608-11.309-1.76c-2.634-0.636-5.488-0.964-8.452-0.964c-3.09,0-6.062,0.359-8.831,1.066
					c-3.251,1.081-7.063,1.657-11.001,1.657c-4.06,0-7.971-0.608-11.309-1.76c-2.634-0.636-5.489-0.964-8.452-0.964
					c-2.773,0-5.472,0.293-8.021,0.873c-3.356,1.204-7.36,1.849-11.534,1.851c-0.1,0-0.203-0.04-0.274-0.109
					c-0.07-0.071-0.119-0.167-0.119-0.267c0-0.218,0.189-0.388,0.404-0.376c4.095-0.006,8.001-0.635,11.313-1.819
					c2.646-0.604,5.401-0.904,8.23-0.904c3.022,0,5.936,0.334,8.661,0.993c3.296,1.136,7.122,1.73,11.1,1.73
					c3.858,0,7.589-0.562,10.791-1.627c2.856-0.73,5.889-1.097,9.042-1.097c3.022,0,5.937,0.334,8.661,0.993
					c3.295,1.136,7.121,1.73,11.099,1.73c3.396,0,6.745-0.445,9.687-1.286c0.013-0.005,0.026-0.008,0.038-0.011
					c5.955-1.696,13.559-1.709,19.548-0.039c0.016,0.002,0.029,0.006,0.043,0.01c2.991,0.882,6.413,1.348,9.896,1.348
					c3.489,0,6.917-0.467,9.909-1.352l0.003,0.012c0.014-0.002,0.026-0.003,0.038-0.002c5.941-1.673,13.503-1.678,19.465-0.016
					c0.015,0.002,0.029,0.006,0.044,0.01c2.991,0.882,6.413,1.348,9.896,1.348c3.501,0,6.936-0.47,9.936-1.359
					c5.955-1.66,13.463-1.649,19.391,0.002c0.015,0.003,0.029,0.007,0.044,0.012c2.99,0.88,6.413,1.346,9.895,1.346
					c3.489,0,6.917-0.467,9.91-1.351l0.003,0.011c0.013-0.002,0.024-0.003,0.039-0.002c5.94-1.672,13.503-1.677,19.464-0.016
					c0.015,0.003,0.029,0.007,0.044,0.012c2.991,0.88,6.413,1.346,9.895,1.346c3.668,0,7.244-0.512,10.344-1.482
					c2.948-0.791,6.104-1.19,9.394-1.19c3.279,0,6.425,0.396,9.353,1.175c3.117,0.98,6.699,1.497,10.375,1.498
					c0.208,0,0.384,0.169,0.384,0.377C317.733,199.163,317.575,199.329,317.367,199.329z"></path>
			</g>
		</g>
	</g>
</svg>