<?xml version="1.0" encoding="utf-8"?>
<!-- Generator: Adobe Illustrator 27.2.0, SVG Export Plug-In . SVG Version: 6.00 Build 0)  -->
<svg version="1.1" id="Layer_1" xmlns="http://www.w3.org/2000/svg" xmlns:xlink="http://www.w3.org/1999/xlink" x="0px" y="0px"
	 viewBox="0 0 365 225" style="enable-background:new 0 0 365 225;" xml:space="preserve">
	<style type="text/css">
		.st0{fill:#FAFAFF;}
		.st2{fill:#DCDCFF;}
		.st3{fill:#FFFFFF;}
		.st4{fill:none;stroke:#8585FF;stroke-miterlimit:10;}
		.st5{fill:#FFDD67;}
		.st6{fill:#664E27;}
		.st7{fill:#4C3526;}
		.st8{fill:#FF717F;}
		.st9{fill:#FF9D33;}
		.st10{fill:#FFCE31;}
		.st11{fill:#FFDF85;}
		.st12{fill:#65B1EF;}
		.st13{fill:#917524;}
		.st14{fill:#D8D8D8;}

		.dimensions{
			fill:none;
		}

		#chatLog.animating {
			transition-property: transform;
		}

		.animating .bubble {
			opacity: 0;
			transform: translate(-2px, 5px);
			transition-property: opacity, transform;
			transition-duration: 400ms, 400ms;
		}

		.animating .visible .bubble {
			opacity: 1;
			transform: translate(0, 0);
		}
	</style>
	<g>
		<g id="background">
			<rect id="backgroundRect" y="0" class="st0" width="365" height="225"/>
		</g>
	</g>
	<g id="project">
		<g id="chatLog" class="animating">
			<g id="bubbleGroup1">
				<rect y="-40" class="dimensions" width="106.8" height="82"/>
				<g>
					<g>
						<g>
							<path class="st2" d="M18,31.9c-3.2,0-5.9-2.6-5.9-5.9v-58c0-3.2,2.6-5.9,5.9-5.9h83c3.2,0,5.9,2.6,5.9,5.9v58
								c0,3.2-2.6,5.9-5.9,5.9H18z"/>
							<path class="st2" d="M101-37.7c3.2,0,5.8,2.6,5.8,5.8v58c0,3.2-2.6,5.8-5.8,5.8H18c-3.2,0-5.8-2.6-5.8-5.8v-58
								c0-3.2,2.6-5.8,5.8-5.8H101 M101-38H18c-3.3,0-6,2.7-6,6v58c0,3.3,2.7,6,6,6h83c3.3,0,6-2.7,6-6v-58C107-35.3,104.3-38,101-38
								L101-38z"/>
						</g>
						<g>
							<path class="st3" d="M16,29.9c-3.2,0-5.9-2.6-5.9-5.9v-58c0-3.2,2.6-5.9,5.9-5.9h83c3.2,0,5.9,2.6,5.9,5.9v58
								c0,3.2-2.6,5.9-5.9,5.9H16z"/>
							<path class="st2" d="M99-39.7c3.2,0,5.8,2.6,5.8,5.8v58c0,3.2-2.6,5.8-5.8,5.8H16c-3.2,0-5.8-2.6-5.8-5.8v-58
								c0-3.2,2.6-5.8,5.8-5.8H99 M99-40H16c-3.3,0-6,2.7-6,6v58c0,3.3,2.7,6,6,6h83c3.3,0,6-2.7,6-6v-58C105-37.3,102.3-40,99-40
								L99-40z"/>
						</g>
					</g>
					<path id="SvgjsPath1062_00000134251186919964700050000017128468502264390052_" class="st4" d="M20-27.1c1.1,0,2.2-0.5,3.1-1.2
						c0.1-0.1,0.4-0.4,0.4-0.4c0.9-0.9,2.1-1.5,3.4-1.5s2.5,0.6,3.4,1.5l0.4,0.4c0.8,0.7,2,1.2,3.1,1.2s2.2-0.5,3.1-1.2
						c0.1-0.1,0.4-0.4,0.4-0.4c0.9-0.9,2.1-1.5,3.4-1.5c1.3,0,2.5,0.6,3.4,1.5l0.4,0.4c0.8,0.7,2,1.2,3.1,1.2s2.2-0.5,3.1-1.2
						c0.1-0.1,0.4-0.4,0.4-0.4c0.9-0.9,2.1-1.5,3.4-1.5c1.3,0,2.5,0.6,3.4,1.5l0.4,0.4c0.8,0.7,2,1.2,3.1,1.2s2.2-0.5,3.1-1.2
						c0.1-0.1,0.4-0.4,0.4-0.4c0.9-0.9,2.1-1.5,3.4-1.5s2.5,0.6,3.4,1.5l0.4,0.4c0.8,0.7,2,1.2,3.1,1.2s2.2-0.5,3.1-1.2
						c0.1-0.1,0.4-0.4,0.4-0.4c0.9-0.9,2.1-1.5,3.4-1.5s2.5,0.6,3.4,1.5l0.4,0.4c0.8,0.7,2,1.2,3.1,1.2s2.2-0.5,3.1-1.2
						c0.1-0.1,0.4-0.4,0.4-0.4c0.9-0.9,2.1-1.5,3.4-1.5"/>
					<path id="SvgjsPath1062_00000150813266547459759400000001692105872720237727_" class="st4" d="M20,20.3c1.1,0,2.2-0.5,3.1-1.2
						c0.1-0.1,0.4-0.4,0.4-0.4c0.9-0.9,2.1-1.5,3.4-1.5s2.5,0.6,3.4,1.5l0.4,0.4c0.8,0.7,2,1.2,3.1,1.2s2.2-0.5,3.1-1.2
						c0.1-0.1,0.4-0.4,0.4-0.4c0.9-0.9,2.1-1.5,3.4-1.5c1.3,0,2.5,0.6,3.4,1.5l0.4,0.4c0.8,0.7,2,1.2,3.1,1.2s2.2-0.5,3.1-1.2"/>
					<path id="SvgjsPath1062_00000091732362160660347480000014055325976254796433_" class="st4" d="M20,10.8c1.1,0,2.2-0.5,3.1-1.2
						c0.1-0.1,0.4-0.4,0.4-0.4c0.9-0.9,2.1-1.5,3.4-1.5s2.5,0.6,3.4,1.5l0.4,0.4c0.8,0.7,2,1.2,3.1,1.2s2.2-0.5,3.1-1.2
						c0.1-0.1,0.4-0.4,0.4-0.4c0.9-0.9,2.1-1.5,3.4-1.5c1.3,0,2.5,0.6,3.4,1.5l0.4,0.4c0.8,0.7,2,1.2,3.1,1.2s2.2-0.5,3.1-1.2
						c0.1-0.1,0.4-0.4,0.4-0.4c0.9-0.9,2.1-1.5,3.4-1.5c1.3,0,2.5,0.6,3.4,1.5l0.4,0.4c0.8,0.7,2,1.2,3.1,1.2s2.2-0.5,3.1-1.2
						c0.1-0.1,0.4-0.4,0.4-0.4c0.9-0.9,2.1-1.5,3.4-1.5s2.5,0.6,3.4,1.5l0.4,0.4c0.8,0.7,2,1.2,3.1,1.2s2.2-0.5,3.1-1.2
						c0.1-0.1,0.4-0.4,0.4-0.4c0.9-0.9,2.1-1.5,3.4-1.5s2.5,0.6,3.4,1.5l0.4,0.4c0.8,0.7,2,1.2,3.1,1.2s2.2-0.5,3.1-1.2
						c0.1-0.1,0.4-0.4,0.4-0.4c0.9-0.9,2.1-1.5,3.4-1.5"/>
					<path id="SvgjsPath1062_00000090275957812207340420000013884845320004544930_" class="st4" d="M20,1.3c1.1,0,2.2-0.5,3.1-1.2
						c0.1-0.1,0.4-0.4,0.4-0.4c0.9-0.9,2.1-1.5,3.4-1.5s2.5,0.6,3.4,1.5l0.4,0.4c0.8,0.7,2,1.2,3.1,1.2s2.2-0.5,3.1-1.2
						C37,0,37.3-0.3,37.3-0.3c0.9-0.9,2.1-1.5,3.4-1.5c1.3,0,2.5,0.6,3.4,1.5l0.4,0.4c0.8,0.7,2,1.2,3.1,1.2s2.2-0.5,3.1-1.2
						c0.1-0.1,0.4-0.4,0.4-0.4c0.9-0.9,2.1-1.5,3.4-1.5c1.3,0,2.5,0.6,3.4,1.5l0.4,0.4c0.8,0.7,2,1.2,3.1,1.2s2.2-0.5,3.1-1.2
						c0.1-0.1,0.4-0.4,0.4-0.4c0.9-0.9,2.1-1.5,3.4-1.5s2.5,0.6,3.4,1.5l0.4,0.4c0.8,0.7,2,1.2,3.1,1.2s2.2-0.5,3.1-1.2
						c0.1-0.1,0.4-0.4,0.4-0.4c0.9-0.9,2.1-1.5,3.4-1.5s2.5,0.6,3.4,1.5l0.4,0.4c0.8,0.7,2,1.2,3.1,1.2s2.2-0.5,3.1-1.2
						c0.1-0.1,0.4-0.4,0.4-0.4c0.9-0.9,2.1-1.5,3.4-1.5"/>
					<path id="SvgjsPath1062_00000031198881860784289180000017337235113530644865_" class="st4" d="M20-8.2c1.1,0,2.2-0.5,3.1-1.2
						c0.1-0.1,0.4-0.4,0.4-0.4c0.9-0.9,2.1-1.5,3.4-1.5s2.5,0.6,3.4,1.5l0.4,0.4c0.8,0.7,2,1.2,3.1,1.2s2.2-0.5,3.1-1.2
						c0.1-0.1,0.4-0.4,0.4-0.4c0.9-0.9,2.1-1.5,3.4-1.5c1.3,0,2.5,0.6,3.4,1.5l0.4,0.4c0.8,0.7,2,1.2,3.1,1.2s2.2-0.5,3.1-1.2
						c0.1-0.1,0.4-0.4,0.4-0.4c0.9-0.9,2.1-1.5,3.4-1.5c1.3,0,2.5,0.6,3.4,1.5l0.4,0.4c0.8,0.7,2,1.2,3.1,1.2s2.2-0.5,3.1-1.2
						c0.1-0.1,0.4-0.4,0.4-0.4c0.9-0.9,2.1-1.5,3.4-1.5s2.5,0.6,3.4,1.5l0.4,0.4c0.8,0.7,2,1.2,3.1,1.2s2.2-0.5,3.1-1.2
						c0.1-0.1,0.4-0.4,0.4-0.4c0.9-0.9,2.1-1.5,3.4-1.5s2.5,0.6,3.4,1.5l0.4,0.4c0.8,0.7,2,1.2,3.1,1.2s2.2-0.5,3.1-1.2
						c0.1-0.1,0.4-0.4,0.4-0.4c0.9-0.9,2.1-1.5,3.4-1.5"/>
					<path id="SvgjsPath1062_00000041295108431475967820000003216300833799977136_" class="st4" d="M20-17.7c1.1,0,2.2-0.5,3.1-1.2
						c0.1-0.1,0.4-0.4,0.4-0.4c0.9-0.9,2.1-1.5,3.4-1.5s2.5,0.6,3.4,1.5l0.4,0.4c0.8,0.7,2,1.2,3.1,1.2s2.2-0.5,3.1-1.2
						c0.1-0.1,0.4-0.4,0.4-0.4c0.9-0.9,2.1-1.5,3.4-1.5c1.3,0,2.5,0.6,3.4,1.5l0.4,0.4c0.8,0.7,2,1.2,3.1,1.2s2.2-0.5,3.1-1.2
						c0.1-0.1,0.4-0.4,0.4-0.4c0.9-0.9,2.1-1.5,3.4-1.5c1.3,0,2.5,0.6,3.4,1.5l0.4,0.4c0.8,0.7,2,1.2,3.1,1.2s2.2-0.5,3.1-1.2
						c0.1-0.1,0.4-0.4,0.4-0.4c0.9-0.9,2.1-1.5,3.4-1.5s2.5,0.6,3.4,1.5l0.4,0.4c0.8,0.7,2,1.2,3.1,1.2s2.2-0.5,3.1-1.2
						c0.1-0.1,0.4-0.4,0.4-0.4c0.9-0.9,2.1-1.5,3.4-1.5s2.5,0.6,3.4,1.5l0.4,0.4c0.8,0.7,2,1.2,3.1,1.2s2.2-0.5,3.1-1.2
						c0.1-0.1,0.4-0.4,0.4-0.4c0.9-0.9,2.1-1.5,3.4-1.5"/>
				</g>
			</g>
			<g id="bubbleGroup2">
				<rect y="42" class="dimensions" width="156.3" height="54"/>
				<g>
					<g>
						<g>
							<path class="st2" d="M18,86.9c-3.2,0-5.9-2.6-5.9-5.9V50c0-3.2,2.6-5.9,5.9-5.9h132c3.2,0,5.9,2.6,5.9,5.9v31
								c0,3.2-2.6,5.9-5.9,5.9H18z"/>
							<path class="st2" d="M150,44.3c3.2,0,5.8,2.6,5.8,5.8v31c0,3.2-2.6,5.8-5.8,5.8H18c-3.2,0-5.8-2.6-5.8-5.8V50
								c0-3.2,2.6-5.8,5.8-5.8L150,44.3 M150,44H18c-3.3,0-6,2.7-6,6v31c0,3.3,2.7,6,6,6h132c3.3,0,6-2.7,6-6V50
								C156,46.7,153.3,44,150,44L150,44z"/>
						</g>
						<g>
							<path class="st3" d="M16,84.9c-3.2,0-5.9-2.6-5.9-5.9V48c0-3.2,2.6-5.9,5.9-5.9h132c3.2,0,5.9,2.6,5.9,5.9v31
								c0,3.2-2.6,5.9-5.9,5.9H16z"/>
							<path class="st2" d="M148,42.3c3.2,0,5.8,2.6,5.8,5.8v31c0,3.2-2.6,5.8-5.8,5.8H16c-3.2,0-5.8-2.6-5.8-5.8V48
								c0-3.2,2.6-5.8,5.8-5.8L148,42.3 M148,42H16c-3.3,0-6,2.7-6,6v31c0,3.3,2.7,6,6,6h132c3.3,0,6-2.7,6-6V48
								C154,44.7,151.3,42,148,42L148,42z"/>
						</g>
					</g>
					<path id="SvgjsPath1062_00000136385697309788197920000013656665213208928164_" class="st4" d="M20,54.9c1.1,0,2.2-0.5,3.1-1.2
						c0.1-0.1,0.4-0.4,0.4-0.4c0.9-0.9,2.1-1.5,3.4-1.5s2.5,0.6,3.4,1.5l0.4,0.4c0.8,0.7,2,1.2,3.1,1.2s2.2-0.5,3.1-1.2
						c0.1-0.1,0.4-0.4,0.4-0.4c0.9-0.9,2.1-1.5,3.4-1.5c1.3,0,2.5,0.6,3.4,1.5l0.4,0.4c0.8,0.7,2,1.2,3.1,1.2s2.2-0.5,3.1-1.2
						c0.1-0.1,0.4-0.4,0.4-0.4c0.9-0.9,2.1-1.5,3.4-1.5c1.3,0,2.5,0.6,3.4,1.5l0.4,0.4c0.8,0.7,2,1.2,3.1,1.2s2.2-0.5,3.1-1.2
						c0.1-0.1,0.4-0.4,0.4-0.4c0.9-0.9,2.1-1.5,3.4-1.5s2.5,0.6,3.4,1.5l0.4,0.4c0.8,0.7,2,1.2,3.1,1.2s2.2-0.5,3.1-1.2
						c0.1-0.1,0.4-0.4,0.4-0.4c0.9-0.9,2.1-1.5,3.4-1.5s2.5,0.6,3.4,1.5l0.4,0.4c0.8,0.7,2,1.2,3.1,1.2s2.2-0.5,3.1-1.2
						c0.1-0.1,0.4-0.4,0.4-0.4c0.9-0.9,2.1-1.5,3.4-1.5s2.5,0.6,3.4,1.5l0.4,0.4c0.8,0.7,2,1.2,3.1,1.2s2.2-0.5,3.1-1.2
						c0.1-0.1,0.4-0.4,0.4-0.4c0.9-0.9,2.1-1.5,3.4-1.5s2.5,0.6,3.4,1.5l0.4,0.4c0.8,0.7,2,1.2,3.1,1.2s2.2-0.5,3.1-1.2
						c0.1-0.1,0.4-0.4,0.4-0.4c0.9-0.9,2.1-1.5,3.4-1.5s2.5,0.6,3.4,1.5l0.4,0.4c0.8,0.7,2,1.2,3.1,1.2h0.1c1.1,0,2.2-0.5,3.1-1.2
						c0.1-0.1,0.4-0.4,0.4-0.4c0.9-0.9,2.1-1.5,3.4-1.5c1.3,0,2.5,0.6,3.4,1.5l0.4,0.4c0.8,0.7,2,1.2,3.1,1.2"/>
					<path id="SvgjsPath1062_00000055693542412578735500000005728657103458273943_" class="st4" d="M20,73.8c1.1,0,2.2-0.5,3.1-1.2
						c0.1-0.1,0.4-0.4,0.4-0.4c0.9-0.9,2.1-1.5,3.4-1.5s2.5,0.6,3.4,1.5l0.4,0.4c0.8,0.7,2,1.2,3.1,1.2s2.2-0.5,3.1-1.2
						c0.1-0.1,0.4-0.4,0.4-0.4c0.9-0.9,2.1-1.5,3.4-1.5c1.3,0,2.5,0.6,3.4,1.5l0.4,0.4c0.8,0.7,2,1.2,3.1,1.2s2.2-0.5,3.1-1.2
						c0.1-0.1,0.4-0.4,0.4-0.4c0.9-0.9,2.1-1.5,3.4-1.5c1.3,0,2.5,0.6,3.4,1.5l0.4,0.4c0.8,0.7,2,1.2,3.1,1.2s2.2-0.5,3.1-1.2
						c0.1-0.1,0.4-0.4,0.4-0.4c0.9-0.9,2.1-1.5,3.4-1.5s2.5,0.6,3.4,1.5l0.4,0.4c0.8,0.7,2,1.2,3.1,1.2s2.2-0.5,3.1-1.2
						c0.1-0.1,0.4-0.4,0.4-0.4c0.9-0.9,2.1-1.5,3.4-1.5s2.5,0.6,3.4,1.5l0.4,0.4c0.8,0.7,2,1.2,3.1,1.2s2.2-0.5,3.1-1.2"/>
					<path id="SvgjsPath1062_00000020360436388637711210000015206586990420788652_" class="st4" d="M20,64.3c1.1,0,2.2-0.5,3.1-1.2
						c0.1-0.1,0.4-0.4,0.4-0.4c0.9-0.9,2.1-1.5,3.4-1.5s2.5,0.6,3.4,1.5l0.4,0.4c0.8,0.7,2,1.2,3.1,1.2s2.2-0.5,3.1-1.2
						c0.1-0.1,0.4-0.4,0.4-0.4c0.9-0.9,2.1-1.5,3.4-1.5c1.3,0,2.5,0.6,3.4,1.5l0.4,0.4c0.8,0.7,2,1.2,3.1,1.2s2.2-0.5,3.1-1.2
						c0.1-0.1,0.4-0.4,0.4-0.4c0.9-0.9,2.1-1.5,3.4-1.5c1.3,0,2.5,0.6,3.4,1.5l0.4,0.4c0.8,0.7,2,1.2,3.1,1.2s2.2-0.5,3.1-1.2
						c0.1-0.1,0.4-0.4,0.4-0.4c0.9-0.9,2.1-1.5,3.4-1.5s2.5,0.6,3.4,1.5l0.4,0.4c0.8,0.7,2,1.2,3.1,1.2s2.2-0.5,3.1-1.2
						c0.1-0.1,0.4-0.4,0.4-0.4c0.9-0.9,2.1-1.5,3.4-1.5s2.5,0.6,3.4,1.5l0.4,0.4c0.8,0.7,2,1.2,3.1,1.2s2.2-0.5,3.1-1.2
						c0.1-0.1,0.4-0.4,0.4-0.4c0.9-0.9,2.1-1.5,3.4-1.5s2.5,0.6,3.4,1.5l0.4,0.4c0.8,0.7,2,1.2,3.1,1.2s2.2-0.5,3.1-1.2
						c0.1-0.1,0.4-0.4,0.4-0.4c0.9-0.9,2.1-1.5,3.4-1.5s2.5,0.6,3.4,1.5l0.4,0.4c0.8,0.7,2,1.2,3.1,1.2s2.2-0.5,3.1-1.2
						c0.1-0.1,0.4-0.4,0.4-0.4c0.9-0.9,2.1-1.5,3.4-1.5s2.5,0.6,3.4,1.5l0.4,0.4c0.8,0.7,2,1.2,3.1,1.2h0.1c1.1,0,2.2-0.5,3.1-1.2
						c0.1-0.1,0.4-0.4,0.4-0.4c0.9-0.9,2.1-1.5,3.4-1.5c1.3,0,2.5,0.6,3.4,1.5l0.4,0.4c0.8,0.7,2,1.2,3.1,1.2"/>
				</g>
			</g>
			<g id="bubbleGroup3">
				<rect y="96" class="dimensions" width="100.6" height="38"/>
				<g>
					<g>
						<circle class="st5" cx="55.3" cy="110.1" r="14.1"/>
						<path class="st6" d="M63.6,111.2c-0.2-0.2-0.5-0.2-0.9-0.2H47.8c-0.4,0-0.7,0-0.9,0.2c-1.8,2.3,0.3,9.2,8.3,9.2
							S65.4,113.6,63.6,111.2"/>
						<path class="st7" d="M56.1,114.6c-0.3,0-0.7,0.2-0.5,0.9c0.1,0.3,0.6,0.8,0.6,1.3c0,1.1-1.8,1.1-1.8,0c0-0.6,0.5-0.9,0.6-1.3
							c0.1-0.7-0.3-0.9-0.5-0.9c-0.8,0-1.9,0.8-1.9,2.2c0,1.5,1.3,2.7,2.8,2.7s2.8-1.2,2.8-2.7C58.1,115.5,56.9,114.7,56.1,114.6"/>
						<path class="st8" d="M51.7,118.9c1,0.5,2.3,0.7,3.6,0.7s2.6-0.3,3.6-0.7c-1-0.5-2.2-0.8-3.6-0.8S52.6,118.4,51.7,118.9"/>
						<path class="st3" d="M62.3,112h-14c-1,0-1,1.9,0,1.9h14.1C63.3,113.8,63.3,112,62.3,112"/>
						<path class="st6" d="M53.6,108.5c-0.9-2.4-2.2-3.6-3.5-3.6s-2.6,1.2-3.5,3.6c-0.1,0.2,0.4,0.7,0.6,0.4c0.8-0.9,1.9-1.3,2.9-1.3
							s2.1,0.4,2.9,1.3C53.3,109.2,53.7,108.8,53.6,108.5 M63.9,108.5c-0.9-2.4-2.2-3.6-3.5-3.6s-2.6,1.2-3.5,3.6
							c-0.1,0.2,0.4,0.7,0.6,0.4c0.8-0.9,1.9-1.3,2.9-1.3s2.1,0.4,2.9,1.3C63.5,109.2,64,108.8,63.9,108.5"/>
					</g>
					<g>
						<circle class="st5" cx="86.5" cy="110.1" r="14.1"/>
						<path class="st6" d="M94.8,111.2c-0.2-0.2-0.5-0.2-0.9-0.2H79.1c-0.4,0-0.7,0-0.9,0.2c-1.8,2.3,0.3,9.2,8.3,9.2
							S96.6,113.6,94.8,111.2"/>
						<path class="st7" d="M87.3,114.6c-0.3,0-0.7,0.2-0.5,0.9c0.1,0.3,0.6,0.8,0.6,1.3c0,1.1-1.8,1.1-1.8,0c0-0.6,0.5-0.9,0.6-1.3
							c0.1-0.7-0.3-0.9-0.5-0.9c-0.8,0-1.9,0.8-1.9,2.2c0,1.5,1.3,2.7,2.8,2.7s2.8-1.2,2.8-2.7C89.3,115.5,88.1,114.7,87.3,114.6"/>
						<path class="st8" d="M82.9,118.9c1,0.5,2.3,0.7,3.6,0.7c1.4,0,2.6-0.3,3.6-0.7c-1-0.5-2.2-0.8-3.6-0.8S83.9,118.4,82.9,118.9"/>
						<path class="st3" d="M93.5,112h-14c-1,0-1,1.9,0,1.9h14.1C94.5,113.8,94.5,112,93.5,112"/>
						<path class="st6" d="M84.9,108.5c-0.9-2.4-2.2-3.6-3.5-3.6s-2.6,1.2-3.5,3.6c-0.1,0.2,0.4,0.7,0.6,0.4c0.8-0.9,1.9-1.3,2.9-1.3
							s2.1,0.4,2.9,1.3C84.5,109.2,85,108.8,84.9,108.5 M95.1,108.5c-0.9-2.4-2.2-3.6-3.5-3.6s-2.6,1.2-3.5,3.6
							c-0.1,0.2,0.4,0.7,0.6,0.4c0.8-0.9,1.9-1.3,2.9-1.3s2.1,0.4,2.9,1.3C94.8,109.2,95.2,108.8,95.1,108.5"/>
					</g>
					<g>
						<circle class="st5" cx="24.1" cy="110.1" r="14.1"/>
						<path class="st6" d="M32.4,111.2c-0.2-0.2-0.5-0.2-0.9-0.2H16.7c-0.4,0-0.7,0-0.9,0.2c-1.8,2.3,0.3,9.2,8.3,9.2
							S34.2,113.6,32.4,111.2"/>
						<path class="st7" d="M24.9,114.6c-0.3,0-0.7,0.2-0.5,0.9c0.1,0.3,0.6,0.8,0.6,1.3c0,1.1-1.8,1.1-1.8,0c0-0.6,0.5-0.9,0.6-1.3
							c0.1-0.7-0.3-0.9-0.5-0.9c-0.8,0-1.9,0.8-1.9,2.2c0,1.5,1.3,2.7,2.8,2.7s2.8-1.2,2.8-2.7C26.9,115.5,25.7,114.7,24.9,114.6"/>
						<path class="st8" d="M20.5,118.9c1,0.5,2.3,0.7,3.6,0.7s2.6-0.3,3.6-0.7c-1-0.5-2.2-0.8-3.6-0.8S21.5,118.4,20.5,118.9"/>
						<path class="st3" d="M31.1,112h-14c-1,0-1,1.9,0,1.9h14.1C32.1,113.8,32.1,112,31.1,112"/>
						<path class="st6" d="M22.4,108.5c-0.9-2.4-2.2-3.6-3.5-3.6s-2.6,1.2-3.5,3.6c-0.1,0.2,0.4,0.7,0.6,0.4c0.8-0.9,1.9-1.3,2.9-1.3
							s2.1,0.4,2.9,1.3C22.1,109.2,22.5,108.8,22.4,108.5 M32.7,108.5c-0.9-2.4-2.2-3.6-3.5-3.6s-2.6,1.2-3.5,3.6
							c-0.1,0.2,0.4,0.7,0.6,0.4c0.8-0.9,1.9-1.3,2.9-1.3s2.1,0.4,2.9,1.3C32.4,109.2,32.8,108.8,32.7,108.5"/>
					</g>
				</g>
			</g>
			<g id="bubbleGroup4">
				<rect y="134" class="dimensions" width="155.7" height="91"/>
				<g>
					<g>
						<g>
							<path class="st2" d="M18,214.9c-3.2,0-5.9-2.6-5.9-5.9v-67c0-3.2,2.6-5.9,5.9-5.9h132c3.2,0,5.9,2.6,5.9,5.9v67
								c0,3.2-2.6,5.9-5.9,5.9H18z"/>
							<path class="st2" d="M150,136.3c3.2,0,5.8,2.6,5.8,5.8v67c0,3.2-2.6,5.8-5.8,5.8H18c-3.2,0-5.8-2.6-5.8-5.8v-67
								c0-3.2,2.6-5.8,5.8-5.8H150 M150,136H18c-3.3,0-6,2.7-6,6v67c0,3.3,2.7,6,6,6h132c3.3,0,6-2.7,6-6v-67
								C156,138.7,153.3,136,150,136L150,136z"/>
						</g>
						<g>
							<path class="st3" d="M16,212.9c-3.2,0-5.9-2.6-5.9-5.9v-67c0-3.2,2.6-5.9,5.9-5.9h132c3.2,0,5.9,2.6,5.9,5.9v67
								c0,3.2-2.6,5.9-5.9,5.9H16z"/>
							<path class="st2" d="M148,134.3c3.2,0,5.8,2.6,5.8,5.8v67c0,3.2-2.6,5.8-5.8,5.8H16c-3.2,0-5.8-2.6-5.8-5.8v-67
								c0-3.2,2.6-5.8,5.8-5.8H148 M148,134H16c-3.3,0-6,2.7-6,6v67c0,3.3,2.7,6,6,6h132c3.3,0,6-2.7,6-6v-67
								C154,136.7,151.3,134,148,134L148,134z"/>
						</g>
					</g>
					<path id="SvgjsPath1062_00000028302635181050141860000011222989024737736836_" class="st4" d="M20,147.2c1.1,0,2.2-0.5,3.1-1.2
						c0.1-0.1,0.4-0.4,0.4-0.4c0.9-0.9,2.1-1.5,3.4-1.5s2.5,0.6,3.4,1.5l0.4,0.4c0.8,0.7,2,1.2,3.1,1.2s2.2-0.5,3.1-1.2
						c0.1-0.1,0.4-0.4,0.4-0.4c0.9-0.9,2.1-1.5,3.4-1.5c1.3,0,2.5,0.6,3.4,1.5l0.4,0.4c0.8,0.7,2,1.2,3.1,1.2s2.2-0.5,3.1-1.2
						c0.1-0.1,0.4-0.4,0.4-0.4c0.9-0.9,2.1-1.5,3.4-1.5c1.3,0,2.5,0.6,3.4,1.5l0.4,0.4c0.8,0.7,2,1.2,3.1,1.2s2.2-0.5,3.1-1.2
						c0.1-0.1,0.4-0.4,0.4-0.4c0.9-0.9,2.1-1.5,3.4-1.5s2.5,0.6,3.4,1.5l0.4,0.4c0.8,0.7,2,1.2,3.1,1.2s2.2-0.5,3.1-1.2
						c0.1-0.1,0.4-0.4,0.4-0.4c0.9-0.9,2.1-1.5,3.4-1.5s2.5,0.6,3.4,1.5l0.4,0.4c0.8,0.7,2,1.2,3.1,1.2s2.2-0.5,3.1-1.2
						c0.1-0.1,0.4-0.4,0.4-0.4c0.9-0.9,2.1-1.5,3.4-1.5s2.5,0.6,3.4,1.5l0.4,0.4c0.8,0.7,2,1.2,3.1,1.2s2.2-0.5,3.1-1.2
						c0.1-0.1,0.4-0.4,0.4-0.4c0.9-0.9,2.1-1.5,3.4-1.5s2.5,0.6,3.4,1.5l0.4,0.4c0.8,0.7,2,1.2,3.1,1.2s2.2-0.5,3.1-1.2
						c0.1-0.1,0.4-0.4,0.4-0.4c0.9-0.9,2.1-1.5,3.4-1.5s2.5,0.6,3.4,1.5l0.4,0.4c0.8,0.7,2,1.2,3.1,1.2h0.1c1.1,0,2.2-0.5,3.1-1.2
						c0.1-0.1,0.4-0.4,0.4-0.4c0.9-0.9,2.1-1.5,3.4-1.5c1.3,0,2.5,0.6,3.4,1.5l0.4,0.4c0.8,0.7,2,1.2,3.1,1.2"/>
					<path id="SvgjsPath1062_00000117659447865469351170000017312006604727518618_" class="st4" d="M20,193.7c1.1,0,2.2-0.5,3.1-1.2
						c0.1-0.1,0.4-0.4,0.4-0.4c0.9-0.9,2.1-1.5,3.4-1.5s2.5,0.6,3.4,1.5l0.4,0.4c0.8,0.7,2,1.2,3.1,1.2s2.2-0.5,3.1-1.2
						c0.1-0.1,0.4-0.4,0.4-0.4c0.9-0.9,2.1-1.5,3.4-1.5c1.3,0,2.5,0.6,3.4,1.5l0.4,0.4c0.8,0.7,2,1.2,3.1,1.2s2.2-0.5,3.1-1.2
						c0.1-0.1,0.4-0.4,0.4-0.4c0.9-0.9,2.1-1.5,3.4-1.5c1.3,0,2.5,0.6,3.4,1.5l0.4,0.4c0.8,0.7,2,1.2,3.1,1.2s2.2-0.5,3.1-1.2
						c0.1-0.1,0.4-0.4,0.4-0.4c0.9-0.9,2.1-1.5,3.4-1.5s2.5,0.6,3.4,1.5l0.4,0.4c0.8,0.7,2,1.2,3.1,1.2s2.2-0.5,3.1-1.2
						c0.1-0.1,0.4-0.4,0.4-0.4c0.9-0.9,2.1-1.5,3.4-1.5s2.5,0.6,3.4,1.5l0.4,0.4c0.8,0.7,2,1.2,3.1,1.2s2.2-0.5,3.1-1.2
						c0.1-0.1,0.4-0.4,0.4-0.4c0.9-0.9,2.1-1.5,3.4-1.5s2.5,0.6,3.4,1.5l0.4,0.4c0.8,0.7,2,1.2,3.1,1.2s2.2-0.5,3.1-1.2
						c0.1-0.1,0.4-0.4,0.4-0.4c0.9-0.9,2.1-1.5,3.4-1.5s2.5,0.6,3.4,1.5l0.4,0.4c0.8,0.7,2,1.2,3.1,1.2s2.2-0.5,3.1-1.2
						c0.1-0.1,0.4-0.4,0.4-0.4c0.9-0.9,2.1-1.5,3.4-1.5s2.5,0.6,3.4,1.5l0.4,0.4c0.8,0.7,2,1.2,3.1,1.2h0.1c1.1,0,2.2-0.5,3.1-1.2
						c0.1-0.1,0.4-0.4,0.4-0.4c0.9-0.9,2.1-1.5,3.4-1.5c1.3,0,2.5,0.6,3.4,1.5l0.4,0.4c0.8,0.7,2,1.2,3.1,1.2"/>
					<path id="SvgjsPath1062_00000080164146043877439670000011762002221318572436_" class="st4" d="M20,203.1c1.1,0,2.2-0.5,3.1-1.2
						c0.1-0.1,0.4-0.4,0.4-0.4c0.9-0.9,2.1-1.5,3.4-1.5s2.5,0.6,3.4,1.5l0.4,0.4c0.8,0.7,2,1.2,3.1,1.2s2.2-0.5,3.1-1.2
						c0.1-0.1,0.4-0.4,0.4-0.4c0.9-0.9,2.1-1.5,3.4-1.5c1.3,0,2.5,0.6,3.4,1.5l0.4,0.4c0.8,0.7,2,1.2,3.1,1.2s2.2-0.5,3.1-1.2
						c0.1-0.1,0.4-0.4,0.4-0.4c0.9-0.9,2.1-1.5,3.4-1.5c1.3,0,2.5,0.6,3.4,1.5l0.4,0.4c0.8,0.7,2,1.2,3.1,1.2s2.2-0.5,3.1-1.2
						c0.1-0.1,0.4-0.4,0.4-0.4c0.9-0.9,2.1-1.5,3.4-1.5s2.5,0.6,3.4,1.5l0.4,0.4c0.8,0.7,2,1.2,3.1,1.2s2.2-0.5,3.1-1.2
						c0.1-0.1,0.4-0.4,0.4-0.4c0.9-0.9,2.1-1.5,3.4-1.5s2.5,0.6,3.4,1.5l0.4,0.4c0.8,0.7,2,1.2,3.1,1.2s2.2-0.5,3.1-1.2
						c0.1-0.1,0.4-0.4,0.4-0.4c0.9-0.9,2.1-1.5,3.4-1.5s2.5,0.6,3.4,1.5l0.4,0.4c0.8,0.7,2,1.2,3.1,1.2s2.2-0.5,3.1-1.2
						c0.1-0.1,0.4-0.4,0.4-0.4c0.9-0.9,2.1-1.5,3.4-1.5s2.5,0.6,3.4,1.5"/>
					<path id="SvgjsPath1062_00000108278019283831229330000015371414944579284628_" class="st4" d="M20,184.4c1.1,0,2.2-0.5,3.1-1.2
						c0.1-0.1,0.4-0.4,0.4-0.4c0.9-0.9,2.1-1.5,3.4-1.5s2.5,0.6,3.4,1.5l0.4,0.4c0.8,0.7,2,1.2,3.1,1.2s2.2-0.5,3.1-1.2
						c0.1-0.1,0.4-0.4,0.4-0.4c0.9-0.9,2.1-1.5,3.4-1.5c1.3,0,2.5,0.6,3.4,1.5l0.4,0.4c0.8,0.7,2,1.2,3.1,1.2s2.2-0.5,3.1-1.2
						c0.1-0.1,0.4-0.4,0.4-0.4c0.9-0.9,2.1-1.5,3.4-1.5c1.3,0,2.5,0.6,3.4,1.5l0.4,0.4c0.8,0.7,2,1.2,3.1,1.2s2.2-0.5,3.1-1.2
						c0.1-0.1,0.4-0.4,0.4-0.4c0.9-0.9,2.1-1.5,3.4-1.5s2.5,0.6,3.4,1.5l0.4,0.4c0.8,0.7,2,1.2,3.1,1.2s2.2-0.5,3.1-1.2
						c0.1-0.1,0.4-0.4,0.4-0.4c0.9-0.9,2.1-1.5,3.4-1.5s2.5,0.6,3.4,1.5l0.4,0.4c0.8,0.7,2,1.2,3.1,1.2s2.2-0.5,3.1-1.2
						c0.1-0.1,0.4-0.4,0.4-0.4c0.9-0.9,2.1-1.5,3.4-1.5s2.5,0.6,3.4,1.5l0.4,0.4c0.8,0.7,2,1.2,3.1,1.2s2.2-0.5,3.1-1.2
						c0.1-0.1,0.4-0.4,0.4-0.4c0.9-0.9,2.1-1.5,3.4-1.5s2.5,0.6,3.4,1.5l0.4,0.4c0.8,0.7,2,1.2,3.1,1.2s2.2-0.5,3.1-1.2
						c0.1-0.1,0.4-0.4,0.4-0.4c0.9-0.9,2.1-1.5,3.4-1.5s2.5,0.6,3.4,1.5l0.4,0.4c0.8,0.7,2,1.2,3.1,1.2h0.1c1.1,0,2.2-0.5,3.1-1.2
						c0.1-0.1,0.4-0.4,0.4-0.4c0.9-0.9,2.1-1.5,3.4-1.5c1.3,0,2.5,0.6,3.4,1.5l0.4,0.4c0.8,0.7,2,1.2,3.1,1.2"/>
					<path id="SvgjsPath1062_00000171717253567003181250000006675016097239501227_" class="st4" d="M20,175.1c1.1,0,2.2-0.5,3.1-1.2
						c0.1-0.1,0.4-0.4,0.4-0.4c0.9-0.9,2.1-1.5,3.4-1.5s2.5,0.6,3.4,1.5l0.4,0.4c0.8,0.7,2,1.2,3.1,1.2s2.2-0.5,3.1-1.2
						c0.1-0.1,0.4-0.4,0.4-0.4c0.9-0.9,2.1-1.5,3.4-1.5c1.3,0,2.5,0.6,3.4,1.5l0.4,0.4c0.8,0.7,2,1.2,3.1,1.2s2.2-0.5,3.1-1.2
						c0.1-0.1,0.4-0.4,0.4-0.4c0.9-0.9,2.1-1.5,3.4-1.5c1.3,0,2.5,0.6,3.4,1.5l0.4,0.4c0.8,0.7,2,1.2,3.1,1.2s2.2-0.5,3.1-1.2
						c0.1-0.1,0.4-0.4,0.4-0.4c0.9-0.9,2.1-1.5,3.4-1.5s2.5,0.6,3.4,1.5l0.4,0.4c0.8,0.7,2,1.2,3.1,1.2s2.2-0.5,3.1-1.2
						c0.1-0.1,0.4-0.4,0.4-0.4c0.9-0.9,2.1-1.5,3.4-1.5s2.5,0.6,3.4,1.5l0.4,0.4c0.8,0.7,2,1.2,3.1,1.2s2.2-0.5,3.1-1.2
						c0.1-0.1,0.4-0.4,0.4-0.4c0.9-0.9,2.1-1.5,3.4-1.5s2.5,0.6,3.4,1.5l0.4,0.4c0.8,0.7,2,1.2,3.1,1.2s2.2-0.5,3.1-1.2
						c0.1-0.1,0.4-0.4,0.4-0.4c0.9-0.9,2.1-1.5,3.4-1.5s2.5,0.6,3.4,1.5l0.4,0.4c0.8,0.7,2,1.2,3.1,1.2s2.2-0.5,3.1-1.2
						c0.1-0.1,0.4-0.4,0.4-0.4c0.9-0.9,2.1-1.5,3.4-1.5s2.5,0.6,3.4,1.5l0.4,0.4c0.8,0.7,2,1.2,3.1,1.2h0.1c1.1,0,2.2-0.5,3.1-1.2
						c0.1-0.1,0.4-0.4,0.4-0.4c0.9-0.9,2.1-1.5,3.4-1.5c1.3,0,2.5,0.6,3.4,1.5l0.4,0.4c0.8,0.7,2,1.2,3.1,1.2"/>
					<path id="SvgjsPath1062_00000055680225847772890420000005168426529412104583_" class="st4" d="M20,165.8c1.1,0,2.2-0.5,3.1-1.2
						c0.1-0.1,0.4-0.4,0.4-0.4c0.9-0.9,2.1-1.5,3.4-1.5s2.5,0.6,3.4,1.5l0.4,0.4c0.8,0.7,2,1.2,3.1,1.2s2.2-0.5,3.1-1.2
						c0.1-0.1,0.4-0.4,0.4-0.4c0.9-0.9,2.1-1.5,3.4-1.5c1.3,0,2.5,0.6,3.4,1.5l0.4,0.4c0.8,0.7,2,1.2,3.1,1.2s2.2-0.5,3.1-1.2
						c0.1-0.1,0.4-0.4,0.4-0.4c0.9-0.9,2.1-1.5,3.4-1.5c1.3,0,2.5,0.6,3.4,1.5l0.4,0.4c0.8,0.7,2,1.2,3.1,1.2s2.2-0.5,3.1-1.2
						c0.1-0.1,0.4-0.4,0.4-0.4c0.9-0.9,2.1-1.5,3.4-1.5s2.5,0.6,3.4,1.5l0.4,0.4c0.8,0.7,2,1.2,3.1,1.2s2.2-0.5,3.1-1.2
						c0.1-0.1,0.4-0.4,0.4-0.4c0.9-0.9,2.1-1.5,3.4-1.5s2.5,0.6,3.4,1.5l0.4,0.4c0.8,0.7,2,1.2,3.1,1.2s2.2-0.5,3.1-1.2
						c0.1-0.1,0.4-0.4,0.4-0.4c0.9-0.9,2.1-1.5,3.4-1.5s2.5,0.6,3.4,1.5l0.4,0.4c0.8,0.7,2,1.2,3.1,1.2s2.2-0.5,3.1-1.2
						c0.1-0.1,0.4-0.4,0.4-0.4c0.9-0.9,2.1-1.5,3.4-1.5s2.5,0.6,3.4,1.5l0.4,0.4c0.8,0.7,2,1.2,3.1,1.2s2.2-0.5,3.1-1.2
						c0.1-0.1,0.4-0.4,0.4-0.4c0.9-0.9,2.1-1.5,3.4-1.5s2.5,0.6,3.4,1.5l0.4,0.4c0.8,0.7,2,1.2,3.1,1.2h0.1c1.1,0,2.2-0.5,3.1-1.2
						c0.1-0.1,0.4-0.4,0.4-0.4c0.9-0.9,2.1-1.5,3.4-1.5c1.3,0,2.5,0.6,3.4,1.5l0.4,0.4c0.8,0.7,2,1.2,3.1,1.2"/>
					<path id="SvgjsPath1062_00000011753458197030778740000010679170828984187528_" class="st4" d="M20,156.6c1.1,0,2.2-0.5,3.1-1.2
						c0.1-0.1,0.4-0.4,0.4-0.4c0.9-0.9,2.1-1.5,3.4-1.5s2.5,0.6,3.4,1.5l0.4,0.4c0.8,0.7,2,1.2,3.1,1.2s2.2-0.5,3.1-1.2
						c0.1-0.1,0.4-0.4,0.4-0.4c0.9-0.9,2.1-1.5,3.4-1.5c1.3,0,2.5,0.6,3.4,1.5l0.4,0.4c0.8,0.7,2,1.2,3.1,1.2s2.2-0.5,3.1-1.2
						c0.1-0.1,0.4-0.4,0.4-0.4c0.9-0.9,2.1-1.5,3.4-1.5c1.3,0,2.5,0.6,3.4,1.5l0.4,0.4c0.8,0.7,2,1.2,3.1,1.2s2.2-0.5,3.1-1.2
						c0.1-0.1,0.4-0.4,0.4-0.4c0.9-0.9,2.1-1.5,3.4-1.5s2.5,0.6,3.4,1.5l0.4,0.4c0.8,0.7,2,1.2,3.1,1.2s2.2-0.5,3.1-1.2
						c0.1-0.1,0.4-0.4,0.4-0.4c0.9-0.9,2.1-1.5,3.4-1.5s2.5,0.6,3.4,1.5l0.4,0.4c0.8,0.7,2,1.2,3.1,1.2s2.2-0.5,3.1-1.2
						c0.1-0.1,0.4-0.4,0.4-0.4c0.9-0.9,2.1-1.5,3.4-1.5s2.5,0.6,3.4,1.5l0.4,0.4c0.8,0.7,2,1.2,3.1,1.2s2.2-0.5,3.1-1.2
						c0.1-0.1,0.4-0.4,0.4-0.4c0.9-0.9,2.1-1.5,3.4-1.5s2.5,0.6,3.4,1.5l0.4,0.4c0.8,0.7,2,1.2,3.1,1.2s2.2-0.5,3.1-1.2
						c0.1-0.1,0.4-0.4,0.4-0.4c0.9-0.9,2.1-1.5,3.4-1.5s2.5,0.6,3.4,1.5l0.4,0.4c0.8,0.7,2,1.2,3.1,1.2h0.1c1.1,0,2.2-0.5,3.1-1.2
						c0.1-0.1,0.4-0.4,0.4-0.4c0.9-0.9,2.1-1.5,3.4-1.5c1.3,0,2.5,0.6,3.4,1.5l0.4,0.4c0.8,0.7,2,1.2,3.1,1.2"/>
				</g>
			</g>
			<g class="bubbleGroup" id="bubbleGroup5">
				<rect y="225" class="dimensions" width="83" height="35"/>
				<g class="bubble">
					<g>
						<g>
							<path class="st2" d="M18,250.9c-3.2,0-5.9-2.6-5.9-5.9v-12c0-3.2,2.6-5.9,5.9-5.9h60c3.2,0,5.9,2.6,5.9,5.9v12
								c0,3.2-2.6,5.9-5.9,5.9H18z"/>
							<path class="st2" d="M78,227.3c3.2,0,5.8,2.6,5.8,5.8v12c0,3.2-2.6,5.8-5.8,5.8H18c-3.2,0-5.8-2.6-5.8-5.8v-12
								c0-3.2,2.6-5.8,5.8-5.8H78 M78,227H18c-3.3,0-6,2.7-6,6v12c0,3.3,2.7,6,6,6h60c3.3,0,6-2.7,6-6v-12C84,229.7,81.3,227,78,227
								L78,227z"/>
						</g>
						<g>
							<path class="st3" d="M16,248.9c-3.2,0-5.9-2.6-5.9-5.9v-12c0-3.2,2.6-5.9,5.9-5.9h60c3.2,0,5.9,2.6,5.9,5.9v12
								c0,3.2-2.6,5.9-5.9,5.9H16z"/>
							<path class="st2" d="M76,225.3c3.2,0,5.8,2.6,5.8,5.8v12c0,3.2-2.6,5.8-5.8,5.8H16c-3.2,0-5.8-2.6-5.8-5.8v-12
								c0-3.2,2.6-5.8,5.8-5.8H76 M76,225H16c-3.3,0-6,2.7-6,6v12c0,3.3,2.7,6,6,6h60c3.3,0,6-2.7,6-6v-12C82,227.7,79.3,225,76,225
								L76,225z"/>
						</g>
					</g>
					<path id="SvgjsPath1062_00000001661344423241396650000014556864483540467089_" class="st4" d="M20,238.1c1.1,0,2.2-0.5,3.1-1.2
						c0.1-0.1,0.4-0.4,0.4-0.4c0.9-0.9,2.1-1.5,3.4-1.5s2.5,0.6,3.4,1.5l0.4,0.4c0.8,0.7,2,1.2,3.1,1.2s2.2-0.5,3.1-1.2
						c0.1-0.1,0.4-0.4,0.4-0.4c0.9-0.9,2.1-1.5,3.4-1.5c1.3,0,2.5,0.6,3.4,1.5l0.4,0.4c0.8,0.7,2,1.2,3.1,1.2s2.2-0.5,3.1-1.2
						c0.1-0.1,0.4-0.4,0.4-0.4c0.9-0.9,2.1-1.5,3.4-1.5c1.3,0,2.5,0.6,3.4,1.5l0.4,0.4c0.8,0.7,2,1.2,3.1,1.2s2.2-0.5,3.1-1.2
						c0.1-0.1,0.4-0.4,0.4-0.4c0.9-0.9,2.1-1.5,3.4-1.5s2.5,0.6,3.4,1.5l0.4,0.4"/>
				</g>
			</g>
			<g class="bubbleGroup" id="bubbleGroup6">
				<rect y="260.1" class="dimensions" width="101.1" height="43"/>
				<g class="bubble">
					<g>
						<path class="st9" d="M69.1,273.3c0,0-1.6,1.5-4.4,3.3c-0.8-4.4-2.9-9.9-7.1-16.6c0,0-1.4,7.2-5.9,13.9c-2-3.1-2.8-5.5-2.8-5.5
							c-14.2,14.3-2.4,24.4,5,24.4C63.4,292.9,71.8,288.3,69.1,273.3"/>
						<path class="st10" d="M63.5,286c0.8-1.8,1.4-4.2,1.5-7.1c0,0-1.1,1-3.1,2.2c-0.5-3-2-6.6-4.9-11.1c0,0-0.9,4.8-4.1,9.3
							c-1.4-2-2-3.7-2-3.7c-2.4,3.7-3.3,6.7-3.3,9c-1.3-0.5-2.1-0.9-2.1-0.9c2.2,6.7,6.9,8.2,9,8.2c3.7,0,7.5-1.1,11.2-6.4
							C65.6,285.6,64.8,285.8,63.5,286"/>
						<path class="st11" d="M49.9,283c0,0,1.5,2.1,2.7,1.6c0,0,2.2-3.4,5.4-5.4c0,0-0.7,5.3,0.1,6.2c1,1.3,3.7-1.4,3.7-1.4
							c0,3.1-3.4,7-6.5,7C52.3,291.1,48.1,287.7,49.9,283"/>
						<path class="st9" d="M65.2,268.9c1.1-1.6,1.9-3.4,1.9-3.4c1.9,3.2,0.8,5.1-0.1,5.7C65.9,272.1,63.9,270.8,65.2,268.9
							M44.3,268.4c-1.1-1.9-1.3-4.3-1.3-4.3c-2.7,4.1-1.7,6.4-0.8,7.1C43.5,272,45.6,270.6,44.3,268.4 M50.6,264.1
							c0.2-1.3-0.4-2.6-0.4-2.6c2.6,1.7,2.6,3.1,2.2,3.7C52,265.9,50.5,265.6,50.6,264.1"/>
					</g>
					<g>
						<path class="st9" d="M100.6,273.3c0,0-1.6,1.5-4.4,3.3c-0.8-4.4-2.9-9.9-7.1-16.6c0,0-1.4,7.2-5.9,13.9c-2-3.1-2.8-5.5-2.8-5.5
							c-14.2,14.3-2.4,24.4,5,24.4C94.9,292.9,103.3,288.3,100.6,273.3"/>
						<path class="st10" d="M94.9,286c0.8-1.8,1.4-4.2,1.5-7.1c0,0-1.1,1-3.1,2.2c-0.5-3-2-6.6-4.9-11.1c0,0-0.9,4.8-4.1,9.3
							c-1.4-2-2-3.7-2-3.7c-2.4,3.7-3.3,6.7-3.3,9c-1.3-0.5-2.1-0.9-2.1-0.9c2.2,6.7,6.9,8.2,9,8.2c3.7,0,7.5-1.1,11.2-6.4
							C97.1,285.6,96.2,285.8,94.9,286"/>
						<path class="st11" d="M81.4,283c0,0,1.5,2.1,2.7,1.6c0,0,2.2-3.4,5.4-5.4c0,0-0.7,5.3,0.1,6.2c1,1.3,3.7-1.4,3.7-1.4
							c0,3.1-3.4,7-6.5,7C83.8,291.1,79.5,287.7,81.4,283"/>
						<path class="st9" d="M96.6,268.9c1.1-1.6,1.9-3.4,1.9-3.4c1.9,3.2,0.8,5.1-0.1,5.7C97.3,272.1,95.3,270.8,96.6,268.9
							M75.7,268.4c-1.1-1.9-1.3-4.3-1.3-4.3c-2.7,4.1-1.7,6.4-0.8,7.1C74.9,272,77,270.6,75.7,268.4 M82.1,264.1
							c0.2-1.3-0.4-2.6-0.4-2.6c2.6,1.7,2.6,3.1,2.2,3.7C83.4,265.9,81.9,265.6,82.1,264.1"/>
					</g>
					<g>
						<path class="st9" d="M37.9,273.3c0,0-1.6,1.5-4.4,3.3c-0.8-4.4-2.9-9.9-7.1-16.6c0,0-1.4,7.2-5.9,13.9c-2-3.1-2.8-5.5-2.8-5.5
							c-14.2,14.3-2.4,24.4,5,24.4C32.2,292.9,40.5,288.3,37.9,273.3"/>
						<path class="st10" d="M32.2,286c0.8-1.8,1.4-4.2,1.5-7.1c0,0-1.1,1-3.1,2.2c-0.5-3-2-6.6-4.9-11.1c0,0-0.9,4.8-4.1,9.3
							c-1.4-2-2-3.7-2-3.7c-2.4,3.7-3.3,6.7-3.3,9c-1.3-0.5-2.1-0.9-2.1-0.9c2.2,6.7,6.9,8.2,9,8.2c3.7,0,7.5-1.1,11.2-6.4
							C34.4,285.6,33.5,285.8,32.2,286"/>
						<path class="st11" d="M18.7,283c0,0,1.5,2.1,2.7,1.6c0,0,2.2-3.4,5.4-5.4c0,0-0.7,5.3,0.1,6.2c1,1.3,3.7-1.4,3.7-1.4
							c0,3.1-3.4,7-6.5,7C21.1,291.1,16.8,287.7,18.7,283"/>
						<path class="st9" d="M33.9,268.9c1.1-1.6,1.9-3.4,1.9-3.4c1.9,3.2,0.8,5.1-0.1,5.7C34.6,272.1,32.6,270.8,33.9,268.9 M13,268.4
							c-1.1-1.9-1.3-4.3-1.3-4.3c-2.7,4-1.6,6.3-0.7,7C12.2,272,14.3,270.6,13,268.4 M19.4,264.1c0.2-1.3-0.4-2.6-0.4-2.6
							c2.6,1.7,2.6,3.1,2.2,3.7C20.7,265.9,19.2,265.6,19.4,264.1"/>
					</g>
				</g>
			</g>
			<g class="bubbleGroup" id="bubbleGroup7">
				<rect y="303" class="dimensions" width="156.4" height="63"/>
				<g class="bubble">
					<g>
						<g>
							<path class="st2" d="M18,356.9c-3.2,0-5.9-2.6-5.9-5.9v-40c0-3.2,2.6-5.9,5.9-5.9h132c3.2,0,5.9,2.6,5.9,5.9v40
								c0,3.2-2.6,5.9-5.9,5.9H18z"/>
							<path class="st2" d="M150,305.3c3.2,0,5.8,2.6,5.8,5.8v40c0,3.2-2.6,5.8-5.8,5.8H18c-3.2,0-5.8-2.6-5.8-5.8v-40
								c0-3.2,2.6-5.8,5.8-5.8H150 M150,305H18c-3.3,0-6,2.7-6,6v40c0,3.3,2.7,6,6,6h132c3.3,0,6-2.7,6-6v-40
								C156,307.7,153.3,305,150,305L150,305z"/>
						</g>
						<g>
							<path class="st3" d="M16,354.9c-3.2,0-5.9-2.6-5.9-5.9v-40c0-3.2,2.6-5.9,5.9-5.9h132c3.2,0,5.9,2.6,5.9,5.9v40
								c0,3.2-2.6,5.9-5.9,5.9H16z"/>
							<path class="st2" d="M148,303.3c3.2,0,5.8,2.6,5.8,5.8v40c0,3.2-2.6,5.8-5.8,5.8H16c-3.2,0-5.8-2.6-5.8-5.8v-40
								c0-3.2,2.6-5.8,5.8-5.8H148 M148,303H16c-3.3,0-6,2.7-6,6v40c0,3.3,2.7,6,6,6h132c3.3,0,6-2.7,6-6v-40
								C154,305.7,151.3,303,148,303L148,303z"/>
						</g>
					</g>
					<path id="SvgjsPath1062_00000054234031143420935010000014963467920937105798_" class="st4" d="M20,316c1.1,0,2.2-0.5,3.1-1.2
						c0.1-0.1,0.4-0.4,0.4-0.4c0.9-0.9,2.1-1.5,3.4-1.5s2.5,0.6,3.4,1.5l0.4,0.4c0.8,0.7,2,1.2,3.1,1.2s2.2-0.5,3.1-1.2
						c0.1-0.1,0.4-0.4,0.4-0.4c0.9-0.9,2.1-1.5,3.4-1.5c1.3,0,2.5,0.6,3.4,1.5l0.4,0.4c0.8,0.7,2,1.2,3.1,1.2s2.2-0.5,3.1-1.2
						c0.1-0.1,0.4-0.4,0.4-0.4c0.9-0.9,2.1-1.5,3.4-1.5c1.3,0,2.5,0.6,3.4,1.5l0.4,0.4c0.8,0.7,2,1.2,3.1,1.2s2.2-0.5,3.1-1.2
						c0.1-0.1,0.4-0.4,0.4-0.4c0.9-0.9,2.1-1.5,3.4-1.5s2.5,0.6,3.4,1.5l0.4,0.4c0.8,0.7,2,1.2,3.1,1.2s2.2-0.5,3.1-1.2
						c0.1-0.1,0.4-0.4,0.4-0.4c0.9-0.9,2.1-1.5,3.4-1.5s2.5,0.6,3.4,1.5l0.4,0.4c0.8,0.7,2,1.2,3.1,1.2s2.2-0.5,3.1-1.2
						c0.1-0.1,0.4-0.4,0.4-0.4c0.9-0.9,2.1-1.5,3.4-1.5s2.5,0.6,3.4,1.5l0.4,0.4c0.8,0.7,2,1.2,3.1,1.2s2.2-0.5,3.1-1.2
						c0.1-0.1,0.4-0.4,0.4-0.4c0.9-0.9,2.1-1.5,3.4-1.5s2.5,0.6,3.4,1.5l0.4,0.4c0.8,0.7,2,1.2,3.1,1.2s2.2-0.5,3.1-1.2
						c0.1-0.1,0.4-0.4,0.4-0.4c0.9-0.9,2.1-1.5,3.4-1.5s2.5,0.6,3.4,1.5l0.4,0.4c0.8,0.7,2,1.2,3.1,1.2h0.1c1.1,0,2.2-0.5,3.1-1.2
						c0.1-0.1,0.4-0.4,0.4-0.4c0.9-0.9,2.1-1.5,3.4-1.5c1.3,0,2.5,0.6,3.4,1.5l0.4,0.4c0.8,0.7,2,1.2,3.1,1.2"/>
					<path id="SvgjsPath1062_00000023257905178653594300000017268223991216400288_" class="st4" d="M20,334.9c1.1,0,2.2-0.5,3.1-1.2
						c0.1-0.1,0.4-0.4,0.4-0.4c0.9-0.9,2.1-1.5,3.4-1.5s2.5,0.6,3.4,1.5l0.4,0.4c0.8,0.7,2,1.2,3.1,1.2s2.2-0.5,3.1-1.2
						c0.1-0.1,0.4-0.4,0.4-0.4c0.9-0.9,2.1-1.5,3.4-1.5c1.3,0,2.5,0.6,3.4,1.5l0.4,0.4c0.8,0.7,2,1.2,3.1,1.2s2.2-0.5,3.1-1.2
						c0.1-0.1,0.4-0.4,0.4-0.4c0.9-0.9,2.1-1.5,3.4-1.5c1.3,0,2.5,0.6,3.4,1.5l0.4,0.4c0.8,0.7,2,1.2,3.1,1.2s2.2-0.5,3.1-1.2
						c0.1-0.1,0.4-0.4,0.4-0.4c0.9-0.9,2.1-1.5,3.4-1.5s2.5,0.6,3.4,1.5l0.4,0.4c0.8,0.7,2,1.2,3.1,1.2s2.2-0.5,3.1-1.2
						c0.1-0.1,0.4-0.4,0.4-0.4c0.9-0.9,2.1-1.5,3.4-1.5s2.5,0.6,3.4,1.5l0.4,0.4c0.8,0.7,2,1.2,3.1,1.2s2.2-0.5,3.1-1.2
						c0.1-0.1,0.4-0.4,0.4-0.4c0.9-0.9,2.1-1.5,3.4-1.5s2.5,0.6,3.4,1.5l0.4,0.4c0.8,0.7,2,1.2,3.1,1.2s2.2-0.5,3.1-1.2
						c0.1-0.1,0.4-0.4,0.4-0.4c0.9-0.9,2.1-1.5,3.4-1.5s2.5,0.6,3.4,1.5l0.4,0.4c0.8,0.7,2,1.2,3.1,1.2s2.2-0.5,3.1-1.2
						c0.1-0.1,0.4-0.4,0.4-0.4c0.9-0.9,2.1-1.5,3.4-1.5s2.5,0.6,3.4,1.5l0.4,0.4c0.8,0.7,2,1.2,3.1,1.2h0.1c1.1,0,2.2-0.5,3.1-1.2
						c0.1-0.1,0.4-0.4,0.4-0.4c0.9-0.9,2.1-1.5,3.4-1.5c1.3,0,2.5,0.6,3.4,1.5l0.4,0.4c0.8,0.7,2,1.2,3.1,1.2"/>
					<path id="SvgjsPath1062_00000084517474065252027700000003707804146791158660_" class="st4" d="M20,325.4c1.1,0,2.2-0.5,3.1-1.2
						c0.1-0.1,0.4-0.4,0.4-0.4c0.9-0.9,2.1-1.5,3.4-1.5s2.5,0.6,3.4,1.5l0.4,0.4c0.8,0.7,2,1.2,3.1,1.2s2.2-0.5,3.1-1.2
						c0.1-0.1,0.4-0.4,0.4-0.4c0.9-0.9,2.1-1.5,3.4-1.5c1.3,0,2.5,0.6,3.4,1.5l0.4,0.4c0.8,0.7,2,1.2,3.1,1.2s2.2-0.5,3.1-1.2
						c0.1-0.1,0.4-0.4,0.4-0.4c0.9-0.9,2.1-1.5,3.4-1.5c1.3,0,2.5,0.6,3.4,1.5l0.4,0.4c0.8,0.7,2,1.2,3.1,1.2s2.2-0.5,3.1-1.2
						c0.1-0.1,0.4-0.4,0.4-0.4c0.9-0.9,2.1-1.5,3.4-1.5s2.5,0.6,3.4,1.5l0.4,0.4c0.8,0.7,2,1.2,3.1,1.2s2.2-0.5,3.1-1.2
						c0.1-0.1,0.4-0.4,0.4-0.4c0.9-0.9,2.1-1.5,3.4-1.5s2.5,0.6,3.4,1.5l0.4,0.4c0.8,0.7,2,1.2,3.1,1.2s2.2-0.5,3.1-1.2
						c0.1-0.1,0.4-0.4,0.4-0.4c0.9-0.9,2.1-1.5,3.4-1.5s2.5,0.6,3.4,1.5l0.4,0.4c0.8,0.7,2,1.2,3.1,1.2s2.2-0.5,3.1-1.2
						c0.1-0.1,0.4-0.4,0.4-0.4c0.9-0.9,2.1-1.5,3.4-1.5s2.5,0.6,3.4,1.5l0.4,0.4c0.8,0.7,2,1.2,3.1,1.2s2.2-0.5,3.1-1.2
						c0.1-0.1,0.4-0.4,0.4-0.4c0.9-0.9,2.1-1.5,3.4-1.5s2.5,0.6,3.4,1.5l0.4,0.4c0.8,0.7,2,1.2,3.1,1.2h0.1c1.1,0,2.2-0.5,3.1-1.2
						c0.1-0.1,0.4-0.4,0.4-0.4c0.9-0.9,2.1-1.5,3.4-1.5c1.3,0,2.5,0.6,3.4,1.5l0.4,0.4c0.8,0.7,2,1.2,3.1,1.2"/>
					<path id="SvgjsPath1062_00000181073234062121429060000006283373237724219796_" class="st4" d="M20,344.4c1.1,0,2.2-0.5,3.1-1.2
						c0.1-0.1,0.4-0.4,0.4-0.4c0.9-0.9,2.1-1.5,3.4-1.5s2.5,0.6,3.4,1.5l0.4,0.4c0.8,0.7,2,1.2,3.1,1.2s2.2-0.5,3.1-1.2
						c0.1-0.1,0.4-0.4,0.4-0.4c0.9-0.9,2.1-1.5,3.4-1.5c1.3,0,2.5,0.6,3.4,1.5l0.4,0.4c0.8,0.7,2,1.2,3.1,1.2s2.2-0.5,3.1-1.2
						c0.1-0.1,0.4-0.4,0.4-0.4c0.9-0.9,2.1-1.5,3.4-1.5c1.3,0,2.5,0.6,3.4,1.5l0.4,0.4c0.8,0.7,2,1.2,3.1,1.2s2.2-0.5,3.1-1.2
						c0.1-0.1,0.4-0.4,0.4-0.4c0.9-0.9,2.1-1.5,3.4-1.5s2.5,0.6,3.4,1.5l0.4,0.4c0.8,0.7,2,1.2,3.1,1.2s2.2-0.5,3.1-1.2
						c0.1-0.1,0.4-0.4,0.4-0.4c0.9-0.9,2.1-1.5,3.4-1.5s2.5,0.6,3.4,1.5l0.4,0.4c0.8,0.7,2,1.2,3.1,1.2"/>
				</g>
			</g>
			<g class="bubbleGroup" id="bubbleGroup8">
				<rect y="366" class="dimensions" width="101" height="38"/>
				<g class="bubble">
					<g>
						<g>
							<ellipse class="st12" cx="48.7" cy="393.3" rx="5.9" ry="0.7"/>
							<ellipse class="st12" cx="61.2" cy="393.5" rx="8.5" ry="0.8"/>
						</g>
						
							<ellipse transform="matrix(0.1327 -0.9912 0.9912 0.1327 -328.7084 384.7095)" class="st5" cx="55.5" cy="380.2" rx="14.2" ry="14.2"/>
						<path class="st6" d="M61.5,386.8c-0.7-1.7-2.3-2.8-6-2.8c-3.8,0-5.3,1.1-6,2.8c-0.3,0.9,0.1,2.4,0.1,2.4
							c0.6,1.8,0.5,2.4,5.9,2.4s5.2-0.5,5.9-2.4C61.4,389.1,61.9,387.7,61.5,386.8"/>
						<path class="st3" d="M59.8,386.3c0-0.1,0-0.3-0.1-0.4c0,0-0.9-1-4.2-1c-3.2,0-4.2,1-4.2,1c-0.1,0-0.1,0.2-0.1,0.4l0.1,0.3
							c0,0.1,0.1,0.2,0.2,0.2h7.8c0.1,0,0.2-0.1,0.2-0.2L59.8,386.3"/>
						<g>
							<path class="st12" d="M61.4,393.6c1.1,0,2.2,0,3.2,0c3.9-4.7-0.7-9.4,0.4-14.1c-1.1,0-2.2,1.2-3.2,1.2
								C60.4,385.2,65.3,388.9,61.4,393.6"/>
							<path class="st12" d="M49.6,393.6c-1.1,0-2.2,0-3.2,0c-3.9-4.7,0.7-9.4-0.4-14.1c1.1,0,2.2,1.2,3.2,1.2
								C50.7,385.2,45.8,388.9,49.6,393.6"/>
						</g>
						<g>
							<path class="st13" d="M59.6,373.7c1.4,1.4,3.4,2.1,5.4,1.9c0.3,0,0.4,1,0.1,1c-2.3,0.2-4.6-0.6-6.2-2.3
								C58.7,374.2,59.5,373.5,59.6,373.7"/>
							<path class="st13" d="M46.1,375.6c2,0.2,4-0.5,5.4-1.9c0.2-0.2,1,0.5,0.8,0.7c-1.6,1.7-3.9,2.5-6.2,2.3
								C45.6,376.7,45.8,375.6,46.1,375.6"/>
						</g>
						<g>
							<path class="st6" d="M57.4,379.4c2,3.8,6,3.8,8,0c0.1-0.2-0.1-0.3-0.5-0.5c-2,1.6-5.2,1.4-7,0
								C57.6,379.1,57.3,379.2,57.4,379.4"/>
							<path class="st6" d="M45.7,379.4c2,3.8,6,3.8,8,0c0.1-0.2-0.1-0.3-0.5-0.5c-2,1.6-5.2,1.4-7,0
								C45.9,379.1,45.6,379.2,45.7,379.4"/>
						</g>
					</g>
					<g>
						<g>
							<ellipse class="st12" cx="80" cy="393.3" rx="5.9" ry="0.7"/>
							<ellipse class="st12" cx="92.5" cy="393.5" rx="8.5" ry="0.8"/>
						</g>
						<circle class="st5" cx="86.9" cy="380.2" r="14.2"/>
						<path class="st6" d="M92.9,386.8c-0.7-1.7-2.3-2.8-6-2.8c-3.8,0-5.3,1.1-6,2.8c-0.3,0.9,0.1,2.4,0.1,2.4
							c0.6,1.8,0.5,2.4,5.9,2.4c5.3,0,5.2-0.5,5.9-2.4C92.7,389.1,93.3,387.7,92.9,386.8"/>
						<path class="st3" d="M91.1,386.3c0-0.1,0-0.3-0.1-0.4c0,0-0.9-1-4.2-1c-3.2,0-4.2,1-4.2,1c-0.1,0-0.1,0.2-0.1,0.4l0.1,0.3
							c0,0.1,0.1,0.2,0.2,0.2h7.8c0.1,0,0.2-0.1,0.2-0.2L91.1,386.3"/>
						<g>
							<path class="st12" d="M92.8,393.6c1.1,0,2.2,0,3.2,0c3.9-4.7-0.7-9.4,0.4-14.1c-1.1,0-2.2,1.2-3.2,1.2
								C91.7,385.2,96.7,388.9,92.8,393.6"/>
							<path class="st12" d="M81,393.6c-1.1,0-2.2,0-3.2,0c-3.9-4.7,0.7-9.4-0.4-14.1c1.1,0,2.2,1.2,3.2,1.2
								C82.1,385.2,77.1,388.9,81,393.6"/>
						</g>
						<g>
							<path class="st13" d="M91,373.7c1.4,1.4,3.4,2.1,5.4,1.9c0.3,0,0.4,1,0.1,1c-2.3,0.2-4.6-0.6-6.2-2.3
								C90,374.2,90.8,373.5,91,373.7"/>
							<path class="st13" d="M77.4,375.6c2,0.2,4-0.5,5.4-1.9c0.2-0.2,1,0.5,0.8,0.7c-1.6,1.7-3.9,2.5-6.2,2.3
								C77,376.7,77.2,375.6,77.4,375.6"/>
						</g>
						<g>
							<path class="st6" d="M88.7,379.4c2,3.8,6,3.8,8,0c0.1-0.2-0.1-0.3-0.5-0.5c-2,1.6-5.2,1.4-7,0
								C88.9,379.1,88.6,379.2,88.7,379.4"/>
							<path class="st6" d="M77.1,379.4c2,3.8,6,3.8,8,0c0.1-0.2-0.1-0.3-0.5-0.5c-2,1.6-5.2,1.4-7,0C77.2,379.1,77,379.2,77.1,379.4"
								/>
						</g>
					</g>
					<g>
						<g>
							<ellipse class="st12" cx="17.3" cy="393.3" rx="5.9" ry="0.7"/>
							<ellipse class="st12" cx="29.8" cy="393.5" rx="8.5" ry="0.8"/>
						</g>
						
							<ellipse transform="matrix(0.9992 -4.080071e-02 4.080071e-02 0.9992 -15.4918 1.3039)" class="st5" cx="24.2" cy="380.2" rx="14.2" ry="14.2"/>
						<path class="st6" d="M30.2,386.8c-0.7-1.7-2.3-2.8-6-2.8c-3.8,0-5.3,1.1-6,2.8c-0.3,0.9,0.1,2.4,0.1,2.4
							c0.6,1.8,0.5,2.4,5.9,2.4s5.2-0.5,5.9-2.4C30,389.1,30.5,387.7,30.2,386.8"/>
						<path class="st3" d="M28.4,386.3c0-0.1,0-0.3-0.1-0.4c0,0-0.9-1-4.2-1s-4.2,1-4.2,1c-0.1,0-0.1,0.2-0.1,0.4l0.1,0.3
							c0,0.1,0.1,0.2,0.2,0.2h7.8c0.1,0,0.2-0.1,0.2-0.2L28.4,386.3"/>
						<g>
							<path class="st12" d="M30.1,393.6c1.1,0,2.2,0,3.2,0c3.9-4.7-0.7-9.4,0.4-14.1c-1.1,0-2.2,1.2-3.2,1.2
								C29,385.2,33.9,388.9,30.1,393.6"/>
							<path class="st12" d="M18.3,393.6c-1.1,0-2.2,0-3.2,0c-3.9-4.7,0.7-9.4-0.4-14.1c1.1,0,2.2,1.2,3.2,1.2
								C19.3,385.2,14.4,388.9,18.3,393.6"/>
						</g>
						<g>
							<path class="st13" d="M28.3,373.7c1.4,1.4,3.4,2.1,5.4,1.9c0.3,0,0.4,1,0.1,1c-2.3,0.2-4.6-0.6-6.2-2.3
								C27.3,374.2,28.1,373.5,28.3,373.7"/>
							<path class="st13" d="M14.7,375.6c2,0.2,4-0.5,5.4-1.9c0.2-0.2,1,0.5,0.8,0.7c-1.6,1.7-3.9,2.5-6.2,2.3
								C14.2,376.7,14.4,375.6,14.7,375.6"/>
						</g>
						<g>
							<path class="st6" d="M26,379.4c2,3.8,6,3.8,8,0c0.1-0.2-0.1-0.3-0.5-0.5c-2,1.6-5.2,1.4-7,0C26.2,379.1,25.9,379.2,26,379.4"/>
							<path class="st6" d="M14.3,379.4c2,3.8,6,3.8,8,0c0.1-0.2-0.1-0.3-0.5-0.5c-2,1.6-5.2,1.4-7,0
								C14.5,379.1,14.2,379.2,14.3,379.4"/>
						</g>
					</g>
				</g>
			</g>
			<g class="bubbleGroup" id="bubbleGroup9">
				<rect y="404" class="dimensions" width="138.6" height="73"/>
				<g class="bubble">
					<g>
						<g>
							<path class="st2" d="M18,466.9c-3.2,0-5.9-2.6-5.9-5.9v-49c0-3.2,2.6-5.9,5.9-5.9h115c3.2,0,5.9,2.6,5.9,5.9v49
								c0,3.2-2.6,5.9-5.9,5.9H18z"/>
							<path class="st2" d="M133,406.3c3.2,0,5.8,2.6,5.8,5.8v49c0,3.2-2.6,5.8-5.8,5.8H18c-3.2,0-5.8-2.6-5.8-5.8v-49
								c0-3.2,2.6-5.8,5.8-5.8H133 M133,406H18c-3.3,0-6,2.7-6,6v49c0,3.3,2.7,6,6,6h115c3.3,0,6-2.7,6-6v-49
								C139,408.7,136.3,406,133,406L133,406z"/>
						</g>
						<g>
							<path class="st3" d="M16,464.9c-3.2,0-5.9-2.6-5.9-5.9v-49c0-3.2,2.6-5.9,5.9-5.9h115c3.2,0,5.9,2.6,5.9,5.9v49
								c0,3.2-2.6,5.9-5.9,5.9H16z"/>
							<path class="st2" d="M131,404.3c3.2,0,5.8,2.6,5.8,5.8v49c0,3.2-2.6,5.8-5.8,5.8H16c-3.2,0-5.8-2.6-5.8-5.8v-49
								c0-3.2,2.6-5.8,5.8-5.8H131 M131,404H16c-3.3,0-6,2.7-6,6v49c0,3.3,2.7,6,6,6h115c3.3,0,6-2.7,6-6v-49
								C137,406.7,134.3,404,131,404L131,404z"/>
						</g>
					</g>
					<path id="SvgjsPath1062_00000151502592305064412480000002895355425131362486_" class="st4" d="M20,417.1c1.1,0,2.2-0.5,3.1-1.2
						c0.1-0.1,0.4-0.4,0.4-0.4c0.9-0.9,2.1-1.5,3.4-1.5s2.5,0.6,3.4,1.5l0.4,0.4c0.8,0.7,2,1.2,3.1,1.2s2.2-0.5,3.1-1.2
						c0.1-0.1,0.4-0.4,0.4-0.4c0.9-0.9,2.1-1.5,3.4-1.5c1.3,0,2.5,0.6,3.4,1.5l0.4,0.4c0.8,0.7,2,1.2,3.1,1.2s2.2-0.5,3.1-1.2
						c0.1-0.1,0.4-0.4,0.4-0.4c0.9-0.9,2.1-1.5,3.4-1.5c1.3,0,2.5,0.6,3.4,1.5l0.4,0.4c0.8,0.7,2,1.2,3.1,1.2s2.2-0.5,3.1-1.2
						c0.1-0.1,0.4-0.4,0.4-0.4c0.9-0.9,2.1-1.5,3.4-1.5s2.5,0.6,3.4,1.5l0.4,0.4c0.8,0.7,2,1.2,3.1,1.2s2.2-0.5,3.1-1.2
						c0.1-0.1,0.4-0.4,0.4-0.4c0.9-0.9,2.1-1.5,3.4-1.5s2.5,0.6,3.4,1.5l0.4,0.4c0.8,0.7,2,1.2,3.1,1.2s2.2-0.5,3.1-1.2
						c0.1-0.1,0.4-0.4,0.4-0.4c0.9-0.9,2.1-1.5,3.4-1.5s2.5,0.6,3.4,1.5l0.4,0.4c0.8,0.7,2,1.2,3.1,1.2s2.2-0.5,3.1-1.2
						c0.1-0.1,0.4-0.4,0.4-0.4c0.9-0.9,2.1-1.5,3.4-1.5s2.5,0.6,3.4,1.5l0.4,0.4c0.8,0.7,2,1.2,3.1,1.2s2.2-0.5,3.1-1.2
						c0.1-0.1,0.4-0.4,0.4-0.4c0.9-0.9,2.1-1.5,3.4-1.5s2.5,0.6,3.4,1.5"/>
					<path id="SvgjsPath1062_00000015322447203885215980000009842132244352318085_" class="st4" d="M20,455c1.1,0,2.2-0.5,3.1-1.2
						c0.1-0.1,0.4-0.4,0.4-0.4c0.9-0.9,2.1-1.5,3.4-1.5s2.5,0.6,3.4,1.5l0.4,0.4c0.8,0.7,2,1.2,3.1,1.2s2.2-0.5,3.1-1.2
						c0.1-0.1,0.4-0.4,0.4-0.4c0.9-0.9,2.1-1.5,3.4-1.5c1.3,0,2.5,0.6,3.4,1.5l0.4,0.4c0.8,0.7,2,1.2,3.1,1.2s2.2-0.5,3.1-1.2
						c0.1-0.1,0.4-0.4,0.4-0.4c0.9-0.9,2.1-1.5,3.4-1.5c1.3,0,2.5,0.6,3.4,1.5l0.4,0.4c0.8,0.7,2,1.2,3.1,1.2s2.2-0.5,3.1-1.2
						c0.1-0.1,0.4-0.4,0.4-0.4c0.9-0.9,2.1-1.5,3.4-1.5s2.5,0.6,3.4,1.5l0.4,0.4c0.8,0.7,2,1.2,3.1,1.2s2.2-0.5,3.1-1.2
						c0.1-0.1,0.4-0.4,0.4-0.4c0.9-0.9,2.1-1.5,3.4-1.5s2.5,0.6,3.4,1.5l0.4,0.4c0.8,0.7,2,1.2,3.1,1.2s2.2-0.5,3.1-1.2
						c0.1-0.1,0.4-0.4,0.4-0.4c0.9-0.9,2.1-1.5,3.4-1.5s2.5,0.6,3.4,1.5"/>
					<path id="SvgjsPath1062_00000146480269783540292020000009195639076454611375_" class="st4" d="M20,445.5c1.1,0,2.2-0.5,3.1-1.2
						c0.1-0.1,0.4-0.4,0.4-0.4c0.9-0.9,2.1-1.5,3.4-1.5s2.5,0.6,3.4,1.5l0.4,0.4c0.8,0.7,2,1.2,3.1,1.2s2.2-0.5,3.1-1.2
						c0.1-0.1,0.4-0.4,0.4-0.4c0.9-0.9,2.1-1.5,3.4-1.5c1.3,0,2.5,0.6,3.4,1.5l0.4,0.4c0.8,0.7,2,1.2,3.1,1.2s2.2-0.5,3.1-1.2
						c0.1-0.1,0.4-0.4,0.4-0.4c0.9-0.9,2.1-1.5,3.4-1.5c1.3,0,2.5,0.6,3.4,1.5l0.4,0.4c0.8,0.7,2,1.2,3.1,1.2s2.2-0.5,3.1-1.2
						c0.1-0.1,0.4-0.4,0.4-0.4c0.9-0.9,2.1-1.5,3.4-1.5s2.5,0.6,3.4,1.5l0.4,0.4c0.8,0.7,2,1.2,3.1,1.2s2.2-0.5,3.1-1.2
						c0.1-0.1,0.4-0.4,0.4-0.4c0.9-0.9,2.1-1.5,3.4-1.5s2.5,0.6,3.4,1.5l0.4,0.4c0.8,0.7,2,1.2,3.1,1.2s2.2-0.5,3.1-1.2
						c0.1-0.1,0.4-0.4,0.4-0.4c0.9-0.9,2.1-1.5,3.4-1.5s2.5,0.6,3.4,1.5l0.4,0.4c0.8,0.7,2,1.2,3.1,1.2s2.2-0.5,3.1-1.2
						c0.1-0.1,0.4-0.4,0.4-0.4c0.9-0.9,2.1-1.5,3.4-1.5s2.5,0.6,3.4,1.5l0.4,0.4c0.8,0.7,2,1.2,3.1,1.2s2.2-0.5,3.1-1.2
						c0.1-0.1,0.4-0.4,0.4-0.4c0.9-0.9,2.1-1.5,3.4-1.5s2.5,0.6,3.4,1.5"/>
					<path id="SvgjsPath1062_00000054251511233777668180000004452708679035319941_" class="st4" d="M20,436c1.1,0,2.2-0.5,3.1-1.2
						c0.1-0.1,0.4-0.4,0.4-0.4c0.9-0.9,2.1-1.5,3.4-1.5s2.5,0.6,3.4,1.5l0.4,0.4c0.8,0.7,2,1.2,3.1,1.2s2.2-0.5,3.1-1.2
						c0.1-0.1,0.4-0.4,0.4-0.4c0.9-0.9,2.1-1.5,3.4-1.5c1.3,0,2.5,0.6,3.4,1.5l0.4,0.4c0.8,0.7,2,1.2,3.1,1.2s2.2-0.5,3.1-1.2
						c0.1-0.1,0.4-0.4,0.4-0.4c0.9-0.9,2.1-1.5,3.4-1.5c1.3,0,2.5,0.6,3.4,1.5l0.4,0.4c0.8,0.7,2,1.2,3.1,1.2s2.2-0.5,3.1-1.2
						c0.1-0.1,0.4-0.4,0.4-0.4c0.9-0.9,2.1-1.5,3.4-1.5s2.5,0.6,3.4,1.5l0.4,0.4c0.8,0.7,2,1.2,3.1,1.2s2.2-0.5,3.1-1.2
						c0.1-0.1,0.4-0.4,0.4-0.4c0.9-0.9,2.1-1.5,3.4-1.5s2.5,0.6,3.4,1.5l0.4,0.4c0.8,0.7,2,1.2,3.1,1.2s2.2-0.5,3.1-1.2
						c0.1-0.1,0.4-0.4,0.4-0.4c0.9-0.9,2.1-1.5,3.4-1.5s2.5,0.6,3.4,1.5l0.4,0.4c0.8,0.7,2,1.2,3.1,1.2s2.2-0.5,3.1-1.2
						c0.1-0.1,0.4-0.4,0.4-0.4c0.9-0.9,2.1-1.5,3.4-1.5s2.5,0.6,3.4,1.5l0.4,0.4c0.8,0.7,2,1.2,3.1,1.2s2.2-0.5,3.1-1.2
						c0.1-0.1,0.4-0.4,0.4-0.4c0.9-0.9,2.1-1.5,3.4-1.5s2.5,0.6,3.4,1.5"/>
					<path id="SvgjsPath1062_00000016062894674051850550000011171988123765288876_" class="st4" d="M20,426.6c1.1,0,2.2-0.5,3.1-1.2
						c0.1-0.1,0.4-0.4,0.4-0.4c0.9-0.9,2.1-1.5,3.4-1.5s2.5,0.6,3.4,1.5l0.4,0.4c0.8,0.7,2,1.2,3.1,1.2s2.2-0.5,3.1-1.2
						c0.1-0.1,0.4-0.4,0.4-0.4c0.9-0.9,2.1-1.5,3.4-1.5c1.3,0,2.5,0.6,3.4,1.5l0.4,0.4c0.8,0.7,2,1.2,3.1,1.2s2.2-0.5,3.1-1.2
						c0.1-0.1,0.4-0.4,0.4-0.4c0.9-0.9,2.1-1.5,3.4-1.5c1.3,0,2.5,0.6,3.4,1.5l0.4,0.4c0.8,0.7,2,1.2,3.1,1.2s2.2-0.5,3.1-1.2
						c0.1-0.1,0.4-0.4,0.4-0.4c0.9-0.9,2.1-1.5,3.4-1.5s2.5,0.6,3.4,1.5l0.4,0.4c0.8,0.7,2,1.2,3.1,1.2s2.2-0.5,3.1-1.2
						c0.1-0.1,0.4-0.4,0.4-0.4c0.9-0.9,2.1-1.5,3.4-1.5s2.5,0.6,3.4,1.5l0.4,0.4c0.8,0.7,2,1.2,3.1,1.2s2.2-0.5,3.1-1.2
						c0.1-0.1,0.4-0.4,0.4-0.4c0.9-0.9,2.1-1.5,3.4-1.5s2.5,0.6,3.4,1.5l0.4,0.4c0.8,0.7,2,1.2,3.1,1.2s2.2-0.5,3.1-1.2
						c0.1-0.1,0.4-0.4,0.4-0.4c0.9-0.9,2.1-1.5,3.4-1.5s2.5,0.6,3.4,1.5l0.4,0.4c0.8,0.7,2,1.2,3.1,1.2s2.2-0.5,3.1-1.2
						c0.1-0.1,0.4-0.4,0.4-0.4c0.9-0.9,2.1-1.5,3.4-1.5s2.5,0.6,3.4,1.5"/>
				</g>
			</g>
			<g class="bubbleGroup" id="bubbleGroup10">
				<rect y="477" class="dimensions" width="106.6" height="44"/>
				<g class="bubble">
					<g>
						<g>
							<path class="st2" d="M18,511.9c-3.2,0-5.9-2.6-5.9-5.9v-21c0-3.2,2.6-5.9,5.9-5.9h83c3.2,0,5.9,2.6,5.9,5.9v21
								c0,3.2-2.6,5.9-5.9,5.9H18z"/>
							<path class="st2" d="M101,479.3c3.2,0,5.8,2.6,5.8,5.8v21c0,3.2-2.6,5.8-5.8,5.8H18c-3.2,0-5.8-2.6-5.8-5.8v-21
								c0-3.2,2.6-5.8,5.8-5.8H101 M101,479H18c-3.3,0-6,2.7-6,6v21c0,3.3,2.7,6,6,6h83c3.3,0,6-2.7,6-6v-21
								C107,481.7,104.3,479,101,479L101,479z"/>
						</g>
						<g>
							<path class="st3" d="M16,509.9c-3.2,0-5.9-2.6-5.9-5.9v-21c0-3.2,2.6-5.9,5.9-5.9h83c3.2,0,5.9,2.6,5.9,5.9v21
								c0,3.2-2.6,5.9-5.9,5.9H16z"/>
							<path class="st2" d="M99,477.3c3.2,0,5.8,2.6,5.8,5.8v21c0,3.2-2.6,5.8-5.8,5.8H16c-3.2,0-5.8-2.6-5.8-5.8v-21
								c0-3.2,2.6-5.8,5.8-5.8H99 M99,477H16c-3.3,0-6,2.7-6,6v21c0,3.3,2.7,6,6,6h83c3.3,0,6-2.7,6-6v-21C105,479.7,102.3,477,99,477
								L99,477z"/>
						</g>
					</g>
					<path id="SvgjsPath1062_00000124850840659061578530000015368784081815858072_" class="st4" d="M20,489.9c1.1,0,2.2-0.5,3.1-1.2
						c0.1-0.1,0.4-0.4,0.4-0.4c0.9-0.9,2.1-1.5,3.4-1.5s2.5,0.6,3.4,1.5l0.4,0.4c0.8,0.7,2,1.2,3.1,1.2s2.2-0.5,3.1-1.2
						c0.1-0.1,0.4-0.4,0.4-0.4c0.9-0.9,2.1-1.5,3.4-1.5c1.3,0,2.5,0.6,3.4,1.5l0.4,0.4c0.8,0.7,2,1.2,3.1,1.2s2.2-0.5,3.1-1.2
						c0.1-0.1,0.4-0.4,0.4-0.4c0.9-0.9,2.1-1.5,3.4-1.5c1.3,0,2.5,0.6,3.4,1.5l0.4,0.4c0.8,0.7,2,1.2,3.1,1.2s2.2-0.5,3.1-1.2
						c0.1-0.1,0.4-0.4,0.4-0.4c0.9-0.9,2.1-1.5,3.4-1.5s2.5,0.6,3.4,1.5l0.4,0.4c0.8,0.7,2,1.2,3.1,1.2s2.2-0.5,3.1-1.2
						c0.1-0.1,0.4-0.4,0.4-0.4c0.9-0.9,2.1-1.5,3.4-1.5s2.5,0.6,3.4,1.5l0.4,0.4c0.8,0.7,2,1.2,3.1,1.2s2.2-0.5,3.1-1.2
						c0.1-0.1,0.4-0.4,0.4-0.4c0.9-0.9,2.1-1.5,3.4-1.5"/>
					<path id="SvgjsPath1062_00000016077006635691348760000017188402644209909938_" class="st4" d="M20,499.4c1.1,0,2.2-0.5,3.1-1.2
						c0.1-0.1,0.4-0.4,0.4-0.4c0.9-0.9,2.1-1.5,3.4-1.5s2.5,0.6,3.4,1.5l0.4,0.4c0.8,0.7,2,1.2,3.1,1.2s2.2-0.5,3.1-1.2
						c0.1-0.1,0.4-0.4,0.4-0.4c0.9-0.9,2.1-1.5,3.4-1.5c1.3,0,2.5,0.6,3.4,1.5l0.4,0.4c0.8,0.7,2,1.2,3.1,1.2s2.2-0.5,3.1-1.2
						c0.1-0.1,0.4-0.4,0.4-0.4c0.9-0.9,2.1-1.5,3.4-1.5c1.3,0,2.5,0.6,3.4,1.5l0.4,0.4c0.8,0.7,2,1.2,3.1,1.2s2.2-0.5,3.1-1.2
						c0.1-0.1,0.4-0.4,0.4-0.4c0.9-0.9,2.1-1.5,3.4-1.5s2.5,0.6,3.4,1.5l0.4,0.4c0.8,0.7,2,1.2,3.1,1.2s2.2-0.5,3.1-1.2
						c0.1-0.1,0.4-0.4,0.4-0.4c0.9-0.9,2.1-1.5,3.4-1.5s2.5,0.6,3.4,1.5l0.4,0.4c0.8,0.7,2,1.2,3.1,1.2s2.2-0.5,3.1-1.2
						c0.1-0.1,0.4-0.4,0.4-0.4c0.9-0.9,2.1-1.5,3.4-1.5"/>
				</g>
			</g>
			<g class="bubbleGroup" id="bubbleGroup11">
				<rect y="521" class="dimensions" width="101.1" height="38"/>
				<g class="bubble">
					<g>
						<path class="st5" d="M69.7,535.2c0,7.8-6.3,14.2-14.2,14.2s-14.2-6.3-14.2-14.2S47.7,521,55.5,521S69.7,527.3,69.7,535.2z"/>
						<g>
							<path class="st13" d="M63.3,526.1c-2,0.2-3.8,1.2-5,2.9c-0.1,0.2-1-0.3-0.9-0.6c1.3-1.9,3.4-3.1,5.7-3.3
								C63.5,525.1,63.6,526.1,63.3,526.1"/>
							<path class="st13" d="M52.8,529c-1.1-1.7-3-2.7-5-2.9c-0.3,0-0.2-1,0.1-1c2.3,0.2,4.4,1.4,5.7,3.3
								C53.8,528.7,52.9,529.3,52.8,529"/>
						</g>
						<g>
							<path class="st6" d="M50.4,538.9c3.3-2.3,6.9-2.3,10.2,0c0.4,0.3,0.8-0.2,0.5-0.6c-1-1.6-3-3.1-5.6-3.1s-4.6,1.5-5.6,3.1
								C49.7,538.7,50.1,539.2,50.4,538.9"/>
							<path class="st6" d="M57.4,530c2,3.8,6,3.8,8,0c0.1-0.2-0.1-0.3-0.5-0.5c-2,1.6-5.2,1.4-7,0C57.6,529.7,57.3,529.8,57.4,530"/>
							<path class="st6" d="M45.7,530c2,3.8,6,3.8,8,0c0.1-0.2-0.1-0.3-0.5-0.5c-2,1.6-5.2,1.4-7,0C45.9,529.7,45.6,529.8,45.7,530"/>
						</g>
						<g>
							<path class="st14" d="M69.6,542.4c-0.5-1.2-2-1.8-3.4-1.4c-0.8,0.2-1.3,0.6-1.6,1.1c-3.7-0.7-7.1-7.3-7.1-7.3s0.1,5.3,2.8,8.5
								c-0.6-0.2-1.2-0.2-1.8,0c-1.5,0.4-2.2,1.7-1.7,2.8s2,1.8,3.4,1.4c0.1,0,0.2,0,0.3-0.1c0.8,1.5,2.8,2.2,4.7,1.7
								c2-0.5,3.1-2.3,2.5-3.9c0.1,0,0.2,0,0.3,0C69.2,544.8,70,543.6,69.6,542.4"/>
							<path class="st14" d="M41.5,542.4c0.5-1.2,2-1.8,3.4-1.4c0.8,0.2,1.3,0.6,1.6,1.1c3.7-0.7,7.1-7.3,7.1-7.3s-0.1,5.3-2.8,8.5
								c0.6-0.2,1.2-0.2,1.8,0c1.5,0.4,2.2,1.7,1.7,2.8c-0.5,1.2-2,1.8-3.4,1.4c-0.1,0-0.2,0-0.3-0.1c-0.8,1.5-2.8,2.2-4.7,1.7
								c-2-0.5-3.1-2.3-2.5-3.9c-0.1,0-0.2,0-0.3,0C41.8,544.8,41,543.6,41.5,542.4"/>
						</g>
						<g>
							<path class="st3" d="M68.4,541.2c-0.4-1.2-1.8-1.9-3.2-1.5c-0.7,0.2-1.2,0.7-1.5,1.2c-3.4-0.8-6.5-7.7-6.5-7.7s0.1,5.7,2.6,9.1
								c-0.5-0.2-1.1-0.2-1.7,0c-1.3,0.4-2,1.7-1.6,3c0.4,1.2,1.8,1.9,3.2,1.5c0.1,0,0.2,0,0.3-0.1c0.7,1.6,2.6,2.4,4.3,1.8
								c1.8-0.6,2.9-2.4,2.3-4.2c0.1,0,0.2,0,0.3,0C68.2,543.8,68.9,542.5,68.4,541.2"/>
							<path class="st3" d="M42.7,541.2c0.4-1.2,1.8-1.9,3.2-1.5c0.7,0.2,1.2,0.7,1.5,1.2c3.4-0.8,6.5-7.7,6.5-7.7s-0.1,5.7-2.6,9.1
								c0.5-0.2,1.1-0.2,1.7,0c1.3,0.4,2.1,1.7,1.6,3c-0.4,1.2-1.8,1.9-3.2,1.5c-0.1,0-0.2,0-0.3-0.1c-0.7,1.6-2.6,2.4-4.3,1.8
								c-1.8-0.5-2.8-2.4-2.2-4.2c-0.1,0-0.2,0-0.3,0C42.9,543.8,42.2,542.5,42.7,541.2"/>
						</g>
					</g>
					<g>
						<path class="st5" d="M101.1,535.2c0,7.8-6.3,14.2-14.2,14.2s-14.2-6.3-14.2-14.2S79.1,521,87,521S101.1,527.3,101.1,535.2z"/>
						<g>
							<path class="st13" d="M94.7,526.1c-2,0.2-3.8,1.2-5,2.9c-0.1,0.2-1-0.3-0.9-0.6c1.3-1.9,3.4-3.1,5.7-3.3
								C94.9,525.1,95,526.1,94.7,526.1"/>
							<path class="st13" d="M84.2,529c-1.1-1.7-3-2.7-5-2.9c-0.3,0-0.2-1,0.1-1c2.3,0.2,4.4,1.4,5.7,3.3
								C85.2,528.7,84.3,529.3,84.2,529"/>
						</g>
						<g>
							<path class="st6" d="M81.9,538.9c3.3-2.3,6.9-2.3,10.2,0c0.4,0.3,0.8-0.2,0.5-0.6c-1-1.6-3-3.1-5.6-3.1s-4.6,1.5-5.6,3.1
								C81.1,538.7,81.5,539.2,81.9,538.9"/>
							<path class="st6" d="M88.8,530c2,3.8,6,3.8,8,0c0.1-0.2-0.1-0.3-0.5-0.5c-2,1.6-5.2,1.4-7,0C89,529.7,88.7,529.8,88.8,530"/>
							<path class="st6" d="M77.1,530c2,3.8,6,3.8,8,0c0.1-0.2-0.1-0.3-0.5-0.5c-2,1.6-5.2,1.4-7,0C77.3,529.7,77.1,529.8,77.1,530"/>
						</g>
						<g>
							<path class="st14" d="M101,542.4c-0.5-1.2-2-1.8-3.4-1.4c-0.8,0.2-1.3,0.6-1.6,1.1c-3.7-0.7-7.1-7.3-7.1-7.3s0.1,5.3,2.8,8.5
								c-0.6-0.2-1.2-0.2-1.8,0c-1.5,0.4-2.2,1.7-1.7,2.8s2,1.8,3.4,1.4c0.1,0,0.2,0,0.3-0.1c0.8,1.5,2.8,2.2,4.7,1.7
								c2-0.5,3.1-2.3,2.5-3.9c0.1,0,0.2,0,0.3,0C100.7,544.8,101.5,543.6,101,542.4"/>
							<path class="st14" d="M72.9,542.4c0.5-1.2,2-1.8,3.4-1.4c0.8,0.2,1.3,0.6,1.6,1.1c3.7-0.7,7.1-7.3,7.1-7.3s-0.1,5.3-2.8,8.5
								c0.6-0.2,1.2-0.2,1.8,0c1.5,0.4,2.2,1.7,1.7,2.8c-0.5,1.2-2,1.8-3.4,1.4c-0.1,0-0.2,0-0.3-0.1c-0.8,1.5-2.8,2.2-4.7,1.7
								c-2-0.5-3.1-2.3-2.5-3.9c-0.1,0-0.2,0-0.3,0C73.3,544.8,72.5,543.6,72.9,542.4"/>
						</g>
						<g>
							<path class="st3" d="M99.9,541.2c-0.4-1.2-1.8-1.9-3.2-1.5c-0.7,0.2-1.2,0.7-1.5,1.2c-3.4-0.8-6.5-7.7-6.5-7.7s0.1,5.7,2.6,9.1
								c-0.5-0.2-1.1-0.2-1.7,0c-1.3,0.4-2,1.7-1.6,3c0.4,1.2,1.8,1.9,3.2,1.5c0.1,0,0.2,0,0.3-0.1c0.7,1.6,2.6,2.4,4.3,1.8
								c1.8-0.6,2.9-2.4,2.3-4.2c0.1,0,0.2,0,0.3,0C99.6,543.8,100.3,542.5,99.9,541.2"/>
							<path class="st3" d="M74.1,541.2c0.4-1.2,1.8-1.9,3.2-1.5c0.7,0.2,1.2,0.7,1.5,1.2c3.4-0.8,6.5-7.7,6.5-7.7s-0.1,5.7-2.6,9.1
								c0.5-0.2,1.1-0.2,1.7,0c1.3,0.4,2.1,1.7,1.6,3c-0.4,1.2-1.8,1.9-3.2,1.5c-0.1,0-0.2,0-0.3-0.1c-0.7,1.6-2.6,2.4-4.3,1.8
								c-1.8-0.5-2.8-2.4-2.2-4.2c-0.1,0-0.2,0-0.3,0C74.4,543.8,73.6,542.5,74.1,541.2"/>
						</g>
					</g>
					<g>
						<path class="st5" d="M38.3,535.2c0,7.8-6.3,14.2-14.2,14.2S10,543,10,535.2S16.3,521,24.2,521S38.3,527.3,38.3,535.2z"/>
						<g>
							<path class="st13" d="M31.9,526.1c-2,0.2-3.8,1.2-5,2.9c-0.1,0.2-1-0.3-0.9-0.6c1.3-1.9,3.4-3.1,5.7-3.3
								C32.1,525.1,32.2,526.1,31.9,526.1"/>
							<path class="st13" d="M21.4,529c-1.1-1.7-3-2.7-5-2.9c-0.3,0-0.2-1,0.1-1c2.3,0.2,4.4,1.4,5.7,3.3
								C22.4,528.7,21.5,529.3,21.4,529"/>
						</g>
						<g>
							<path class="st6" d="M19.1,538.9c3.3-2.3,6.9-2.3,10.2,0c0.4,0.3,0.8-0.2,0.5-0.6c-1-1.6-3-3.1-5.6-3.1s-4.6,1.5-5.6,3.1
								C18.3,538.7,18.7,539.2,19.1,538.9"/>
							<path class="st6" d="M26,530c2,3.8,6,3.8,8,0c0.1-0.2-0.1-0.3-0.5-0.5c-2,1.6-5.2,1.4-7,0C26.2,529.7,25.9,529.8,26,530"/>
							<path class="st6" d="M14.3,530c2,3.8,6,3.8,8,0c0.1-0.2-0.1-0.3-0.5-0.5c-2,1.6-5.2,1.4-7,0C14.5,529.7,14.3,529.8,14.3,530"/>
						</g>
						<g>
							<path class="st14" d="M38.2,542.4c-0.5-1.2-2-1.8-3.4-1.4c-0.8,0.2-1.3,0.6-1.6,1.1c-3.7-0.7-7.1-7.3-7.1-7.3s0.1,5.3,2.8,8.5
								c-0.6-0.2-1.2-0.2-1.8,0c-1.5,0.4-2.2,1.7-1.7,2.8s2,1.8,3.4,1.4c0.1,0,0.2,0,0.3-0.1c0.8,1.5,2.8,2.2,4.7,1.7
								c2-0.5,3.1-2.3,2.5-3.9c0.1,0,0.2,0,0.3,0C37.9,544.8,38.7,543.6,38.2,542.4"/>
							<path class="st14" d="M10.1,542.4c0.5-1.2,2-1.8,3.4-1.4c0.8,0.2,1.3,0.6,1.6,1.1c3.7-0.7,7.1-7.3,7.1-7.3s-0.1,5.3-2.8,8.5
								c0.6-0.2,1.2-0.2,1.8,0c1.5,0.4,2.2,1.7,1.7,2.8c-0.5,1.2-2,1.8-3.4,1.4c-0.1,0-0.2,0-0.3-0.1c-0.8,1.5-2.8,2.2-4.7,1.7
								c-2-0.5-3.1-2.3-2.5-3.9c-0.1,0-0.2,0-0.3,0C10.5,544.8,9.7,543.6,10.1,542.4"/>
						</g>
						<g>
							<path class="st3" d="M37.1,541.2c-0.4-1.2-1.8-1.9-3.2-1.5c-0.7,0.2-1.2,0.7-1.5,1.2c-3.4-0.8-6.5-7.7-6.5-7.7s0.1,5.7,2.6,9.1
								c-0.5-0.2-1.1-0.2-1.7,0c-1.3,0.4-2,1.7-1.6,3c0.4,1.2,1.8,1.9,3.2,1.5c0.1,0,0.2,0,0.3-0.1c0.7,1.6,2.6,2.4,4.3,1.8
								c1.8-0.6,2.9-2.4,2.3-4.2c0.1,0,0.2,0,0.3,0C36.8,543.8,37.5,542.5,37.1,541.2"/>
							<path class="st3" d="M11.3,541.2c0.4-1.2,1.8-1.9,3.2-1.5c0.7,0.2,1.2,0.7,1.5,1.2c3.4-0.8,6.5-7.7,6.5-7.7s-0.1,5.7-2.6,9.1
								c0.5-0.2,1.1-0.2,1.7,0c1.3,0.4,2.1,1.7,1.6,3c-0.4,1.2-1.8,1.9-3.2,1.5c-0.1,0-0.2,0-0.3-0.1c-0.7,1.6-2.6,2.4-4.3,1.8
								c-1.8-0.5-2.8-2.4-2.2-4.2c-0.1,0-0.2,0-0.3,0C11.6,543.8,10.8,542.5,11.3,541.2"/>
						</g>
					</g>
				</g>
			</g>
			<g class="bubbleGroup" id="bubbleGroup12">
				<rect y="559" class="dimensions" width="156.2" height="35"/>
				<g class="bubble">
					<g>
						<g>
							<path class="st2" d="M18,584.9c-3.2,0-5.9-2.6-5.9-5.9v-12c0-3.2,2.6-5.9,5.9-5.9h132c3.2,0,5.9,2.6,5.9,5.9v12
								c0,3.2-2.6,5.9-5.9,5.9H18z"/>
							<path class="st2" d="M150,561.3c3.2,0,5.8,2.6,5.8,5.8v12c0,3.2-2.6,5.8-5.8,5.8H18c-3.2,0-5.8-2.6-5.8-5.8v-12
								c0-3.2,2.6-5.8,5.8-5.8H150 M150,561H18c-3.3,0-6,2.7-6,6v12c0,3.3,2.7,6,6,6h132c3.3,0,6-2.7,6-6v-12
								C156,563.7,153.3,561,150,561L150,561z"/>
						</g>
						<g>
							<path class="st3" d="M16,582.9c-3.2,0-5.9-2.6-5.9-5.9v-12c0-3.2,2.6-5.9,5.9-5.9h132c3.2,0,5.9,2.6,5.9,5.9v12
								c0,3.2-2.6,5.9-5.9,5.9H16z"/>
							<path class="st2" d="M148,559.3c3.2,0,5.8,2.6,5.8,5.8v12c0,3.2-2.6,5.8-5.8,5.8H16c-3.2,0-5.8-2.6-5.8-5.8v-12
								c0-3.2,2.6-5.8,5.8-5.8H148 M148,559H16c-3.3,0-6,2.7-6,6v12c0,3.3,2.7,6,6,6h132c3.3,0,6-2.7,6-6v-12
								C154,561.7,151.3,559,148,559L148,559z"/>
						</g>
					</g>
					<path id="SvgjsPath1062_00000082361226270730913260000016114712999890120885_" class="st4" d="M20,572.3c1.1,0,2.2-0.5,3.1-1.2
						c0.1-0.1,0.4-0.4,0.4-0.4c0.9-0.9,2.1-1.5,3.4-1.5s2.5,0.6,3.4,1.5l0.4,0.4c0.8,0.7,2,1.2,3.1,1.2s2.2-0.5,3.1-1.2
						c0.1-0.1,0.4-0.4,0.4-0.4c0.9-0.9,2.1-1.5,3.4-1.5c1.3,0,2.5,0.6,3.4,1.5l0.4,0.4c0.8,0.7,2,1.2,3.1,1.2s2.2-0.5,3.1-1.2
						c0.1-0.1,0.4-0.4,0.4-0.4c0.9-0.9,2.1-1.5,3.4-1.5c1.3,0,2.5,0.6,3.4,1.5l0.4,0.4c0.8,0.7,2,1.2,3.1,1.2s2.2-0.5,3.1-1.2
						c0.1-0.1,0.4-0.4,0.4-0.4c0.9-0.9,2.1-1.5,3.4-1.5s2.5,0.6,3.4,1.5l0.4,0.4c0.8,0.7,2,1.2,3.1,1.2s2.2-0.5,3.1-1.2
						c0.1-0.1,0.4-0.4,0.4-0.4c0.9-0.9,2.1-1.5,3.4-1.5s2.5,0.6,3.4,1.5l0.4,0.4c0.8,0.7,2,1.2,3.1,1.2s2.2-0.5,3.1-1.2
						c0.1-0.1,0.4-0.4,0.4-0.4c0.9-0.9,2.1-1.5,3.4-1.5s2.5,0.6,3.4,1.5l0.4,0.4c0.8,0.7,2,1.2,3.1,1.2s2.2-0.5,3.1-1.2
						c0.1-0.1,0.4-0.4,0.4-0.4c0.9-0.9,2.1-1.5,3.4-1.5s2.5,0.6,3.4,1.5l0.4,0.4c0.8,0.7,2,1.2,3.1,1.2s2.2-0.5,3.1-1.2
						c0.1-0.1,0.4-0.4,0.4-0.4c0.9-0.9,2.1-1.5,3.4-1.5s2.5,0.6,3.4,1.5l0.4,0.4c0.8,0.7,2,1.2,3.1,1.2h0.1c1.1,0,2.2-0.5,3.1-1.2
						c0.1-0.1,0.4-0.4,0.4-0.4c0.9-0.9,2.1-1.5,3.4-1.5c1.3,0,2.5,0.6,3.4,1.5l0.4,0.4c0.8,0.7,2,1.2,3.1,1.2"/>
				</g>
			</g>
			<g class="bubbleGroup" id="bubbleGroup13">
				<rect y="594.1" class="dimensions" width="101.1" height="43"/>
				<g class="bubble">
					<g>
						<path class="st9" d="M69.1,607.3c0,0-1.6,1.5-4.4,3.3c-0.8-4.4-2.9-9.9-7.1-16.6c0,0-1.4,7.2-5.9,13.9c-2-3.1-2.8-5.5-2.8-5.5
							c-14.2,14.3-2.4,24.4,5,24.4C63.4,626.9,71.8,622.3,69.1,607.3"/>
						<path class="st10" d="M63.5,620c0.8-1.8,1.4-4.2,1.5-7.1c0,0-1.1,1-3.1,2.2c-0.5-3-2-6.6-4.9-11.1c0,0-0.9,4.8-4.1,9.3
							c-1.4-2-2-3.7-2-3.7c-2.4,3.7-3.3,6.7-3.3,9c-1.3-0.5-2.1-0.9-2.1-0.9c2.2,6.7,6.9,8.2,9,8.2c3.7,0,7.5-1.1,11.2-6.4
							C65.6,619.6,64.8,619.8,63.5,620"/>
						<path class="st11" d="M49.9,617c0,0,1.5,2.1,2.7,1.6c0,0,2.2-3.4,5.4-5.4c0,0-0.7,5.3,0.1,6.2c1,1.3,3.7-1.4,3.7-1.4
							c0,3.1-3.4,7-6.5,7C52.3,625.1,48.1,621.7,49.9,617"/>
						<path class="st9" d="M65.2,602.9c1.1-1.6,1.9-3.4,1.9-3.4c1.9,3.2,0.8,5.1-0.1,5.7C65.9,606.1,63.9,604.8,65.2,602.9
							M44.3,602.4c-1.1-1.9-1.3-4.3-1.3-4.3c-2.7,4.1-1.7,6.4-0.8,7.1C43.5,606,45.6,604.6,44.3,602.4 M50.6,598.1
							c0.2-1.3-0.4-2.6-0.4-2.6c2.6,1.7,2.6,3.1,2.2,3.7C52,599.9,50.5,599.6,50.6,598.1"/>
					</g>
					<g>
						<path class="st9" d="M100.6,607.3c0,0-1.6,1.5-4.4,3.3c-0.8-4.4-2.9-9.9-7.1-16.6c0,0-1.4,7.2-5.9,13.9c-2-3.1-2.8-5.5-2.8-5.5
							c-14.2,14.3-2.4,24.4,5,24.4C94.9,626.9,103.3,622.3,100.6,607.3"/>
						<path class="st10" d="M94.9,620c0.8-1.8,1.4-4.2,1.5-7.1c0,0-1.1,1-3.1,2.2c-0.5-3-2-6.6-4.9-11.1c0,0-0.9,4.8-4.1,9.3
							c-1.4-2-2-3.7-2-3.7c-2.4,3.7-3.3,6.7-3.3,9c-1.3-0.5-2.1-0.9-2.1-0.9c2.2,6.7,6.9,8.2,9,8.2c3.7,0,7.5-1.1,11.2-6.4
							C97.1,619.6,96.2,619.8,94.9,620"/>
						<path class="st11" d="M81.4,617c0,0,1.5,2.1,2.7,1.6c0,0,2.2-3.4,5.4-5.4c0,0-0.7,5.3,0.1,6.2c1,1.3,3.7-1.4,3.7-1.4
							c0,3.1-3.4,7-6.5,7C83.8,625.1,79.5,621.7,81.4,617"/>
						<path class="st9" d="M96.6,602.9c1.1-1.6,1.9-3.4,1.9-3.4c1.9,3.2,0.8,5.1-0.1,5.7C97.3,606.1,95.3,604.8,96.6,602.9
							M75.7,602.4c-1.1-1.9-1.3-4.3-1.3-4.3c-2.7,4.1-1.7,6.4-0.8,7.1C74.9,606,77,604.6,75.7,602.4 M82.1,598.1
							c0.2-1.3-0.4-2.6-0.4-2.6c2.6,1.7,2.6,3.1,2.2,3.7C83.4,599.9,81.9,599.6,82.1,598.1"/>
					</g>
					<g>
						<path class="st9" d="M37.9,607.3c0,0-1.6,1.5-4.4,3.3c-0.8-4.4-2.9-9.9-7.1-16.6c0,0-1.4,7.2-5.9,13.9c-2-3.1-2.8-5.5-2.8-5.5
							c-14.2,14.3-2.4,24.4,5,24.4C32.2,626.9,40.5,622.3,37.9,607.3"/>
						<path class="st10" d="M32.2,620c0.8-1.8,1.4-4.2,1.5-7.1c0,0-1.1,1-3.1,2.2c-0.5-3-2-6.6-4.9-11.1c0,0-0.9,4.8-4.1,9.3
							c-1.4-2-2-3.7-2-3.7c-2.4,3.7-3.3,6.7-3.3,9c-1.3-0.5-2.1-0.9-2.1-0.9c2.2,6.7,6.9,8.2,9,8.2c3.7,0,7.5-1.1,11.2-6.4
							C34.4,619.6,33.5,619.8,32.2,620"/>
						<path class="st11" d="M18.7,617c0,0,1.5,2.1,2.7,1.6c0,0,2.2-3.4,5.4-5.4c0,0-0.7,5.3,0.1,6.2c1,1.3,3.7-1.4,3.7-1.4
							c0,3.1-3.4,7-6.5,7C21.1,625.1,16.8,621.7,18.7,617"/>
						<path class="st9" d="M33.9,602.9c1.1-1.6,1.9-3.4,1.9-3.4c1.9,3.2,0.8,5.1-0.1,5.7C34.6,606.1,32.6,604.8,33.9,602.9 M13,602.4
							c-1.1-1.9-1.3-4.3-1.3-4.3c-2.7,4-1.6,6.3-0.7,7C12.2,606,14.3,604.6,13,602.4 M19.4,598.1c0.2-1.3-0.4-2.6-0.4-2.6
							c2.6,1.7,2.6,3.1,2.2,3.7C20.7,599.9,19.2,599.6,19.4,598.1"/>
					</g>
				</g>
			</g>
			<g class="bubbleGroup" id="bubbleGroup14">
				<rect y="637" class="dimensions" width="106.8" height="82"/>
				<g class="bubble">
					<g>
						<g>
							<path class="st2" d="M18,708.9c-3.2,0-5.9-2.6-5.9-5.9v-58c0-3.2,2.6-5.9,5.9-5.9h83c3.2,0,5.9,2.6,5.9,5.9v58
								c0,3.2-2.6,5.9-5.9,5.9H18z"/>
							<path class="st2" d="M101,639.3c3.2,0,5.8,2.6,5.8,5.8v58c0,3.2-2.6,5.8-5.8,5.8H18c-3.2,0-5.8-2.6-5.8-5.8v-58
								c0-3.2,2.6-5.8,5.8-5.8H101 M101,639H18c-3.3,0-6,2.7-6,6v58c0,3.3,2.7,6,6,6h83c3.3,0,6-2.7,6-6v-58
								C107,641.7,104.3,639,101,639L101,639z"/>
						</g>
						<g>
							<path class="st3" d="M16,706.9c-3.2,0-5.9-2.6-5.9-5.9v-58c0-3.2,2.6-5.9,5.9-5.9h83c3.2,0,5.9,2.6,5.9,5.9v58
								c0,3.2-2.6,5.9-5.9,5.9H16z"/>
							<path class="st2" d="M99,637.3c3.2,0,5.8,2.6,5.8,5.8v58c0,3.2-2.6,5.8-5.8,5.8H16c-3.2,0-5.8-2.6-5.8-5.8v-58
								c0-3.2,2.6-5.8,5.8-5.8H99 M99,637H16c-3.3,0-6,2.7-6,6v58c0,3.3,2.7,6,6,6h83c3.3,0,6-2.7,6-6v-58C105,639.7,102.3,637,99,637
								L99,637z"/>
						</g>
					</g>
					<path id="SvgjsPath1062_00000119085424887199615200000010962109827712639922_" class="st4" d="M20,649.9c1.1,0,2.2-0.5,3.1-1.2
						c0.1-0.1,0.4-0.4,0.4-0.4c0.9-0.9,2.1-1.5,3.4-1.5s2.5,0.6,3.4,1.5l0.4,0.4c0.8,0.7,2,1.2,3.1,1.2s2.2-0.5,3.1-1.2
						c0.1-0.1,0.4-0.4,0.4-0.4c0.9-0.9,2.1-1.5,3.4-1.5c1.3,0,2.5,0.6,3.4,1.5l0.4,0.4c0.8,0.7,2,1.2,3.1,1.2s2.2-0.5,3.1-1.2
						c0.1-0.1,0.4-0.4,0.4-0.4c0.9-0.9,2.1-1.5,3.4-1.5c1.3,0,2.5,0.6,3.4,1.5l0.4,0.4c0.8,0.7,2,1.2,3.1,1.2s2.2-0.5,3.1-1.2
						c0.1-0.1,0.4-0.4,0.4-0.4c0.9-0.9,2.1-1.5,3.4-1.5s2.5,0.6,3.4,1.5l0.4,0.4c0.8,0.7,2,1.2,3.1,1.2s2.2-0.5,3.1-1.2
						c0.1-0.1,0.4-0.4,0.4-0.4c0.9-0.9,2.1-1.5,3.4-1.5s2.5,0.6,3.4,1.5l0.4,0.4c0.8,0.7,2,1.2,3.1,1.2s2.2-0.5,3.1-1.2
						c0.1-0.1,0.4-0.4,0.4-0.4c0.9-0.9,2.1-1.5,3.4-1.5"/>
					<path id="SvgjsPath1062_00000164495498138440682590000010470849176136892861_" class="st4" d="M20,697.3c1.1,0,2.2-0.5,3.1-1.2
						c0.1-0.1,0.4-0.4,0.4-0.4c0.9-0.9,2.1-1.5,3.4-1.5s2.5,0.6,3.4,1.5l0.4,0.4c0.8,0.7,2,1.2,3.1,1.2s2.2-0.5,3.1-1.2
						c0.1-0.1,0.4-0.4,0.4-0.4c0.9-0.9,2.1-1.5,3.4-1.5c1.3,0,2.5,0.6,3.4,1.5l0.4,0.4c0.8,0.7,2,1.2,3.1,1.2s2.2-0.5,3.1-1.2"/>
					<path id="SvgjsPath1062_00000101795442299636832390000001979016722770604978_" class="st4" d="M20,687.8c1.1,0,2.2-0.5,3.1-1.2
						c0.1-0.1,0.4-0.4,0.4-0.4c0.9-0.9,2.1-1.5,3.4-1.5s2.5,0.6,3.4,1.5l0.4,0.4c0.8,0.7,2,1.2,3.1,1.2s2.2-0.5,3.1-1.2
						c0.1-0.1,0.4-0.4,0.4-0.4c0.9-0.9,2.1-1.5,3.4-1.5c1.3,0,2.5,0.6,3.4,1.5l0.4,0.4c0.8,0.7,2,1.2,3.1,1.2s2.2-0.5,3.1-1.2
						c0.1-0.1,0.4-0.4,0.4-0.4c0.9-0.9,2.1-1.5,3.4-1.5c1.3,0,2.5,0.6,3.4,1.5l0.4,0.4c0.8,0.7,2,1.2,3.1,1.2s2.2-0.5,3.1-1.2
						c0.1-0.1,0.4-0.4,0.4-0.4c0.9-0.9,2.1-1.5,3.4-1.5s2.5,0.6,3.4,1.5l0.4,0.4c0.8,0.7,2,1.2,3.1,1.2s2.2-0.5,3.1-1.2
						c0.1-0.1,0.4-0.4,0.4-0.4c0.9-0.9,2.1-1.5,3.4-1.5s2.5,0.6,3.4,1.5l0.4,0.4c0.8,0.7,2,1.2,3.1,1.2s2.2-0.5,3.1-1.2
						c0.1-0.1,0.4-0.4,0.4-0.4c0.9-0.9,2.1-1.5,3.4-1.5"/>
					<path id="SvgjsPath1062_00000128452451576663727670000016176458981638980009_" class="st4" d="M20,678.3c1.1,0,2.2-0.5,3.1-1.2
						c0.1-0.1,0.4-0.4,0.4-0.4c0.9-0.9,2.1-1.5,3.4-1.5s2.5,0.6,3.4,1.5l0.4,0.4c0.8,0.7,2,1.2,3.1,1.2s2.2-0.5,3.1-1.2
						c0.1-0.1,0.4-0.4,0.4-0.4c0.9-0.9,2.1-1.5,3.4-1.5c1.3,0,2.5,0.6,3.4,1.5l0.4,0.4c0.8,0.7,2,1.2,3.1,1.2s2.2-0.5,3.1-1.2
						c0.1-0.1,0.4-0.4,0.4-0.4c0.9-0.9,2.1-1.5,3.4-1.5c1.3,0,2.5,0.6,3.4,1.5l0.4,0.4c0.8,0.7,2,1.2,3.1,1.2s2.2-0.5,3.1-1.2
						c0.1-0.1,0.4-0.4,0.4-0.4c0.9-0.9,2.1-1.5,3.4-1.5s2.5,0.6,3.4,1.5l0.4,0.4c0.8,0.7,2,1.2,3.1,1.2s2.2-0.5,3.1-1.2
						c0.1-0.1,0.4-0.4,0.4-0.4c0.9-0.9,2.1-1.5,3.4-1.5s2.5,0.6,3.4,1.5l0.4,0.4c0.8,0.7,2,1.2,3.1,1.2s2.2-0.5,3.1-1.2
						c0.1-0.1,0.4-0.4,0.4-0.4c0.9-0.9,2.1-1.5,3.4-1.5"/>
					<path id="SvgjsPath1062_00000038377935318287336140000014304433940599216526_" class="st4" d="M20,668.8c1.1,0,2.2-0.5,3.1-1.2
						c0.1-0.1,0.4-0.4,0.4-0.4c0.9-0.9,2.1-1.5,3.4-1.5s2.5,0.6,3.4,1.5l0.4,0.4c0.8,0.7,2,1.2,3.1,1.2s2.2-0.5,3.1-1.2
						c0.1-0.1,0.4-0.4,0.4-0.4c0.9-0.9,2.1-1.5,3.4-1.5c1.3,0,2.5,0.6,3.4,1.5l0.4,0.4c0.8,0.7,2,1.2,3.1,1.2s2.2-0.5,3.1-1.2
						c0.1-0.1,0.4-0.4,0.4-0.4c0.9-0.9,2.1-1.5,3.4-1.5c1.3,0,2.5,0.6,3.4,1.5l0.4,0.4c0.8,0.7,2,1.2,3.1,1.2s2.2-0.5,3.1-1.2
						c0.1-0.1,0.4-0.4,0.4-0.4c0.9-0.9,2.1-1.5,3.4-1.5s2.5,0.6,3.4,1.5l0.4,0.4c0.8,0.7,2,1.2,3.1,1.2s2.2-0.5,3.1-1.2
						c0.1-0.1,0.4-0.4,0.4-0.4c0.9-0.9,2.1-1.5,3.4-1.5s2.5,0.6,3.4,1.5l0.4,0.4c0.8,0.7,2,1.2,3.1,1.2s2.2-0.5,3.1-1.2
						c0.1-0.1,0.4-0.4,0.4-0.4c0.9-0.9,2.1-1.5,3.4-1.5"/>
					<path id="SvgjsPath1062_00000180325964436978990520000000244327839218674331_" class="st4" d="M20,659.3c1.1,0,2.2-0.5,3.1-1.2
						c0.1-0.1,0.4-0.4,0.4-0.4c0.9-0.9,2.1-1.5,3.4-1.5s2.5,0.6,3.4,1.5l0.4,0.4c0.8,0.7,2,1.2,3.1,1.2s2.2-0.5,3.1-1.2
						c0.1-0.1,0.4-0.4,0.4-0.4c0.9-0.9,2.1-1.5,3.4-1.5c1.3,0,2.5,0.6,3.4,1.5l0.4,0.4c0.8,0.7,2,1.2,3.1,1.2s2.2-0.5,3.1-1.2
						c0.1-0.1,0.4-0.4,0.4-0.4c0.9-0.9,2.1-1.5,3.4-1.5c1.3,0,2.5,0.6,3.4,1.5l0.4,0.4c0.8,0.7,2,1.2,3.1,1.2s2.2-0.5,3.1-1.2
						c0.1-0.1,0.4-0.4,0.4-0.4c0.9-0.9,2.1-1.5,3.4-1.5s2.5,0.6,3.4,1.5l0.4,0.4c0.8,0.7,2,1.2,3.1,1.2s2.2-0.5,3.1-1.2
						c0.1-0.1,0.4-0.4,0.4-0.4c0.9-0.9,2.1-1.5,3.4-1.5s2.5,0.6,3.4,1.5l0.4,0.4c0.8,0.7,2,1.2,3.1,1.2s2.2-0.5,3.1-1.2
						c0.1-0.1,0.4-0.4,0.4-0.4c0.9-0.9,2.1-1.5,3.4-1.5"/>
				</g>
			</g>
			<g class="bubbleGroup" id="bubbleGroup15">
				<rect y="719" class="dimensions" width="156.3" height="54"/>
				<g class="bubble">
					<g>
						<g>
							<path class="st2" d="M18,763.9c-3.2,0-5.9-2.6-5.9-5.9v-31c0-3.2,2.6-5.9,5.9-5.9h132c3.2,0,5.9,2.6,5.9,5.9v31
								c0,3.2-2.6,5.9-5.9,5.9H18z"/>
							<path class="st2" d="M150,721.3c3.2,0,5.8,2.6,5.8,5.8v31c0,3.2-2.6,5.8-5.8,5.8H18c-3.2,0-5.8-2.6-5.8-5.8v-31
								c0-3.2,2.6-5.8,5.8-5.8H150 M150,721H18c-3.3,0-6,2.7-6,6v31c0,3.3,2.7,6,6,6h132c3.3,0,6-2.7,6-6v-31
								C156,723.7,153.3,721,150,721L150,721z"/>
						</g>
						<g>
							<path class="st3" d="M16,761.9c-3.2,0-5.9-2.6-5.9-5.9v-31c0-3.2,2.6-5.9,5.9-5.9h132c3.2,0,5.9,2.6,5.9,5.9v31
								c0,3.2-2.6,5.9-5.9,5.9H16z"/>
							<path class="st2" d="M148,719.3c3.2,0,5.8,2.6,5.8,5.8v31c0,3.2-2.6,5.8-5.8,5.8H16c-3.2,0-5.8-2.6-5.8-5.8v-31
								c0-3.2,2.6-5.8,5.8-5.8H148 M148,719H16c-3.3,0-6,2.7-6,6v31c0,3.3,2.7,6,6,6h132c3.3,0,6-2.7,6-6v-31
								C154,721.7,151.3,719,148,719L148,719z"/>
						</g>
					</g>
					<path id="SvgjsPath1062_00000173157835843268668680000005765177819157380771_" class="st4" d="M20,731.9c1.1,0,2.2-0.5,3.1-1.2
						c0.1-0.1,0.4-0.4,0.4-0.4c0.9-0.9,2.1-1.5,3.4-1.5s2.5,0.6,3.4,1.5l0.4,0.4c0.8,0.7,2,1.2,3.1,1.2s2.2-0.5,3.1-1.2
						c0.1-0.1,0.4-0.4,0.4-0.4c0.9-0.9,2.1-1.5,3.4-1.5c1.3,0,2.5,0.6,3.4,1.5l0.4,0.4c0.8,0.7,2,1.2,3.1,1.2s2.2-0.5,3.1-1.2
						c0.1-0.1,0.4-0.4,0.4-0.4c0.9-0.9,2.1-1.5,3.4-1.5c1.3,0,2.5,0.6,3.4,1.5l0.4,0.4c0.8,0.7,2,1.2,3.1,1.2s2.2-0.5,3.1-1.2
						c0.1-0.1,0.4-0.4,0.4-0.4c0.9-0.9,2.1-1.5,3.4-1.5s2.5,0.6,3.4,1.5l0.4,0.4c0.8,0.7,2,1.2,3.1,1.2s2.2-0.5,3.1-1.2
						c0.1-0.1,0.4-0.4,0.4-0.4c0.9-0.9,2.1-1.5,3.4-1.5s2.5,0.6,3.4,1.5l0.4,0.4c0.8,0.7,2,1.2,3.1,1.2s2.2-0.5,3.1-1.2
						c0.1-0.1,0.4-0.4,0.4-0.4c0.9-0.9,2.1-1.5,3.4-1.5s2.5,0.6,3.4,1.5l0.4,0.4c0.8,0.7,2,1.2,3.1,1.2s2.2-0.5,3.1-1.2
						c0.1-0.1,0.4-0.4,0.4-0.4c0.9-0.9,2.1-1.5,3.4-1.5s2.5,0.6,3.4,1.5l0.4,0.4c0.8,0.7,2,1.2,3.1,1.2s2.2-0.5,3.1-1.2
						c0.1-0.1,0.4-0.4,0.4-0.4c0.9-0.9,2.1-1.5,3.4-1.5s2.5,0.6,3.4,1.5l0.4,0.4c0.8,0.7,2,1.2,3.1,1.2h0.1c1.1,0,2.2-0.5,3.1-1.2
						c0.1-0.1,0.4-0.4,0.4-0.4c0.9-0.9,2.1-1.5,3.4-1.5c1.3,0,2.5,0.6,3.4,1.5l0.4,0.4c0.8,0.7,2,1.2,3.1,1.2"/>
					<path id="SvgjsPath1062_00000157999524730636267400000016018190243816950159_" class="st4" d="M20,750.8c1.1,0,2.2-0.5,3.1-1.2
						c0.1-0.1,0.4-0.4,0.4-0.4c0.9-0.9,2.1-1.5,3.4-1.5s2.5,0.6,3.4,1.5l0.4,0.4c0.8,0.7,2,1.2,3.1,1.2s2.2-0.5,3.1-1.2
						c0.1-0.1,0.4-0.4,0.4-0.4c0.9-0.9,2.1-1.5,3.4-1.5c1.3,0,2.5,0.6,3.4,1.5l0.4,0.4c0.8,0.7,2,1.2,3.1,1.2s2.2-0.5,3.1-1.2
						c0.1-0.1,0.4-0.4,0.4-0.4c0.9-0.9,2.1-1.5,3.4-1.5c1.3,0,2.5,0.6,3.4,1.5l0.4,0.4c0.8,0.7,2,1.2,3.1,1.2s2.2-0.5,3.1-1.2
						c0.1-0.1,0.4-0.4,0.4-0.4c0.9-0.9,2.1-1.5,3.4-1.5s2.5,0.6,3.4,1.5l0.4,0.4c0.8,0.7,2,1.2,3.1,1.2s2.2-0.5,3.1-1.2
						c0.1-0.1,0.4-0.4,0.4-0.4c0.9-0.9,2.1-1.5,3.4-1.5s2.5,0.6,3.4,1.5l0.4,0.4c0.8,0.7,2,1.2,3.1,1.2s2.2-0.5,3.1-1.2"/>
					<path id="SvgjsPath1062_00000146471063486244948640000013554242210478836876_" class="st4" d="M20,741.3c1.1,0,2.2-0.5,3.1-1.2
						c0.1-0.1,0.4-0.4,0.4-0.4c0.9-0.9,2.1-1.5,3.4-1.5s2.5,0.6,3.4,1.5l0.4,0.4c0.8,0.7,2,1.2,3.1,1.2s2.2-0.5,3.1-1.2
						c0.1-0.1,0.4-0.4,0.4-0.4c0.9-0.9,2.1-1.5,3.4-1.5c1.3,0,2.5,0.6,3.4,1.5l0.4,0.4c0.8,0.7,2,1.2,3.1,1.2s2.2-0.5,3.1-1.2
						c0.1-0.1,0.4-0.4,0.4-0.4c0.9-0.9,2.1-1.5,3.4-1.5c1.3,0,2.5,0.6,3.4,1.5l0.4,0.4c0.8,0.7,2,1.2,3.1,1.2s2.2-0.5,3.1-1.2
						c0.1-0.1,0.4-0.4,0.4-0.4c0.9-0.9,2.1-1.5,3.4-1.5s2.5,0.6,3.4,1.5l0.4,0.4c0.8,0.7,2,1.2,3.1,1.2s2.2-0.5,3.1-1.2
						c0.1-0.1,0.4-0.4,0.4-0.4c0.9-0.9,2.1-1.5,3.4-1.5s2.5,0.6,3.4,1.5l0.4,0.4c0.8,0.7,2,1.2,3.1,1.2s2.2-0.5,3.1-1.2
						c0.1-0.1,0.4-0.4,0.4-0.4c0.9-0.9,2.1-1.5,3.4-1.5s2.5,0.6,3.4,1.5l0.4,0.4c0.8,0.7,2,1.2,3.1,1.2s2.2-0.5,3.1-1.2
						c0.1-0.1,0.4-0.4,0.4-0.4c0.9-0.9,2.1-1.5,3.4-1.5s2.5,0.6,3.4,1.5l0.4,0.4c0.8,0.7,2,1.2,3.1,1.2s2.2-0.5,3.1-1.2
						c0.1-0.1,0.4-0.4,0.4-0.4c0.9-0.9,2.1-1.5,3.4-1.5s2.5,0.6,3.4,1.5l0.4,0.4c0.8,0.7,2,1.2,3.1,1.2h0.1c1.1,0,2.2-0.5,3.1-1.2
						c0.1-0.1,0.4-0.4,0.4-0.4c0.9-0.9,2.1-1.5,3.4-1.5c1.3,0,2.5,0.6,3.4,1.5l0.4,0.4c0.8,0.7,2,1.2,3.1,1.2"/>
				</g>
			</g>
			<g class="bubbleGroup" id="bubbleGroup16">
				<rect y="773" class="dimensions" width="100.6" height="38"/>
				<g class="bubble">
					<g>
						<circle class="st5" cx="55.3" cy="787.1" r="14.1"/>
						<path class="st6" d="M63.6,788.2c-0.2-0.2-0.5-0.2-0.9-0.2H47.8c-0.4,0-0.7,0-0.9,0.2c-1.8,2.3,0.3,9.2,8.3,9.2
							S65.4,790.6,63.6,788.2"/>
						<path class="st7" d="M56.1,791.6c-0.3,0-0.7,0.2-0.5,0.9c0.1,0.3,0.6,0.8,0.6,1.3c0,1.1-1.8,1.1-1.8,0c0-0.6,0.5-0.9,0.6-1.3
							c0.1-0.7-0.3-0.9-0.5-0.9c-0.8,0-1.9,0.8-1.9,2.2c0,1.5,1.3,2.7,2.8,2.7s2.8-1.2,2.8-2.7C58.1,792.5,56.9,791.7,56.1,791.6"/>
						<path class="st8" d="M51.7,795.9c1,0.5,2.3,0.7,3.6,0.7s2.6-0.3,3.6-0.7c-1-0.5-2.2-0.8-3.6-0.8S52.6,795.4,51.7,795.9"/>
						<path class="st3" d="M62.3,789h-14c-1,0-1,1.9,0,1.9h14.1C63.3,790.8,63.3,789,62.3,789"/>
						<path class="st6" d="M53.6,785.5c-0.9-2.4-2.2-3.6-3.5-3.6s-2.6,1.2-3.5,3.6c-0.1,0.2,0.4,0.7,0.6,0.4c0.8-0.9,1.9-1.3,2.9-1.3
							s2.1,0.4,2.9,1.3C53.3,786.2,53.7,785.8,53.6,785.5 M63.9,785.5c-0.9-2.4-2.2-3.6-3.5-3.6s-2.6,1.2-3.5,3.6
							c-0.1,0.2,0.4,0.7,0.6,0.4c0.8-0.9,1.9-1.3,2.9-1.3s2.1,0.4,2.9,1.3C63.5,786.2,64,785.8,63.9,785.5"/>
					</g>
					<g>
						<circle class="st5" cx="86.5" cy="787.1" r="14.1"/>
						<path class="st6" d="M94.8,788.2c-0.2-0.2-0.5-0.2-0.9-0.2H79.1c-0.4,0-0.7,0-0.9,0.2c-1.8,2.3,0.3,9.2,8.3,9.2
							S96.6,790.6,94.8,788.2"/>
						<path class="st7" d="M87.3,791.6c-0.3,0-0.7,0.2-0.5,0.9c0.1,0.3,0.6,0.8,0.6,1.3c0,1.1-1.8,1.1-1.8,0c0-0.6,0.5-0.9,0.6-1.3
							c0.1-0.7-0.3-0.9-0.5-0.9c-0.8,0-1.9,0.8-1.9,2.2c0,1.5,1.3,2.7,2.8,2.7s2.8-1.2,2.8-2.7C89.3,792.5,88.1,791.7,87.3,791.6"/>
						<path class="st8" d="M82.9,795.9c1,0.5,2.3,0.7,3.6,0.7c1.4,0,2.6-0.3,3.6-0.7c-1-0.5-2.2-0.8-3.6-0.8S83.9,795.4,82.9,795.9"/>
						<path class="st3" d="M93.5,789h-14c-1,0-1,1.9,0,1.9h14.1C94.5,790.8,94.5,789,93.5,789"/>
						<path class="st6" d="M84.9,785.5c-0.9-2.4-2.2-3.6-3.5-3.6s-2.6,1.2-3.5,3.6c-0.1,0.2,0.4,0.7,0.6,0.4c0.8-0.9,1.9-1.3,2.9-1.3
							s2.1,0.4,2.9,1.3C84.5,786.2,85,785.8,84.9,785.5 M95.1,785.5c-0.9-2.4-2.2-3.6-3.5-3.6s-2.6,1.2-3.5,3.6
							c-0.1,0.2,0.4,0.7,0.6,0.4c0.8-0.9,1.9-1.3,2.9-1.3s2.1,0.4,2.9,1.3C94.8,786.2,95.2,785.8,95.1,785.5"/>
					</g>
					<g>
						<circle class="st5" cx="24.1" cy="787.1" r="14.1"/>
						<path class="st6" d="M32.4,788.2c-0.2-0.2-0.5-0.2-0.9-0.2H16.7c-0.4,0-0.7,0-0.9,0.2c-1.8,2.3,0.3,9.2,8.3,9.2
							S34.2,790.6,32.4,788.2"/>
						<path class="st7" d="M24.9,791.6c-0.3,0-0.7,0.2-0.5,0.9c0.1,0.3,0.6,0.8,0.6,1.3c0,1.1-1.8,1.1-1.8,0c0-0.6,0.5-0.9,0.6-1.3
							c0.1-0.7-0.3-0.9-0.5-0.9c-0.8,0-1.9,0.8-1.9,2.2c0,1.5,1.3,2.7,2.8,2.7s2.8-1.2,2.8-2.7C26.9,792.5,25.7,791.7,24.9,791.6"/>
						<path class="st8" d="M20.5,795.9c1,0.5,2.3,0.7,3.6,0.7s2.6-0.3,3.6-0.7c-1-0.5-2.2-0.8-3.6-0.8S21.5,795.4,20.5,795.9"/>
						<path class="st3" d="M31.1,789h-14c-1,0-1,1.9,0,1.9h14.1C32.1,790.8,32.1,789,31.1,789"/>
						<path class="st6" d="M22.4,785.5c-0.9-2.4-2.2-3.6-3.5-3.6s-2.6,1.2-3.5,3.6c-0.1,0.2,0.4,0.7,0.6,0.4c0.8-0.9,1.9-1.3,2.9-1.3
							s2.1,0.4,2.9,1.3C22.1,786.2,22.5,785.8,22.4,785.5 M32.7,785.5c-0.9-2.4-2.2-3.6-3.5-3.6s-2.6,1.2-3.5,3.6
							c-0.1,0.2,0.4,0.7,0.6,0.4c0.8-0.9,1.9-1.3,2.9-1.3s2.1,0.4,2.9,1.3C32.4,786.2,32.8,785.8,32.7,785.5"/>
					</g>
				</g>
			</g>
			<g class="bubbleGroup" id="bubbleGroup17">
				<rect y="811" class="dimensions" width="155.7" height="91"/>
				<g class="bubble">
					<g>
						<g>
							<path class="st2" d="M18,891.9c-3.2,0-5.9-2.6-5.9-5.9v-67c0-3.2,2.6-5.9,5.9-5.9h132c3.2,0,5.9,2.6,5.9,5.9v67
								c0,3.2-2.6,5.9-5.9,5.9H18z"/>
							<path class="st2" d="M150,813.3c3.2,0,5.8,2.6,5.8,5.8v67c0,3.2-2.6,5.8-5.8,5.8H18c-3.2,0-5.8-2.6-5.8-5.8v-67
								c0-3.2,2.6-5.8,5.8-5.8H150 M150,813H18c-3.3,0-6,2.7-6,6v67c0,3.3,2.7,6,6,6h132c3.3,0,6-2.7,6-6v-67
								C156,815.7,153.3,813,150,813L150,813z"/>
						</g>
						<g>
							<path class="st3" d="M16,889.9c-3.2,0-5.9-2.6-5.9-5.9v-67c0-3.2,2.6-5.9,5.9-5.9h132c3.2,0,5.9,2.6,5.9,5.9v67
								c0,3.2-2.6,5.9-5.9,5.9H16z"/>
							<path class="st2" d="M148,811.3c3.2,0,5.8,2.6,5.8,5.8v67c0,3.2-2.6,5.8-5.8,5.8H16c-3.2,0-5.8-2.6-5.8-5.8v-67
								c0-3.2,2.6-5.8,5.8-5.8H148 M148,811H16c-3.3,0-6,2.7-6,6v67c0,3.3,2.7,6,6,6h132c3.3,0,6-2.7,6-6v-67
								C154,813.7,151.3,811,148,811L148,811z"/>
						</g>
					</g>
					<path id="SvgjsPath1062_00000150065110479833872150000014212237263317556112_" class="st4" d="M20,824.2c1.1,0,2.2-0.5,3.1-1.2
						c0.1-0.1,0.4-0.4,0.4-0.4c0.9-0.9,2.1-1.5,3.4-1.5s2.5,0.6,3.4,1.5l0.4,0.4c0.8,0.7,2,1.2,3.1,1.2s2.2-0.5,3.1-1.2
						c0.1-0.1,0.4-0.4,0.4-0.4c0.9-0.9,2.1-1.5,3.4-1.5c1.3,0,2.5,0.6,3.4,1.5l0.4,0.4c0.8,0.7,2,1.2,3.1,1.2s2.2-0.5,3.1-1.2
						c0.1-0.1,0.4-0.4,0.4-0.4c0.9-0.9,2.1-1.5,3.4-1.5c1.3,0,2.5,0.6,3.4,1.5l0.4,0.4c0.8,0.7,2,1.2,3.1,1.2s2.2-0.5,3.1-1.2
						c0.1-0.1,0.4-0.4,0.4-0.4c0.9-0.9,2.1-1.5,3.4-1.5s2.5,0.6,3.4,1.5l0.4,0.4c0.8,0.7,2,1.2,3.1,1.2s2.2-0.5,3.1-1.2
						c0.1-0.1,0.4-0.4,0.4-0.4c0.9-0.9,2.1-1.5,3.4-1.5s2.5,0.6,3.4,1.5l0.4,0.4c0.8,0.7,2,1.2,3.1,1.2s2.2-0.5,3.1-1.2
						c0.1-0.1,0.4-0.4,0.4-0.4c0.9-0.9,2.1-1.5,3.4-1.5s2.5,0.6,3.4,1.5l0.4,0.4c0.8,0.7,2,1.2,3.1,1.2s2.2-0.5,3.1-1.2
						c0.1-0.1,0.4-0.4,0.4-0.4c0.9-0.9,2.1-1.5,3.4-1.5s2.5,0.6,3.4,1.5l0.4,0.4c0.8,0.7,2,1.2,3.1,1.2s2.2-0.5,3.1-1.2
						c0.1-0.1,0.4-0.4,0.4-0.4c0.9-0.9,2.1-1.5,3.4-1.5s2.5,0.6,3.4,1.5l0.4,0.4c0.8,0.7,2,1.2,3.1,1.2h0.1c1.1,0,2.2-0.5,3.1-1.2
						c0.1-0.1,0.4-0.4,0.4-0.4c0.9-0.9,2.1-1.5,3.4-1.5c1.3,0,2.5,0.6,3.4,1.5l0.4,0.4c0.8,0.7,2,1.2,3.1,1.2"/>
					<path id="SvgjsPath1062_00000000186097765764672490000001216692722639698860_" class="st4" d="M20,870.7c1.1,0,2.2-0.5,3.1-1.2
						c0.1-0.1,0.4-0.4,0.4-0.4c0.9-0.9,2.1-1.5,3.4-1.5s2.5,0.6,3.4,1.5l0.4,0.4c0.8,0.7,2,1.2,3.1,1.2s2.2-0.5,3.1-1.2
						c0.1-0.1,0.4-0.4,0.4-0.4c0.9-0.9,2.1-1.5,3.4-1.5c1.3,0,2.5,0.6,3.4,1.5l0.4,0.4c0.8,0.7,2,1.2,3.1,1.2s2.2-0.5,3.1-1.2
						c0.1-0.1,0.4-0.4,0.4-0.4c0.9-0.9,2.1-1.5,3.4-1.5c1.3,0,2.5,0.6,3.4,1.5l0.4,0.4c0.8,0.7,2,1.2,3.1,1.2s2.2-0.5,3.1-1.2
						c0.1-0.1,0.4-0.4,0.4-0.4c0.9-0.9,2.1-1.5,3.4-1.5s2.5,0.6,3.4,1.5l0.4,0.4c0.8,0.7,2,1.2,3.1,1.2s2.2-0.5,3.1-1.2
						c0.1-0.1,0.4-0.4,0.4-0.4c0.9-0.9,2.1-1.5,3.4-1.5s2.5,0.6,3.4,1.5l0.4,0.4c0.8,0.7,2,1.2,3.1,1.2s2.2-0.5,3.1-1.2
						c0.1-0.1,0.4-0.4,0.4-0.4c0.9-0.9,2.1-1.5,3.4-1.5s2.5,0.6,3.4,1.5l0.4,0.4c0.8,0.7,2,1.2,3.1,1.2s2.2-0.5,3.1-1.2
						c0.1-0.1,0.4-0.4,0.4-0.4c0.9-0.9,2.1-1.5,3.4-1.5s2.5,0.6,3.4,1.5l0.4,0.4c0.8,0.7,2,1.2,3.1,1.2s2.2-0.5,3.1-1.2
						c0.1-0.1,0.4-0.4,0.4-0.4c0.9-0.9,2.1-1.5,3.4-1.5s2.5,0.6,3.4,1.5l0.4,0.4c0.8,0.7,2,1.2,3.1,1.2h0.1c1.1,0,2.2-0.5,3.1-1.2
						c0.1-0.1,0.4-0.4,0.4-0.4c0.9-0.9,2.1-1.5,3.4-1.5c1.3,0,2.5,0.6,3.4,1.5l0.4,0.4c0.8,0.7,2,1.2,3.1,1.2"/>
					<path id="SvgjsPath1062_00000033365952365158592680000010474474675148111269_" class="st4" d="M20,880.1c1.1,0,2.2-0.5,3.1-1.2
						c0.1-0.1,0.4-0.4,0.4-0.4c0.9-0.9,2.1-1.5,3.4-1.5s2.5,0.6,3.4,1.5l0.4,0.4c0.8,0.7,2,1.2,3.1,1.2s2.2-0.5,3.1-1.2
						c0.1-0.1,0.4-0.4,0.4-0.4c0.9-0.9,2.1-1.5,3.4-1.5c1.3,0,2.5,0.6,3.4,1.5l0.4,0.4c0.8,0.7,2,1.2,3.1,1.2s2.2-0.5,3.1-1.2
						c0.1-0.1,0.4-0.4,0.4-0.4c0.9-0.9,2.1-1.5,3.4-1.5c1.3,0,2.5,0.6,3.4,1.5l0.4,0.4c0.8,0.7,2,1.2,3.1,1.2s2.2-0.5,3.1-1.2
						c0.1-0.1,0.4-0.4,0.4-0.4c0.9-0.9,2.1-1.5,3.4-1.5s2.5,0.6,3.4,1.5l0.4,0.4c0.8,0.7,2,1.2,3.1,1.2s2.2-0.5,3.1-1.2
						c0.1-0.1,0.4-0.4,0.4-0.4c0.9-0.9,2.1-1.5,3.4-1.5s2.5,0.6,3.4,1.5l0.4,0.4c0.8,0.7,2,1.2,3.1,1.2s2.2-0.5,3.1-1.2
						c0.1-0.1,0.4-0.4,0.4-0.4c0.9-0.9,2.1-1.5,3.4-1.5s2.5,0.6,3.4,1.5l0.4,0.4c0.8,0.7,2,1.2,3.1,1.2s2.2-0.5,3.1-1.2
						c0.1-0.1,0.4-0.4,0.4-0.4c0.9-0.9,2.1-1.5,3.4-1.5s2.5,0.6,3.4,1.5"/>
					<path id="SvgjsPath1062_00000132781182441139563720000007631927891809547668_" class="st4" d="M20,861.4c1.1,0,2.2-0.5,3.1-1.2
						c0.1-0.1,0.4-0.4,0.4-0.4c0.9-0.9,2.1-1.5,3.4-1.5s2.5,0.6,3.4,1.5l0.4,0.4c0.8,0.7,2,1.2,3.1,1.2s2.2-0.5,3.1-1.2
						c0.1-0.1,0.4-0.4,0.4-0.4c0.9-0.9,2.1-1.5,3.4-1.5c1.3,0,2.5,0.6,3.4,1.5l0.4,0.4c0.8,0.7,2,1.2,3.1,1.2s2.2-0.5,3.1-1.2
						c0.1-0.1,0.4-0.4,0.4-0.4c0.9-0.9,2.1-1.5,3.4-1.5c1.3,0,2.5,0.6,3.4,1.5l0.4,0.4c0.8,0.7,2,1.2,3.1,1.2s2.2-0.5,3.1-1.2
						c0.1-0.1,0.4-0.4,0.4-0.4c0.9-0.9,2.1-1.5,3.4-1.5s2.5,0.6,3.4,1.5l0.4,0.4c0.8,0.7,2,1.2,3.1,1.2s2.2-0.5,3.1-1.2
						c0.1-0.1,0.4-0.4,0.4-0.4c0.9-0.9,2.1-1.5,3.4-1.5s2.5,0.6,3.4,1.5l0.4,0.4c0.8,0.7,2,1.2,3.1,1.2s2.2-0.5,3.1-1.2
						c0.1-0.1,0.4-0.4,0.4-0.4c0.9-0.9,2.1-1.5,3.4-1.5s2.5,0.6,3.4,1.5l0.4,0.4c0.8,0.7,2,1.2,3.1,1.2s2.2-0.5,3.1-1.2
						c0.1-0.1,0.4-0.4,0.4-0.4c0.9-0.9,2.1-1.5,3.4-1.5s2.5,0.6,3.4,1.5l0.4,0.4c0.8,0.7,2,1.2,3.1,1.2s2.2-0.5,3.1-1.2
						c0.1-0.1,0.4-0.4,0.4-0.4c0.9-0.9,2.1-1.5,3.4-1.5s2.5,0.6,3.4,1.5l0.4,0.4c0.8,0.7,2,1.2,3.1,1.2h0.1c1.1,0,2.2-0.5,3.1-1.2
						c0.1-0.1,0.4-0.4,0.4-0.4c0.9-0.9,2.1-1.5,3.4-1.5c1.3,0,2.5,0.6,3.4,1.5l0.4,0.4c0.8,0.7,2,1.2,3.1,1.2"/>
					<path id="SvgjsPath1062_00000163767534947396119240000007577229977143189151_" class="st4" d="M20,852.1c1.1,0,2.2-0.5,3.1-1.2
						c0.1-0.1,0.4-0.4,0.4-0.4c0.9-0.9,2.1-1.5,3.4-1.5s2.5,0.6,3.4,1.5l0.4,0.4c0.8,0.7,2,1.2,3.1,1.2s2.2-0.5,3.1-1.2
						c0.1-0.1,0.4-0.4,0.4-0.4c0.9-0.9,2.1-1.5,3.4-1.5c1.3,0,2.5,0.6,3.4,1.5l0.4,0.4c0.8,0.7,2,1.2,3.1,1.2s2.2-0.5,3.1-1.2
						c0.1-0.1,0.4-0.4,0.4-0.4c0.9-0.9,2.1-1.5,3.4-1.5c1.3,0,2.5,0.6,3.4,1.5l0.4,0.4c0.8,0.7,2,1.2,3.1,1.2s2.2-0.5,3.1-1.2
						c0.1-0.1,0.4-0.4,0.4-0.4c0.9-0.9,2.1-1.5,3.4-1.5s2.5,0.6,3.4,1.5l0.4,0.4c0.8,0.7,2,1.2,3.1,1.2s2.2-0.5,3.1-1.2
						c0.1-0.1,0.4-0.4,0.4-0.4c0.9-0.9,2.1-1.5,3.4-1.5s2.5,0.6,3.4,1.5l0.4,0.4c0.8,0.7,2,1.2,3.1,1.2s2.2-0.5,3.1-1.2
						c0.1-0.1,0.4-0.4,0.4-0.4c0.9-0.9,2.1-1.5,3.4-1.5s2.5,0.6,3.4,1.5l0.4,0.4c0.8,0.7,2,1.2,3.1,1.2s2.2-0.5,3.1-1.2
						c0.1-0.1,0.4-0.4,0.4-0.4c0.9-0.9,2.1-1.5,3.4-1.5s2.5,0.6,3.4,1.5l0.4,0.4c0.8,0.7,2,1.2,3.1,1.2s2.2-0.5,3.1-1.2
						c0.1-0.1,0.4-0.4,0.4-0.4c0.9-0.9,2.1-1.5,3.4-1.5s2.5,0.6,3.4,1.5l0.4,0.4c0.8,0.7,2,1.2,3.1,1.2h0.1c1.1,0,2.2-0.5,3.1-1.2
						c0.1-0.1,0.4-0.4,0.4-0.4c0.9-0.9,2.1-1.5,3.4-1.5c1.3,0,2.5,0.6,3.4,1.5l0.4,0.4c0.8,0.7,2,1.2,3.1,1.2"/>
					<path id="SvgjsPath1062_00000096744744996940661400000008062489203803235007_" class="st4" d="M20,842.8c1.1,0,2.2-0.5,3.1-1.2
						c0.1-0.1,0.4-0.4,0.4-0.4c0.9-0.9,2.1-1.5,3.4-1.5s2.5,0.6,3.4,1.5l0.4,0.4c0.8,0.7,2,1.2,3.1,1.2s2.2-0.5,3.1-1.2
						c0.1-0.1,0.4-0.4,0.4-0.4c0.9-0.9,2.1-1.5,3.4-1.5c1.3,0,2.5,0.6,3.4,1.5l0.4,0.4c0.8,0.7,2,1.2,3.1,1.2s2.2-0.5,3.1-1.2
						c0.1-0.1,0.4-0.4,0.4-0.4c0.9-0.9,2.1-1.5,3.4-1.5c1.3,0,2.5,0.6,3.4,1.5l0.4,0.4c0.8,0.7,2,1.2,3.1,1.2s2.2-0.5,3.1-1.2
						c0.1-0.1,0.4-0.4,0.4-0.4c0.9-0.9,2.1-1.5,3.4-1.5s2.5,0.6,3.4,1.5l0.4,0.4c0.8,0.7,2,1.2,3.1,1.2s2.2-0.5,3.1-1.2
						c0.1-0.1,0.4-0.4,0.4-0.4c0.9-0.9,2.1-1.5,3.4-1.5s2.5,0.6,3.4,1.5l0.4,0.4c0.8,0.7,2,1.2,3.1,1.2s2.2-0.5,3.1-1.2
						c0.1-0.1,0.4-0.4,0.4-0.4c0.9-0.9,2.1-1.5,3.4-1.5s2.5,0.6,3.4,1.5l0.4,0.4c0.8,0.7,2,1.2,3.1,1.2s2.2-0.5,3.1-1.2
						c0.1-0.1,0.4-0.4,0.4-0.4c0.9-0.9,2.1-1.5,3.4-1.5s2.5,0.6,3.4,1.5l0.4,0.4c0.8,0.7,2,1.2,3.1,1.2s2.2-0.5,3.1-1.2
						c0.1-0.1,0.4-0.4,0.4-0.4c0.9-0.9,2.1-1.5,3.4-1.5s2.5,0.6,3.4,1.5l0.4,0.4c0.8,0.7,2,1.2,3.1,1.2h0.1c1.1,0,2.2-0.5,3.1-1.2
						c0.1-0.1,0.4-0.4,0.4-0.4c0.9-0.9,2.1-1.5,3.4-1.5c1.3,0,2.5,0.6,3.4,1.5l0.4,0.4c0.8,0.7,2,1.2,3.1,1.2"/>
					<path id="SvgjsPath1062_00000033366907679120258120000004611128491438001834_" class="st4" d="M20,833.6c1.1,0,2.2-0.5,3.1-1.2
						c0.1-0.1,0.4-0.4,0.4-0.4c0.9-0.9,2.1-1.5,3.4-1.5s2.5,0.6,3.4,1.5l0.4,0.4c0.8,0.7,2,1.2,3.1,1.2s2.2-0.5,3.1-1.2
						c0.1-0.1,0.4-0.4,0.4-0.4c0.9-0.9,2.1-1.5,3.4-1.5c1.3,0,2.5,0.6,3.4,1.5l0.4,0.4c0.8,0.7,2,1.2,3.1,1.2s2.2-0.5,3.1-1.2
						c0.1-0.1,0.4-0.4,0.4-0.4c0.9-0.9,2.1-1.5,3.4-1.5c1.3,0,2.5,0.6,3.4,1.5l0.4,0.4c0.8,0.7,2,1.2,3.1,1.2s2.2-0.5,3.1-1.2
						c0.1-0.1,0.4-0.4,0.4-0.4c0.9-0.9,2.1-1.5,3.4-1.5s2.5,0.6,3.4,1.5l0.4,0.4c0.8,0.7,2,1.2,3.1,1.2s2.2-0.5,3.1-1.2
						c0.1-0.1,0.4-0.4,0.4-0.4c0.9-0.9,2.1-1.5,3.4-1.5s2.5,0.6,3.4,1.5l0.4,0.4c0.8,0.7,2,1.2,3.1,1.2s2.2-0.5,3.1-1.2
						c0.1-0.1,0.4-0.4,0.4-0.4c0.9-0.9,2.1-1.5,3.4-1.5s2.5,0.6,3.4,1.5l0.4,0.4c0.8,0.7,2,1.2,3.1,1.2s2.2-0.5,3.1-1.2
						c0.1-0.1,0.4-0.4,0.4-0.4c0.9-0.9,2.1-1.5,3.4-1.5s2.5,0.6,3.4,1.5l0.4,0.4c0.8,0.7,2,1.2,3.1,1.2s2.2-0.5,3.1-1.2
						c0.1-0.1,0.4-0.4,0.4-0.4c0.9-0.9,2.1-1.5,3.4-1.5s2.5,0.6,3.4,1.5l0.4,0.4c0.8,0.7,2,1.2,3.1,1.2h0.1c1.1,0,2.2-0.5,3.1-1.2
						c0.1-0.1,0.4-0.4,0.4-0.4c0.9-0.9,2.1-1.5,3.4-1.5c1.3,0,2.5,0.6,3.4,1.5l0.4,0.4c0.8,0.7,2,1.2,3.1,1.2"/>
				</g>
			</g>
		</g>
	</g>
	<script  type="text/ecmascript">
		<![CDATA[
			window.onload = function() {
				const chatLog = document.getElementById("chatLog");
				const project = document.getElementById("project");
				let translateY = 0;
				let timer;
				let restartCycleTimer;
				let play = true;

				function resetCycle() {
					chatLog.classList.remove("animating");
					translateY = 0;
					chatLog.style = "";
					const bubbleGroups = document.querySelectorAll(".bubbleGroup.visible");
					bubbleGroups.forEach(bubbleGroup => {
						bubbleGroup.classList.remove("visible");
						const bubble = bubbleGroup.querySelector(".bubble");
						bubble.style = "";
					});
					
					const trigger = project;
				}

				function restartCycle() {
					resetCycle();
					restartCycleTimer = window.setTimeout(() => {
						chatLog.classList.add("animating");
						playCycle();
					}, (50));
				}

				function playCycle() {
					if (!play) return;

					const bubbleGroup = document.querySelector(".bubbleGroup:not(.visible)");
					if (!bubbleGroup) {
						restartCycle();
						return;
					}
					const bubble = bubbleGroup.querySelector(".bubble");
					const changeY = parseInt(bubbleGroup.querySelector(".dimensions").getAttribute("height"), 10);
					const chatLogTransitionDuration = changeY * 8;
					translateY = translateY - changeY;
					chatLog.style.transitionDuration = `${chatLogTransitionDuration}ms`;
					chatLog.style.transform = `translateY(${translateY}px)`;

					// transition-property: opacity, transform;
					bubble.style.transitionDelay = `${chatLogTransitionDuration / 1.5}ms, ${chatLogTransitionDuration / 1.5}ms`;
					bubbleGroup.classList.add("visible");
					timer = window.setTimeout(() => {
						playCycle();
					}, (chatLogTransitionDuration + 1500));
				}
				playCycle();

				document.addEventListener("visibilitychange", () => {
					if (document.visibilityState === "visible") {
						restartCycleTimer = window.setTimeout(() => {
							chatLog.classList.add("animating");
							play = true;
							playCycle();
						}, (50));
					} else {
						play = false;
						clearTimeout(timer);
						clearTimeout(restartCycleTimer);
						resetCycle();
					}
				});
			};
		]]>
	</script>
</svg>
