<?xml version="1.0" encoding="utf-8"?>
<!-- Generator: Adobe Illustrator 27.2.0, SVG Export Plug-In . SVG Version: 6.00 Build 0)  -->
<svg version="1.1" id="Layer_1" xmlns="http://www.w3.org/2000/svg" xmlns:xlink="http://www.w3.org/1999/xlink" x="0px" y="0px"
	 viewBox="0 0 365 225" style="enable-background:new 0 0 365 225;" xml:space="preserve">
<style type="text/css">
	.st0{fill:#FFFFFF;}
	.st1{fill:none;stroke:#000000;stroke-width:37;stroke-linecap:round;stroke-linejoin:round;stroke-miterlimit:3;}
	.st2{fill:none;}
	.st3{fill:none;stroke:#221F20;stroke-width:0.3;}
	.st4{fill:#F5FBFF;}
	.st5{opacity:0.17;fill:url(#backgroundPattern_00000108293417294406414000000010143736428507565706_);enable-background:new    ;}
	.st6{opacity:6.000000e-02;}
	.st7{fill:none;stroke:#F2F2F2;stroke-width:0.5;stroke-miterlimit:10;}
	.st8{fill:#F7F7F7;}
	.st9{fill:#EAEAEA;}
	.st10{fill:#F4F4F4;stroke:#EAEAEA;stroke-width:0.25;stroke-miterlimit:10;}
	.st11{fill:#F4F4F4;}
	.st12{fill:#009BFF;}
	.st13{fill:#939393;}
	.st14{fill:#FBC21A;}
	.st15{fill:#FDE283;}
	.st16{fill:#C47930;}
	.st17{fill:#E5AB4C;}
	.st18{fill:#EFEFEF;}
	.st19{fill:#FFFFFF;fill-opacity:0;}
	.st20{fill:none;stroke:#009BFF;stroke-width:1.0769;stroke-miterlimit:10;}
	.st21{opacity:0.15;enable-background:new    ;}
	.st22{fill:#DB4437;}
	.st23{clip-path:url(#SVGID_00000075120388074789038930000008625156714099539352_);fill:#B93221;}
	.st24{fill:#BDCF46;}
	.st25{clip-path:url(#SVGID_00000084523338783246852110000007741268795097995946_);fill:#DB4437;}
	.st26{clip-path:url(#SVGID_00000044170083764122483760000001975684119118248335_);fill:#B93221;}
	.st27{enable-background:new    ;}
	.st28{fill:#855C52;}
	.st29{fill:#B93221;}
	.st30{fill:#E7A74F;}
	.st31{fill:#BA8443;}
	.st32{fill:#826046;}
	.st33{fill:#68472C;}
	.st34{fill:#EF4D3C;}
	.st35{fill:#D33B23;}
	.st36{fill:#FFE62E;}
	.st37{fill:#8CC63E;}
	.st38{fill:#FFC17A;}
	.st39{fill:#FF8E00;}
	.st40{fill:#F5B03E;}
	.st41{fill:#FFCC8A;}
	.st42{fill:#CB6C22;}
	.st43{fill:#DB0D27;}
	.st44{fill:#ED6D30;}
	.st45{fill:#FCC12B;}
	.st46{fill:#CED74D;}
	.st47{fill:#947151;}
	.st48{fill:#7FB539;}
	.st49{fill:#64892F;}
	.st50{fill:#B46137;}
	.st51{fill:#84B234;}
	.st52{fill:none;stroke:#939393;stroke-miterlimit:10;}
	.st53{fill:none;stroke:#E5E5E5;stroke-miterlimit:10;}
	.st54{clip-path:url(#SVGID_00000131355050890802168610000006973424769686359472_);}
	.st55{clip-path:url(#SVGID_00000027599307029031173570000001021674533489927061_);}

	@keyframes TO_TEXT_INPUT {
		0%     { transform: translate(0, 0); }
		60%    { transform: translate(-195px, -52px); }
		100%   { transform: translate(-195px, -52px); }
	}

	@keyframes TO_FOOD_BUTTON {
		0%     { transform: translate(0, 0); }
		100%   { transform: translate(-157px, 32px); }
	}

	@keyframes TO_TMRW_BUTTON {
		0%		 { transform: translate(0, 0); }
		100%   { transform: translate(-123px, 65px); } 
	}

	#cursor.toTextInput {
		animation: TO_TEXT_INPUT 1200ms ease-out 1;
	}

	#cursor.toFoodButton {
		animation: TO_FOOD_BUTTON 1000ms ease-out 1 forwards;
	}

	#cursor.toTmrwButton {
		animation: TO_TMRW_BUTTON 1000ms ease-out 1 forwards;
	}

	#pointerCursor,
	#hand,
	#textCursor {
		opacity: 0;
	}

	#pointerCursor.visible,
	#hand.visible,
	#textCursor.visible {
		opacity: 1;
	}

	#hand.click {
		transform: translateY(1px);
	}

	@keyframes CARET_BLINK {
		0%     { fill: transparent; }
		50%    { fill: transparent; }
		51% { fill: #939393; }
		100%   { fill: #939393; }
	}

	#caret {
		fill: transparent;
	}

	#caret.visible {
		fill: #939393;
	}

	#caret.blinking {
		position: relative;
		-moz-animation: CARET_BLINK 1000ms linear infinite;
		animation: CARET_BLINK 1000ms linear infinite;
	}

	#caretGroup {
		transform: translateX(-3px);
	}

	@keyframes CARET_TYPE {
		0%     { transform: translateX(-3px) }
		50%    { transform: translateX(-43px) }
		60% 	 { transform: translateX(-43px) }
		100%   { transform: translateX(37px); }
	}

	#caretGroup.caretTyping {
		animation: CARET_TYPE 1s ease-in-out 1 forwards;
	}

	#caretGroup.hidden {
		opacity: 0;
	}

	#caretLeft.hidden {
		opacity: 0;
	}

	#shadow {
		transition: opacity 0.5s;
		opacity: 0;
	}

	#shadow.visible {
		opacity: 0.2;
	}
	#searchPage {
		transition: transform 1s;
	}

	#searchPage.visible {
		transform: translateY(-234px);
	}

	#foodButtonInSearchBackground {
		transition: fill 0.3s;
	}

	#foodButtonInSearchBackground.hover {
		fill: #f5f5f5;
	}

	#foodButtonInSearch.click,
	#foodButtonInSearchBackground.click {
		transform: translateY(1px);
	}

	#animatedGraph {
		transform-origin: 50% 130px;
		transition: transform 1s ease-out;
	}

	#animatedGraph.reduced {
		transform: rotate(-80deg);
	}

	#foodLine {
		transform-origin: 50% 179px;
		transform: scale(0.8);
		opacity: 0;
		transition: opacity 0.25s linear,
			transform 0.33s cubic-bezier(0.175, 0.885, 0.32, 1.275);
	}

	#foodLine.visible {
		transform: scale(1);
		opacity: 1;
	}

	#numbers {
		transition: transform 0.7s ease-out;
	}

	#numbers.reduced {
		transform: translateY(248px);
	}

	#rightButtonHover {
		opacity: 0;
		transition: opacity 0.333s;
	}

	#rightButtonHover.visible {
		opacity: 1;
	}

	#rightButton.click {
		transform: translateY(1px);
	}
</style>
<symbol  id="hand" viewBox="-350 -448.8 699.9 897.6">
	<g id="Layer_3_00000164472355901899516040000002337512048029853074_">
		<path class="st0" d="M209.3,105.9c0-0.4,0-0.8,0-1.2l-0.1-68.4l0.1-15.5l-0.1,15.5l0.1,68.4C209.3,105.1,209.3,105.5,209.3,105.9
			v32.8l8.4-1c9.2-0.7,22.7-1,40.6-1c30.8,0,52.2-13.7,64.2-41c3.8-8.5,6.4-17.9,7.8-28.2c0.7-5.1,1-9.4,1-12.8l-0.2-51
			c-6.2-121.4-18.1-214.5-35.8-279.2c-17.6-64.7-33.3-116-47-153.8l-364-1c-36.2,173-108.2,307.6-216,404
			c24.7,114.7,82.4,116.1,173,4v373c0.1,3,0.4,6.5,0.9,10.6c1.3,10.3,3.7,19.7,7.1,28.2c10.4,25.5,28.3,39.1,53.9,40.8
			c25.6-1.7,43.6-15.3,54-40.8c3.5-8.5,5.8-17.9,7.2-28.2c0.5-4.1,0.8-7.6,0.9-10.6V225.6v-117v117h8.4c9.2-0.7,22.7-1,40.6-1
			c30.8,0,52.2-13.7,64.2-41c3.8-8.5,6.3-17.9,7.8-28.2c0.6-4.1,0.9-7.6,1-10.6v-75v75v42h8.4c9.2-0.7,22.7-1,40.6-1
			c30.8,0,52.2-13.7,64.2-41c3.8-8.5,6.4-17.9,7.8-28.2C208.8,112.4,209.1,108.9,209.3,105.9z M208.8,11.7l0.3,24.5L208.8,11.7z"/>
		<path class="st1" d="M209.3,105.9c-0.1,3-0.4,6.6-1,10.7c-1.4,10.3-4,19.7-7.8,28.2c-12,27.3-33.4,41-64.2,41
			c-17.9,0-31.4,0.3-40.6,1h-8.4v-42v-75 M87.3,144.7c-0.1,3-0.4,6.6-1,10.6c-1.4,10.3-4,19.7-7.8,28.2c-12,27.3-33.4,41-64.2,41
			c-17.9,0-31.4,0.3-40.6,1h-8.4v-117 M-34.7,225.6v125.1c-0.1,3-0.4,6.5-0.9,10.6c-1.3,10.3-3.7,19.7-7.2,28.2
			c-10.4,25.5-28.3,39.1-53.9,40.8c-25.6-1.7-43.5-15.3-53.9-40.8c-3.5-8.5-5.9-17.9-7.1-28.2c-0.5-4.1-0.9-7.6-0.9-10.6v-373
			c-90.6,112.1-148.3,110.8-172.9-4c107.8-96.4,179.8-231,215.9-404l364,1c13.7,37.8,29.4,89.1,47,153.8
			c17.7,64.7,29.6,157.8,35.8,279.2l0.2,51c0,3.4-0.3,7.7-1,12.8c-1.4,10.3-4,19.7-7.8,28.2c-12,27.3-33.4,41-64.2,41
			c-17.9,0-31.4,0.3-40.6,1l-8.4,1v-32.8c0-0.4,0-0.8,0-1.2l-0.1-68.4l0.1-15.5 M208.8,11.7l0.3,24.5"/>
	</g>
</symbol>
<pattern  y="225" width="72" height="72" patternUnits="userSpaceOnUse" id="backgroundPattern_0000005999326" viewBox="3 -74.1 72 72" style="overflow:visible;">
	<g>
		<rect x="3" y="-74.1" class="st2" width="72" height="72"/>
		<g>
			<rect x="3" y="-74.1" class="st2" width="72" height="72"/>
			<g>
				<rect x="3" y="-74.1" class="st2" width="72" height="72"/>
				<g>
					<line class="st3" x1="71" y1="-1.3" x2="72.1" y2="-4.2"/>
					<line class="st3" x1="66.2" y1="-1.1" x2="65.5" y2="-4.4"/>
					<line class="st3" x1="50.9" y1="-0.3" x2="51.1" y2="-3.3"/>
					<line class="st3" x1="35.2" y1="-1.9" x2="33.8" y2="-3.9"/>
					<line class="st3" x1="19" y1="-1.7" x2="20.3" y2="-3.7"/>
					<line class="st3" x1="7.9" y1="-0.4" x2="6.2" y2="-2.7"/>
					<line class="st3" x1="58.5" y1="-0.1" x2="60.5" y2="-3.1"/>
				</g>
				<g>
					<line class="st3" x1="77.8" y1="-50.1" x2="74.8" y2="-50.1"/>
					<line class="st3" x1="76.8" y1="-34.4" x2="74.8" y2="-32.9"/>
				</g>
				<g>
					<line class="st3" x1="8.8" y1="-63.4" x2="6" y2="-61.4"/>
					<line class="st3" x1="7.3" y1="-7.1" x2="5" y2="-5.4"/>
					<line class="st3" x1="76.3" y1="-67.1" x2="73" y2="-66.4"/>
					<line class="st3" x1="75" y1="-55.4" x2="72.5" y2="-53.6"/>
					<line class="st3" x1="77.8" y1="-50.1" x2="74.8" y2="-50.1"/>
					<line class="st3" x1="74.5" y1="-42.6" x2="71.8" y2="-44.4"/>
					<line class="st3" x1="76.8" y1="-34.4" x2="74.8" y2="-32.9"/>
					<line class="st3" x1="74.3" y1="-22.4" x2="71.5" y2="-24.6"/>
					<line class="st3" x1="76.3" y1="-11.4" x2="72" y2="-12.1"/>
					<line class="st3" x1="66.5" y1="-13.1" x2="64.3" y2="-11.4"/>
					<line class="st3" x1="74.8" y1="-29.1" x2="71.8" y2="-29.1"/>
					<line class="st3" x1="61" y1="-56.6" x2="59.1" y2="-59.4"/>
					<line class="st3" x1="31" y1="-58.1" x2="29.4" y2="-60.7"/>
					<line class="st3" x1="46.1" y1="-62.5" x2="47.9" y2="-65.2"/>
					<line class="st3" x1="71" y1="-1.3" x2="72.1" y2="-4.2"/>
					<line class="st3" x1="66.2" y1="-1.1" x2="65.5" y2="-4.4"/>
					<line class="st3" x1="60" y1="-26.1" x2="58.1" y2="-28.9"/>
					<line class="st3" x1="51.7" y1="-54.5" x2="50" y2="-57.1"/>
					<line class="st3" x1="50.9" y1="-0.3" x2="51.1" y2="-3.3"/>
					<line class="st3" x1="43.6" y1="-3.8" x2="45.4" y2="-6.5"/>
					<line class="st3" x1="35.2" y1="-1.9" x2="33.8" y2="-3.9"/>
					<line class="st3" x1="53.3" y1="-33.3" x2="55.7" y2="-36"/>
					<line class="st3" x1="19" y1="-1.7" x2="20.3" y2="-3.7"/>
					<line class="st3" x1="12.3" y1="-3.2" x2="13.2" y2="-7.4"/>
					<line class="st3" x1="7.9" y1="-0.4" x2="6.2" y2="-2.7"/>
					<line class="st3" x1="30.1" y1="-4.1" x2="30.2" y2="-7.1"/>
					<line class="st3" x1="10.3" y1="-68.9" x2="13.8" y2="-67.4"/>
					<line class="st3" x1="7.5" y1="-53.4" x2="7.8" y2="-56.6"/>
					<line class="st3" x1="11" y1="-30.4" x2="12.5" y2="-26.6"/>
					<line class="st3" x1="8.3" y1="-35.9" x2="10.5" y2="-39.6"/>
					<line class="st3" x1="32.3" y1="-69.6" x2="30" y2="-67.1"/>
					<line class="st3" x1="36.5" y1="-69.6" x2="39.8" y2="-66.9"/>
					<line class="st3" x1="53.3" y1="-69.6" x2="56.5" y2="-67.6"/>
					<line class="st3" x1="55.5" y1="-63.6" x2="53.5" y2="-60.4"/>
					<line class="st3" x1="62.5" y1="-64.9" x2="67.5" y2="-67.1"/>
					<line class="st3" x1="70" y1="-61.4" x2="67.5" y2="-59.6"/>
					<line class="st3" x1="21.8" y1="-69.4" x2="21.8" y2="-66.4"/>
					<line class="st3" x1="18.8" y1="-64.4" x2="15.5" y2="-63.9"/>
					<line class="st3" x1="23" y1="-59.9" x2="23.5" y2="-56.6"/>
					<line class="st3" x1="24" y1="-64.4" x2="27.5" y2="-65.1"/>
					<line class="st3" x1="12.3" y1="-52.6" x2="15" y2="-54.6"/>
					<line class="st3" x1="10.5" y1="-10.1" x2="10.8" y2="-14.1"/>
					<line class="st3" x1="10.3" y1="-18.4" x2="12.5" y2="-20.9"/>
					<line class="st3" x1="24.3" y1="-8.4" x2="21.8" y2="-11.9"/>
					<line class="st3" x1="32.8" y1="-45.6" x2="30.3" y2="-43.9"/>
					<line class="st3" x1="60.8" y1="-40.4" x2="58" y2="-41.9"/>
					<line class="st3" x1="29.8" y1="-34.1" x2="26" y2="-34.9"/>
					<line class="st3" x1="34.5" y1="-24.6" x2="32.5" y2="-23.1"/>
					<line class="st3" x1="32" y1="-12.6" x2="29.3" y2="-14.9"/>
					<line class="st3" x1="35.3" y1="-8.4" x2="33.3" y2="-9.6"/>
					<line class="st3" x1="32.5" y1="-19.4" x2="29.5" y2="-19.4"/>
					<line class="st3" x1="42.8" y1="-55.1" x2="40.3" y2="-53.4"/>
					<line class="st3" x1="45.5" y1="-49.9" x2="42.5" y2="-49.9"/>
					<line class="st3" x1="42.3" y1="-42.4" x2="39.5" y2="-44.1"/>
					<line class="st3" x1="41.5" y1="-31.6" x2="40.8" y2="-29.1"/>
					<line class="st3" x1="42" y1="-22.1" x2="39.3" y2="-24.4"/>
					<line class="st3" x1="42.5" y1="-14.1" x2="40.5" y2="-15.4"/>
					<line class="st3" x1="66" y1="-29.6" x2="63" y2="-29.6"/>
					<line class="st3" x1="25.3" y1="-31.1" x2="27.8" y2="-29.4"/>
					<line class="st3" x1="30" y1="-53.6" x2="33" y2="-53.6"/>
					<line class="st3" x1="17.8" y1="-39.4" x2="20.3" y2="-37.6"/>
					<line class="st3" x1="15" y1="-34.1" x2="18" y2="-34.1"/>
					<line class="st3" x1="18.3" y1="-26.6" x2="21" y2="-28.4"/>
					<line class="st3" x1="50.3" y1="-41.1" x2="52.7" y2="-42.7"/>
					<line class="st3" x1="50.6" y1="-48.6" x2="53" y2="-46.8"/>
					<line class="st3" x1="57.7" y1="-52.6" x2="57.5" y2="-49.6"/>
					<line class="st3" x1="48.4" y1="-8.5" x2="51.4" y2="-8.4"/>
					<line class="st3" x1="49.4" y1="-14.4" x2="51.7" y2="-12.6"/>
					<line class="st3" x1="56.5" y1="-18.4" x2="57.6" y2="-15.3"/>
					<line class="st3" x1="51.3" y1="-30.6" x2="48.8" y2="-28.9"/>
					<line class="st3" x1="51" y1="-23.1" x2="47.8" y2="-24.1"/>
					<line class="st3" x1="60" y1="-7.6" x2="57.3" y2="-9.4"/>
					<line class="st3" x1="67.5" y1="-33.1" x2="64.8" y2="-34.9"/>
					<line class="st3" x1="65.3" y1="-22.1" x2="63.3" y2="-20.6"/>
					<line class="st3" x1="22.6" y1="-44.5" x2="25.7" y2="-44.4"/>
					<line class="st3" x1="23.6" y1="-50.4" x2="26" y2="-48.6"/>
					<line class="st3" x1="60.8" y1="-45.6" x2="63.5" y2="-45.1"/>
					<line class="st3" x1="18" y1="-18.4" x2="18.5" y2="-15.1"/>
					<line class="st3" x1="20" y1="-20.4" x2="23.5" y2="-21.1"/>
					<line class="st3" x1="35.8" y1="-61.4" x2="39.8" y2="-60.6"/>
					<line class="st3" x1="36.5" y1="-40.6" x2="37" y2="-37.1"/>
					<line class="st3" x1="67.5" y1="-51.1" x2="65" y2="-52.4"/>
					<line class="st3" x1="13" y1="-60.6" x2="16.3" y2="-57.9"/>
					<line class="st3" x1="7.8" y1="-44.6" x2="5.3" y2="-42.9"/>
					<line class="st3" x1="18.8" y1="-50.1" x2="16.8" y2="-48.6"/>
					<line class="st3" x1="44.3" y1="-69.3" x2="46.2" y2="-72"/>
					<line class="st3" x1="67.6" y1="-39" x2="69.4" y2="-41.7"/>
					<line class="st3" x1="36.8" y1="-47.8" x2="37.5" y2="-50.6"/>
					<line class="st3" x1="23.3" y1="-15.3" x2="24" y2="-18.1"/>
					<line class="st3" x1="34.8" y1="-31.4" x2="32.8" y2="-29.9"/>
					<line class="st3" x1="5.8" y1="-50.1" x2="2.8" y2="-50.1"/>
					<line class="st3" x1="4.8" y1="-34.4" x2="2.8" y2="-32.9"/>
					<line class="st3" x1="71" y1="-73.3" x2="72.1" y2="-76.2"/>
					<line class="st3" x1="66.2" y1="-73.1" x2="65.5" y2="-76.4"/>
					<line class="st3" x1="50.9" y1="-72.3" x2="51.1" y2="-75.3"/>
					<line class="st3" x1="35.2" y1="-73.9" x2="33.8" y2="-75.9"/>
					<line class="st3" x1="19" y1="-73.7" x2="20.3" y2="-75.7"/>
					<line class="st3" x1="7.9" y1="-72.4" x2="6.2" y2="-74.7"/>
					<line class="st3" x1="8.3" y1="-22.1" x2="4.5" y2="-22.9"/>
					<line class="st3" x1="71.4" y1="-16.8" x2="69.5" y2="-19.6"/>
					<line class="st3" x1="27" y1="-38.1" x2="27.7" y2="-40.9"/>
					<line class="st3" x1="47.8" y1="-37.1" x2="45.8" y2="-35.6"/>
					<line class="st3" x1="58.5" y1="-72.1" x2="60.5" y2="-75.1"/>
					<line class="st3" x1="58.5" y1="-0.1" x2="60.5" y2="-3.1"/>
				</g>
				<g>
					<line class="st3" x1="4.3" y1="-67.1" x2="1" y2="-66.4"/>
					<line class="st3" x1="3" y1="-55.4" x2="0.5" y2="-53.6"/>
					<line class="st3" x1="5.8" y1="-50.1" x2="2.8" y2="-50.1"/>
					<line class="st3" x1="4.8" y1="-34.4" x2="2.8" y2="-32.9"/>
					<line class="st3" x1="4.3" y1="-11.4" x2="0" y2="-12.1"/>
				</g>
				<g>
					<line class="st3" x1="71" y1="-73.3" x2="72.1" y2="-76.2"/>
					<line class="st3" x1="66.2" y1="-73.1" x2="65.5" y2="-76.4"/>
					<line class="st3" x1="50.9" y1="-72.3" x2="51.1" y2="-75.3"/>
					<line class="st3" x1="35.2" y1="-73.9" x2="33.8" y2="-75.9"/>
					<line class="st3" x1="19" y1="-73.7" x2="20.3" y2="-75.7"/>
					<line class="st3" x1="7.9" y1="-72.4" x2="6.2" y2="-74.7"/>
					<line class="st3" x1="58.5" y1="-72.1" x2="60.5" y2="-75.1"/>
				</g>
			</g>
		</g>
	</g>
</pattern>
<g id="background_00000095304393399251402070000004232695219904406664_">
	<rect id="backgroundColor" y="0" class="st4" width="365" height="225"/>
	
		<pattern  id="backgroundPattern_00000183945351294406996150000007906792855815922851_" xlink:href="#backgroundPattern_0000005999326" patternTransform="matrix(1 0 0 1 16 16755.1719)">
	</pattern>
	
		<rect id="backgroundPattern" y="0" style="opacity:0.17;fill:url(#backgroundPattern_00000183945351294406996150000007906792855815922851_);enable-background:new    ;" width="365" height="225"/>
</g>
<g id="home">
	<g id="homeBackground">
		<g class="st6">
			<path d="M60.4,276.7c0,5,4,9,9,9h246c5,0,9-4,9-9V65.1c0-5-4-9-9-9h-246c-5,0-9,4-9,9C60.4,65.1,60.4,276.7,60.4,276.7z"/>
		</g>
		<g>
			<path class="st0" d="M50.4,266.7c0,5,4,9,9,9h246c5,0,9-4,9-9V55.1c0-5-4-9-9-9h-246c-5,0-9,4-9,9
				C50.4,55.1,50.4,266.7,50.4,266.7z"/>
			<path class="st7" d="M50.4,266.7c0,5,4,9,9,9h246c5,0,9-4,9-9V55.1c0-5-4-9-9-9h-246c-5,0-9,4-9,9
				C50.4,55.1,50.4,266.7,50.4,266.7z"/>
		</g>
		<g>
			<path class="st8" d="M230.5,180c0-0.1,0-0.2,0-0.2c0-2.6-2.1-4.8-4.8-4.8h-2.5h-4.4h-79.5c-2.7,0-4.8,2.2-4.8,4.8
				c0,0.1,0,0.2,0,0.2c0,0.1,0,0.2,0,0.2c0,1.3,0.5,2.5,1.4,3.4s2,1.4,3.4,1.4h79.4h4.4h2.5l0,0c1.5,0,2.8-0.7,3.7-1.7
				c0.7-0.8,1.1-1.9,1.1-3.1C230.5,180.1,230.5,180,230.5,180z"/>
			<path class="st8" d="M230.5,202.3c0-0.1,0-0.2,0-0.2c0-2.6-2.1-4.8-4.8-4.8h-2.5h-4.4h-79.5c-2.7,0-4.8,2.2-4.8,4.8
				c0,0.1,0,0.2,0,0.2c0,0.1,0,0.2,0,0.2c0,1.3,0.5,2.5,1.4,3.4s2,1.4,3.4,1.4h79.4h4.4h2.5l0,0c1.5,0,2.8-0.7,3.7-1.7
				c0.7-0.8,1.1-1.9,1.1-3.1C230.5,202.4,230.5,202.3,230.5,202.3z"/>
		</g>
	</g>
	<g id="foodLine">
		<g>
			<path class="st9" d="M119.6,187.4c-3.8,0-6.9-3.1-6.9-6.9s3.1-6.9,6.9-6.9h126c3.8,0,6.9,3.1,6.9,6.9s-3.1,6.9-6.9,6.9H119.6z"/>
			<path class="st9" d="M245.6,173.6c3.8,0,6.8,3.1,6.8,6.8c0,3.8-3.1,6.8-6.8,6.8H242h-6.4h-116c-3.8,0-6.8-3.1-6.8-6.8
				c0-3.8,3.1-6.8,6.8-6.8h115.9h6.4H245.6 M245.6,173.4H242h-6.4h-116c-3.9,0-7,3.1-7,7s3.1,7,7,7h115.9h6.4h3.6
				c3.9,0,7.1-3.1,7.1-7S249.5,173.4,245.6,173.4L245.6,173.4z"/>
			<path class="st0" d="M119.6,186.7c-3.8,0-6.9-3.1-6.9-6.9s3.1-6.9,6.9-6.9h126c3.8,0,6.9,3.1,6.9,6.9s-3.1,6.9-6.9,6.9H119.6z"/>
			<path class="st10" d="M245.6,172.9c3.8,0,6.8,3.1,6.8,6.8s-3.1,6.8-6.8,6.8H242h-6.4h-116c-3.8,0-6.8-3.1-6.8-6.8
				s3.1-6.8,6.8-6.8h115.9h6.4H245.6 M245.6,172.7H242h-6.4h-116c-3.9,0-7,3.1-7,7s3.1,7,7,7h115.9h6.4h3.6c3.9,0,7.1-3.1,7.1-7
				S249.5,172.7,245.6,172.7L245.6,172.7z"/>
			<circle class="st11" cx="119.6" cy="179.8" r="5.5"/>
			<g>
				<circle class="st12" cx="245.6" cy="179.8" r="5.5"/>
			</g>
			<path class="st13" d="M129.5,181c0.1,0.3,0.3,0.5,0.7,0.5s0.6-0.1,0.6-0.3c0-0.1,0-0.2-0.1-0.2s-0.2-0.1-0.5-0.1
				c-0.5-0.1-0.7-0.2-0.9-0.2c-0.3-0.1-0.5-0.3-0.6-0.4c-0.1-0.2-0.2-0.4-0.2-0.6c0-0.7,0.6-1.2,1.7-1.2c0.6,0,1,0.1,1.3,0.4
				c0.2,0.2,0.3,0.4,0.4,0.7l-1.2,0.1c0-0.3-0.2-0.4-0.5-0.4s-0.5,0.1-0.5,0.3s0.1,0.2,0.7,0.4c0.6,0.1,0.8,0.2,1,0.3
				c0.4,0.2,0.6,0.5,0.6,0.9c0,0.3-0.1,0.6-0.3,0.8c-0.3,0.3-0.8,0.5-1.5,0.5c-0.8,0-1.3-0.2-1.6-0.6c-0.1-0.2-0.2-0.3-0.2-0.6
				L129.5,181z"/>
			<path class="st13" d="M135.9,182.2c0-0.2-0.1-0.4-0.2-0.7l-0.4-1.2c0-0.1-0.1-0.2-0.1-0.2c0,0.1,0,0.2-0.1,0.2l-0.4,1.2
				c-0.1,0.3-0.2,0.6-0.2,0.7h-1c0-0.2-0.1-0.4-0.2-0.7l-0.7-2.2c-0.1-0.2-0.2-0.5-0.3-0.8h1.3c0,0.2,0,0.4,0.1,0.7l0.3,1.1
				c0,0.1,0.1,0.2,0.1,0.3c0.1-0.2,0.1-0.2,0.1-0.3l0.3-1.1c0.2-0.6,0.2-0.6,0.2-0.7h0.9c0,0.1,0.1,0.4,0.2,0.7l0.4,1.2
				c0,0,0,0.2,0.1,0.3c0-0.1,0-0.1,0.1-0.3l0.3-1.1c0.1-0.3,0.1-0.6,0.1-0.8h1.3c-0.1,0.2-0.2,0.5-0.3,0.8l-0.7,2.2
				c-0.1,0.4-0.1,0.5-0.2,0.7L135.9,182.2L135.9,182.2z"/>
			<path class="st13" d="M140.3,178.5c0,0.3,0,0.5,0,0.9v1.9c0,0.3,0,0.7,0,0.9H139c0-0.3,0-0.5,0-0.9v-1.9c0-0.4,0-0.7,0-0.9H140.3
				z M140.3,177.1v0.9H139v-0.9H140.3z"/>
			<path class="st13" d="M142.5,181c0.1,0.3,0.3,0.5,0.7,0.5s0.6-0.1,0.6-0.3c0-0.1,0-0.2-0.1-0.2s-0.2-0.1-0.5-0.1
				c-0.5-0.1-0.7-0.2-0.9-0.2c-0.3-0.1-0.5-0.3-0.6-0.4c-0.1-0.2-0.2-0.4-0.2-0.6c0-0.7,0.6-1.2,1.7-1.2c0.6,0,1,0.1,1.3,0.4
				c0.2,0.2,0.3,0.4,0.4,0.7l-1.2,0.1c0-0.3-0.2-0.4-0.5-0.4s-0.5,0.1-0.5,0.3s0.1,0.2,0.7,0.4c0.6,0.1,0.8,0.2,1,0.3
				c0.4,0.2,0.6,0.5,0.6,0.9c0,0.3-0.1,0.6-0.3,0.8c-0.3,0.3-0.8,0.5-1.5,0.5c-0.8,0-1.3-0.2-1.6-0.6c-0.1-0.2-0.2-0.3-0.2-0.6
				L142.5,181z"/>
			<path class="st13" d="M146.9,181c0.1,0.3,0.3,0.5,0.7,0.5s0.6-0.1,0.6-0.3c0-0.1,0-0.2-0.1-0.2s-0.2-0.1-0.5-0.1
				c-0.5-0.1-0.7-0.2-0.9-0.2c-0.3-0.1-0.5-0.3-0.6-0.4c-0.1-0.2-0.2-0.4-0.2-0.6c0-0.7,0.6-1.2,1.7-1.2c0.6,0,1,0.1,1.3,0.4
				c0.2,0.2,0.3,0.4,0.4,0.7l-1.2,0.1c0-0.3-0.2-0.4-0.5-0.4s-0.5,0.1-0.5,0.3s0.1,0.2,0.7,0.4c0.6,0.1,0.8,0.2,1,0.3
				c0.4,0.2,0.6,0.5,0.6,0.9c0,0.3-0.1,0.6-0.3,0.8c-0.3,0.3-0.8,0.5-1.5,0.5c-0.8,0-1.3-0.2-1.6-0.6c-0.1-0.2-0.2-0.3-0.2-0.6
				L146.9,181z"/>
			<path class="st13" d="M156.3,179.8c-0.1-0.2-0.1-0.3-0.2-0.4c-0.1-0.1-0.3-0.2-0.5-0.2c-0.5,0-0.8,0.4-0.8,1.1
				c0,0.7,0.3,1.1,0.8,1.1c0.2,0,0.5-0.1,0.6-0.3c0.1-0.1,0.1-0.1,0.1-0.3l1.1,0.2c-0.1,0.3-0.1,0.4-0.3,0.6
				c-0.3,0.5-0.9,0.7-1.6,0.7c-0.6,0-1.1-0.2-1.4-0.5c-0.4-0.4-0.6-0.9-0.6-1.5c0-1.2,0.8-2,2-2c0.9,0,1.6,0.5,1.8,1.3L156.3,179.8z
				"/>
			<path class="st13" d="M158.1,182.2c0-0.3,0-0.5,0-0.9V178c0-0.4,0-0.7,0-0.9h1.3c0,0.3,0,0.5,0,0.9v0.7c0,0,0,0.1,0,0.2
				c0.4-0.4,0.8-0.5,1.3-0.5c0.4,0,0.8,0.1,1,0.3s0.4,0.5,0.4,1v1.5c0,0.4,0,0.7,0,0.9h-1.3c0-0.3,0-0.6,0-0.9V180
				c0-0.2,0-0.4-0.1-0.5s-0.2-0.2-0.4-0.2c-0.4,0-0.7,0.2-0.9,0.6v1.3c0,0.4,0,0.6,0,0.9L158.1,182.2L158.1,182.2z"/>
			<path class="st13" d="M163.7,180.7c0.1,0.5,0.4,0.8,0.8,0.8c0.2,0,0.5-0.1,0.6-0.2c0.1-0.1,0.1-0.2,0.2-0.3l1.1,0.3
				c-0.1,0.3-0.2,0.5-0.4,0.6c-0.4,0.3-0.8,0.5-1.5,0.5c-0.6,0-1.1-0.2-1.4-0.5c-0.4-0.4-0.6-0.9-0.6-1.5c0-1.2,0.8-2,2-2
				c1,0,1.6,0.5,1.8,1.4c0,0.2,0.1,0.5,0.1,0.8v0.1L163.7,180.7L163.7,180.7z M165.3,179.8c-0.1-0.4-0.4-0.6-0.8-0.6
				c-0.4,0-0.7,0.2-0.8,0.6H165.3z"/>
			<path class="st13" d="M168.2,180.7c0.1,0.5,0.4,0.8,0.8,0.8c0.2,0,0.5-0.1,0.6-0.2c0.1-0.1,0.1-0.2,0.2-0.3l1.1,0.3
				c-0.1,0.3-0.2,0.5-0.4,0.6c-0.4,0.3-0.8,0.5-1.5,0.5c-0.6,0-1.1-0.2-1.4-0.5c-0.4-0.4-0.6-0.9-0.6-1.5c0-1.2,0.8-2,2-2
				c1,0,1.6,0.5,1.8,1.4c0,0.2,0.1,0.5,0.1,0.8v0.1L168.2,180.7L168.2,180.7z M169.8,179.8c-0.1-0.4-0.4-0.6-0.8-0.6
				c-0.4,0-0.7,0.2-0.8,0.6H169.8z"/>
			<path class="st13" d="M172.9,181c0.1,0.3,0.3,0.5,0.7,0.5s0.6-0.1,0.6-0.3c0-0.1,0-0.2-0.1-0.2s-0.2-0.1-0.5-0.1
				c-0.5-0.1-0.7-0.2-0.9-0.2c-0.3-0.1-0.5-0.3-0.6-0.4c-0.1-0.2-0.2-0.4-0.2-0.6c0-0.7,0.6-1.2,1.7-1.2c0.6,0,1,0.1,1.3,0.4
				c0.2,0.2,0.3,0.4,0.4,0.7l-1.2,0.1c0-0.3-0.2-0.4-0.5-0.4s-0.5,0.1-0.5,0.3s0.1,0.2,0.7,0.4c0.6,0.1,0.8,0.2,1,0.3
				c0.4,0.2,0.6,0.5,0.6,0.9c0,0.3-0.1,0.6-0.3,0.8c-0.3,0.3-0.8,0.5-1.5,0.5c-0.8,0-1.3-0.2-1.6-0.6c-0.1-0.2-0.2-0.3-0.2-0.6
				L172.9,181z"/>
			<path class="st13" d="M177.2,180.7c0.1,0.5,0.4,0.8,0.8,0.8c0.2,0,0.5-0.1,0.6-0.2c0.1-0.1,0.1-0.2,0.2-0.3l1.1,0.3
				c-0.1,0.3-0.2,0.5-0.4,0.6c-0.4,0.3-0.8,0.5-1.5,0.5c-0.6,0-1.1-0.2-1.4-0.5c-0.4-0.4-0.6-0.9-0.6-1.5c0-1.2,0.8-2,2-2
				c1,0,1.6,0.5,1.8,1.4c0,0.2,0.1,0.5,0.1,0.8v0.1L177.2,180.7L177.2,180.7z M178.8,179.8c-0.1-0.4-0.4-0.6-0.8-0.6
				c-0.4,0-0.7,0.2-0.8,0.6H178.8z"/>
			<g id="XMLID_00000181059722518309071500000012079264033806795943_">
				<path id="XMLID_00000010312632186438366040000011924424480418769596_" class="st14" d="M117,178.8L117,178.8
					C117,178.8,117,178.9,117,178.8c0,0.3,0.2,0.4,0.4,0.4c0.2,0,0.4-0.2,0.4-0.4c0-0.1,0-0.1,0-0.2l3-0.4c0.1,0.4,0.4,0.7,0.8,0.7
					s0.8-0.4,0.8-0.8V178l1-0.1c0.3,0,0.7,0.2,0.7,0.5l0,0v0.1v3c0,0.3-0.2,0.6-0.5,0.6L116,183c-0.4,0-0.7-0.2-0.7-0.6v-2.8l0,0
					c0-0.3,0.2-0.5,0.5-0.6L117,178.8z M123.3,180.4c0-0.3-0.3-0.6-0.6-0.6c-0.3,0-0.6,0.3-0.6,0.6s0.3,0.6,0.6,0.6
					S123.3,180.7,123.3,180.4z M121,181.2c0-0.2-0.2-0.4-0.4-0.4c-0.2,0-0.4,0.2-0.4,0.4s0.2,0.4,0.4,0.4
					C120.8,181.6,121,181.4,121,181.2z M119.9,180.1c0-0.5-0.4-0.9-0.9-0.9s-0.9,0.4-0.9,0.9s0.4,0.9,0.9,0.9
					S119.9,180.6,119.9,180.1z M118,181.9c0-0.3-0.2-0.5-0.5-0.5s-0.5,0.2-0.5,0.5s0.2,0.5,0.5,0.5S118,182.2,118,181.9z
					 M116.7,180.5c0-0.2-0.1-0.3-0.3-0.3s-0.3,0.1-0.3,0.3s0.1,0.3,0.3,0.3S116.7,180.6,116.7,180.5z"/>
				<path id="XMLID_00000105389245507818195080000006097792934816955028_" class="st15" d="M122.3,178.1L122.3,178.1
					c-0.1-0.3-0.4-0.5-0.8-0.5s-0.8,0.3-0.8,0.6v0.1l0,0l-3,0.4l0,0c-0.1-0.1-0.2-0.2-0.4-0.2c-0.2,0-0.4,0.1-0.4,0.3l-1.2,0.2
					c-0.3,0-0.5,0.3-0.5,0.6c0-0.5,0.3-0.7,0.3-0.7l4.1-2.9c0.4-0.3,0.9-0.4,1.4-0.2c0.5,0.1,1,0.3,1.5,0.6s1,0.8,1.3,1.1
					c0,0,0.1,0.2,0.2,0.3c0.1,0.2,0.1,0.4,0.1,0.7c-0.1-0.3-0.4-0.6-0.7-0.5L122.3,178.1z M121.3,176.6c0-0.2-0.2-0.3-0.4-0.3
					c-0.2,0-0.4,0.1-0.4,0.3s0.2,0.3,0.4,0.3C121.2,176.9,121.3,176.7,121.3,176.6z M119.6,177.4c0-0.2-0.3-0.4-0.6-0.4
					c-0.3,0-0.6,0.2-0.6,0.4s0.3,0.4,0.6,0.4C119.4,177.8,119.6,177.6,119.6,177.4z"/>
				<circle id="XMLID_00000125562524681496418440000011938123631365831833_" class="st16" cx="122.7" cy="180.4" r="0.6"/>
				<path id="XMLID_00000016052375560863120100000007770214496230242737_" class="st16" d="M122.3,178.1L122.3,178.1v0.1
					c0,0.4-0.4,0.8-0.8,0.8s-0.7-0.3-0.8-0.7l0,0L122.3,178.1z"/>
				<path id="XMLID_00000065762545367831072420000016780311800501619647_" class="st17" d="M122.3,178.1l-1.6,0.2c0,0,0,0,0-0.1
					c0-0.3,0.4-0.6,0.8-0.6C121.9,177.6,122.3,177.8,122.3,178.1z"/>
				
					<ellipse id="XMLID_00000106141332195125286880000016186327171649592502_" class="st17" cx="120.9" cy="176.6" rx="0.4" ry="0.3"/>
				<circle id="XMLID_00000116922586269542336130000008376221134167771039_" class="st16" cx="120.6" cy="181.2" r="0.4"/>
				<circle id="XMLID_00000133514256125130712180000018176420847498988973_" class="st16" cx="119" cy="180.1" r="0.9"/>
				<ellipse id="XMLID_00000011012761143978698580000013794457326612837027_" class="st17" cx="119" cy="177.4" rx="0.6" ry="0.4"/>
				<circle id="XMLID_00000147940837439409793200000004931811237590682257_" class="st16" cx="117.5" cy="181.9" r="0.5"/>
				<path id="XMLID_00000016778722236216306320000005621434438668186026_" class="st16" d="M117.7,178.7L117.7,178.7
					c0,0,0,0.1,0,0.2c0,0.2-0.2,0.4-0.4,0.4c-0.2,0-0.4-0.2-0.4-0.4c0,0,0,0,0-0.1L117.7,178.7z"/>
				<path id="XMLID_00000040563416487886170890000018436461897197095555_" class="st17" d="M117.7,178.7l-0.7,0.1l0,0
					c0-0.1,0.2-0.3,0.4-0.3C117.5,178.6,117.6,178.6,117.7,178.7z"/>
				
					<ellipse id="XMLID_00000037690364111060689340000009467279698499630226_" class="st16" cx="116.4" cy="180.5" rx="0.3" ry="0.3"/>
			</g>
			<path class="st0" d="M247.5,178.3c-0.3,0.4-0.5,0.6-0.8,1.2c-0.5,0.9-0.7,1.6-0.8,2.8h-1.4c0.2-1,0.3-1.6,0.7-2.3
				c0.3-0.5,0.5-0.9,1-1.6h-1.7c-0.4,0-0.6,0-0.9,0.1v-1.1c0.3,0,0.5,0.1,1,0.1h2c0.5,0,0.7,0,1,0L247.5,178.3L247.5,178.3z"/>
		</g>
	</g>
	<path id="twenty" class="st12" d="M162.6,139.5c-3.1,0-3.9,0-5.2,0.1c0.1-1.7,0.3-2.7,0.7-4.1c0.9-2.9,2.6-5.5,5-7.8
		c1.3-1.2,2.6-2.2,6.2-4.6c3-2,3.7-2.9,3.7-4.5c0-1.7-1.5-2.8-3.7-2.8c-1.7,0-2.8,0.6-3.6,1.7c-0.5,0.8-0.7,1.5-0.9,2.9l-7.3-0.8
		c0.5-3,1.1-4.5,2.5-6.2c2-2.3,5.1-3.6,9.2-3.6c4.7,0,8.2,1.6,10,4.4c0.8,1.2,1.1,2.6,1.1,4.1c0,2.5-1,4.7-3.2,6.4
		c-1.1,1-1.5,1.2-5,3.7c-3,2.1-4.3,3.3-5.1,4.8h8.1c2.6,0,4.2-0.1,5.5-0.2v6.5c-2-0.2-3.5-0.2-5.9-0.2h-12.1V139.5z"/>
	<path id="graphBackground" class="st18" d="M182.5,81.9c-26.5,0-48,21.5-48,48c0,8.6,2.3,17,6.6,24.5c0.9,1.5,2.5,2.4,4.2,2.4
		c0.9,0,1.7-0.2,2.4-0.7c2.3-1.3,3.1-4.3,1.7-6.6c-3.5-6-5.3-12.6-5.3-19.6c0-21.1,17.2-38.3,38.3-38.3s38.3,17.2,38.3,38.3
		c0,6.9-1.8,13.6-5.3,19.5c-1.4,2.3-0.6,5.3,1.7,6.6c0.7,0.4,1.6,0.7,2.5,0.7c1.7,0,3.3-0.9,4.2-2.4c4.4-7.3,6.7-15.8,6.7-24.4
		C230.5,103.5,209,81.9,182.5,81.9z"/>
	<g id="staticGraph">
		<path class="st12" d="M135.5,130c0,8.4,2.2,16.7,6.5,24c0.7,1.2,2,1.9,3.3,1.9c0.7,0,1.3-0.2,1.9-0.5c1.8-1.1,2.5-3.4,1.4-5.3
			c-3.6-6.2-5.5-12.9-5.5-20.1c0-21.6,17.6-39.3,39.2-39.3V83C156.5,83,135.5,104.1,135.5,130z"/>
	</g>
	<g id="animatedGraph">
		<g>
			<path class="st12" d="M221.8,130c0,7.1-1.9,14-5.4,20c-1.1,1.8-0.5,4.2,1.3,5.3s4.2,0.5,5.3-1.3c4.3-7.2,6.5-15.4,6.5-23.9
				c0-25.9-21.1-47-47-47c-2.8,0-5.5,0.3-8.1,0.7l1.3,7.6c2.2-0.4,4.5-0.6,6.8-0.6C204.2,90.7,221.8,108.3,221.8,130z"/>
		</g>
		<rect x="134.5" y="82" class="st19" width="96" height="96"/>
	</g>
	<g id="leftBtn">
		<path class="st12" d="M119.5,133.5c-0.4,0-0.8-0.1-1.1-0.4l-7-7c-0.6-0.6-0.6-1.5,0-2.1l7-7.1c0.6-0.6,1.5-0.6,2.1,0
			s0.6,1.5,0,2.1l-6,6l5.9,5.9c0.6,0.6,0.6,1.5,0,2.1C120.3,133.4,119.9,133.5,119.5,133.5z"/>
	</g>
	<g id="rightButton">
		<g>
			<path class="st12" d="M245.5,133.5c-0.4,0-0.8-0.1-1.1-0.4c-0.6-0.6-0.6-1.5,0-2.1l5.9-5.9l-6-6c-0.6-0.6-0.6-1.5,0-2.1
				s1.5-0.6,2.1,0l7,7.1c0.6,0.6,0.6,1.5,0,2.1l-7,7C246.3,133.4,245.9,133.5,245.5,133.5z"/>
		</g>
		<rect id="rightButtonHover" x="238.9" y="113" class="st20" width="20" height="24"/>
	</g>
	<g mask="url(#numbersMask)">
		<g id="numbers">
		<path class="st12" d="M191.5,130.8c0.3,0.8,0.5,1.1,0.8,1.5c0.8,0.8,1.9,1.3,3.3,1.3c1.9,0,3.5-0.9,4.4-2.4c0.7-1.1,1-2.4,1.2-4.7
			c-1.9,1.8-3.8,2.5-6.9,2.5c-6.2,0-10.3-3.8-10.3-9.6c0-6.1,4.7-10.3,11.6-10.3c4.4,0,7.9,1.8,10,5.1c1.4,2.3,2.2,5.5,2.2,9.3
			c0,3.7-0.7,7.1-2,9.7c-1.2,2.5-3.4,4.5-5.9,5.3c-1.4,0.4-3.1,0.7-4.6,0.7c-3.3,0-6-0.9-8-2.7c-1.2-1.1-1.8-2-2.7-4.1L191.5,130.8z
			 M200.5,119c0-2.6-2-4.4-4.9-4.4s-4.8,1.8-4.8,4.4c0,2.7,1.9,4.4,4.7,4.4C198.4,123.5,200.5,121.7,200.5,119z"/>
		<path class="st12" d="M207.1,90.6c1.1,1.3,1.5,2.8,1.5,4.8c0,2.2-0.8,4.2-2.3,5.6c-2.1,2-5.7,3.1-10.1,3.1
			c-4.4,0-8.1-1.2-10.2-3.2c-1.4-1.4-2.1-3.3-2.1-5.5c0-2.4,0.9-4.3,2.7-5.7c1.1-0.8,2-1.3,3.7-1.6c-1.8-0.6-2.6-1-3.4-1.9
			c-1.1-1.2-1.7-2.7-1.7-4.5s0.5-3.4,1.4-4.6c1.9-2.3,5.3-3.6,9.6-3.6c6.8,0,11.1,3.1,11.1,7.9c0,3.3-1.6,5.5-4.9,6.6
			C204.7,88.4,206,89.1,207.1,90.6z M191.2,94.8c0,2.3,1.9,3.6,5.1,3.6c3.3,0,5.1-1.4,5.1-3.7c0-2.3-1.9-3.7-5-3.7
			C193.2,91,191.2,92.4,191.2,94.8z M192.2,82.1c0,1.9,1.6,3.2,4.2,3.2c2.5,0,4.1-1.2,4.1-3.2c0-1.9-1.6-3.1-4.1-3.1
			S192.2,80.2,192.2,82.1z"/>
		<path class="st12" d="M207.1,44.6c-2.1,2.3-3.1,3.7-4.8,7c-2.8,5.4-4.1,9.6-4.9,16.4h-8.1c1-5.6,2.1-9.3,4.2-13.6
			c1.5-3.2,2.8-5.4,5.7-9.4h-10c-2.5,0-3.8,0.1-5.3,0.2v-6.6c1.4,0.2,3.3,0.2,5.7,0.2h11.8c3.2,0,4.2,0,5.6-0.1v5.9H207.1z"/>
		<path class="st12" d="M200.5,11.1c-0.6-2-1.8-2.9-4-2.9c-2.1,0-3.7,1-4.7,3c-0.6,1.2-0.8,2.2-1,4.3c0.8-0.8,1.3-1.2,2.2-1.6
			c1.3-0.6,2.8-0.9,4.7-0.9c6.3,0,10.3,3.8,10.3,9.8c0,6.1-4.8,10.3-11.7,10.3c-3.6,0-6.7-1.2-8.8-3.5c-2.3-2.6-3.6-6.5-3.6-11.3
			c0-4.4,1.1-8.5,2.9-11c2.3-3.2,5.5-4.7,9.9-4.7c3.4,0,6.3,1.1,8.2,3.1c1,1.1,1.6,2.1,2.3,3.9L200.5,11.1z M191.4,23.1
			c0,2.6,2.1,4.4,4.9,4.4c2.9,0,5-1.9,5-4.5c0-2.7-1.8-4.3-4.8-4.3C193.3,18.6,191.4,20.4,191.4,23.1z"/>
		<path class="st12" d="M191.8-22.5c0,0.2,0,0.5-0.1,1.1c1.6-1.2,3.4-1.7,5.7-1.7c3.1,0,5.7,1,7.5,2.9c1.8,1.8,2.6,4.1,2.6,7
			c0,6.7-4.4,10.7-11.8,10.7c-4.4,0-7.9-1.5-9.9-4.3c-0.8-1.1-1.2-2.1-1.8-3.9l7-1.1c0.6,2.3,2.1,3.4,4.6,3.4c2.9,0,4.9-1.9,4.9-4.7
			s-1.9-4.6-4.8-4.6c-2.2,0-3.6,0.9-4.4,2.6l-6.5-0.6c0.1-1,0.2-1.9,0.4-2.9l0.9-10.9c0.1-0.7,0.1-1.6,0.1-2.9
			c1.5,0.1,1.8,0.1,3.5,0.1h10.5c3.1,0,4.4-0.1,5.8-0.2v6.1c-1.9-0.2-3.5-0.2-5.7-0.2h-8.1L191.8-22.5z"/>
		<path class="st12" d="M184-50.6c1.6-1.8,1.6-1.8,3.4-3.9l7.6-8.9c1.7-1.9,2.3-2.8,3.3-4.2h7.2c-0.2,2.1-0.3,3.5-0.3,5.8v11.4h1
			c1.1,0,2.2-0.1,3.5-0.3v6.4c-1-0.1-2.3-0.2-3.4-0.2h-1v1.8c0,2,0.1,3,0.3,4.3h-7.2c0.2-1.2,0.3-2.7,0.3-4.4v-1.7h-9.9
			c-2.3,0-3.3,0-4.5,0.1v-6.2H184z M198.5-54.3c0-1.6,0.1-3.5,0.2-5c-0.7,1-1.2,1.7-2.2,2.9l-5.1,6.2h7.1V-54.3z"/>
		<path class="st12" d="M191.4-82.7c0.2,1.2,0.4,1.6,1,2.2c0.9,1,2.3,1.5,4,1.5c2.7,0,4.4-1.4,4.4-3.5c0-1.4-0.7-2.6-1.9-3
			c-0.8-0.3-1.9-0.5-3.3-0.5s-2.9,0.1-4.3,0.2v-6c1.2,0.1,2.3,0.2,3.7,0.2c3.3,0,5-1.1,5-3.4c0-1.9-1.3-3-3.6-3
			c-2.5,0-3.7,1-4.3,3.2l-7.6-1.1c0.7-2.2,1.2-3.2,2.3-4.4c2.1-2.3,5.4-3.5,9.6-3.5c3.8,0,7,1.1,9,3c1.3,1.3,2,3,2,5c0,3.7-2,6-6,7
			c2.1,0.3,3.3,0.8,4.5,1.9c1.5,1.3,2.3,3.2,2.3,5.2c0,1.8-0.5,3.4-1.4,4.7c-0.8,1-2,2-3.3,2.6c-1.8,0.8-4.7,1.4-7.3,1.4
			c-3.2,0-6.3-0.7-8.2-2c-1.6-1.1-2.8-2.6-3.6-4.5c-0.2-0.5-0.4-0.9-0.6-1.9L191.4-82.7z"/>
		<path class="st12" d="M188.8-109c-3.2,0-4,0-5.2,0.1c0.1-1.7,0.3-2.8,0.7-4.1c0.9-2.9,2.6-5.6,5-7.8c1.3-1.2,2.7-2.2,6.2-4.7
			c3-2,3.7-2.9,3.7-4.6c0-1.7-1.5-2.8-3.7-2.8c-1.7,0-2.9,0.6-3.6,1.8c-0.5,0.8-0.7,1.5-0.9,2.9l-7.4-0.8c0.5-3,1.2-4.6,2.6-6.2
			c2-2.3,5.2-3.6,9.3-3.6c4.7,0,8.3,1.6,10.1,4.4c0.8,1.2,1.2,2.6,1.2,4.1c0,2.6-1,4.7-3.2,6.5c-1.2,1-1.5,1.3-5.1,3.7
			c-3,2.1-4.3,3.3-5.1,4.9h8.2c2.6,0,4.2-0.1,5.6-0.2v6.6c-2-0.2-3.5-0.2-6-0.2L188.8-109L188.8-109z"/>
		</g>
	</g>
	<rect id="shadow" x="0" y="0" width="365" height="225"/>
	<defs>
		<mask id="numbersMask">
			<rect x="182.5" y="108.1" class="st0" width="26.7" height="31.9"/>
		</mask>
	</defs>
</g>
<g id="search_00000078025468113868713440000005078581072567653020_">
	<g id="searchPage">
		<g id="searchBackground">
			<rect id="shadow" y="233.3" class="st21" width="365" height="15"/>
			<rect id="search_background" y="235.3" class="st0" width="365" height="225"/>
		</g>
		<g id="searchResults">
			<g>
				<g>
					<path class="st9" d="M106.4,283.2c-5.6,0-10.1-4.5-10.1-10.1s4.5-10.1,10.1-10.1h146c5.6,0,10.1,4.5,10.1,10.1
						s-4.5,10.1-10.1,10.1H106.4z"/>
					<path class="st9" d="M252.4,263c5.5,0,10,4.5,10,10s-4.5,10-10,10h-5.3h-9.3H106.4c-5.5,0-10-4.5-10-10s4.5-10,10-10h131.3h9.3
						H252.4 M252.4,262.8h-5.3h-9.3H106.4c-5.7,0-10.2,4.6-10.2,10.2s4.6,10.3,10.2,10.3h131.3h9.3h5.3c5.7,0,10.3-4.6,10.3-10.2
						S258.1,262.8,252.4,262.8L252.4,262.8z"/>
				</g>
				<g>
					<path class="st0" d="M106.4,282.2c-5.6,0-10.1-4.5-10.1-10.1s4.5-10.1,10.1-10.1h146c5.6,0,10.1,4.5,10.1,10.1
						s-4.5,10.1-10.1,10.1H106.4z"/>
					<path class="st9" d="M252.4,262c5.5,0,10,4.5,10,10s-4.5,10-10,10h-5.3h-9.3H106.4c-5.5,0-10-4.5-10-10s4.5-10,10-10h131.3h9.3
						H252.4 M252.4,261.8h-5.3h-9.3H106.4c-5.7,0-10.2,4.6-10.2,10.2s4.6,10.3,10.2,10.3h131.3h9.3h5.3c5.7,0,10.3-4.6,10.3-10.2
						S258.1,261.8,252.4,261.8L252.4,261.8z"/>
				</g>
				<circle class="st9" cx="106.4" cy="272" r="8"/>
				<g>
					<circle class="st12" cx="252.4" cy="272" r="8"/>
				</g>
				<g>
					<g>
						<g>
							<path id="SVGID_00000164491464499102913250000013010631270628800171_" class="st22" d="M104,271.3c-0.2-0.1-0.3-0.1-0.5-0.1
								c-1.3-0.1-2.6,1-2.5,2.5c0.1,1.6,2,2.4,3.3,2c1.1-0.4,1.6-1.6,1.3-2.7C105.4,272.1,104.7,271.6,104,271.3z"/>
						</g>
						<g>
							<g>
								<g>
									<defs>
										<path id="SVGID_1_" d="M104,271.3c-0.2-0.1-0.3-0.1-0.5-0.1c-1.3-0.1-2.6,1-2.5,2.5c0.1,1.6,2,2.4,3.3,2
											c1.1-0.4,1.6-1.6,1.3-2.7C105.4,272.1,104.7,271.6,104,271.3z"/>
									</defs>
									<clipPath id="SVGID_00000026843034227041741000000008822436680876709288_">
										<use xlink:href="#SVGID_1_"  style="overflow:visible;"/>
									</clipPath>
									<path style="clip-path:url(#SVGID_00000026843034227041741000000008822436680876709288_);fill:#B93221;" d="M105.7,272.3
										c0,0-0.7-0.2-1.7,0.9c-0.6,0.7-0.8,1.8-1.7,2c-0.4,0.1-0.7,0-0.8-0.2l0.1,0.4l0.5,0.4c0,0,1.1,0.3,1.4,0.3s1.2-0.2,1.2-0.2
										l1.2-2.2L105.7,272.3z"/>
								</g>
							</g>
						</g>
					</g>
					<g>
						<g>
							<g>
								<path id="SVGID_3_" class="st24" d="M110.6,267c-0.1-0.3-0.5-0.4-0.7-0.3c-0.1,0-0.1,0.1-0.2,0.1s-0.1,0.1-0.2,0.1l0,0l0,0
									c-0.5,0.1-1.3,0.3-2.1,0.6c-0.7,0.3-1.5,0.8-2.2,1.5c-0.5,0.5-0.9,1.1-1.3,1.8c0,0.1-0.1,0.1-0.1,0.2s-0.1,0.2-0.1,0.2h-0.1
									c0,0,0,0.2,0.2,0.2c0.2,0.1,0.4,0,0.4,0h-0.1c0-0.1,0.1-0.1,0.1-0.2s0.1-0.1,0.1-0.2c0.3-0.7,0.7-1.2,1.2-1.7
									c0.9-1,2.1-1.5,3-1.8c0.3-0.1,0.5-0.1,0.8-0.2c-0.2,0.2-0.5,0.5-0.8,0.9c-0.7,0.8-1.4,2.1-1.9,3.9c0,0.1,0,0.1-0.1,0.2
									c0,0.1,0,0.1-0.1,0.2h-0.1h-0.1c-0.1,0-0.1,0-0.2,0h-0.1c-0.1,0-0.1,0-0.2,0s-0.1,0-0.2,0c-1,0.3-1.8,1.2-1.8,2.4
									c0,0.3,0.1,0.5,0.2,0.8c0,0.1,0.1,0.1,0.1,0.2s0.1,0.1,0.1,0.2c0.5,0.6,1.3,1,2.1,1c0.3,0,0.6,0,0.8-0.1
									c1.1-0.4,1.6-1.6,1.3-2.7c-0.1-0.5-0.4-0.9-0.8-1.2c-0.2-0.1-0.4-0.2-0.5-0.3c-0.1,0-0.1,0-0.2-0.1c0-0.1,0-0.1,0-0.2
									s0-0.1,0.1-0.2c0.5-1.8,1.2-3,1.8-3.8c0.4-0.5,0.7-0.8,1-1l0,0l0,0l0,0c0,0,0,0,0.1,0s0.2,0,0.2,0s0,0,0.1,0
									C110.4,267.4,110.7,267.3,110.6,267z"/>
							</g>
							<g>
								<g>
									<g>
										<defs>
											<path id="SVGID_00000034059493532053027430000014186588319544541575_" d="M110.6,267c-0.1-0.3-0.5-0.4-0.7-0.3
												c-0.1,0-0.1,0.1-0.2,0.1s-0.1,0.1-0.2,0.1l0,0l0,0c-0.5,0.1-1.3,0.3-2.1,0.6c-0.7,0.3-1.5,0.8-2.2,1.5
												c-0.5,0.5-0.9,1.1-1.3,1.8c0,0.1-0.1,0.1-0.1,0.2s-0.1,0.2-0.1,0.2h-0.1c0,0,0,0.2,0.2,0.2c0.2,0.1,0.4,0,0.4,0h-0.1
												c0-0.1,0.1-0.1,0.1-0.2s0.1-0.1,0.1-0.2c0.3-0.7,0.7-1.2,1.2-1.7c0.9-1,2.1-1.5,3-1.8c0.3-0.1,0.5-0.1,0.8-0.2
												c-0.2,0.2-0.5,0.5-0.8,0.9c-0.7,0.8-1.4,2.1-1.9,3.9c0,0.1,0,0.1-0.1,0.2c0,0.1,0,0.1-0.1,0.2h-0.1h-0.1
												c-0.1,0-0.1,0-0.2,0h-0.1c-0.1,0-0.1,0-0.2,0s-0.1,0-0.2,0c-1,0.3-1.8,1.2-1.8,2.4c0,0.3,0.1,0.5,0.2,0.8
												c0,0.1,0.1,0.1,0.1,0.2s0.1,0.1,0.1,0.2c0.5,0.6,1.3,1,2.1,1c0.3,0,0.6,0,0.8-0.1c1.1-0.4,1.6-1.6,1.3-2.7
												c-0.1-0.5-0.4-0.9-0.8-1.2c-0.2-0.1-0.4-0.2-0.5-0.3c-0.1,0-0.1,0-0.2-0.1c0-0.1,0-0.1,0-0.2s0-0.1,0.1-0.2
												c0.5-1.8,1.2-3,1.8-3.8c0.4-0.5,0.7-0.8,1-1l0,0l0,0l0,0c0,0,0,0,0.1,0s0.2,0,0.2,0s0,0,0.1,0
												C110.4,267.4,110.7,267.3,110.6,267z"/>
										</defs>
										<clipPath id="SVGID_00000054248170093600317070000007976520928852827316_">
											<use xlink:href="#SVGID_00000034059493532053027430000014186588319544541575_"  style="overflow:visible;"/>
										</clipPath>
										<path style="clip-path:url(#SVGID_00000054248170093600317070000007976520928852827316_);fill:#DB4437;" d="M106.4,272.5
											c0,0,0,0.2,0.3,0.2s0.3-0.1,0.3-0.1s0.9,0.4,1.2,0.7c0.2,0.3,0.5,1.3,0.6,1.6c0,0.3-0.1,1.2-0.3,1.5
											c-0.2,0.3-1.7,1-1.7,1.1s-2.2-0.4-2.2-0.4l-0.7-0.8l-0.5-1.4l0.3-1.1c0,0,0.6-0.8,0.7-0.8c0,0,0.6-0.3,0.7-0.4
											c0-0.1,0.7-0.3,0.7-0.3C105.7,272.3,106.4,272.5,106.4,272.5z"/>
									</g>
								</g>
							</g>
							<g>
								<g>
									<g>
										<defs>
											<path id="SVGID_00000116926058059319462540000018261287657813176982_" d="M110.6,267c-0.1-0.3-0.5-0.4-0.7-0.3
												c-0.1,0-0.1,0.1-0.2,0.1s-0.1,0.1-0.2,0.1l0,0l0,0c-0.5,0.1-1.3,0.3-2.1,0.6c-0.7,0.3-1.5,0.8-2.2,1.5
												c-0.5,0.5-0.9,1.1-1.3,1.8c0,0.1-0.1,0.1-0.1,0.2s-0.1,0.2-0.1,0.2h-0.1c0,0,0,0.2,0.2,0.2c0.2,0.1,0.4,0,0.4,0h-0.1
												c0-0.1,0.1-0.1,0.1-0.2s0.1-0.1,0.1-0.2c0.3-0.7,0.7-1.2,1.2-1.7c0.9-1,2.1-1.5,3-1.8c0.3-0.1,0.5-0.1,0.8-0.2
												c-0.2,0.2-0.5,0.5-0.8,0.9c-0.7,0.8-1.4,2.1-1.9,3.9c0,0.1,0,0.1-0.1,0.2c0,0.1,0,0.1-0.1,0.2h-0.1h-0.1
												c-0.1,0-0.1,0-0.2,0h-0.1c-0.1,0-0.1,0-0.2,0s-0.1,0-0.2,0c-1,0.3-1.8,1.2-1.8,2.4c0,0.3,0.1,0.5,0.2,0.8
												c0,0.1,0.1,0.1,0.1,0.2s0.1,0.1,0.1,0.2c0.5,0.6,1.3,1,2.1,1c0.3,0,0.6,0,0.8-0.1c1.1-0.4,1.6-1.6,1.3-2.7
												c-0.1-0.5-0.4-0.9-0.8-1.2c-0.2-0.1-0.4-0.2-0.5-0.3c-0.1,0-0.1,0-0.2-0.1c0-0.1,0-0.1,0-0.2s0-0.1,0.1-0.2
												c0.5-1.8,1.2-3,1.8-3.8c0.4-0.5,0.7-0.8,1-1l0,0l0,0l0,0c0,0,0,0,0.1,0s0.2,0,0.2,0s0,0,0.1,0
												C110.4,267.4,110.7,267.3,110.6,267z"/>
										</defs>
										<clipPath id="SVGID_00000109004335441695196070000013568670649334844857_">
											<use xlink:href="#SVGID_00000116926058059319462540000018261287657813176982_"  style="overflow:visible;"/>
										</clipPath>
										<path style="clip-path:url(#SVGID_00000109004335441695196070000013568670649334844857_);fill:#B93221;" d="M104.7,276.6
											c0,0,1.2,0.6,2.6,0c0.8-0.4,1.1-1.2,1.1-1.2s-0.1,1.5-1.6,1.9C105.5,277.5,104.7,276.6,104.7,276.6z"/>
									</g>
								</g>
							</g>
						</g>
						<circle class="st0" cx="102.5" cy="272.6" r="0.5"/>
						<circle class="st0" cx="105.3" cy="274" r="0.5"/>
					</g>
				</g>
				<path class="st0" d="M250.7,268.1c0.3,0.1,0.5,0.1,1,0.1h1.1c0.6,0,0.7,0,1.1,0c0,0.5-0.1,0.8-0.1,1.4v4.5c0,0.5,0,0.9,0.1,1.3
					H252c0.1-0.4,0.1-0.8,0.1-1.3v-4.4h-0.3c-0.3,0-0.7,0-1.1,0.1V268.1z"/>
				<g class="st27">
					<path class="st13" d="M123,272.1c-0.1-0.3-0.1-0.4-0.3-0.5c-0.2-0.2-0.4-0.3-0.8-0.3c-0.7,0-1.2,0.6-1.2,1.6s0.5,1.6,1.2,1.6
						c0.4,0,0.7-0.1,0.9-0.4c0.1-0.1,0.1-0.2,0.2-0.4l1.7,0.3c-0.1,0.4-0.2,0.6-0.4,0.9c-0.5,0.7-1.3,1-2.3,1
						c-0.9,0-1.6-0.3-2.1-0.8s-0.8-1.3-0.8-2.2c0-1.8,1.1-3,2.9-3c1.4,0,2.3,0.7,2.6,1.9L123,272.1z"/>
					<path class="st13" d="M125.4,275.6c0.1-0.4,0.1-0.8,0.1-1.4v-4.8c0-0.6,0-1-0.1-1.4h1.9c-0.1,0.4-0.1,0.7-0.1,1.4v1
						c0,0.1,0,0.2,0,0.3c0.5-0.5,1.1-0.7,1.9-0.7c0.6,0,1.1,0.2,1.4,0.5c0.4,0.4,0.5,0.8,0.5,1.5v2.3c0,0.5,0,1,0.1,1.4h-1.9
						c0.1-0.4,0.1-0.8,0.1-1.4v-1.8c0-0.4,0-0.5-0.1-0.7s-0.3-0.2-0.6-0.2c-0.5,0-1,0.3-1.4,0.9v1.8c0,0.5,0,0.9,0.1,1.4
						L125.4,275.6L125.4,275.6z"/>
					<path class="st13" d="M133.4,273.3c0.1,0.7,0.5,1.1,1.2,1.1c0.4,0,0.7-0.1,0.9-0.3c0.1-0.1,0.2-0.2,0.3-0.5l1.6,0.4
						c-0.2,0.5-0.3,0.7-0.6,0.9c-0.5,0.5-1.2,0.8-2.1,0.8c-0.9,0-1.6-0.3-2.1-0.8s-0.8-1.3-0.8-2.2c0-1.8,1.1-3,2.9-3
						c1.4,0,2.4,0.8,2.7,2.1c0.1,0.3,0.1,0.7,0.1,1.2c0,0,0,0.1,0,0.2L133.4,273.3L133.4,273.3z M135.8,272.1
						c-0.1-0.6-0.5-0.9-1.1-0.9s-1,0.3-1.2,0.9H135.8z"/>
					<path class="st13" d="M142.3,271.7c-0.4-0.1-0.6-0.2-0.9-0.2c-0.5,0-0.8,0.2-1.1,0.5c-0.2,0.2-0.2,0.4-0.3,0.8v1.4
						c0,0.6,0,0.9,0.1,1.4h-1.9c0.1-0.5,0.1-0.8,0.1-1.4v-2.8c0-0.7,0-1-0.1-1.4h1.8v0.7c0.4-0.6,1-0.8,1.8-0.8c0.3,0,0.5,0,0.9,0.1
						L142.3,271.7z"/>
					<path class="st13" d="M147.3,271.7c-0.4-0.1-0.6-0.2-0.9-0.2c-0.5,0-0.8,0.2-1.1,0.5c-0.2,0.2-0.2,0.4-0.3,0.8v1.4
						c0,0.6,0,0.9,0.1,1.4h-1.9c0.1-0.5,0.1-0.8,0.1-1.4v-2.8c0-0.7,0-1-0.1-1.4h1.8v0.7c0.4-0.6,1-0.8,1.8-0.8c0.3,0,0.5,0,0.9,0.1
						L147.3,271.7z"/>
					<path class="st13" d="M150.1,270.1c-0.1,0.4-0.1,0.7-0.1,1.4v2.8c0,0.5,0,1,0.1,1.4h-1.9c0.1-0.4,0.1-0.8,0.1-1.4v-2.8
						c0-0.6,0-1-0.1-1.4H150.1z M150.1,268.1v1.4h-1.8v-1.4H150.1z"/>
					<path class="st13" d="M152.5,273.3c0.1,0.7,0.5,1.1,1.2,1.1c0.4,0,0.7-0.1,0.9-0.3c0.1-0.1,0.2-0.2,0.3-0.5l1.6,0.4
						c-0.2,0.5-0.3,0.7-0.6,0.9c-0.5,0.5-1.2,0.8-2.1,0.8c-0.9,0-1.6-0.3-2.1-0.8s-0.8-1.3-0.8-2.2c0-1.8,1.1-3,2.9-3
						c1.4,0,2.4,0.8,2.7,2.1c0.1,0.3,0.1,0.7,0.1,1.2c0,0,0,0.1,0,0.2L152.5,273.3L152.5,273.3z M154.8,272.1
						c-0.1-0.6-0.5-0.9-1.1-0.9s-1,0.3-1.2,0.9H154.8z"/>
					<path class="st13" d="M158.9,273.7c0.1,0.5,0.4,0.7,1,0.7c0.5,0,0.8-0.2,0.8-0.4c0-0.1-0.1-0.3-0.2-0.3s-0.2-0.1-0.7-0.2
						c-0.7-0.1-1-0.2-1.3-0.3c-0.4-0.2-0.7-0.4-0.9-0.6c-0.1-0.2-0.2-0.5-0.2-0.9c0-1.1,0.9-1.7,2.4-1.7c0.9,0,1.5,0.2,1.9,0.6
						c0.3,0.3,0.4,0.5,0.6,1l-1.7,0.2c0-0.4-0.3-0.5-0.8-0.5s-0.8,0.2-0.8,0.4c0,0.2,0.2,0.3,1.1,0.5c0.9,0.2,1.2,0.3,1.5,0.4
						c0.6,0.3,0.9,0.7,0.9,1.4c0,0.5-0.2,0.9-0.5,1.2c-0.4,0.4-1.2,0.7-2.1,0.7c-1.1,0-1.9-0.3-2.4-0.9c-0.2-0.3-0.3-0.5-0.4-0.9
						L158.9,273.7z"/>
				</g>
			</g>
			<g>
				<g>
					<path class="st9" d="M106.4,368.3c-5.6,0-10.1-4.5-10.1-10.1s4.5-10.1,10.1-10.1h146c5.6,0,10.1,4.5,10.1,10.1
						s-4.5,10.1-10.1,10.1H106.4z"/>
					<path class="st9" d="M252.4,348.2c5.5,0,10,4.5,10,10s-4.5,10-10,10h-5.3h-9.3H106.4c-5.5,0-10-4.5-10-10s4.5-10,10-10h131.3
						h9.3H252.4 M252.4,347.9h-5.3h-9.3H106.4c-5.7,0-10.2,4.6-10.2,10.2s4.6,10.2,10.2,10.2h131.3h9.3h5.3
						c5.7,0,10.3-4.6,10.3-10.2S258.1,347.9,252.4,347.9L252.4,347.9z"/>
				</g>
				<g>
					<path class="st0" d="M106.4,367.3c-5.6,0-10.1-4.5-10.1-10.1s4.5-10.1,10.1-10.1h146c5.6,0,10.1,4.5,10.1,10.1
						s-4.5,10.1-10.1,10.1H106.4z"/>
					<path class="st9" d="M252.4,347.2c5.5,0,10,4.5,10,10s-4.5,10-10,10h-5.3h-9.3H106.4c-5.5,0-10-4.5-10-10s4.5-10,10-10h131.3
						h9.3H252.4 M252.4,346.9h-5.3h-9.3H106.4c-5.7,0-10.2,4.6-10.2,10.2s4.6,10.2,10.2,10.2h131.3h9.3h5.3
						c5.7,0,10.3-4.6,10.3-10.2S258.1,346.9,252.4,346.9L252.4,346.9z"/>
				</g>
				<circle class="st9" cx="106.4" cy="357.1" r="8"/>
				<g>
					<circle class="st12" cx="252.4" cy="357.1" r="8"/>
				</g>
				<g class="st27">
					<path class="st13" d="M123,356.9c0-0.4-0.3-0.6-0.9-0.6s-0.9,0.2-1,0.6l-1.7-0.3c0.2-0.5,0.4-0.8,0.8-1.1
						c0.5-0.3,1.2-0.5,2-0.5c0.7,0,1.3,0.1,1.7,0.3c0.6,0.3,0.8,0.8,0.8,1.6v2.4c0,0.5,0,0.9,0.1,1.3H123v-0.4
						c-0.5,0.4-1,0.5-1.7,0.5s-1.2-0.2-1.6-0.5c-0.3-0.3-0.5-0.7-0.5-1.2c0-0.6,0.2-1,0.7-1.3s1.1-0.5,1.9-0.6c0.4,0,0.6,0,1.3-0.1
						v-0.1H123z M123,358.3c-0.8,0-1.2,0.1-1.6,0.2c-0.3,0.1-0.5,0.3-0.5,0.6c0,0.3,0.3,0.5,0.7,0.5c0.4,0,0.8-0.1,1-0.3
						c0.2-0.2,0.3-0.4,0.3-0.7L123,358.3L123,358.3z"/>
					<path class="st13" d="M125.7,362.3c0-0.4,0.1-0.8,0.1-1.3v-4.4c0-0.6,0-1-0.1-1.4h1.8v0.3c0,0.1,0,0.1,0,0.2
						c0.5-0.5,1.1-0.6,1.8-0.6c0.8,0,1.4,0.2,1.9,0.7s0.7,1.2,0.7,2.1s-0.3,1.7-0.8,2.2s-1.1,0.7-1.9,0.7c-0.4,0-0.9-0.1-1.2-0.2
						c-0.2-0.1-0.4-0.2-0.6-0.4c0,0.1,0,0.2,0,0.3v0.6c0,0.5,0,0.9,0.1,1.3h-1.8V362.3z M129.7,359c0.3-0.2,0.4-0.7,0.4-1.2
						c0-0.9-0.5-1.5-1.3-1.5c-0.7,0-1.4,0.7-1.4,1.5s0.6,1.5,1.4,1.5C129.2,359.4,129.5,359.3,129.7,359z"/>
					<path class="st13" d="M132.6,362.3c0-0.4,0.1-0.8,0.1-1.3v-4.4c0-0.6,0-1-0.1-1.4h1.8v0.3c0,0.1,0,0.1,0,0.2
						c0.5-0.5,1.1-0.6,1.8-0.6c0.8,0,1.4,0.2,1.9,0.7s0.7,1.2,0.7,2.1s-0.3,1.7-0.8,2.2s-1.1,0.7-1.9,0.7c-0.4,0-0.9-0.1-1.2-0.2
						c-0.2-0.1-0.4-0.2-0.6-0.4c0,0.1,0,0.2,0,0.3v0.6c0,0.5,0,0.9,0.1,1.3h-1.8V362.3z M136.7,359c0.3-0.2,0.4-0.7,0.4-1.2
						c0-0.9-0.5-1.5-1.3-1.5c-0.7,0-1.4,0.7-1.4,1.5s0.6,1.5,1.4,1.5C136.2,359.4,136.5,359.3,136.7,359z"/>
					<path class="st13" d="M141.4,353.2c-0.1,0.4-0.1,0.7-0.1,1.4v4.8c0,0.5,0,0.9,0.1,1.4h-1.9c0.1-0.4,0.1-0.7,0.1-1.4v-4.8
						c0-0.6,0-1-0.1-1.4H141.4z"/>
					<path class="st13" d="M143.8,358.5c0.1,0.7,0.5,1.1,1.2,1.1c0.4,0,0.7-0.1,0.9-0.3c0.1-0.1,0.2-0.2,0.3-0.5l1.6,0.4
						c-0.2,0.5-0.3,0.7-0.6,0.9c-0.5,0.5-1.2,0.8-2.1,0.8c-0.9,0-1.6-0.3-2.1-0.8s-0.8-1.3-0.8-2.2c0-1.8,1.1-3,2.9-3
						c1.4,0,2.4,0.8,2.7,2.1c0.1,0.3,0.1,0.7,0.1,1.2c0,0,0,0.1,0,0.2L143.8,358.5L143.8,358.5z M146.2,357.2
						c-0.1-0.6-0.5-0.9-1.1-0.9s-1,0.3-1.2,0.9H146.2z"/>
					<path class="st13" d="M150.2,358.9c0.1,0.5,0.4,0.7,1,0.7c0.5,0,0.8-0.2,0.8-0.4c0-0.1-0.1-0.3-0.2-0.3s-0.2-0.1-0.7-0.2
						c-0.7-0.1-1-0.2-1.3-0.3c-0.4-0.2-0.7-0.4-0.9-0.6c-0.1-0.2-0.2-0.5-0.2-0.9c0-1.1,0.9-1.7,2.4-1.7c0.9,0,1.5,0.2,1.9,0.6
						c0.3,0.3,0.4,0.5,0.6,1l-1.7,0.2c0-0.4-0.3-0.5-0.8-0.5s-0.8,0.2-0.8,0.4c0,0.2,0.2,0.3,1.1,0.5c0.9,0.2,1.2,0.3,1.5,0.4
						c0.6,0.3,0.9,0.7,0.9,1.4c0,0.5-0.2,0.9-0.5,1.2c-0.4,0.4-1.2,0.7-2.1,0.7c-1.1,0-1.9-0.3-2.4-0.9c-0.2-0.3-0.3-0.5-0.4-0.9
						L150.2,358.9z"/>
				</g>
				<g>
					<g>
						<path class="st22" d="M106,354.6c-0.7-0.1-1.4-0.3-2.1,0.2c-0.6,0.4-1.1,1.1-1.3,1.8c-0.3,1-0.1,2.1,0.6,3
							c0.4,0.4,1,0.9,1.6,1.1c1.4,0.5,3.2,0.2,4.1-1.1c0.3-0.4,0.5-0.9,0.6-1.4c0.3-1.3,0-2.8-1.3-3.3c-0.6-0.2-1.2-0.1-1.8-0.2
							C106.3,354.6,106.1,354.6,106,354.6z"/>
						<g>
							<path class="st24" d="M108.2,352.4c0.5,0,1.3,0.2,1.6,0.5c0,0,0.1,0.1,0.1,0.2s-0.1,0.2-0.1,0.2c-0.7,0.9-2.2,1.4-3.1,0.8
								c-0.1-0.1-0.1-0.2,0-0.4c0.1-0.5,0.5-1,1-1.2C107.9,352.4,108.1,352.4,108.2,352.4z"/>
							<path class="st28" d="M106.7,353.8L106.7,353.8c-0.1-0.1-0.1-0.1-0.1-0.1h-0.1c0,0,0,0-0.1,0s-0.1,0-0.2,0.1s0,0.1-0.1,0.2
								c0,0.1-0.1,0.2-0.1,0.3c0,0.1,0,0.2-0.1,0.3c0,0.1,0,0.1,0,0.2c0,0.2-0.1,0.5-0.1,0.7v0.1c0,0,0,0,0,0.1c0,0,0,0,0,0.1l0,0
								c0,0,0,0.1,0.1,0.1c0,0,0.1,0,0.2,0c0,0,0,0,0.1,0l0,0c0,0,0,0,0.1,0c0,0,0.1,0,0.1-0.1c0,0,0,0,0-0.1l0,0v-0.1
								c0-0.1,0-0.1,0-0.2s0-0.2,0-0.4c0-0.1,0-0.1,0-0.2s0-0.2,0-0.3c0,0,0,0,0-0.1s0.1-0.2,0.1-0.4
								C106.5,353.9,106.5,353.9,106.7,353.8c-0.1-0.1,0-0.1,0-0.1C106.7,353.9,106.8,353.8,106.7,353.8z"/>
						</g>
						<path class="st0" d="M104.6,355.2c-0.1-0.1-0.3-0.1-0.5-0.1c-0.2,0.1-0.4,0.2-0.5,0.4c-0.1,0.1-0.3,0.5-0.1,0.6
							c0.1,0.1,0.2,0.1,0.3,0c0.2-0.1,0.3-0.3,0.4-0.4C104.3,355.7,104.8,355.5,104.6,355.2z"/>
					</g>
					<path class="st29" d="M106,355.7c-0.2,0-0.3-0.1-0.4-0.2c-0.1,0-0.3-0.2-0.3,0s0.3,0.4,0.4,0.5c0.3,0.1,0.5,0.2,0.8,0.1
						s0.5-0.2,0.7-0.4v-0.1c0-0.1-0.1-0.1-0.2-0.1s-0.1,0.1-0.2,0.1c-0.1,0.1-0.2,0.1-0.3,0.1C106.3,355.8,106.2,355.8,106,355.7z"
						/>
				</g>
				<path class="st0" d="M250.3,360.1c-0.3-0.3-0.5-0.6-0.6-1c-0.2-0.6-0.3-1.3-0.3-2c0-0.9,0.2-1.9,0.5-2.4
					c0.5-0.9,1.4-1.4,2.5-1.4c0.8,0,1.6,0.3,2.1,0.8c0.3,0.3,0.5,0.6,0.6,1c0.2,0.6,0.3,1.3,0.3,2c0,0.9-0.2,1.9-0.5,2.4
					c-0.5,0.9-1.4,1.3-2.5,1.3C251.5,360.9,250.8,360.6,250.3,360.1z M251.1,357.1c0,1.5,0.4,2.3,1.3,2.3c0.8,0,1.3-0.8,1.3-2.3
					s-0.4-2.3-1.3-2.3C251.6,354.8,251.1,355.7,251.1,357.1z"/>
			</g>
			<g id="foodButtonInSearch">
				<g>
					<path class="st9" d="M106.4,339.9c-5.6,0-10.1-4.5-10.1-10.1s4.5-10.1,10.1-10.1h146c5.6,0,10.1,4.5,10.1,10.1
						s-4.5,10.1-10.1,10.1H106.4z"/>
					<path class="st9" d="M252.4,319.8c5.5,0,10,4.5,10,10s-4.5,10-10,10h-5.3h-9.3H106.4c-5.5,0-10-4.5-10-10s4.5-10,10-10h131.3
						h9.3H252.4 M252.4,319.5h-5.3h-9.3H106.4c-5.7,0-10.2,4.6-10.2,10.2s4.6,10.2,10.2,10.2h131.3h9.3h5.3
						c5.7,0,10.3-4.6,10.3-10.2S258.1,319.5,252.4,319.5L252.4,319.5z"/>
				</g>
				<g>
					<g>
						<path id="foodButtonInSearchBackground" class="st0" d="M106.4,338.9c-5.6,0-10.1-4.5-10.1-10.1s4.5-10.1,10.1-10.1h146c5.6,0,10.1,4.5,10.1,10.1
							s-4.5,10.1-10.1,10.1H106.4z"/>
						<path class="st9" d="M252.4,318.8c5.5,0,10,4.5,10,10s-4.5,10-10,10h-5.3h-9.3H106.4c-5.5,0-10-4.5-10-10s4.5-10,10-10h131.3
							h9.3H252.4 M252.4,318.5h-5.3h-9.3H106.4c-5.7,0-10.2,4.6-10.2,10.2s4.6,10.2,10.2,10.2h131.3h9.3h5.3
							c5.7,0,10.3-4.6,10.3-10.2S258.1,318.5,252.4,318.5L252.4,318.5z"/>
					</g>
					<circle class="st9" cx="106.4" cy="328.8" r="8"/>
					<g>
						<circle class="st12" cx="252.4" cy="328.8" r="8"/>
					</g>
					<g class="st27">
						<path class="st13" d="M120.9,330.5c0.1,0.5,0.4,0.7,1,0.7c0.5,0,0.8-0.2,0.8-0.4c0-0.1-0.1-0.3-0.2-0.3s-0.2-0.1-0.7-0.2
							c-0.7-0.1-1-0.2-1.3-0.3c-0.4-0.2-0.7-0.4-0.9-0.6c-0.1-0.2-0.2-0.5-0.2-0.9c0-1.1,0.9-1.7,2.4-1.7c0.9,0,1.5,0.2,1.9,0.6
							c0.3,0.3,0.4,0.5,0.6,1l-1.7,0.2c0-0.4-0.3-0.5-0.8-0.5s-0.8,0.2-0.8,0.4c0,0.2,0.2,0.3,1.1,0.5s1.2,0.3,1.5,0.4
							c0.6,0.3,0.9,0.7,0.9,1.4c0,0.5-0.2,0.9-0.5,1.2c-0.4,0.4-1.2,0.7-2.1,0.7c-1.1,0-1.9-0.3-2.4-0.9c-0.2-0.3-0.3-0.5-0.4-0.9
							L120.9,330.5z"/>
						<path class="st13" d="M129.9,332.3c0-0.3-0.1-0.5-0.3-1.1l-0.5-1.8c0-0.2-0.1-0.3-0.1-0.4c-0.1,0.2-0.1,0.2-0.1,0.4l-0.5,1.8
							c-0.1,0.4-0.2,0.8-0.3,1.1h-1.5c-0.1-0.3-0.1-0.6-0.3-1.1l-1-3.3c-0.1-0.3-0.2-0.7-0.4-1.2h1.9c0,0.3,0.1,0.6,0.2,1.1l0.4,1.6
							c0,0.2,0.1,0.4,0.1,0.4c0.1-0.4,0.1-0.4,0.1-0.4l0.5-1.6c0.2-0.8,0.2-0.8,0.3-1h1.3c0,0.2,0.1,0.6,0.3,1l0.5,1.7
							c0,0.1,0.1,0.3,0.1,0.4c0-0.1,0-0.1,0.1-0.4l0.4-1.6c0.1-0.5,0.2-0.8,0.2-1.1h1.9c-0.1,0.3-0.3,0.7-0.4,1.2l-1,3.3
							c-0.2,0.5-0.2,0.7-0.3,1.1h-1.6V332.3z"/>
						<path class="st13" d="M135.5,326.8c-0.1,0.4-0.1,0.7-0.1,1.4v2.8c0,0.5,0,1,0.1,1.4h-1.9c0.1-0.4,0.1-0.8,0.1-1.4v-2.8
							c0-0.6,0-1-0.1-1.4H135.5z M135.5,324.8v1.4h-1.8v-1.4H135.5z"/>
						<path class="st13" d="M138,330.5c0.1,0.5,0.4,0.7,1,0.7c0.5,0,0.8-0.2,0.8-0.4c0-0.1-0.1-0.3-0.2-0.3s-0.2-0.1-0.7-0.2
							c-0.7-0.1-1-0.2-1.3-0.3c-0.4-0.2-0.7-0.4-0.9-0.6c-0.1-0.2-0.2-0.5-0.2-0.9c0-1.1,0.9-1.7,2.4-1.7c0.9,0,1.5,0.2,1.9,0.6
							c0.3,0.3,0.4,0.5,0.6,1l-1.7,0.2c0-0.4-0.3-0.5-0.8-0.5s-0.8,0.2-0.8,0.4c0,0.2,0.2,0.3,1.1,0.5c0.9,0.2,1.2,0.3,1.5,0.4
							c0.6,0.3,0.9,0.7,0.9,1.4c0,0.5-0.2,0.9-0.5,1.2c-0.4,0.4-1.2,0.7-2.1,0.7c-1.1,0-1.9-0.3-2.4-0.9c-0.2-0.3-0.3-0.5-0.4-0.9
							L138,330.5z"/>
						<path class="st13" d="M143.9,330.5c0.1,0.5,0.4,0.7,1,0.7c0.5,0,0.8-0.2,0.8-0.4c0-0.1-0.1-0.3-0.2-0.3s-0.2-0.1-0.7-0.2
							c-0.7-0.1-1-0.2-1.3-0.3c-0.4-0.2-0.7-0.4-0.9-0.6c-0.1-0.2-0.2-0.5-0.2-0.9c0-1.1,0.9-1.7,2.4-1.7c0.9,0,1.5,0.2,1.9,0.6
							c0.3,0.3,0.4,0.5,0.6,1l-1.7,0.2c0-0.4-0.3-0.5-0.8-0.5s-0.8,0.2-0.8,0.4c0,0.2,0.2,0.3,1.1,0.5c0.9,0.2,1.2,0.3,1.5,0.4
							c0.6,0.3,0.9,0.7,0.9,1.4c0,0.5-0.2,0.9-0.5,1.2c-0.4,0.4-1.2,0.7-2.1,0.7c-1.1,0-1.9-0.3-2.4-0.9c-0.2-0.3-0.3-0.5-0.4-0.9
							L143.9,330.5z"/>
						<path class="st13" d="M154.9,328.8c-0.1-0.3-0.1-0.4-0.3-0.5c-0.2-0.2-0.4-0.3-0.8-0.3c-0.7,0-1.2,0.6-1.2,1.6
							s0.5,1.6,1.2,1.6c0.4,0,0.7-0.1,0.9-0.4c0.1-0.1,0.1-0.2,0.2-0.4l1.7,0.3c-0.1,0.4-0.2,0.6-0.4,0.9c-0.5,0.7-1.3,1-2.3,1
							c-0.9,0-1.6-0.3-2.1-0.8s-0.8-1.3-0.8-2.2c0-1.8,1.1-3,2.9-3c1.4,0,2.3,0.7,2.6,1.9L154.9,328.8z"/>
						<path class="st13" d="M157.3,332.3c0.1-0.4,0.1-0.8,0.1-1.4v-4.8c0-0.6,0-1-0.1-1.4h1.9c-0.1,0.4-0.1,0.7-0.1,1.4v1
							c0,0.1,0,0.2,0,0.3c0.5-0.5,1.1-0.7,1.9-0.7c0.6,0,1.1,0.2,1.4,0.5c0.4,0.4,0.5,0.8,0.5,1.5v2.3c0,0.5,0,1,0.1,1.4h-1.9
							c0.1-0.4,0.1-0.8,0.1-1.4v-1.8c0-0.4,0-0.5-0.1-0.7s-0.3-0.2-0.6-0.2c-0.5,0-1,0.3-1.4,0.9v1.8c0,0.5,0,0.9,0.1,1.4
							L157.3,332.3L157.3,332.3z"/>
						<path class="st13" d="M165.3,330.1c0.1,0.7,0.5,1.1,1.2,1.1c0.4,0,0.7-0.1,0.9-0.3c0.1-0.1,0.2-0.2,0.3-0.5l1.6,0.4
							c-0.2,0.5-0.3,0.7-0.6,0.9c-0.5,0.5-1.2,0.8-2.1,0.8c-0.9,0-1.6-0.3-2.1-0.8s-0.8-1.3-0.8-2.2c0-1.8,1.1-3,2.9-3
							c1.4,0,2.4,0.8,2.7,2.1c0.1,0.3,0.1,0.7,0.1,1.2c0,0,0,0.1,0,0.2L165.3,330.1L165.3,330.1z M167.7,328.8
							c-0.1-0.6-0.5-0.9-1.1-0.9s-1,0.3-1.2,0.9H167.7z"/>
						<path class="st13" d="M171.5,330.1c0.1,0.7,0.5,1.1,1.2,1.1c0.4,0,0.7-0.1,0.9-0.3c0.1-0.1,0.2-0.2,0.3-0.5l1.6,0.4
							c-0.2,0.5-0.3,0.7-0.6,0.9c-0.5,0.5-1.2,0.8-2.1,0.8c-0.9,0-1.6-0.3-2.1-0.8s-0.8-1.3-0.8-2.2c0-1.8,1.1-3,2.9-3
							c1.4,0,2.4,0.8,2.7,2.1c0.1,0.3,0.1,0.7,0.1,1.2c0,0,0,0.1,0,0.2L171.5,330.1L171.5,330.1z M173.9,328.8
							c-0.1-0.6-0.5-0.9-1.1-0.9s-1,0.3-1.2,0.9H173.9z"/>
						<path class="st13" d="M177.9,330.5c0.1,0.5,0.4,0.7,1,0.7c0.5,0,0.8-0.2,0.8-0.4c0-0.1-0.1-0.3-0.2-0.3s-0.2-0.1-0.7-0.2
							c-0.7-0.1-1-0.2-1.3-0.3c-0.4-0.2-0.7-0.4-0.9-0.6c-0.1-0.2-0.2-0.5-0.2-0.9c0-1.1,0.9-1.7,2.4-1.7c0.9,0,1.5,0.2,1.9,0.6
							c0.3,0.3,0.4,0.5,0.6,1l-1.7,0.2c0-0.4-0.3-0.5-0.8-0.5s-0.8,0.2-0.8,0.4c0,0.2,0.2,0.3,1.1,0.5c0.9,0.2,1.2,0.3,1.5,0.4
							c0.6,0.3,0.9,0.7,0.9,1.4c0,0.5-0.2,0.9-0.5,1.2c-0.4,0.4-1.2,0.7-2.1,0.7c-1.1,0-1.9-0.3-2.4-0.9c-0.2-0.3-0.3-0.5-0.4-0.9
							L177.9,330.5z"/>
						<path class="st13" d="M183.6,330.1c0.1,0.7,0.5,1.1,1.2,1.1c0.4,0,0.7-0.1,0.9-0.3c0.1-0.1,0.2-0.2,0.3-0.5l1.6,0.4
							c-0.2,0.5-0.3,0.7-0.6,0.9c-0.5,0.5-1.2,0.8-2.1,0.8c-0.9,0-1.6-0.3-2.1-0.8s-0.8-1.3-0.8-2.2c0-1.8,1.1-3,2.9-3
							c1.4,0,2.4,0.8,2.7,2.1c0.1,0.3,0.1,0.7,0.1,1.2c0,0,0,0.1,0,0.2L183.6,330.1L183.6,330.1z M185.9,328.8
							c-0.1-0.6-0.5-0.9-1.1-0.9s-1,0.3-1.2,0.9H185.9z"/>
					</g>
					<g id="XMLID_14_">
						<path id="XMLID_62_" class="st14" d="M103.2,327.7L103.2,327.7L103.2,327.7c0,0.3,0.2,0.5,0.4,0.5c0.2,0,0.5-0.2,0.5-0.4
							c0-0.1,0-0.1,0-0.2l3.5-0.5c0.1,0.4,0.4,0.8,0.9,0.8s0.9-0.4,0.9-0.9v-0.1l1.1-0.2c0.4-0.1,0.8,0.2,0.8,0.6l0,0v0.1v3.5
							c0,0.4-0.3,0.7-0.6,0.7l-8.7,1c-0.4,0.1-0.8-0.3-0.8-0.7v-3.2l0,0c0-0.3,0.3-0.6,0.6-0.7L103.2,327.7z M110.5,329.4
							c0-0.4-0.3-0.7-0.7-0.7c-0.4,0-0.7,0.3-0.7,0.7c0,0.4,0.3,0.7,0.7,0.7S110.5,329.8,110.5,329.4z M107.8,330.4
							c0-0.2-0.2-0.4-0.4-0.4c-0.2,0-0.4,0.2-0.4,0.4c0,0.2,0.2,0.4,0.4,0.4C107.6,330.8,107.8,330.7,107.8,330.4z M106.6,329.1
							c0-0.6-0.5-1.1-1.1-1.1s-1.1,0.5-1.1,1.1s0.5,1.1,1.1,1.1C106.2,330.2,106.6,329.7,106.6,329.1z M104.4,331.2
							c0-0.3-0.3-0.6-0.6-0.6c-0.3,0-0.6,0.3-0.6,0.6s0.3,0.6,0.6,0.6C104.1,331.8,104.4,331.5,104.4,331.2z M102.9,329.6
							c0-0.2-0.1-0.3-0.3-0.3s-0.3,0.1-0.3,0.3s0.1,0.3,0.3,0.3S102.9,329.7,102.9,329.6z"/>
						<path id="XMLID_58_" class="st15" d="M109.4,326.8L109.4,326.8c-0.1-0.3-0.5-0.6-0.9-0.6c-0.5,0-0.9,0.3-0.9,0.7v0.1l0,0
							l-3.5,0.5l0,0c-0.1-0.1-0.2-0.2-0.4-0.2c-0.2,0-0.4,0.1-0.4,0.3l-1.3,0.2c-0.3,0-0.6,0.3-0.6,0.7c0-0.6,0.4-0.8,0.4-0.8
							l4.7-3.4c0.5-0.3,1-0.4,1.6-0.3c0.5,0.1,1.2,0.4,1.7,0.7c0.6,0.3,1.1,0.9,1.5,1.3c0,0,0.1,0.2,0.2,0.4
							c0.1,0.2,0.1,0.5,0.1,0.8c-0.1-0.4-0.4-0.6-0.8-0.6L109.4,326.8z M108.3,325.1c0-0.2-0.2-0.3-0.5-0.3s-0.5,0.2-0.5,0.3
							c0,0.2,0.2,0.3,0.5,0.3C108.1,325.4,108.3,325.2,108.3,325.1z M106.3,326c0-0.3-0.3-0.5-0.7-0.5c-0.4,0-0.7,0.2-0.7,0.5
							s0.3,0.5,0.7,0.5S106.3,326.3,106.3,326z"/>
						<circle id="XMLID_35_" class="st16" cx="109.8" cy="329.4" r="0.7"/>
						<path id="XMLID_34_" class="st16" d="M109.4,326.8L109.4,326.8v0.1c0,0.5-0.4,0.9-0.9,0.9s-0.9-0.3-0.9-0.8l0,0L109.4,326.8z"
							/>
						<path id="XMLID_33_" class="st17" d="M109.4,326.8l-1.8,0.3V327c0-0.4,0.4-0.7,0.9-0.7C109,326.2,109.3,326.4,109.4,326.8z"/>
						<ellipse id="XMLID_32_" class="st17" cx="107.8" cy="325.1" rx="0.5" ry="0.3"/>
						<circle id="XMLID_31_" class="st16" cx="107.4" cy="330.4" r="0.4"/>
						<circle id="XMLID_30_" class="st16" cx="105.6" cy="329.1" r="1.1"/>
						<ellipse id="XMLID_29_" class="st17" cx="105.6" cy="326" rx="0.7" ry="0.5"/>
						<circle id="XMLID_28_" class="st16" cx="103.8" cy="331.2" r="0.6"/>
						<path id="XMLID_27_" class="st16" d="M104.1,327.5L104.1,327.5c0,0.1,0,0.1,0,0.2c0,0.2-0.2,0.4-0.5,0.4
							c-0.2,0-0.5-0.2-0.5-0.4c0,0,0,0,0-0.1L104.1,327.5z"/>
						<path id="XMLID_26_" class="st17" d="M104.1,327.5l-0.9,0.1l0,0c0-0.2,0.2-0.3,0.4-0.3C103.8,327.4,104,327.4,104.1,327.5z"/>
						<ellipse id="XMLID_25_" class="st16" cx="102.6" cy="329.6" rx="0.3" ry="0.3"/>
					</g>
					<path class="st0" d="M255.2,326.6c-0.5,0.6-0.8,0.9-1.2,1.7c-0.7,1.3-1,2.4-1.2,4.1h-2c0.3-1.4,0.5-2.3,1-3.4
						c0.4-0.8,0.7-1.3,1.4-2.3h-2.5c-0.6,0-0.9,0-1.3,0.1v-1.6c0.4,0,0.8,0.1,1.4,0.1h2.9c0.8,0,1,0,1.4,0L255.2,326.6L255.2,326.6z
						"/>
				</g>
			</g>
			<g>
				<g>
					<path class="st9" d="M106.4,396.7c-5.6,0-10.1-4.5-10.1-10.1s4.5-10.1,10.1-10.1h146c5.6,0,10.1,4.5,10.1,10.1
						s-4.5,10.1-10.1,10.1H106.4z"/>
					<path class="st9" d="M252.4,376.5c5.5,0,10,4.5,10,10s-4.5,10-10,10h-5.3h-9.3H106.4c-5.5,0-10-4.5-10-10s4.5-10,10-10h131.3
						h9.3H252.4 M252.4,376.3h-5.3h-9.3H106.4c-5.7,0-10.2,4.6-10.2,10.2c0,5.7,4.6,10.2,10.2,10.2h131.3h9.3h5.3
						c5.7,0,10.3-4.6,10.3-10.2C262.7,380.9,258.1,376.3,252.4,376.3L252.4,376.3z"/>
				</g>
				<g>
					<path class="st0" d="M106.4,395.7c-5.6,0-10.1-4.5-10.1-10.1s4.5-10.1,10.1-10.1h146c5.6,0,10.1,4.5,10.1,10.1
						s-4.5,10.1-10.1,10.1H106.4z"/>
					<path class="st9" d="M252.4,375.5c5.5,0,10,4.5,10,10s-4.5,10-10,10h-5.3h-9.3H106.4c-5.5,0-10-4.5-10-10s4.5-10,10-10h131.3
						h9.3H252.4 M252.4,375.3h-5.3h-9.3H106.4c-5.7,0-10.2,4.6-10.2,10.2c0,5.7,4.6,10.2,10.2,10.2h131.3h9.3h5.3
						c5.7,0,10.3-4.6,10.3-10.2C262.7,379.9,258.1,375.3,252.4,375.3L252.4,375.3z"/>
				</g>
				<circle class="st9" cx="106.4" cy="385.5" r="8"/>
				<g>
					<circle class="st12" cx="252.4" cy="385.5" r="8"/>
				</g>
				<g class="st27">
					<path class="st13" d="M123,385.6c-0.1-0.3-0.1-0.4-0.3-0.5c-0.2-0.2-0.4-0.3-0.8-0.3c-0.7,0-1.2,0.6-1.2,1.6s0.5,1.6,1.2,1.6
						c0.4,0,0.7-0.1,0.9-0.4c0.1-0.1,0.1-0.2,0.2-0.4l1.7,0.3c-0.1,0.4-0.2,0.6-0.4,0.9c-0.5,0.7-1.3,1-2.3,1
						c-0.9,0-1.6-0.3-2.1-0.8s-0.8-1.3-0.8-2.2c0-1.8,1.1-3,2.9-3c1.4,0,2.3,0.7,2.6,1.9L123,385.6z"/>
					<path class="st13" d="M125.4,389.1c0.1-0.4,0.1-0.8,0.1-1.4V383c0-0.6,0-1-0.1-1.4h1.9c-0.1,0.4-0.1,0.7-0.1,1.4v1
						c0,0.1,0,0.2,0,0.3c0.5-0.5,1.1-0.7,1.9-0.7c0.6,0,1.1,0.2,1.4,0.5c0.4,0.4,0.5,0.8,0.5,1.5v2.3c0,0.5,0,1,0.1,1.3h-1.9
						c0.1-0.4,0.1-0.8,0.1-1.4V386c0-0.4,0-0.5-0.1-0.7s-0.3-0.2-0.6-0.2c-0.5,0-1,0.3-1.4,0.9v1.8c0,0.5,0,0.9,0.1,1.4L125.4,389.1
						L125.4,389.1z"/>
					<path class="st13" d="M133.4,386.8c0.1,0.7,0.5,1.1,1.2,1.1c0.4,0,0.7-0.1,0.9-0.3c0.1-0.1,0.2-0.2,0.3-0.5l1.6,0.4
						c-0.2,0.5-0.3,0.7-0.6,0.9c-0.5,0.5-1.2,0.8-2.1,0.8c-0.9,0-1.6-0.3-2.1-0.8s-0.8-1.3-0.8-2.2c0-1.8,1.1-3,2.9-3
						c1.4,0,2.4,0.8,2.7,2.1c0.1,0.3,0.1,0.7,0.1,1.2c0,0,0,0.1,0,0.2L133.4,386.8L133.4,386.8z M135.8,385.6
						c-0.1-0.6-0.5-0.9-1.1-0.9s-1,0.3-1.2,0.9H135.8z"/>
					<path class="st13" d="M139.6,386.8c0.1,0.7,0.5,1.1,1.2,1.1c0.4,0,0.7-0.1,0.9-0.3c0.1-0.1,0.2-0.2,0.3-0.5l1.6,0.4
						c-0.2,0.5-0.3,0.7-0.6,0.9c-0.5,0.5-1.2,0.8-2.1,0.8c-0.9,0-1.6-0.3-2.1-0.8s-0.8-1.3-0.8-2.2c0-1.8,1.1-3,2.9-3
						c1.4,0,2.4,0.8,2.7,2.1c0.1,0.3,0.1,0.7,0.1,1.2c0,0,0,0.1,0,0.2L139.6,386.8L139.6,386.8z M142,385.6
						c-0.1-0.6-0.5-0.9-1.1-0.9s-1,0.3-1.2,0.9H142z"/>
					<path class="st13" d="M146,387.2c0.1,0.5,0.4,0.7,1,0.7c0.5,0,0.8-0.2,0.8-0.4c0-0.1-0.1-0.3-0.2-0.3s-0.2-0.1-0.7-0.2
						c-0.7-0.1-1-0.2-1.3-0.3c-0.4-0.2-0.7-0.4-0.9-0.6c-0.1-0.2-0.2-0.5-0.2-0.9c0-1.1,0.9-1.7,2.4-1.7c0.9,0,1.5,0.2,1.9,0.6
						c0.3,0.3,0.4,0.5,0.6,1l-1.7,0.2c0-0.4-0.3-0.5-0.8-0.5s-0.8,0.2-0.8,0.4c0,0.2,0.2,0.3,1.1,0.5c0.9,0.2,1.2,0.3,1.5,0.4
						c0.6,0.3,0.9,0.7,0.9,1.4c0,0.5-0.2,0.9-0.5,1.2c-0.4,0.4-1.2,0.7-2.1,0.7c-1.1,0-1.9-0.3-2.4-0.9c-0.2-0.3-0.3-0.5-0.4-0.9
						L146,387.2z"/>
					<path class="st13" d="M151.7,386.8c0.1,0.7,0.5,1.1,1.2,1.1c0.4,0,0.7-0.1,0.9-0.3c0.1-0.1,0.2-0.2,0.3-0.5l1.6,0.4
						c-0.2,0.5-0.3,0.7-0.6,0.9c-0.5,0.5-1.2,0.8-2.1,0.8c-0.9,0-1.6-0.3-2.1-0.8s-0.8-1.3-0.8-2.2c0-1.8,1.1-3,2.9-3
						c1.4,0,2.4,0.8,2.7,2.1c0.1,0.3,0.1,0.7,0.1,1.2c0,0,0,0.1,0,0.2L151.7,386.8L151.7,386.8z M154,385.6
						c-0.1-0.6-0.5-0.9-1.1-0.9s-1,0.3-1.2,0.9H154z"/>
					<path class="st13" d="M156.5,389.1c0.1-0.4,0.1-0.8,0.1-1.4V383c0-0.7,0-1-0.1-1.4h1.8c0,0.4-0.1,0.8-0.1,1.4v0.8
						c0,0.1,0,0.2,0,0.3c0.5-0.5,1.1-0.7,1.9-0.7c1.6,0,2.6,1,2.6,2.8c0,1-0.3,1.7-0.8,2.3c-0.5,0.5-1.1,0.7-1.9,0.7
						c-0.7,0-1.2-0.2-1.8-0.6c0,0,0,0.1,0,0.2v0.3L156.5,389.1L156.5,389.1z M159.7,384.8c-0.8,0-1.4,0.6-1.4,1.5s0.6,1.6,1.4,1.6
						c0.8,0,1.3-0.6,1.3-1.6C160.9,385.4,160.5,384.8,159.7,384.8z"/>
					<path class="st13" d="M169.1,383.6c-0.1,0.4-0.1,0.8-0.1,1.4v2.8c0,0.6,0,1,0.1,1.4h-1.8v-0.4v-0.2c-0.6,0.6-1.1,0.8-1.9,0.8
						c-0.6,0-1.1-0.2-1.4-0.5c-0.4-0.4-0.5-0.8-0.5-1.5v-2.3c0-0.5,0-1-0.1-1.4h1.9c-0.1,0.4-0.1,0.8-0.1,1.4v1.8
						c0,0.4,0,0.5,0.1,0.7s0.3,0.3,0.6,0.3c0.5,0,1-0.4,1.4-0.9v-1.8c0-0.5,0-0.9-0.1-1.4h1.9V383.6z"/>
					<path class="st13" d="M174.1,385.2c-0.4-0.1-0.6-0.2-0.9-0.2c-0.5,0-0.8,0.2-1.1,0.5c-0.2,0.2-0.2,0.4-0.3,0.8v1.4
						c0,0.6,0,0.9,0.1,1.3H170c0.1-0.4,0.1-0.8,0.1-1.4V385c0-0.7,0-1-0.1-1.4h1.8v0.7c0.4-0.6,1-0.8,1.8-0.8c0.3,0,0.5,0,0.9,0.1
						L174.1,385.2z"/>
					<path class="st13" d="M176.2,388.9c0.3,0.4,0.8,0.6,1.4,0.6c0.5,0,0.9-0.1,1.1-0.4c0.2-0.2,0.3-0.5,0.3-1
						c-0.5,0.4-0.9,0.6-1.6,0.6c-1.6,0-2.6-1-2.6-2.7c0-1.6,1-2.7,2.6-2.7c0.7,0,1.2,0.2,1.6,0.5c0-0.1,0-0.1,0-0.2v-0.2h1.8
						c-0.1,0.4-0.1,0.7-0.1,1.3v3.2c0,1.1-0.3,1.8-0.9,2.2c-0.5,0.3-1.2,0.5-2.1,0.5c-1.2,0-2-0.3-2.7-1L176.2,388.9z M177.7,387.5
						c0.7,0,1.3-0.6,1.3-1.4s-0.5-1.4-1.3-1.4c-0.7,0-1.2,0.5-1.2,1.4S177,387.5,177.7,387.5z"/>
					<path class="st13" d="M183.1,386.8c0.1,0.7,0.5,1.1,1.2,1.1c0.4,0,0.7-0.1,0.9-0.3c0.1-0.1,0.2-0.2,0.3-0.5l1.6,0.4
						c-0.2,0.5-0.3,0.7-0.6,0.9c-0.5,0.5-1.2,0.8-2.1,0.8c-0.9,0-1.6-0.3-2.1-0.8s-0.8-1.3-0.8-2.2c0-1.8,1.1-3,2.9-3
						c1.4,0,2.4,0.8,2.7,2.1c0.1,0.3,0.1,0.7,0.1,1.2c0,0,0,0.1,0,0.2L183.1,386.8L183.1,386.8z M185.5,385.6
						c-0.1-0.6-0.5-0.9-1.1-0.9s-1,0.3-1.2,0.9H185.5z"/>
					<path class="st13" d="M191.9,385.2c-0.4-0.1-0.6-0.2-0.9-0.2c-0.5,0-0.8,0.2-1.1,0.5c-0.2,0.2-0.2,0.4-0.3,0.8v1.4
						c0,0.6,0,0.9,0.1,1.3h-1.9c0.1-0.4,0.1-0.8,0.1-1.4V385c0-0.7,0-1-0.1-1.4h1.8v0.7c0.4-0.6,1-0.8,1.8-0.8c0.3,0,0.5,0,0.9,0.1
						L191.9,385.2z"/>
				</g>
				<g>
					<path class="st30" d="M111.1,387.4c0,1.8-1.7,2.7-4.6,2.7s-4.6-0.8-4.6-2.7C101.9,384.7,111.1,384.7,111.1,387.4"/>
					<path class="st31" d="M111,386.2c0,1.8-1.7,2.7-4.6,2.7s-4.6-0.8-4.6-2.7C101.9,383.5,111,383.5,111,386.2"/>
					<path class="st32" d="M101.9,386.2c0-0.8,0.9-1.8,4.6-1.8s4.6,1.1,4.6,1.8c0,1.4-1.3,2.4-4.6,2.4S101.9,387.6,101.9,386.2"/>
					<path class="st33" d="M102,385.4c0-0.8,0.9-1.8,4.5-1.8s4.5,1.1,4.5,1.8c0,1.4-1.3,2.4-4.5,2.4S102,386.8,102,385.4z"/>
					<path class="st34" d="M102.1,384.4c0.2-0.5,0.8-0.5,2.6,0.3c1.8,0.8,2.2,1.2,2,1.7c-0.4,0.8-1.5,1.5-3.1,0.8
						C101.9,386.4,101.6,385.3,102.1,384.4"/>
					<path class="st35" d="M102.2,383.9c0.2-0.5,0.8-0.5,2.6,0.3c1.8,0.8,2.2,1.2,2,1.7c-0.4,0.8-1.5,1.5-3.1,0.8
						C102,385.9,101.8,384.7,102.2,383.9"/>
					<path class="st34" d="M106.1,385.9c-0.1-0.5,0.3-0.8,2.3-1.3c2-0.4,2.5-0.3,2.6,0.2c0.2,0.9-0.2,2-2,2.4
						S106.3,386.8,106.1,385.9"/>
					<path class="st35" d="M105.9,385.4c-0.1-0.5,0.3-0.8,2.3-1.3c2-0.4,2.5-0.3,2.6,0.2c0.2,0.9-0.2,2-2,2.4
						S106.1,386.3,105.9,385.4"/>
					<path class="st36" d="M103,385.3l3.1,2.9l3-2.9H103z"/>
					<path class="st37" d="M110.9,384.6c0,0,0.1,0.5,0,0.7c-0.1,0.1-0.5,0-0.7,0.1s-0.1,0.5-0.3,0.6c-0.2,0.1-0.5-0.2-0.7-0.1
						s-0.2,0.5-0.4,0.5c-0.2,0-0.5-0.3-0.6-0.2s-0.3,0.4-0.5,0.5c-0.2,0-0.4-0.3-0.6-0.3s-0.4,0.4-0.6,0.4s-0.4-0.4-0.6-0.4
						s-0.4,0.3-0.6,0.3s-0.3-0.4-0.5-0.5c-0.2,0-0.5,0.3-0.6,0.2c-0.2-0.1-0.2-0.5-0.4-0.5c-0.2-0.1-0.5,0.2-0.7,0.1
						s-0.1-0.5-0.3-0.6c-0.2-0.1-0.6,0-0.7-0.1c-0.1-0.2,0-0.7,0-0.7H110.9"/>
					<path class="st30" d="M111.1,384.2c0,1-2,1.5-4.6,1.5s-4.6-0.5-4.6-1.5c0-1.8,2-3.3,4.6-3.3C109,380.9,111.1,382.4,111.1,384.2
						z"/>
					<g>
						<path class="st38" d="M104.1,382.8l-0.2,0.2l-0.2-0.2l0.2-0.2L104.1,382.8z"/>
						<path class="st38" d="M105.2,382.4l-0.2,0.2l-0.2-0.2l0.2-0.2L105.2,382.4z"/>
						<path class="st38" d="M105.9,383.5l-0.2,0.2l-0.2-0.2l0.2-0.2L105.9,383.5z"/>
						<path class="st38" d="M106.7,382.7l-0.2,0.2l-0.2-0.2l0.2-0.2L106.7,382.7z"/>
						<path class="st38" d="M109.5,383.3l-0.2,0.2l-0.2-0.2l0.2-0.2L109.5,383.3z"/>
						<path class="st38" d="M110.5,383.4l-0.2,0.2l-0.2-0.2l0.2-0.2L110.5,383.4z"/>
						<path class="st38" d="M108.7,382.3l-0.2,0.2l-0.2-0.2l0.2-0.2L108.7,382.3z"/>
						<path class="st38" d="M104,382.1l-0.2,0.2l-0.2-0.2l0.2-0.2L104,382.1z"/>
						<path class="st38" d="M103.2,382.8L103,383l-0.2-0.2l0.2-0.2L103.2,382.8z"/>
						<path class="st38" d="M104.1,383.8L104,384l-0.2-0.2l0.2-0.2L104.1,383.8z"/>
						<path class="st38" d="M105.9,381.5l-0.2,0.2l-0.2-0.2l0.2-0.2L105.9,381.5z"/>
						<path class="st38" d="M107.4,381.3l-0.2,0.2l-0.2-0.2l0.2-0.2L107.4,381.3z"/>
						<path class="st38" d="M105,381.6l-0.2,0.2l-0.2-0.2l0.2-0.2L105,381.6z"/>
						<path class="st38" d="M109.4,382l-0.2,0.2L109,382l0.2-0.2L109.4,382z"/>
						<path class="st38" d="M107.7,383.9l-0.2,0.2l-0.2-0.2l0.2-0.2L107.7,383.9z"/>
						<path class="st38" d="M107.3,382.8l-0.2,0.2l-0.2-0.2l0.2-0.2L107.3,382.8z"/>
						<path class="st38" d="M108.2,381.9l-0.2,0.2l-0.2-0.2l0.2-0.2L108.2,381.9z"/>
						<path class="st38" d="M108.9,382.9l-0.2,0.2l-0.2-0.2l0.2-0.2L108.9,382.9z"/>
						<path class="st38" d="M109.8,382.5l-0.2,0.2l-0.2-0.2l0.2-0.2L109.8,382.5z"/>
						<path class="st38" d="M109.1,383.9l-0.2,0.2l-0.2-0.2l0.2-0.2L109.1,383.9z"/>
						<path class="st38" d="M103.5,383.5l-0.2,0.2l-0.2-0.2l0.2-0.2L103.5,383.5z"/>
					</g>
				</g>
				<path class="st0" d="M255,385.9c0.3,0.3,0.4,0.7,0.4,1.2s-0.2,1-0.6,1.4c-0.5,0.5-1.4,0.8-2.5,0.8s-2-0.3-2.5-0.8
					c-0.3-0.3-0.5-0.8-0.5-1.4s0.2-1.1,0.7-1.4c0.3-0.2,0.5-0.3,0.9-0.4c-0.4-0.1-0.6-0.2-0.8-0.5c-0.3-0.3-0.4-0.7-0.4-1.1
					s0.1-0.8,0.4-1.1c0.5-0.6,1.3-0.9,2.4-0.9c1.7,0,2.7,0.8,2.7,2c0,0.8-0.4,1.3-1.2,1.6C254.4,385.3,254.7,385.5,255,385.9z
					 M251.1,386.9c0,0.6,0.5,0.9,1.3,0.9s1.3-0.3,1.3-0.9s-0.5-0.9-1.2-0.9C251.6,386,251.1,386.3,251.1,386.9z M251.3,383.8
					c0,0.5,0.4,0.8,1,0.8s1-0.3,1-0.8s-0.4-0.8-1-0.8S251.3,383.3,251.3,383.8z"/>
			</g>
			<g>
				<g>
					<path class="st9" d="M106.4,311.5c-5.6,0-10.1-4.5-10.1-10.1s4.5-10.1,10.1-10.1h146c5.6,0,10.1,4.5,10.1,10.1
						s-4.5,10.1-10.1,10.1H106.4z"/>
					<path class="st9" d="M252.4,291.4c5.5,0,10,4.5,10,10s-4.5,10-10,10h-5.3h-9.3H106.4c-5.5,0-10-4.5-10-10s4.5-10,10-10h131.3
						h9.3H252.4 M252.4,291.2h-5.3h-9.3H106.4c-5.7,0-10.2,4.6-10.2,10.2s4.6,10.2,10.2,10.2h131.3h9.3h5.3
						c5.7,0,10.3-4.6,10.3-10.2C262.6,295.8,258.1,291.2,252.4,291.2L252.4,291.2z"/>
				</g>
				<g>
					<path class="st0" d="M106.4,310.5c-5.6,0-10.1-4.5-10.1-10.1s4.5-10.1,10.1-10.1h146c5.6,0,10.1,4.5,10.1,10.1
						s-4.5,10.1-10.1,10.1H106.4z"/>
					<path class="st9" d="M252.4,290.4c5.5,0,10,4.5,10,10s-4.5,10-10,10h-5.3h-9.3H106.4c-5.5,0-10-4.5-10-10s4.5-10,10-10h131.3
						h9.3H252.4 M252.4,290.2h-5.3h-9.3H106.4c-5.7,0-10.2,4.6-10.2,10.2s4.6,10.2,10.2,10.2h131.3h9.3h5.3
						c5.7,0,10.3-4.6,10.3-10.2C262.6,294.8,258.1,290.2,252.4,290.2L252.4,290.2z"/>
				</g>
				<circle class="st9" cx="106.4" cy="300.4" r="8"/>
				<g>
					<circle class="st12" cx="252.4" cy="300.4" r="8"/>
				</g>
				<g class="st27">
					<path class="st13" d="M119.3,305.6c0-0.4,0.1-0.8,0.1-1.3v-4.4c0-0.6,0-1-0.1-1.4h1.8v0.3c0,0.1,0,0.1,0,0.2
						c0.5-0.5,1.1-0.6,1.8-0.6c0.8,0,1.4,0.2,1.9,0.7s0.7,1.2,0.7,2.1s-0.3,1.7-0.8,2.2s-1.1,0.7-1.9,0.7c-0.4,0-0.9-0.1-1.2-0.2
						c-0.2-0.1-0.4-0.2-0.6-0.4c0,0.1,0,0.2,0,0.3v0.6c0,0.5,0,0.9,0.1,1.3h-1.8V305.6z M123.4,302.3c0.3-0.2,0.4-0.7,0.4-1.2
						c0-0.9-0.5-1.5-1.3-1.5c-0.7,0-1.4,0.7-1.4,1.5s0.6,1.5,1.4,1.5C122.9,302.6,123.2,302.5,123.4,302.3z"/>
					<path class="st13" d="M128.2,298.5c-0.1,0.4-0.1,0.7-0.1,1.4v2.8c0,0.5,0,1,0.1,1.4h-1.9c0.1-0.4,0.1-0.8,0.1-1.4v-2.8
						c0-0.6,0-1-0.1-1.4H128.2z M128.2,296.5v1.4h-1.8v-1.4H128.2z"/>
					<path class="st13" d="M133.5,299.7c-0.3,0.4-0.6,0.6-0.8,0.8l-1.5,1.7c-0.1,0.1-0.1,0.1-0.2,0.2c0.1,0,0.2,0,0.3,0h1
						c0.6,0,1,0,1.4-0.1v1.6c-0.4,0-0.7-0.1-1.4-0.1H130c-0.7,0-0.9,0-1.2,0v-1.4c0.4-0.3,0.6-0.6,0.8-0.8l1.5-1.7
						c0,0,0.1-0.1,0.2-0.2c0,0-0.2,0-0.3,0h-0.6c-0.6,0-0.9,0-1.4,0.1v-1.6c0.5,0,0.8,0.1,1.4,0.1h1.9c0.8,0,0.9,0,1.2,0
						L133.5,299.7L133.5,299.7z"/>
					<path class="st13" d="M138.8,299.7c-0.3,0.4-0.6,0.6-0.8,0.8l-1.5,1.7c-0.1,0.1-0.1,0.1-0.2,0.2c0.1,0,0.2,0,0.3,0h1
						c0.6,0,1,0,1.4-0.1v1.6c-0.4,0-0.7-0.1-1.4-0.1h-2.3c-0.7,0-0.9,0-1.2,0v-1.4c0.4-0.3,0.6-0.6,0.8-0.8l1.5-1.7
						c0,0,0.1-0.1,0.2-0.2c0,0-0.2,0-0.3,0h-0.6c-0.6,0-0.9,0-1.4,0.1v-1.6c0.5,0,0.8,0.1,1.4,0.1h1.9c0.8,0,0.9,0,1.2,0
						L138.8,299.7L138.8,299.7z"/>
					<path class="st13" d="M143.3,300.2c0-0.4-0.3-0.6-0.9-0.6c-0.6,0-0.9,0.2-1,0.6l-1.7-0.3c0.2-0.5,0.4-0.8,0.8-1.1
						c0.5-0.3,1.2-0.5,2-0.5c0.7,0,1.3,0.1,1.7,0.3c0.6,0.3,0.8,0.8,0.8,1.6v2.4c0,0.5,0,0.9,0.1,1.3h-1.7v-0.4
						c-0.5,0.4-1,0.5-1.7,0.5s-1.2-0.2-1.6-0.5c-0.3-0.3-0.5-0.7-0.5-1.2c0-0.6,0.2-1,0.7-1.3s1.1-0.5,1.9-0.6c0.4,0,0.6,0,1.3-0.1
						v-0.1H143.3z M143.3,301.6c-0.8,0-1.2,0.1-1.6,0.2c-0.3,0.1-0.5,0.3-0.5,0.6c0,0.3,0.3,0.5,0.7,0.5s0.8-0.1,1-0.3
						c0.2-0.2,0.3-0.4,0.3-0.7v-0.3H143.3z"/>
				</g>
				<g>
					<path class="st39" d="M101.1,298.5c0,0-0.5,0.3-0.6,0.6c-0.1,0.3,0.1,0.7,0.2,0.9s0.3,0.5,0.6,0.5c0.2,0.1,0.4,0.1,0.4,0.1
						s0.5,0.6,1.5,1.4s2.2,1.8,3.6,2.6c1.4,0.8,1.9,1,2.3,1s0.4-0.6,0.3-0.7c0-0.2-2.5-2.9-2.5-2.9L101.1,298.5z"/>
					<path class="st40" d="M102.1,299.9l-0.4-0.4c0,0-0.4-0.7-0.7-0.7c-0.3,0-0.5,0.3-0.5,0.3s0-0.4,0.4-1.1s1-1.3,1.5-1.6
						s1.1-0.8,1.5-1s1.3-0.5,1.8-0.7s1.6-0.4,2.1-0.3s0.7,0.5,0.7,0.8s-0.1,0.6-0.2,0.7s-0.6,0.5-0.6,0.5L102.1,299.9z"/>
					<path class="st41" d="M103.1,298.3l-0.9,0.6l-0.4,0.7c0,0,0.1,0.2,0.2,0.4c0.1,0.1,1.1,1.1,1.8,1.7c0.5,0.5,1.7,1.5,1.7,1.5
						s0,0.5,0.1,0.8c0,0.3,0,0.7,0.3,0.7c0.4,0,0.2-0.8,0.4-0.8c0.6,0,0,1.6,0.6,1.6c0.5,0,0.2-0.9,0.4-1c0.1-0.1,0.4,0.3,0.8,0.5
						c0.5,0.2,0.9,0.4,1,0.3c0.4-0.2-0.4-4.2-0.5-4.9c-0.1-0.7-0.5-4.2-0.6-4.3c0-0.1-0.6-0.1-0.6-0.1l-0.9,0.3l-1.3,0.2l-1.5,0.9
						L103.1,298.3z"/>
					<path class="st42" d="M102.9,298.2c-0.3,0.2-0.7,0.3-1,0.8c-0.3,0.4-0.3,0.9-0.1,0.9c0.2,0,0.3-0.6,0.6-0.9
						c0.4-0.4,0.7-0.4,0.9-0.6c0.2-0.2,0.5-0.8,1.4-1.3c1.1-0.6,1.8-0.4,2-0.5c0.3-0.1,0.4-0.3,0.8-0.4s0.8,0.1,0.8,0.1
						s0.1-0.2,0-0.3c-0.1-0.1-0.4-0.2-0.8-0.1c-0.5,0.1-0.8,0.4-0.9,0.4s-1,0-2.2,0.6C103.3,297.4,103.1,298.1,102.9,298.2z"/>
					<path class="st43" d="M104.2,299.2l-1.5,0.3c0,0,0,0.3,0,0.4c0.1,0.3,0.4,0.7,0.7,0.8s0.7,0.1,0.8,0s0.6-0.4,0.7-0.6
						s0-0.9-0.1-1C104.6,299,104.2,299.2,104.2,299.2z"/>
					<path class="st44" d="M103.1,298.7c-0.2,0.1-0.5,0.5-0.4,0.8c0,0.3,0.5,0.8,0.7,0.9c0.1,0.1,0.6,0.1,0.7,0
						c0.1,0,0.6-0.4,0.6-0.5c0.1-0.1,0.1-0.8,0-0.9s-0.4-0.5-0.7-0.5C103.8,298.5,103.3,298.6,103.1,298.7z"/>
					<path class="st43" d="M107,300.2c0,0-1.3-0.1-1.3,0s0,0.4,0,0.7c0.1,0.2,0.2,0.5,0.6,0.7s0.9,0,1-0.1c0.2-0.2,0.3-0.4,0.4-0.5
						C107.7,300.8,107,300.2,107,300.2z"/>
					<path class="st44" d="M106.3,299.5c-0.2,0.1-0.7,0.4-0.7,0.7c0,0.3,0.2,0.7,0.4,0.8s0.5,0.3,0.9,0.3c0.3,0,0.7-0.3,0.8-0.4
						c0.1-0.1,0.1-0.5,0.1-0.7s-0.5-0.7-0.7-0.7C106.8,299.4,106.5,299.4,106.3,299.5z"/>
					<path class="st43" d="M106.3,302.6l-1.2-0.3c0,0-0.2,0.2-0.1,0.3c0,0.1,0.5,0.4,0.6,0.6c0.2,0.2,0.7,0.5,0.8,0.5
						c0.2,0,0.3-0.3,0.3-0.3L106.3,302.6z"/>
					<path class="st44" d="M106.4,302.1c-0.3-0.2-0.7-0.2-1-0.1s-0.4,0.3-0.4,0.4s0.2,0.3,0.2,0.4c0.1,0.1,0.3,0.2,0.3,0.2
						s0.3,0.3,0.5,0.4s0.4,0.2,0.5,0.2s0.3-0.3,0.3-0.8C106.7,302.5,106.6,302.3,106.4,302.1z"/>
					<path class="st43" d="M108.5,301.4H108c0,0-0.2,0.3-0.1,0.7c0.1,0.3,0.3,0.5,0.7,0.6c0.4,0.1,0.6,0.1,0.6,0.1v-0.3L108.5,301.4
						z"/>
					<path class="st44" d="M108.9,300.8c0,0-0.6-0.1-0.8,0.5c-0.2,0.4-0.1,0.7,0.1,0.9c0.2,0.2,0.4,0.3,0.6,0.3s0.4,0,0.4,0
						s-0.1-0.5-0.2-0.9C109,301.3,108.9,300.8,108.9,300.8z"/>
					<path class="st43" d="M107.3,297.2c0,0-1.1,0-1.2,0.1s-0.1,0.6,0,0.8s0.3,0.7,0.9,0.7s0.8-0.1,1-0.6s0-0.9,0-0.9L107.3,297.2z"
						/>
					<path class="st44" d="M107.3,296.7c-0.2,0-0.6,0.1-0.7,0.2s-0.4,0.3-0.4,0.5s0.1,0.7,0.2,0.7c0.1,0.1,0.3,0.3,0.4,0.4
						c0.2,0.1,0.7,0,0.8,0s0.5-0.4,0.6-0.5c0-0.2,0.1-0.5-0.1-0.8S107.5,296.7,107.3,296.7z"/>
					<path class="st43" d="M108.8,303.8h-1c0,0-0.1,0.3-0.1,0.5s0.2,0.4,0.5,0.6c0.2,0.1,0.6,0,0.7,0c0.2-0.1,0.3-0.4,0.3-0.5
						C109.2,304.1,108.8,303.8,108.8,303.8z"/>
					<path class="st44" d="M108.6,303.3c-0.3,0-0.5,0.1-0.7,0.2c-0.1,0.1-0.1,0.3-0.1,0.5c0.1,0.4,0.3,0.5,0.4,0.5
						c0.2,0.1,0.6,0.1,0.7,0s0.2-0.3,0.2-0.5C109.2,303.7,109.1,303.4,108.6,303.3z"/>
					<path class="st45" d="M102.5,297c0,0.2,0.4,0.2,0.5,0.2s0.4,0,0.4-0.2s-0.2-0.2-0.4-0.2C102.8,296.7,102.5,296.8,102.5,297z"/>
					<path class="st45" d="M104.4,295.8c0,0.1,0.1,0.1,0.2,0.2c0.1,0,0.2,0,0.2-0.1s-0.1-0.2-0.2-0.2
						C104.5,295.6,104.4,295.7,104.4,295.8z"/>
					<path class="st45" d="M105.3,296.1c0.1,0.1,0.3,0,0.4-0.1s0.1-0.2,0-0.3s-0.2,0-0.3,0.1C105.3,295.8,105.2,296,105.3,296.1z"/>
					<path class="st45" d="M106.8,295.4c0.2,0.2,0.4-0.1,0.5-0.2s0.2-0.2,0.1-0.4c-0.1-0.1-0.3,0-0.4,0.2
						C106.9,295,106.7,295.2,106.8,295.4z"/>
					<path class="st45" d="M101.7,298.5c0.2,0,0.2-0.1,0.2-0.3c0-0.1,0-0.3-0.1-0.3s-0.2,0.1-0.2,0.2
						C101.6,298.2,101.5,298.4,101.7,298.5z"/>
				</g>
				<path class="st0" d="M253.8,298.7c-0.2-0.5-0.4-0.7-1-0.7c-0.5,0-0.9,0.3-1.2,0.7c-0.1,0.3-0.2,0.6-0.3,1.1
					c0.2-0.2,0.3-0.3,0.5-0.4c0.3-0.2,0.7-0.2,1.1-0.2c1.6,0,2.6,0.9,2.6,2.4s-1.2,2.5-2.9,2.5c-0.9,0-1.7-0.3-2.2-0.9
					c-0.6-0.6-0.9-1.6-0.9-2.8c0-1.1,0.3-2.1,0.7-2.7c0.6-0.8,1.4-1.2,2.4-1.2c0.8,0,1.6,0.3,2,0.8c0.3,0.3,0.4,0.5,0.6,1
					L253.8,298.7z M251.5,301.6c0,0.6,0.5,1.1,1.2,1.1s1.2-0.5,1.2-1.1c0-0.7-0.4-1.1-1.2-1.1C252,300.5,251.5,301,251.5,301.6z"/>
			</g>
			<g>
				<g>
					<path class="st9" d="M106.4,425c-5.6,0-10.1-4.5-10.1-10.1s4.5-10.1,10.1-10.1h146c5.6,0,10.1,4.5,10.1,10.1S258,425,252.4,425
						H106.4z"/>
					<path class="st9" d="M252.4,404.9c5.5,0,10,4.5,10,10s-4.5,10-10,10h-5.3h-9.3H106.4c-5.5,0-10-4.5-10-10s4.5-10,10-10h131.3
						h9.3H252.4 M252.4,404.7h-5.3h-9.3H106.4c-5.7,0-10.2,4.6-10.2,10.2s4.6,10.2,10.2,10.2h131.3h9.3h5.3
						c5.7,0,10.3-4.6,10.3-10.2C262.6,409.3,258.1,404.7,252.4,404.7L252.4,404.7z"/>
				</g>
				<g>
					<path class="st0" d="M106.4,424c-5.6,0-10.1-4.5-10.1-10.1s4.5-10.1,10.1-10.1h146c5.6,0,10.1,4.5,10.1,10.1S258,424,252.4,424
						H106.4z"/>
					<path class="st9" d="M252.4,403.9c5.5,0,10,4.5,10,10s-4.5,10-10,10h-5.3h-9.3H106.4c-5.5,0-10-4.5-10-10s4.5-10,10-10h131.3
						h9.3H252.4 M252.4,403.7h-5.3h-9.3H106.4c-5.7,0-10.2,4.6-10.2,10.2s4.6,10.2,10.2,10.2h131.3h9.3h5.3
						c5.7,0,10.3-4.6,10.3-10.2C262.6,408.3,258.1,403.7,252.4,403.7L252.4,403.7z"/>
				</g>
				<circle class="st9" cx="106.4" cy="413.9" r="8"/>
				<g>
					<circle class="st12" cx="252.4" cy="413.9" r="8"/>
				</g>
				<g class="st27">
					<path class="st13" d="M119.3,419.1c0-0.4,0.1-0.8,0.1-1.3v-4.4c0-0.6,0-1-0.1-1.4h1.8v0.3c0,0.1,0,0.1,0,0.2
						c0.5-0.5,1.1-0.6,1.8-0.6c0.8,0,1.4,0.2,1.9,0.7s0.7,1.2,0.7,2.1s-0.3,1.7-0.8,2.2s-1.1,0.7-1.9,0.7c-0.4,0-0.9-0.1-1.2-0.2
						c-0.2-0.1-0.4-0.2-0.6-0.4c0,0.1,0,0.2,0,0.3v0.6c0,0.5,0,0.9,0.1,1.3h-1.8V419.1z M123.4,415.8c0.3-0.2,0.4-0.7,0.4-1.2
						c0-0.9-0.5-1.5-1.3-1.5c-0.7,0-1.4,0.7-1.4,1.5s0.6,1.5,1.4,1.5C122.9,416.1,123.2,416,123.4,415.8z"/>
					<path class="st13" d="M127.7,415.2c0.1,0.7,0.5,1.1,1.2,1.1c0.4,0,0.7-0.1,0.9-0.3c0.1-0.1,0.2-0.2,0.3-0.5l1.6,0.4
						c-0.2,0.5-0.3,0.7-0.6,0.9c-0.5,0.5-1.2,0.8-2.1,0.8c-0.9,0-1.6-0.3-2.1-0.8s-0.8-1.3-0.8-2.2c0-1.8,1.1-3,2.9-3
						c1.4,0,2.4,0.8,2.7,2.1c0.1,0.3,0.1,0.7,0.1,1.2c0,0,0,0.1,0,0.2L127.7,415.2L127.7,415.2z M130.1,414
						c-0.1-0.6-0.5-0.9-1.1-0.9s-1,0.3-1.2,0.9H130.1z"/>
					<path class="st13" d="M136.1,413.7c0-0.4-0.3-0.6-0.9-0.6c-0.6,0-0.9,0.2-1,0.6l-1.7-0.3c0.2-0.5,0.4-0.8,0.8-1.1
						c0.5-0.3,1.2-0.5,2-0.5c0.7,0,1.3,0.1,1.7,0.3c0.6,0.3,0.8,0.8,0.8,1.6v2.4c0,0.5,0,0.9,0.1,1.3h-1.7V417
						c-0.5,0.4-1,0.5-1.7,0.5s-1.2-0.2-1.6-0.5c-0.3-0.3-0.5-0.7-0.5-1.2c0-0.6,0.2-1,0.7-1.3s1.1-0.5,1.9-0.6c0.4,0,0.6,0,1.3-0.1
						v-0.1H136.1z M136.1,415.1c-0.8,0-1.2,0.1-1.6,0.2c-0.3,0.1-0.5,0.3-0.5,0.6c0,0.3,0.3,0.5,0.7,0.5s0.8-0.1,1-0.3
						c0.2-0.2,0.3-0.4,0.3-0.7v-0.3H136.1z"/>
					<path class="st13" d="M142.9,413.6c-0.4-0.1-0.6-0.2-0.9-0.2c-0.5,0-0.8,0.2-1.1,0.5c-0.2,0.2-0.2,0.4-0.3,0.8v1.4
						c0,0.6,0,0.9,0.1,1.4h-1.9c0.1-0.5,0.1-0.8,0.1-1.4v-2.8c0-0.7,0-1-0.1-1.4h1.8v0.7c0.4-0.6,1-0.8,1.8-0.8c0.3,0,0.5,0,0.9,0.1
						L142.9,413.6z"/>
					<path class="st13" d="M145.4,415.6c0.1,0.5,0.4,0.7,1,0.7c0.5,0,0.8-0.2,0.8-0.4c0-0.1-0.1-0.3-0.2-0.3s-0.2-0.1-0.7-0.2
						c-0.7-0.1-1-0.2-1.3-0.3c-0.4-0.2-0.7-0.4-0.9-0.6c-0.1-0.2-0.2-0.5-0.2-0.9c0-1.1,0.9-1.7,2.4-1.7c0.9,0,1.5,0.2,1.9,0.6
						c0.3,0.3,0.4,0.5,0.6,1l-1.7,0.2c0-0.4-0.3-0.5-0.8-0.5s-0.8,0.2-0.8,0.4c0,0.2,0.2,0.3,1.1,0.5c0.9,0.2,1.2,0.3,1.5,0.4
						c0.6,0.3,0.9,0.7,0.9,1.4c0,0.5-0.2,0.9-0.5,1.2c-0.4,0.4-1.2,0.7-2.1,0.7c-1.1,0-1.9-0.3-2.4-0.9c-0.2-0.3-0.3-0.5-0.4-0.9
						L145.4,415.6z"/>
				</g>
				<g>
					<path class="st46" d="M108.6,413.2c-0.6-1-0.6-2.6-2.1-2.6s-1.4,1.7-2,2.6c-0.4,0.7-1.3,1.7-1.3,2.7c0,3.6,6.7,3.6,6.7,0
						C109.9,414.8,109.1,413.9,108.6,413.2"/>
					<path class="st47" d="M106.7,409.1c0,0-0.2,0-0.2,0.1c0.3,0.7-0.1,1.3-0.1,1.4c-0.1,0.1,0.1,0.2,0.3,0.1
						C106.6,410.6,107,409.8,106.7,409.1"/>
					<path class="st37" d="M104.4,409.6c-0.7,0.9-1.9,1.3-1.9,1.3s2.5,0.6,3.7-0.7c0.4-0.3,0.3-1,0.3-1S105.2,408.7,104.4,409.6z"/>
					<path class="st48" d="M106.6,409.2c-0.2,0-0.3,0-0.5,0.1c-0.2,0-0.4,0.1-0.6,0.2c-0.3,0.2-0.7,0.4-1,0.6s-0.6,0.4-1,0.5
						c-0.3,0.1-0.7,0.2-1,0.3c0.2,0,0.3,0,0.5-0.1s0.4-0.1,0.5-0.2c0.4-0.1,0.7-0.3,1-0.5s0.6-0.4,0.9-0.6
						C105.9,409.4,106.2,409.3,106.6,409.2"/>
				</g>
				<path class="st0" d="M250.2,416.9c-0.3-0.3-0.5-0.6-0.6-1c-0.2-0.6-0.3-1.3-0.3-2c0-0.9,0.2-1.9,0.5-2.4
					c0.5-0.9,1.4-1.4,2.5-1.4c0.8,0,1.6,0.3,2.1,0.8c0.3,0.3,0.5,0.6,0.6,1c0.2,0.6,0.3,1.3,0.3,2c0,0.9-0.2,1.9-0.5,2.4
					c-0.5,0.9-1.4,1.3-2.5,1.3C251.4,417.7,250.7,417.4,250.2,416.9z M251,413.9c0,1.5,0.4,2.3,1.3,2.3c0.8,0,1.3-0.8,1.3-2.3
					s-0.4-2.3-1.3-2.3C251.5,411.6,251,412.5,251,413.9z"/>
			</g>
			<g>
				<g>
					<path class="st9" d="M106.4,453.4c-5.6,0-10.1-4.5-10.1-10.1s4.5-10.1,10.1-10.1h146c5.6,0,10.1,4.5,10.1,10.1
						s-4.5,10.1-10.1,10.1H106.4z"/>
					<path class="st9" d="M252.4,433.3c5.5,0,10,4.5,10,10s-4.5,10-10,10h-5.3h-9.3H106.4c-5.5,0-10-4.5-10-10s4.5-10,10-10h131.3
						h9.3H252.4 M252.4,433h-5.3h-9.3H106.4c-5.7,0-10.2,4.6-10.2,10.2s4.6,10.2,10.2,10.2h131.3h9.3h5.3c5.7,0,10.3-4.6,10.3-10.2
						S258.1,433,252.4,433L252.4,433z"/>
				</g>
				<g>
					<path class="st0" d="M106.4,452.4c-5.6,0-10.1-4.5-10.1-10.1s4.5-10.1,10.1-10.1h146c5.6,0,10.1,4.5,10.1,10.1
						s-4.5,10.1-10.1,10.1H106.4z"/>
					<path class="st9" d="M252.4,432.3c5.5,0,10,4.5,10,10s-4.5,10-10,10h-5.3h-9.3H106.4c-5.5,0-10-4.5-10-10s4.5-10,10-10h131.3
						h9.3H252.4 M252.4,432h-5.3h-9.3H106.4c-5.7,0-10.2,4.6-10.2,10.2s4.6,10.2,10.2,10.2h131.3h9.3h5.3c5.7,0,10.3-4.6,10.3-10.2
						S258.1,432,252.4,432L252.4,432z"/>
				</g>
				<circle class="st9" cx="106.4" cy="442.3" r="8"/>
				<g>
					<circle class="st12" cx="252.4" cy="442.3" r="8"/>
				</g>
				<path class="st0" d="M250.7,438.4c0.3,0.1,0.5,0.1,1,0.1h1.1c0.6,0,0.7,0,1.1,0c0,0.5-0.1,0.8-0.1,1.4v4.5c0,0.5,0,0.9,0.1,1.3
					H252c0.1-0.4,0.1-0.8,0.1-1.3V440h-0.3c-0.3,0-0.7,0-1.1,0.1V438.4z"/>
				<g class="st27">
					<path class="st13" d="M119.3,447.5c0-0.4,0.1-0.8,0.1-1.3v-4.4c0-0.6,0-1-0.1-1.4h1.8v0.3c0,0.1,0,0.1,0,0.2
						c0.5-0.5,1.1-0.6,1.8-0.6c0.8,0,1.4,0.2,1.9,0.7s0.7,1.2,0.7,2.1s-0.3,1.7-0.8,2.2s-1.1,0.7-1.9,0.7c-0.4,0-0.9-0.1-1.2-0.2
						c-0.2-0.1-0.4-0.2-0.6-0.4c0,0.1,0,0.2,0,0.3v0.6c0,0.5,0,0.9,0.1,1.3h-1.8V447.5z M123.4,444.2c0.3-0.2,0.4-0.7,0.4-1.2
						c0-0.9-0.5-1.5-1.3-1.5c-0.7,0-1.4,0.7-1.4,1.5s0.6,1.5,1.4,1.5C122.9,444.5,123.2,444.4,123.4,444.2z"/>
					<path class="st13" d="M128.2,440.3c-0.1,0.4-0.1,0.7-0.1,1.4v2.8c0,0.5,0,1,0.1,1.4h-1.9c0.1-0.4,0.1-0.8,0.1-1.4v-2.8
						c0-0.6,0-1-0.1-1.4H128.2z M128.2,438.3v1.4h-1.8v-1.4H128.2z"/>
					<path class="st13" d="M129.1,445.8c0.1-0.4,0.1-0.8,0.1-1.4v-2.8c0-0.6,0-1-0.1-1.4h1.8v0.4c0,0.1,0,0.2,0,0.3
						c0.6-0.5,1.1-0.8,1.9-0.8c0.6,0,1.1,0.2,1.4,0.5c0.4,0.4,0.5,0.8,0.5,1.5v2.3c0,0.5,0,1,0.1,1.4h-1.9c0.1-0.4,0.1-0.8,0.1-1.4
						v-1.8c0-0.4,0-0.5-0.1-0.7s-0.3-0.3-0.6-0.3c-0.5,0-1,0.3-1.3,0.9v1.8c0,0.5,0,0.9,0.1,1.4h-2V445.8z"/>
					<path class="st13" d="M137.2,443.6c0.1,0.7,0.5,1.1,1.2,1.1c0.4,0,0.7-0.1,0.9-0.3c0.1-0.1,0.2-0.2,0.3-0.5l1.6,0.4
						c-0.2,0.5-0.3,0.7-0.6,0.9c-0.5,0.5-1.2,0.8-2.1,0.8c-0.9,0-1.6-0.3-2.1-0.8s-0.8-1.3-0.8-2.2c0-1.8,1.1-3,2.9-3
						c1.4,0,2.4,0.8,2.7,2.1c0.1,0.3,0.1,0.7,0.1,1.2c0,0,0,0.1,0,0.2L137.2,443.6L137.2,443.6z M139.5,442.4
						c-0.1-0.6-0.5-0.9-1.1-0.9s-1,0.3-1.2,0.9H139.5z"/>
					<path class="st13" d="M145.5,442.1c0-0.4-0.3-0.6-0.9-0.6c-0.6,0-0.9,0.2-1,0.6l-1.7-0.3c0.2-0.5,0.4-0.8,0.8-1.1
						c0.5-0.3,1.2-0.5,2-0.5c0.7,0,1.3,0.1,1.7,0.3c0.6,0.3,0.8,0.8,0.8,1.6v2.4c0,0.5,0,0.9,0.1,1.3h-1.7v-0.4
						c-0.5,0.4-1,0.5-1.7,0.5s-1.2-0.2-1.6-0.5c-0.3-0.3-0.5-0.7-0.5-1.2c0-0.6,0.2-1,0.7-1.3s1.1-0.5,1.9-0.6c0.4,0,0.6,0,1.3-0.1
						v-0.1H145.5z M145.5,443.4c-0.8,0-1.2,0.1-1.6,0.2c-0.3,0.1-0.5,0.3-0.5,0.6c0,0.3,0.3,0.5,0.7,0.5s0.8-0.1,1-0.3
						c0.2-0.2,0.3-0.4,0.3-0.7v-0.3H145.5z"/>
					<path class="st13" d="M148.2,447.5c0-0.4,0.1-0.8,0.1-1.3v-4.4c0-0.6,0-1-0.1-1.4h1.8v0.3c0,0.1,0,0.1,0,0.2
						c0.5-0.5,1.1-0.6,1.8-0.6c0.8,0,1.4,0.2,1.9,0.7s0.7,1.2,0.7,2.1s-0.3,1.7-0.8,2.2s-1.1,0.7-1.9,0.7c-0.4,0-0.9-0.1-1.2-0.2
						c-0.2-0.1-0.4-0.2-0.6-0.4c0,0.1,0,0.2,0,0.3v0.6c0,0.5,0,0.9,0.1,1.3h-1.8V447.5z M152.3,444.2c0.3-0.2,0.4-0.7,0.4-1.2
						c0-0.9-0.5-1.5-1.3-1.5c-0.7,0-1.4,0.7-1.4,1.5s0.6,1.5,1.4,1.5C151.8,444.5,152.1,444.4,152.3,444.2z"/>
					<path class="st13" d="M155.2,447.5c0-0.4,0.1-0.8,0.1-1.3v-4.4c0-0.6,0-1-0.1-1.4h1.8v0.3c0,0.1,0,0.1,0,0.2
						c0.5-0.5,1.1-0.6,1.8-0.6c0.8,0,1.4,0.2,1.9,0.7s0.7,1.2,0.7,2.1s-0.3,1.7-0.8,2.2s-1.1,0.7-1.9,0.7c-0.4,0-0.9-0.1-1.2-0.2
						c-0.2-0.1-0.4-0.2-0.6-0.4c0,0.1,0,0.2,0,0.3v0.6c0,0.5,0,0.9,0.1,1.3h-1.8V447.5z M159.3,444.2c0.3-0.2,0.4-0.7,0.4-1.2
						c0-0.9-0.5-1.5-1.3-1.5c-0.7,0-1.4,0.7-1.4,1.5s0.6,1.5,1.4,1.5C158.7,444.5,159.1,444.4,159.3,444.2z"/>
					<path class="st13" d="M164,438.3c-0.1,0.4-0.1,0.7-0.1,1.4v4.8c0,0.5,0,0.9,0.1,1.4h-1.9c0.1-0.4,0.1-0.7,0.1-1.4v-4.8
						c0-0.6,0-1-0.1-1.4H164z"/>
					<path class="st13" d="M166.4,443.6c0.1,0.7,0.5,1.1,1.2,1.1c0.4,0,0.7-0.1,0.9-0.3c0.1-0.1,0.2-0.2,0.3-0.5l1.6,0.4
						c-0.2,0.5-0.3,0.7-0.6,0.9c-0.5,0.5-1.2,0.8-2.1,0.8c-0.9,0-1.6-0.3-2.1-0.8s-0.8-1.3-0.8-2.2c0-1.8,1.1-3,2.9-3
						c1.4,0,2.4,0.8,2.7,2.1c0.1,0.3,0.1,0.7,0.1,1.2c0,0,0,0.1,0,0.2L166.4,443.6L166.4,443.6z M168.7,442.4
						c-0.1-0.6-0.5-0.9-1.1-0.9s-1,0.3-1.2,0.9H168.7z"/>
				</g>
				<g>
					<g>
						<path class="st49" d="M104,438.9c0.8,0.8,0.9,1.3,0.7,1.6c-0.3,0.3-0.8,0.1-1.6-0.7c-0.8-0.8-1.3-2.2-1.3-2.2
							S103.2,438.1,104,438.9"/>
						<path class="st49" d="M105,439.3c0.5,1,0.4,1.5,0.1,1.7c-0.3,0.1-0.8-0.1-1.2-1.1s-0.4-2.5-0.4-2.5S104.6,438.3,105,439.3"/>
						<path class="st49" d="M106,440.5c-0.5,1-0.9,1.3-1.2,1.1c-0.3-0.1-0.4-0.7,0.1-1.7s1.6-1.9,1.6-1.9S106.4,439.5,106,440.5"/>
						<path class="st49" d="M105.5,440c-0.1,1.1-0.4,1.5-0.7,1.5c-0.4,0-0.6-0.5-0.6-1.6c0.1-1.1,0.8-2.4,0.8-2.4
							S105.6,438.8,105.5,440"/>
						<path class="st49" d="M106.5,440.9c-0.7,0.8-1.2,1-1.5,0.8s-0.2-0.8,0.5-1.6c0.7-0.8,2.1-1.4,2.1-1.4S107.3,440.1,106.5,440.9
							"/>
						<path class="st49" d="M103.5,440.9c1,0.5,1.5,0.4,1.7,0.1s-0.1-0.8-1.1-1.2c-1-0.5-2.5-0.4-2.5-0.4S102.5,440.4,103.5,440.9"
							/>
						<path class="st49" d="M104.6,441.8c1-0.5,1.3-0.9,1.1-1.2c-0.1-0.3-0.7-0.4-1.7,0.1s-1.9,1.6-1.9,1.6S103.7,442.3,104.6,441.8
							"/>
						<path class="st49" d="M104.1,441.4c1.1-0.1,1.5-0.4,1.5-0.7c0-0.4-0.5-0.6-1.6-0.6s-2.4,0.8-2.4,0.8S103,441.4,104.1,441.4"/>
						<path class="st49" d="M105.1,442.4c0.8-0.7,1-1.2,0.8-1.5s-0.8-0.2-1.6,0.5c-0.8,0.7-1.4,2.1-1.4,2.1S104.2,443.1,105.1,442.4
							"/>
					</g>
					<path class="st50" d="M110.2,442.1c1.3,1.3,0.9,2.7-0.2,3.8c-1.1,1.1-2.5,1.4-3.8,0.2c-1.3-1.3-2.3-4.1-1.3-5.2
						C106.1,439.7,108.9,440.8,110.2,442.1"/>
					<g>
						<path class="st30" d="M108.8,444.6c-0.2,0.2-0.3,0.7-0.2,0.8s0.7,0,0.8-0.2c0.2-0.2,0.3-0.7,0.2-0.8S108.9,444.4,108.8,444.6"
							/>
						<path class="st30" d="M109.7,445.5c-0.2,0.2-0.3,0.7-0.1,0.9s1.2-0.9,1-1C110.4,445.2,109.8,445.4,109.7,445.5"/>
						<path class="st30" d="M106.8,442.6c-0.2,0.2-0.3,0.7-0.2,0.8s0.7,0,0.8-0.2c0.2-0.2,0.3-0.7,0.2-0.8S107,442.5,106.8,442.6"/>
						<path class="st30" d="M107.8,443.6c-0.2,0.2-0.3,0.7-0.2,0.8s0.7,0,0.8-0.2c0.2-0.2,0.3-0.7,0.2-0.8S107.9,443.5,107.8,443.6"
							/>
						<path class="st30" d="M105.9,441.7c-0.2,0.2-0.3,0.7-0.2,0.8s0.7,0,0.8-0.2c0.2-0.2,0.3-0.7,0.2-0.8S106,441.6,105.9,441.7z"
							/>
						<path class="st30" d="M105.9,445.4c-0.2,0.2-0.2,0.9,0.6,1.1c0.2,0,0.6-1.2,0.4-1.3C106.6,444.9,106,445.2,105.9,445.4"/>
						<path class="st30" d="M107.1,446.3c-0.6,0.6,0.4,0.9,0.7,0.5c0.1-0.1,0.2-0.5,0-0.7C107.7,446,107.2,446.1,107.1,446.3"/>
						<path class="st30" d="M107.3,444.9c-0.2,0.2-0.3,0.8-0.2,1s0.8,0,1-0.2s0.2-0.8,0.1-0.9C108.1,444.6,107.5,444.7,107.3,444.9"
							/>
						<path class="st30" d="M108.3,445.9c-0.2,0.2-0.3,0.7-0.1,0.9c0.3,0.3,0.8,0,0.9-0.1c0.2-0.2,0.2-0.8,0.1-0.9
							C109.1,445.6,108.5,445.7,108.3,445.9"/>
						<path class="st30" d="M106.4,444c-0.2,0.2-0.4,0.8-0.2,0.9s0.8,0,1-0.2s0.3-0.7,0.1-0.9S106.5,443.8,106.4,444"/>
						<path class="st30" d="M104.5,442.1c-0.2,0.2-0.2,0.6-0.1,0.7s0.6,0.1,0.7-0.1c0.2-0.2,0.3-0.7,0.2-0.8
							S104.7,441.9,104.5,442.1"/>
						<path class="st30" d="M104.5,443.2c-0.1,0.1,0.1,1,0.3,0.9c0.1-0.1,0.4-0.7,0.2-0.9S104.7,443,104.5,443.2"/>
						<path class="st30" d="M105.1,444.3c-0.2,0.2-0.2,1,0.3,1.1c0.2,0,0.7-1,0.5-1.2C105.8,444.1,105.3,444.2,105.1,444.3"/>
						<path class="st30" d="M105.4,443c-0.2,0.2-0.3,0.7-0.1,0.9s0.8,0,0.9-0.1c0.2-0.2,0.3-0.7,0.1-0.9S105.6,442.8,105.4,443"/>
						<path class="st30" d="M109.5,441.7c0.2-0.2,0.9-0.2,1.1,0.6c0,0.2-1.2,0.6-1.3,0.4C109,442.4,109.4,441.9,109.5,441.7"/>
						<path class="st30" d="M110.4,442.9c0.6-0.6,0.9,0.4,0.5,0.7c-0.1,0.1-0.5,0.2-0.7,0C110.1,443.5,110.3,443,110.4,442.9"/>
						<path class="st30" d="M109.1,443.2c0.2-0.2,0.8-0.3,1-0.2c0.1,0.1,0,0.8-0.2,1s-0.8,0.2-0.9,0.1
							C108.8,443.9,108.9,443.3,109.1,443.2"/>
						<path class="st30" d="M110,444.1c0.2-0.2,0.7-0.3,0.9-0.1c0.3,0.3,0,0.8-0.1,0.9s-0.8,0.2-0.9,0.1S109.9,444.3,110,444.1"/>
						<path class="st30" d="M108.1,442.2c0.2-0.2,0.8-0.4,0.9-0.2s0,0.8-0.2,1s-0.7,0.3-0.9,0.1S108,442.4,108.1,442.2"/>
						<path class="st30" d="M106.2,440.4c0.2-0.2,0.6-0.2,0.7-0.1s0.1,0.6-0.1,0.7c-0.2,0.2-0.7,0.3-0.8,0.2
							C105.9,441.1,106.1,440.5,106.2,440.4"/>
						<path class="st30" d="M107.3,440.4c0.1-0.1,1,0.1,0.9,0.3c-0.1,0.1-0.7,0.4-0.9,0.2S107.2,440.5,107.3,440.4"/>
						<path class="st30" d="M108.5,441c0.2-0.2,1-0.2,1.1,0.3c0,0.2-1,0.7-1.2,0.5C108.2,441.6,108.3,441.1,108.5,441"/>
						<path class="st30" d="M107.2,441.3c0.2-0.2,0.7-0.3,0.9-0.1s0,0.8-0.1,0.9c-0.2,0.2-0.7,0.3-0.9,0.1
							C106.9,442,107,441.4,107.2,441.3"/>
					</g>
					<g>
						<path class="st51" d="M104.7,440c0.6,0.6,0.7,1,0.6,1.1c-0.2,0.2-0.5,0-1.1-0.6s-1-1.6-1-1.6S104.2,439.4,104.7,440"/>
						<path class="st51" d="M105.4,442.1c0.5-0.4,0.6-0.8,0.4-1s-0.5-0.2-1.1,0.2c-0.5,0.4-0.8,1.3-0.8,1.3S104.8,442.5,105.4,442.1
							"/>
						<path class="st51" d="M104.7,440.9c0.7,0,1.1,0.2,1.1,0.4c0.1,0.2-0.2,0.4-1,0.4c-0.7,0-1.7-0.4-1.7-0.4
							S103.9,440.9,104.7,440.9"/>
						<path class="st51" d="M104.6,440.3c0.8,0.2,1.1,0.5,1.1,0.7s-0.3,0.3-1.1,0.1c-0.8-0.2-1.7-0.9-1.7-0.9
							S103.8,440.1,104.6,440.3"/>
						<path class="st51" d="M106.3,441.2c-0.4,0.5-0.8,0.6-1,0.4s-0.2-0.5,0.2-1.1c0.4-0.5,1.3-0.8,1.3-0.8S106.7,440.7,106.3,441.2
							"/>
						<path class="st51" d="M105.1,440.5c0,0.7,0.2,1.1,0.4,1.1c0.2,0.1,0.4-0.2,0.4-1s-0.4-1.7-0.4-1.7S105.1,439.8,105.1,440.5"/>
						<path class="st51" d="M104.5,440.4c0.2,0.8,0.5,1.1,0.7,1.1s0.3-0.3,0.1-1.1s-0.9-1.7-0.9-1.7S104.3,439.7,104.5,440.4"/>
					</g>
					<path class="st37" d="M106,440.7c-0.2-0.4-0.5-0.6-0.5-0.6s-0.1,0.3-0.2,0.6c-0.3-0.1-0.9-0.4-0.9-0.4s0.3,0.6,0.4,0.9
						c-0.3,0.1-0.6,0.2-0.6,0.2s0.3,0.4,0.6,0.5c-0.3,0.4-0.4,0.9-0.4,0.9s1-0.3,1.6-0.9s0.9-1.6,0.9-1.6S106.4,440.4,106,440.7"/>
				</g>
			</g>
		</g>
	</g>
</g>
<g id="nav">
	<g id="navBackground">
		<rect y="1" class="st21" width="365" height="20"/>
		<rect y="0" class="st0" width="365" height="20"/>
	</g>
	<path id="searchText" class="st52" d="M141.1,12.4c1.1,0,2.2-0.5,3.1-1.2c0.1-0.1,0.4-0.4,0.4-0.4c0.9-0.9,2.1-1.5,3.4-1.5
		s2.5,0.6,3.4,1.5l0.4,0.4c0.8,0.7,2,1.2,3.1,1.2s2.2-0.5,3.1-1.2c0.1-0.1,0.4-0.4,0.4-0.4c0.9-0.9,2.1-1.5,3.4-1.5s2.5,0.6,3.4,1.5
		l0.4,0.4c0.8,0.7,2,1.2,3.1,1.2s2.2-0.5,3.1-1.2c0.1-0.1,0.4-0.4,0.4-0.4c0.9-0.9,2.1-1.5,3.4-1.5s2.5,0.6,3.4,1.5l0.4,0.4
		c0.8,0.7,2,1.2,3.1,1.2s2.2-0.5,3.1-1.2c0.1-0.1,0.4-0.4,0.4-0.4c0.9-0.9,2.1-1.5,3.4-1.5s2.5,0.6,3.4,1.5l0.4,0.4
		c0.8,0.7,2,1.2,3.1,1.2s2.2-0.5,3.1-1.2c0.1-0.1,0.4-0.4,0.4-0.4c0.9-0.9,2.1-1.5,3.4-1.5s2.5,0.6,3.4,1.5l0.4,0.4
		c0.8,0.7,2,1.2,3.1,1.2s2.2-0.5,3.1-1.2c0.1-0.1,0.4-0.4,0.4-0.4c0.9-0.9,2.1-1.5,3.4-1.5"/>
	<g id="caretGroup">
		<rect id="caretLeft" x="102.5" y="6" class="st0" width="80.7" height="9"/>
		<rect id="caretRight" x="181.9" y="6" class="st0" width="80.6" height="9"/>
		<rect id="caret" x="181.5" y="6" class="st13" width="2" height="9"/>
	</g>
	<g id="navIconsAndTextBorder">
		<g>
			<path class="st12" d="M10.5,3.1c-4.1,0-7.3,3.3-7.3,7.3c0,4.1,3.3,7.3,7.3,7.3c4.1,0,7.3-3.3,7.3-7.3C17.8,6.3,14.5,3.1,10.5,3.1
				z M14.8,9.1l-1.2,3.7c-0.2,0.6-0.2,0.9-0.3,1.2h-1.8c-0.1-0.3-0.1-0.6-0.3-1.2l-0.6-2.1c-0.1-0.2-0.1-0.3-0.1-0.4
				c-0.1,0.2-0.1,0.3-0.1,0.4l-0.6,2.1c-0.1,0.5-0.3,1-0.3,1.2H7.6c-0.1-0.4-0.1-0.7-0.3-1.2L6.2,9.1C6.1,8.7,5.9,8.3,5.7,7.7h2.2
				C8,8.1,8,8.5,8.1,8.9l0.4,1.8c0.1,0.2,0.1,0.4,0.1,0.5c0.1-0.4,0.1-0.4,0.1-0.5l0.6-1.9c0.3-1,0.3-1,0.3-1.2h1.5
				c0,0.2,0.2,0.7,0.3,1.2l0.6,2c0,0.1,0.1,0.3,0.1,0.4c0-0.2,0-0.2,0.1-0.4L12.8,9C12.9,8.5,13,8,13,7.7h2.2
				C15.1,8.1,14.9,8.6,14.8,9.1z"/>
		</g>
		<path class="st53" d="M255.4,16.9H103.3c-3.5,0-6.4-2.9-6.4-6.4l0,0c0-3.5,2.9-6.4,6.4-6.4h152.1c3.5,0,6.4,2.9,6.4,6.4l0,0
			C261.8,14,258.9,16.9,255.4,16.9z"/>
	</g>
</g>
<g id="cursor">
	<g id="textCursor">
		<path d="M372.9,62.8H372c-0.2,0-0.3-0.1-0.3-0.3s0.1-0.3,0.3-0.3h0.9v-3.8c0-0.5-0.4-0.9-0.9-0.9h-0.6c-0.2,0-0.3-0.1-0.3-0.3
			s0.1-0.3,0.3-0.3h0.6c0.5,0,0.9,0.2,1.2,0.6c0.3-0.4,0.7-0.6,1.2-0.6h0.6c0.2,0,0.3,0.1,0.3,0.3s-0.1,0.3-0.3,0.3h-0.6
			c-0.5,0-0.9,0.4-0.9,0.9v3.8h0.9c0.2,0,0.3,0.1,0.3,0.3s-0.1,0.3-0.3,0.3h-0.9v3.8c0,0.5,0.4,0.9,0.9,0.9h0.6
			c0.2,0,0.3,0.1,0.3,0.3c0,0.2-0.1,0.3-0.3,0.3h-0.6c-0.5,0-0.9-0.2-1.2-0.6c-0.3,0.4-0.7,0.6-1.2,0.6h-0.6c-0.2,0-0.3-0.1-0.3-0.3
			c0-0.2,0.1-0.3,0.3-0.3h0.6c0.5,0,0.9-0.4,0.9-0.9V62.8z"/>
	</g>
	<g id="pointerCursor" class="visible" transform="translate(-555.1899,-112.08836)">
		<path id="path4392" d="M926.4,168.9v1.3v9.9l2.5-2.5l1.2,2.9l1.8-0.9l-1.2-3h3.5L926.4,168.9z"/>
		<path id="rect56" class="st0" d="M926.9,170.2v8.6l2.2-2.2l1.3,3.1l0.9-0.4l-1.3-3.2h3L926.9,170.2z"/>
	</g>
	<g id="handCursor_00000088099976689479265270000008675330886248132270_">
		<g>
			<g>
				<defs>
					<rect id="SVGID_00000152969999054504733380000004450130005810411169_" x="371.2" y="56.8" width="8.7" height="11.2"/>
				</defs>
				<clipPath id="SVGID_00000039103918495219191350000015013827980758677428_">
					<use xlink:href="#SVGID_00000152969999054504733380000004450130005810411169_"  style="overflow:visible;"/>
				</clipPath>
				<g style="clip-path:url(#SVGID_00000039103918495219191350000015013827980758677428_);">
					<g>
						<g>
							<defs>
								<rect id="SVGID_00000081608430387072583660000006430612673932174483_" x="371.2" y="56.8" width="8.7" height="11.2"/>
							</defs>
							<clipPath id="SVGID_00000044159894869090475290000004123021586404966334_">
								<use xlink:href="#SVGID_00000081608430387072583660000006430612673932174483_"  style="overflow:visible;"/>
							</clipPath>
							<g style="clip-path:url(#SVGID_00000044159894869090475290000004123021586404966334_);">
								<g>
									<defs>
										<rect id="SVGID_00000158724472962594828470000000127005180894543278_" x="371.2" y="56.8" width="8.7" height="11.2"/>
									</defs>
									<clipPath id="SVGID_00000016041003186521353640000008711691960539006136_">
										<use xlink:href="#SVGID_00000158724472962594828470000000127005180894543278_"  style="overflow:visible;"/>
									</clipPath>
									
										<g transform="matrix(1 0 0 1 0 -3.814697e-06)" style="clip-path:url(#SVGID_00000016041003186521353640000008711691960539006136_);">
										
											<use xlink:href="#hand"  width="699.9" height="897.6" id="handCursor" x="-350" y="-448.8" transform="matrix(1.249265e-02 0 0 -1.249265e-02 375.5604 62.4054)" style="overflow:visible;"/>
									</g>
								</g>
							</g>
						</g>
					</g>
				</g>
			</g>
		</g>
	</g>
</g>
<script>
<![CDATA[
window.onload = function() {
	const cursor = document.getElementById("cursor");
	const pointerCursor = document.getElementById("pointerCursor");
	const textCursor = document.getElementById("textCursor");
	const handCursor = document.getElementById("hand");
	const caret = document.getElementById("caret");
	const caretGroup = document.getElementById("caretGroup");
	const caretLeft = document.getElementById("caretLeft");
	const shadow = document.getElementById("shadow");
	const searchPage = document.getElementById("searchPage");
	const foodButtonInSearchBackground = document.getElementById("foodButtonInSearchBackground");
	const foodButtonInSearch = document.getElementById("foodButtonInSearch");
	const animatedGraph = document.getElementById("animatedGraph");
	const foodLine = document.getElementById("foodLine");
	const numbers = document.getElementById("numbers");
	const rightButtonHover = document.getElementById("rightButtonHover");
	const rightButton = document.getElementById("rightButton");

	function resetStage () {
		cursor.classList.remove("toTmrwButton");
		handCursor.classList.remove("visible", "click");
		rightButton.classList.remove("click");
		animatedGraph.classList.remove("reduced");
		numbers.classList.remove("reduced");
		foodLine.classList.remove("visible");
		rightButtonHover.classList.remove("visible");
		foodButtonInSearch.classList.remove("click");
		foodButtonInSearchBackground.classList.remove("click", "hover");
		pointerCursor.classList.add("visible");

		window.setTimeout(firstScene, 2500);
	}

	function fourthScene() {
		const phase1StartTime = 2000;
		const phase2StartTime = phase1StartTime + 1330;
		const phase3StartTime = phase2StartTime + 1500;
		const phase4StartTime = phase3StartTime + 900;
		const phase5StartTime = phase4StartTime + 800;
		const phase6StartTime = phase5StartTime + 700;
		caretGroup.classList.remove("caretTyping");
		caretLeft.classList.remove("hidden");
		searchPage.classList.remove("visible");
		cursor.classList.remove("toFoodButton");

		window.setTimeout(() => {
			shadow.classList.remove("visible");
		}, 500);

		window.setTimeout(() => {
			foodLine.classList.add("visible");
		}, phase1StartTime);

		window.setTimeout(() => {
			animatedGraph.classList.add("reduced");
			numbers.classList.add("reduced");
		}, phase2StartTime);

		window.setTimeout(() => {
			cursor.classList.add("toTmrwButton");
		}, phase3StartTime);

		window.setTimeout(() => {
			pointerCursor.classList.remove("visible");
			handCursor.classList.add("visible");
			rightButtonHover.classList.add("visible");
		}, phase4StartTime);

		window.setTimeout(() => {
			rightButton.classList.add("click");
		}, phase5StartTime);

		window.setTimeout(resetStage, phase6StartTime);
	}

	function thirdScene() {
		const phase1StartTime = 2000;
		const phase2StartTime = phase1StartTime + 600;
		const phase3StartTime = phase2StartTime + 1000;
		const phase4StartTime = phase3StartTime + 1000;
		shadow.classList.add("visible");
		searchPage.classList.add("visible");

		window.setTimeout(() => {
			textCursor.classList.remove("visible");
			pointerCursor.classList.add("visible");
			cursor.classList.remove("toTextInput");
			cursor.classList.add("toFoodButton");
		}, phase1StartTime);

		window.setTimeout(() => {
			pointerCursor.classList.remove("visible");
			handCursor.classList.add("visible");
			foodButtonInSearchBackground.classList.add("hover");
		}, phase2StartTime);

		window.setTimeout(() => {
			handCursor.classList.add("click");
			foodButtonInSearch.classList.add("click");
			foodButtonInSearchBackground.classList.add("click");
		}, phase3StartTime);

		window.setTimeout(fourthScene, phase4StartTime);
	}

	function secondScene() {
		const startTime = 3000;
		const typingAnimationTime = 1000;
		window.setTimeout(() => {
			caret.classList.remove("blinking");
			caret.classList.add("visible");
			caretGroup.classList.add("caretTyping");
		}, 3000);

		window.setTimeout(() => {
			caretLeft.classList.add("hidden");
		}, (startTime + typingAnimationTime / 2));

		window.setTimeout(() => {
			caret.classList.remove("visible");

			thirdScene();
		}, (startTime + typingAnimationTime));
	}
	
	function firstScene() {
		cursor.classList.add("toTextInput");

		window.setTimeout(() => {
			pointerCursor.classList.remove("visible");
			textCursor.classList.add("visible");
		}, 1200 * .6);

		window.setTimeout(() => {
			caret.classList.add("blinking");
			secondScene();
		}, 1200);
	}

	firstScene();
};
]]>
</script>
</svg>
